<svg width="95" height="95" viewBox="0 0 95 95" fill="none" xmlns="http://www.w3.org/2000/svg">
<path fill-rule="evenodd" clip-rule="evenodd" d="M27.5082 31.7057C27.516 31.6388 27.5199 31.5708 27.5199 31.5019C27.5199 30.5299 26.732 29.7419 25.76 29.7419C24.8691 29.7419 24.1328 30.4039 24.0161 31.2628H24.012C24.0122 31.2714 24.0125 31.28 24.0128 31.2886C24.0043 31.3585 24 31.4297 24 31.5019C24 31.6279 24.0132 31.7507 24.0384 31.8692C24.4165 38.6348 27.558 44.6434 32.326 48.7381C33.3682 49.6331 34.4455 50.5056 35.5249 51.3799L35.525 51.38L35.5251 51.3801C39.3781 54.5006 43.2584 57.6434 45.6706 61.9128C46.4848 63.3624 48.5266 63.3624 49.3471 61.9128C51.7293 57.6935 55.5391 54.4914 59.3072 51.3245L59.3072 51.3245L59.3073 51.3244L59.3074 51.3243C60.4593 50.3561 61.6074 49.3912 62.7096 48.4015C67.2457 44.3283 70.2203 38.4836 70.601 31.924C70.6282 31.8046 70.6426 31.6802 70.6426 31.5525C70.6426 31.478 70.6377 31.4046 70.6282 31.3327L70.6305 31.2628H70.6175C70.4803 30.4809 69.7979 29.8867 68.9768 29.8867C68.1556 29.8867 67.4732 30.4809 67.3361 31.2628H67.2988C67.0228 39.4365 62.0925 46.3963 55.152 49.4212C55.0913 49.4651 55.0232 49.4992 54.9501 49.5216C54.9075 49.5347 54.8636 49.5484 54.8185 49.5629C54.5765 49.6631 54.3323 49.7584 54.0858 49.849C53.4547 50.1498 52.7593 50.6503 52.2402 51.5675L48.8223 57.5288C48.2482 58.5276 46.8196 58.5276 46.25 57.5288L42.881 51.6571C42.2628 50.7268 41.9643 50.3911 41.2095 50.0275C33.5816 47.4645 27.9768 40.2893 27.5082 31.7057Z" fill="#686868"/>
<path fill-rule="evenodd" clip-rule="evenodd" d="M48.3342 34.3958C49.8372 33.9833 50.9415 32.6072 50.9415 30.9732C50.9415 29.0132 49.3526 27.4243 47.3926 27.4243C45.4326 27.4243 43.8438 29.0132 43.8438 30.9732C43.8438 32.5543 44.8777 33.8939 46.3063 34.3527V47.8484C46.3063 48.4084 46.7603 48.8624 47.3203 48.8624C47.8803 48.8624 48.3342 48.4084 48.3342 47.8484V34.3958Z" fill="#F47500"/>
<path d="M68.8411 28.8165C69.8047 28.7491 70.538 27.9116 70.3987 26.9557C69.6413 21.7613 67.1491 16.9548 63.3008 13.3347C59.0264 9.31378 53.3932 7.0521 47.525 7.00089C41.6567 6.94968 35.9849 9.1127 31.641 13.0584C27.7301 16.6108 25.1544 21.3731 24.3065 26.5535C24.1505 27.5068 24.869 28.357 25.8314 28.4411C26.7937 28.5253 27.6342 27.8112 27.8028 26.86C28.5658 22.5569 30.734 18.6082 33.9931 15.6479C37.6854 12.294 42.5065 10.4554 47.4944 10.4989C52.4824 10.5425 57.2707 12.4649 60.9039 15.8827C64.1108 18.8995 66.2098 22.8855 66.8975 27.2012C67.0495 28.1552 67.8774 28.8839 68.8411 28.8165Z" fill="#F47500"/>
<path d="M61.1769 24.5138C61.7941 24.1857 62.0323 23.4163 61.6589 22.8254C60.276 20.6378 58.4052 18.7924 56.1866 17.4382C53.607 15.8636 50.6519 15.0106 47.63 14.9684C44.6081 14.9262 41.6303 15.6964 39.0077 17.1983C36.7521 18.4901 34.8305 20.2825 33.3872 22.4306C32.9973 23.0108 33.214 23.7866 33.8218 24.1319C34.4296 24.4771 35.1977 24.2605 35.5952 23.6855C36.8093 21.9291 38.4036 20.4613 40.2657 19.3949C42.4949 18.1182 45.026 17.4636 47.5946 17.4995C50.1632 17.5354 52.6751 18.2604 54.8677 19.5988C56.6993 20.7168 58.252 22.2285 59.4167 24.0181C59.798 24.604 60.5597 24.842 61.1769 24.5138Z" fill="#686868"/>
<path d="M55.9578 27.9022C56.3446 27.6966 56.4939 27.2144 56.2598 26.8442C55.3934 25.4734 54.2211 24.3171 52.8309 23.4685C51.2145 22.4819 49.3628 21.9474 47.4692 21.921C45.5757 21.8945 43.7098 22.3771 42.0664 23.3182C40.6531 24.1277 39.449 25.2508 38.5445 26.5968C38.3003 26.9604 38.4361 27.4465 38.8169 27.6628C39.1977 27.8792 39.679 27.7434 39.9281 27.3831C40.6889 26.2826 41.6879 25.3628 42.8547 24.6946C44.2515 23.8946 45.8376 23.4845 47.4471 23.5069C49.0566 23.5294 50.6305 23.9837 52.0045 24.8224C53.1522 25.5229 54.1251 26.4702 54.8549 27.5916C55.0938 27.9587 55.5711 28.1078 55.9578 27.9022Z" fill="#686868"/>
<path d="M10.1 88.8C8.9 88.8 8.11667 88.2 7.75 87C7.38333 85.6333 7.2 83.5 7.2 80.6C7.2 74.7333 8.06667 69.3 9.8 64.3C10 63.6667 10.25 63.05 10.55 62.45C11.4167 60.8167 12.3167 60 13.25 60C14.3833 60 15.1333 60.5167 15.5 61.55L15.55 61.95C15.55 62.45 15.3333 62.7 14.9 62.7H14.8C14.3 62.7 13.9333 62.9 13.7 63.3C13.2 64.1333 12.65 65.6333 12.05 67.8C11.0167 71.6 10.4667 76.15 10.4 81.45C10.4 82.4167 10.4667 82.9 10.6 82.9C10.7333 82.9 10.9167 82.5667 11.15 81.9C13.1167 76.4667 15.15 72.1833 17.25 69.05C17.65 68.4167 18.1667 68.1 18.8 68.1C19.8 68.1 20.5333 68.5667 21 69.5C21.2333 70.4333 21.4333 71.9667 21.6 74.1C21.9333 77.7667 22.1833 79.6 22.35 79.6C22.4833 79.6 22.6167 79.2167 22.75 78.45C23.4167 75.5167 24.1 72.6 24.8 69.7C26.1 64.3333 27.1667 60.6833 28 58.75C28.2667 58.2167 28.65 57.95 29.15 57.95C29.4167 57.95 29.7 58.0667 30 58.3C30.3 58.5 30.45 58.7667 30.45 59.1L30.4 59.5C27.7333 67.4 25.55 76.5667 23.85 87C23.7833 87.5 23.6333 87.8667 23.4 88.1C23.1667 88.3333 22.8 88.45 22.3 88.45C21.4 88.45 20.8333 88 20.6 87.1C19.7667 83.3333 19.1333 79.1833 18.7 74.65L18.45 72.4C17.85 73.3333 17.4 74.1667 17.1 74.9L16.8 75.55C16.1 77.05 15.4667 78.5667 14.9 80.1C13.8667 82.8 13.1833 84.6333 12.85 85.6C12.85 85.7333 12.5833 86.3667 12.05 87.5C11.55 88.3667 10.9 88.8 10.1 88.8ZM30.3914 77.75C31.1247 77.0167 31.8081 76.05 32.4414 74.85C33.2747 73.5833 33.6914 72.6833 33.6914 72.15C33.6914 71.7833 33.5747 71.6 33.3414 71.6H33.1414C32.9747 71.6333 32.7747 71.8 32.5414 72.1C32.0414 72.8 31.5747 73.7 31.1414 74.8C30.7081 75.9 30.4581 76.8833 30.3914 77.75ZM38.7414 69.8C38.1081 72.2 37.7414 73.6333 37.6414 74.1C37.2747 75.9667 37.0581 77.4333 36.9914 78.5C36.9914 79.1333 37.0414 79.7667 37.1414 80.4C37.1414 81.0667 36.9581 81.4 36.5914 81.4C35.3581 81.4 34.7414 80.5833 34.7414 78.95C34.7414 77.7167 34.8414 76.3667 35.0414 74.9C34.9414 75.0333 34.8081 75.25 34.6414 75.55L33.9414 76.6C32.9747 78.2667 32.1914 79.3167 31.5914 79.75C31.1247 80.0833 30.6247 80.25 30.0914 80.25C29.7247 80.25 29.3247 80.15 28.8914 79.95C28.1247 79.55 27.7414 78.65 27.7414 77.25C27.7414 75.8833 28.1581 74.3833 28.9914 72.75C29.5247 71.7167 30.1581 70.85 30.8914 70.15C31.7247 69.3833 32.5247 69 33.2914 69C33.9914 69 34.6414 69.3667 35.2414 70.1L36.2914 68.5C36.6581 68 36.9747 67.75 37.2414 67.75C37.4081 67.75 37.6081 67.8 37.8414 67.9C38.4747 68.1667 38.7914 68.6 38.7914 69.2C38.7914 69.3333 38.7747 69.5333 38.7414 69.8ZM43.0371 78.3C43.3038 78 43.8871 76.9833 44.7871 75.25C45.3538 74.15 45.6371 73.0833 45.6371 72.05C45.6371 71.25 45.4704 70.45 45.1371 69.65C43.6704 71.9167 42.9371 74.2667 42.9371 76.7C42.9371 77.2333 42.9704 77.7667 43.0371 78.3ZM42.6871 80.85C41.6204 80.85 40.8204 80.2833 40.2871 79.15C40.1204 78.5833 40.0371 78 40.0371 77.4C40.0371 74.9 40.7371 72.2833 42.1371 69.55C42.5371 68.7833 43.0371 68.1 43.6371 67.5C44.1038 67.0333 44.5538 66.8 44.9871 66.8C45.3538 66.8 45.7371 67 46.1371 67.4C47.4371 68.5667 48.0871 69.9 48.0871 71.4L48.1371 72.35C48.1371 72.9833 48.0371 73.5833 47.8371 74.15C47.3038 76.0833 46.4038 77.8667 45.1371 79.5C44.4371 80.4 43.6204 80.85 42.6871 80.85Z" fill="#686868"/>
<path d="M52.4668 88.8C51.8001 88.8 51.1835 88.65 50.6168 88.35C50.0835 88.05 49.8168 87.6667 49.8168 87.2C49.8168 86.8333 50.0501 86.65 50.5168 86.65H50.7168C51.4501 86.65 52.1001 86.45 52.6668 86.05C53.2335 85.6833 53.7835 85.2333 54.3168 84.7C55.9168 83.1 57.1335 81.5333 57.9668 80C58.3668 79.3 58.5668 78.6667 58.5668 78.1C58.5668 76.2333 56.5001 75.3 52.3668 75.3C52.1001 75.2667 51.7168 75.25 51.2168 75.25C48.7501 74.9833 47.5168 74.1 47.5168 72.6C47.5168 71.9667 47.7668 71.1833 48.2668 70.25C50.9335 65.9833 54.2168 62.2833 58.1168 59.15C59.7168 57.85 61.1501 57.2 62.4168 57.2C63.6835 57.2 64.6168 57.7833 65.2168 58.95C65.2835 59.15 65.3501 59.3333 65.4168 59.5C65.4835 59.6667 65.5168 59.8667 65.5168 60.1C65.5168 60.3333 65.4668 60.5667 65.3668 60.8C65.2668 61 65.1168 61.15 64.9168 61.25C64.7501 61.35 64.6001 61.4 64.4668 61.4L64.1168 61.3L63.5668 60.95C63.0668 60.55 62.7335 60.35 62.5668 60.35C62.3335 60.35 61.9835 60.5167 61.5168 60.85C58.2168 63.1167 55.0168 66.4667 51.9168 70.9C51.8501 70.9333 51.8001 71 51.7668 71.1C51.3668 71.5667 51.0835 72.1 50.9168 72.7C53.2835 72.9 54.7835 73.0667 55.4168 73.2C57.4168 73.6 59.0168 74.45 60.2168 75.75C61.1501 76.75 61.6168 77.8 61.6168 78.9C61.6168 79.6667 61.3835 80.4667 60.9168 81.3C59.4835 83.9333 57.5335 86.1167 55.0668 87.85C54.1668 88.4833 53.3001 88.8 52.4668 88.8ZM65.9164 80.95C64.6164 80.95 63.9664 80.1 63.9664 78.4C63.9664 76.3333 64.2497 73.9333 64.8164 71.2C65.2164 68.9667 65.7997 67.85 66.5664 67.85C66.7664 67.85 66.9664 67.8833 67.1664 67.95C67.8664 68.2167 68.2164 68.6667 68.2164 69.3L68.0664 69.95C67.5997 71.05 67.2497 72.1833 67.0164 73.35C66.6164 75.2833 66.3831 76.8 66.3164 77.9C66.3164 78.5667 66.3664 79.2333 66.4664 79.9C66.4664 80.6 66.2831 80.95 65.9164 80.95ZM68.6664 66.75C67.7331 66.75 67.2497 66.3 67.2164 65.4C67.5831 63.3333 68.0997 62.3 68.7664 62.3C68.9997 62.3 69.2497 62.3833 69.5164 62.55C70.1164 62.85 70.4164 63.2333 70.4164 63.7C70.4164 63.8333 70.3831 63.95 70.3164 64.05C69.9164 64.6167 69.6331 65.2167 69.4664 65.85C69.2997 66.45 69.0331 66.75 68.6664 66.75ZM87.6281 84.55C87.2615 84.55 86.9115 84.4167 86.5781 84.15C86.2781 83.8833 86.0615 83.55 85.9281 83.15C85.8281 82.75 85.7781 82.35 85.7781 81.95C85.7781 81.6833 85.7948 81.4333 85.8281 81.2C86.1281 78.3333 86.6948 75.0167 87.5281 71.25C87.5948 71.05 87.6448 70.8333 87.6781 70.6L87.7281 70.3C87.2948 70.5333 86.9781 70.85 86.7781 71.25C85.5781 72.85 83.7281 75.5167 81.2281 79.25C80.9281 79.75 80.6115 80.2333 80.2781 80.7L80.1281 80.9C79.7281 81.4333 79.2281 81.7167 78.6281 81.75C78.1281 81.75 77.6448 81.55 77.1781 81.15C76.5781 80.7167 76.2781 79.8667 76.2781 78.6C76.2781 77.1667 76.4615 75.5333 76.8281 73.7L76.8781 73.35C76.8781 73.25 76.8448 73.2 76.7781 73.2C76.6448 73.2 76.4615 73.3833 76.2281 73.75C75.0615 75.3833 73.8781 77.4667 72.6781 80C72.2781 80.7333 71.7615 81.1 71.1281 81.1C70.7615 81.1 70.3781 80.95 69.9781 80.65C69.5781 80.3167 69.3781 79.8833 69.3781 79.35V79.25C69.6781 76.5167 70.1615 74.25 70.8281 72.45C71.0615 71.55 71.5281 71.1 72.2281 71.1C73.0281 71.1 73.4281 71.5167 73.4281 72.35C73.4281 72.6167 73.3948 72.95 73.3281 73.35L74.0781 72.4C75.6115 70.5667 76.6281 69.4167 77.1281 68.95C77.5948 68.6167 78.0448 68.45 78.4781 68.45C79.3448 68.45 79.9281 68.9333 80.2281 69.9C80.2948 70.1333 80.3281 70.3833 80.3281 70.65C80.3281 71.0167 80.0615 72.7167 79.5281 75.75C79.4281 76.0167 79.3781 76.3333 79.3781 76.7L79.4281 77.2C79.6948 77.1 79.8948 76.8833 80.0281 76.55C80.1948 76.2167 81.2781 74.65 83.2781 71.85C84.9781 69.4167 86.6448 67.4333 88.2781 65.9C88.7115 65.4 89.1448 65.15 89.5781 65.15C89.7448 65.15 89.9281 65.2 90.1281 65.3C90.9615 65.7333 91.3781 66.4 91.3781 67.3C91.3781 67.8667 91.2448 68.55 90.9781 69.35C90.0115 72.5833 89.1615 76.45 88.4281 80.95C88.3281 81.45 88.2781 82.0167 88.2781 82.65C88.2781 83.0167 88.3281 83.3833 88.4281 83.75L88.4781 83.95C88.4781 84.35 88.1948 84.55 87.6281 84.55Z" fill="#F47500"/>
</svg>
