<svg width="149" height="151" viewBox="0 0 149 151" fill="none" xmlns="http://www.w3.org/2000/svg">
<path fill-rule="evenodd" clip-rule="evenodd" d="M43.1383 51.1294C43.1505 51.0248 43.1566 50.9186 43.1566 50.8109C43.1566 49.2922 41.9211 48.0609 40.3968 48.0609C38.9996 48.0609 37.845 49.0953 37.662 50.4373H37.6555C37.6558 50.4506 37.6563 50.464 37.6568 50.4775C37.6435 50.5869 37.6367 50.6981 37.6367 50.8109C37.6367 51.0076 37.6574 51.1997 37.6969 51.3847C38.2899 61.9561 43.2164 71.3443 50.6936 77.7423C52.328 79.1409 54.0174 80.5042 55.7101 81.8701C61.7524 86.7461 67.8379 91.657 71.6207 98.3279C72.8975 100.593 76.0995 100.593 77.3862 98.3279C81.122 91.7353 87.0965 86.732 93.0057 81.7837C94.8121 80.2709 96.6129 78.7629 98.3414 77.2165C105.455 70.8522 110.12 61.7198 110.717 51.4704C110.759 51.2837 110.782 51.0895 110.782 50.89C110.782 50.7736 110.774 50.6589 110.759 50.5465L110.763 50.4373H110.743C110.527 49.2156 109.457 48.2872 108.17 48.2872C106.882 48.2872 105.812 49.2156 105.597 50.4373H105.538C105.105 63.2087 97.3736 74.0833 86.4895 78.8098C86.3943 78.8784 86.2875 78.9315 86.1729 78.9667C86.1061 78.987 86.0372 79.0086 85.9665 79.0312C85.587 79.1876 85.204 79.3367 84.8175 79.4781C83.8278 79.9481 82.7372 80.7303 81.9232 82.1634L76.5632 91.4779C75.6629 93.0386 73.4226 93.0386 72.5293 91.4779L67.246 82.3034C66.2766 80.8498 65.8084 80.3253 64.6248 79.757C52.6626 75.7523 43.8732 64.5412 43.1383 51.1294Z" fill="#686868"/>
<path fill-rule="evenodd" clip-rule="evenodd" d="M75.7998 55.3316C78.1569 54.6869 79.8886 52.5367 79.8886 49.9836C79.8886 46.9211 77.3969 44.4386 74.3232 44.4386C71.2495 44.4386 68.7578 46.9211 68.7578 49.9836C68.7578 52.4541 70.3793 54.5472 72.6197 55.2642V76.3511C72.6197 77.2261 73.3316 77.9355 74.2098 77.9355C75.088 77.9355 75.7998 77.2261 75.7998 76.3511V55.3316Z" fill="#F47500"/>
<path d="M107.957 46.6145C109.468 46.5092 110.618 45.2006 110.399 43.7071C109.212 35.5907 105.303 28.0807 99.2686 22.4243C92.5655 16.1415 83.7313 12.6076 74.5287 12.5276C65.3262 12.4476 56.4316 15.8273 49.6195 21.9926C43.4864 27.5432 39.4472 34.9842 38.1175 43.0786C37.8727 44.5681 38.9996 45.8965 40.5087 46.0281C42.0178 46.1596 43.336 45.0437 43.6004 43.5575C44.797 36.834 48.1971 30.664 53.3079 26.0386C59.0984 20.7981 66.6587 17.9253 74.4809 17.9934C82.3031 18.0614 89.812 21.0651 95.5098 26.4054C100.539 31.1192 103.83 37.3473 104.909 44.0906C105.147 45.5812 106.446 46.7198 107.957 46.6145Z" fill="#F47500"/>
<path d="M95.9369 39.8916C96.9046 39.3788 97.2783 38.1766 96.6926 37.2533C94.5241 33.8352 91.5903 30.9519 88.1109 28.8358C84.0656 26.3755 79.4314 25.0429 74.6924 24.9769C69.9534 24.911 65.2838 26.1143 61.171 28.461C57.6338 30.4794 54.6203 33.2801 52.3568 36.6366C51.7455 37.5432 52.0853 38.7552 53.0385 39.2947C53.9915 39.8341 55.196 39.4957 55.8194 38.5972C57.7235 35.8529 60.2237 33.5594 63.1438 31.8932C66.6397 29.8983 70.609 28.8757 74.637 28.9316C78.6651 28.9877 82.6042 30.1205 86.0428 32.2118C88.9151 33.9587 91.3501 36.3207 93.1765 39.1171C93.7743 40.0324 94.969 40.4043 95.9369 39.8916Z" fill="#686868"/>
<path d="M87.753 45.1859C88.3594 44.8646 88.5935 44.1113 88.2266 43.5327C86.8677 41.3909 85.0293 39.5841 82.8492 38.2582C80.3143 36.7166 77.4105 35.8815 74.4411 35.8402C71.4715 35.7988 68.5454 36.5529 65.9684 38.0234C63.7519 39.2882 61.8636 41.0431 60.4453 43.1463C60.0622 43.7143 60.2752 44.4738 60.8723 44.812C61.4697 45.1499 62.2244 44.9379 62.6149 44.3749C63.8082 42.6552 65.3748 41.2182 67.2046 40.174C69.3951 38.9241 71.8822 38.2832 74.4063 38.3184C76.9303 38.3534 79.3987 39.0632 81.5532 40.3737C83.3531 41.4682 84.8789 42.9484 86.0232 44.7006C86.3979 45.2741 87.1465 45.5071 87.753 45.1859Z" fill="#686868"/>
<path d="M15.8388 140.339C13.957 140.339 12.7285 139.401 12.1535 137.526C11.5785 135.391 11.291 132.057 11.291 127.526C11.291 118.36 12.6501 109.87 15.3684 102.057C15.682 101.068 16.074 100.104 16.5445 99.1669C17.9037 96.6148 19.3151 95.3387 20.7787 95.3387C22.5559 95.3387 23.7321 96.1461 24.3071 97.7606L24.3855 98.3856C24.3855 99.1669 24.0457 99.5575 23.3662 99.5575H23.2094C22.4253 99.5575 21.8502 99.87 21.4844 100.495C20.7003 101.797 19.8377 104.141 18.8968 107.526C17.2764 113.464 16.4139 120.573 16.3093 128.854C16.3093 130.365 16.4139 131.12 16.6229 131.12C16.832 131.12 17.1196 130.599 17.4854 129.557C20.5696 121.068 23.7583 114.375 27.0515 109.479C27.6788 108.49 28.4891 107.995 29.4822 107.995C31.0504 107.995 32.2004 108.724 32.9323 110.182C33.2981 111.641 33.6118 114.037 33.8732 117.37C34.3959 123.099 34.7879 125.964 35.0493 125.964C35.2584 125.964 35.4676 125.365 35.6766 124.167C36.7221 119.584 37.7937 115.026 38.8914 110.495C40.9301 102.11 42.6029 96.4066 43.9097 93.3856C44.3279 92.5523 44.929 92.1356 45.7131 92.1356C46.1314 92.1356 46.5757 92.318 47.0461 92.6825C47.5166 92.995 47.7518 93.4117 47.7518 93.9325L47.6734 94.5575C43.4915 106.901 40.0676 121.224 37.4017 137.526C37.2971 138.307 37.0618 138.88 36.696 139.245C36.3301 139.61 35.755 139.792 34.9709 139.792C33.5595 139.792 32.6708 139.089 32.305 137.682C30.9982 131.797 30.0049 125.313 29.3254 118.229L28.9333 114.714C27.9924 116.172 27.2867 117.474 26.8163 118.62L26.3458 119.636C25.248 121.979 24.2549 124.349 23.3662 126.745C21.7458 130.964 20.6741 133.828 20.1514 135.339C20.1514 135.547 19.7331 136.537 18.8968 138.307C18.1127 139.662 17.0934 140.339 15.8388 140.339ZM47.6599 123.073C48.8099 121.927 49.8816 120.417 50.8747 118.542C52.1815 116.563 52.835 115.157 52.835 114.323C52.835 113.75 52.652 113.464 52.2861 113.464H51.9725C51.7111 113.516 51.3974 113.776 51.0316 114.245C50.2475 115.339 49.5156 116.745 48.8361 118.464C48.1566 120.182 47.7645 121.719 47.6599 123.073ZM60.7544 110.651C59.7613 114.401 59.1862 116.641 59.0294 117.37C58.4543 120.287 58.1147 122.578 58.0101 124.245C58.0101 125.235 58.0885 126.224 58.2453 127.214C58.2453 128.255 57.9579 128.776 57.3828 128.776C55.4487 128.776 54.4816 127.5 54.4816 124.948C54.4816 123.021 54.6384 120.912 54.9521 118.62C54.7953 118.828 54.5862 119.167 54.3248 119.636L53.227 121.276C51.7111 123.88 50.4827 125.521 49.5418 126.198C48.8099 126.719 48.0258 126.979 47.1894 126.979C46.6144 126.979 45.9871 126.823 45.3076 126.511C44.1053 125.886 43.5042 124.479 43.5042 122.292C43.5042 120.157 44.1576 117.813 45.4644 115.261C46.3007 113.646 47.294 112.292 48.444 111.198C49.7508 110 51.0054 109.401 52.2077 109.401C53.3055 109.401 54.3248 109.974 55.2657 111.12L56.9123 108.62C57.4874 107.839 57.9839 107.448 58.4021 107.448C58.6635 107.448 58.9772 107.526 59.343 107.682C60.3362 108.099 60.8328 108.776 60.8328 109.714C60.8328 109.922 60.8067 110.235 60.7544 110.651ZM67.491 123.932C67.9092 123.464 68.824 121.875 70.2353 119.167C71.124 117.448 71.5683 115.782 71.5683 114.167C71.5683 112.917 71.3069 111.667 70.7842 110.417C68.4841 113.959 67.3342 117.63 67.3342 121.432C67.3342 122.266 67.3864 123.099 67.491 123.932ZM66.9421 127.917C65.2693 127.917 64.0147 127.032 63.1784 125.261C62.917 124.375 62.7864 123.464 62.7864 122.526C62.7864 118.62 63.8841 114.532 66.0796 110.261C66.7069 109.063 67.491 107.995 68.4319 107.057C69.1638 106.328 69.8695 105.964 70.549 105.964C71.124 105.964 71.7251 106.276 72.3524 106.901C74.3911 108.724 75.4104 110.807 75.4104 113.151L75.4888 114.636C75.4888 115.625 75.332 116.563 75.0184 117.448C74.182 120.469 72.7707 123.255 70.7842 125.807C69.6865 127.214 68.4057 127.917 66.9421 127.917Z" fill="#686868"/>
<path d="M82.2792 140.339C81.2337 140.339 80.2667 140.104 79.378 139.636C78.5417 139.167 78.1235 138.568 78.1235 137.839C78.1235 137.266 78.4893 136.979 79.2212 136.979H79.5349C80.6848 136.979 81.7042 136.667 82.5929 136.042C83.4816 135.469 84.3441 134.766 85.1804 133.932C87.6895 131.432 89.5976 128.985 90.9044 126.589C91.5316 125.495 91.8453 124.505 91.8453 123.62C91.8453 120.703 88.6043 119.245 82.1224 119.245C81.7042 119.193 81.1031 119.167 80.319 119.167C76.4507 118.75 74.5166 117.37 74.5166 115.026C74.5166 114.037 74.9087 112.813 75.6928 111.354C79.8747 104.688 85.0236 98.9066 91.1396 94.0106C93.6487 91.9794 95.8964 90.9637 97.8829 90.9637C99.8693 90.9637 101.333 91.8753 102.274 93.6981C102.378 94.0106 102.483 94.2972 102.587 94.5575C102.692 94.818 102.744 95.1305 102.744 95.495C102.744 95.8597 102.666 96.2242 102.509 96.5887C102.352 96.9012 102.117 97.1356 101.803 97.2919C101.542 97.4481 101.307 97.5262 101.098 97.5262L100.549 97.37L99.6863 96.8231C98.9022 96.1981 98.3795 95.8856 98.1181 95.8856C97.7522 95.8856 97.2034 96.1461 96.4715 96.6669C91.2964 100.209 86.2782 105.443 81.4167 112.37C81.3121 112.422 81.2337 112.526 81.1815 112.682C80.5542 113.412 80.1099 114.245 79.8485 115.182C83.56 115.495 85.9123 115.755 86.9054 115.964C90.0418 116.589 92.551 117.917 94.4328 119.948C95.8964 121.511 96.6283 123.151 96.6283 124.87C96.6283 126.068 96.2625 127.318 95.5306 128.62C93.2829 132.735 90.2249 136.146 86.3566 138.854C84.9452 139.844 83.586 140.339 82.2792 140.339ZM103.371 128.073C101.332 128.073 100.313 126.745 100.313 124.089C100.313 120.86 100.757 117.11 101.646 112.839C102.273 109.349 103.188 107.604 104.39 107.604C104.704 107.604 105.018 107.657 105.331 107.761C106.429 108.177 106.978 108.88 106.978 109.87L106.743 110.886C106.011 112.604 105.462 114.375 105.096 116.198C104.469 119.219 104.103 121.589 103.998 123.307C103.998 124.349 104.077 125.391 104.233 126.432C104.233 127.526 103.946 128.073 103.371 128.073ZM107.684 105.886C106.22 105.886 105.462 105.182 105.41 103.776C105.985 100.547 106.795 98.9325 107.84 98.9325C108.206 98.9325 108.598 99.0628 109.017 99.3231C109.957 99.7919 110.428 100.391 110.428 101.12C110.428 101.328 110.376 101.511 110.271 101.667C109.644 102.552 109.2 103.49 108.938 104.479C108.677 105.417 108.259 105.886 107.684 105.886ZM137.419 133.698C136.844 133.698 136.296 133.49 135.773 133.073C135.302 132.657 134.963 132.136 134.753 131.511C134.597 130.886 134.518 130.261 134.518 129.636C134.518 129.219 134.544 128.828 134.597 128.464C135.067 123.985 135.956 118.802 137.263 112.917C137.367 112.604 137.446 112.266 137.498 111.901L137.576 111.432C136.897 111.797 136.4 112.292 136.086 112.917C134.205 115.417 131.303 119.584 127.383 125.417C126.912 126.198 126.416 126.953 125.893 127.682L125.658 127.995C125.031 128.828 124.246 129.271 123.306 129.323C122.521 129.323 121.764 129.011 121.032 128.386C120.091 127.709 119.62 126.38 119.62 124.401C119.62 122.162 119.908 119.61 120.483 116.745L120.561 116.198C120.561 116.042 120.509 115.964 120.404 115.964C120.195 115.964 119.908 116.25 119.542 116.823C117.712 119.375 115.857 122.63 113.975 126.589C113.347 127.735 112.537 128.307 111.544 128.307C110.969 128.307 110.368 128.073 109.741 127.604C109.113 127.084 108.8 126.407 108.8 125.573V125.417C109.27 121.146 110.028 117.604 111.074 114.792C111.44 113.386 112.171 112.682 113.269 112.682C114.524 112.682 115.151 113.334 115.151 114.636C115.151 115.052 115.099 115.573 114.994 116.198L116.17 114.714C118.575 111.849 120.169 110.052 120.953 109.323C121.685 108.802 122.391 108.542 123.07 108.542C124.429 108.542 125.344 109.297 125.815 110.807C125.919 111.172 125.971 111.563 125.971 111.979C125.971 112.552 125.553 115.209 124.717 119.948C124.56 120.365 124.482 120.86 124.482 121.432L124.56 122.214C124.978 122.057 125.292 121.719 125.501 121.198C125.762 120.677 127.461 118.229 130.598 113.854C133.264 110.052 135.877 106.953 138.439 104.557C139.118 103.776 139.798 103.386 140.477 103.386C140.739 103.386 141.026 103.464 141.34 103.62C142.647 104.297 143.3 105.339 143.3 106.745C143.3 107.63 143.091 108.698 142.673 109.948C141.157 115 139.824 121.042 138.674 128.073C138.517 128.854 138.439 129.74 138.439 130.729C138.439 131.302 138.517 131.875 138.674 132.448L138.752 132.761C138.752 133.386 138.308 133.698 137.419 133.698Z" fill="#F47500"/>
</svg>
