<svg width="16" height="16" viewBox="0 0 16 16" fill="none" xmlns="http://www.w3.org/2000/svg">
<rect width="16" height="16" rx="3" fill="#FFF1E4"/>
<path fill-rule="evenodd" clip-rule="evenodd" d="M4.08859 7.34521C4.09012 7.33192 4.09091 7.3184 4.09091 7.3047C4.09091 7.11151 3.93429 6.9549 3.7411 6.9549C3.56402 6.9549 3.41767 7.08648 3.39449 7.2572H3.39369C3.39375 7.25887 3.3938 7.26053 3.39385 7.2622C3.39216 7.27613 3.3913 7.29032 3.3913 7.3047C3.3913 7.32977 3.39393 7.35422 3.39894 7.37779C3.50717 9.31371 4.75373 10.9378 6.46445 11.5639C6.64012 11.6282 6.79296 11.7464 6.88498 11.9092L7.69852 13.3491C7.86034 13.6372 8.26615 13.6372 8.42924 13.3491L9.26081 11.8763C9.35037 11.7176 9.49774 11.6012 9.66763 11.5355C11.3355 10.8904 12.5433 9.29065 12.6536 7.38853C12.659 7.36481 12.6619 7.34013 12.6619 7.31478C12.6619 7.3 12.6609 7.28544 12.659 7.27118C12.6592 7.26652 12.6593 7.26186 12.6595 7.2572H12.6569C12.6296 7.10179 12.494 6.98369 12.3308 6.98369C12.1676 6.98369 12.0319 7.10179 12.0047 7.2572H11.9973C11.9424 8.88175 10.9625 10.265 9.58306 10.8663C9.57098 10.875 9.55742 10.8818 9.54288 10.8863C9.53435 10.8889 9.52556 10.8916 9.51653 10.8945C9.46855 10.9144 9.42011 10.9333 9.37122 10.9513C9.24576 11.011 9.10748 11.1105 9.00426 11.2929L8.32492 12.4778C8.21082 12.6763 7.92688 12.6763 7.81365 12.4778L7.14405 11.3107C7.02115 11.1258 6.96183 11.0591 6.81173 10.9868C5.29567 10.4773 4.18172 9.05124 4.08859 7.34521Z" fill="#686868"/>
<path d="M8.74636 7.19963C8.74636 7.5892 8.43055 7.905 8.04099 7.905C7.65142 7.905 7.33562 7.5892 7.33562 7.19963C7.33562 6.81007 7.65142 6.49426 8.04099 6.49426C8.43055 6.49426 8.74636 6.81007 8.74636 7.19963Z" fill="#F47500"/>
<path d="M7.82506 7.15645C7.82506 7.04514 7.91529 6.95491 8.02659 6.95491C8.1379 6.95491 8.22813 7.04514 8.22813 7.15645V10.5537C8.22813 10.665 8.1379 10.7553 8.02659 10.7553C7.91529 10.7553 7.82506 10.665 7.82506 10.5537V7.15645Z" fill="#F47500"/>
<path d="M12.3038 6.77095C12.4953 6.75756 12.6411 6.5911 12.6134 6.40111C12.4628 5.36868 11.9675 4.41335 11.2026 3.69383C10.353 2.89464 9.2334 2.44511 8.06705 2.43493C6.90069 2.42475 5.77337 2.85467 4.90998 3.63892C4.13267 4.34498 3.62073 5.29152 3.4522 6.32116C3.42118 6.51064 3.564 6.67961 3.75527 6.69635C3.94654 6.71308 4.1136 6.57114 4.14712 6.38208C4.29876 5.52682 4.72971 4.74197 5.37747 4.15358C6.11136 3.48697 7.06958 3.12154 8.06098 3.1302C9.05238 3.13885 10.0041 3.52095 10.7262 4.20026C11.3636 4.79986 11.7808 5.59211 11.9175 6.4499C11.9477 6.6395 12.1123 6.78434 12.3038 6.77095Z" fill="#F47500"/>
<path d="M10.7804 5.9158C10.903 5.85057 10.9504 5.69765 10.8762 5.58021C10.6013 5.1454 10.2295 4.77863 9.78851 4.50946C9.2758 4.19649 8.68845 4.02696 8.08782 4.01858C7.4872 4.01019 6.89534 4.16325 6.37409 4.46178C5.92577 4.71853 5.54383 5.07478 5.25696 5.50175C5.17947 5.61707 5.22254 5.77125 5.34334 5.83988C5.46415 5.9085 5.61681 5.86544 5.69581 5.75116C5.93714 5.40206 6.25402 5.11033 6.62413 4.89836C7.06719 4.64462 7.57027 4.51451 8.0808 4.52164C8.59133 4.52877 9.09058 4.67287 9.52639 4.93889C9.89043 5.1611 10.199 5.46157 10.4305 5.81727C10.5063 5.93372 10.6577 5.98102 10.7804 5.9158Z" fill="#686868"/>
<path d="M9.74311 6.58923C9.81998 6.54836 9.84966 6.45254 9.80314 6.37895C9.63092 6.10649 9.39792 5.87667 9.1216 5.708C8.80033 5.5119 8.43229 5.40567 8.05593 5.40041C7.67958 5.39516 7.30871 5.49107 6.98209 5.67813C6.70117 5.83901 6.46185 6.06224 6.28209 6.32978C6.23354 6.40204 6.26052 6.49866 6.33622 6.54166C6.41191 6.58466 6.50757 6.55768 6.55708 6.48606C6.70829 6.26732 6.90686 6.08451 7.13877 5.9517C7.4164 5.7927 7.73163 5.71117 8.05153 5.71564C8.37144 5.72011 8.68427 5.8104 8.95735 5.97709C9.18546 6.11633 9.37884 6.30461 9.52389 6.52749C9.57138 6.60046 9.66625 6.6301 9.74311 6.58923Z" fill="#686868"/>
</svg>
