<svg width="30" height="31" viewBox="0 0 30 31" fill="none" xmlns="http://www.w3.org/2000/svg">
<path fill-rule="evenodd" clip-rule="evenodd" d="M15.8834 20.134C15.649 20.3684 15.3312 20.5 14.9997 20.5C14.6682 20.5 14.3504 20.3684 14.1159 20.134L7.0447 13.0628C6.92531 12.9475 6.83008 12.8095 6.76457 12.657C6.69906 12.5045 6.66458 12.3405 6.66313 12.1745C6.66169 12.0085 6.69332 11.8439 6.75617 11.6903C6.81902 11.5367 6.91184 11.3971 7.0292 11.2798C7.14657 11.1624 7.28613 11.0696 7.43975 11.0067C7.59337 10.9439 7.75797 10.9123 7.92395 10.9137C8.08992 10.9151 8.25395 10.9496 8.40645 11.0151C8.55896 11.0807 8.69689 11.1759 8.8122 11.2953L14.9997 17.4828L21.1872 11.2953C21.4229 11.0676 21.7387 10.9416 22.0664 10.9444C22.3942 10.9473 22.7077 11.0787 22.9395 11.3105C23.1712 11.5423 23.3027 11.8558 23.3055 12.1835C23.3084 12.5113 23.1824 12.827 22.9547 13.0628L15.8834 20.134Z" fill="black"/>
</svg>
