<svg width="30" height="31" viewBox="0 0 30 31" fill="none" xmlns="http://www.w3.org/2000/svg">
<path fill-rule="evenodd" clip-rule="evenodd" d="M14.1166 10.867C14.351 10.6326 14.6688 10.501 15.0003 10.501C15.3318 10.501 15.6496 10.6326 15.8841 10.867L22.9553 17.9382C23.0747 18.0535 23.1699 18.1914 23.2354 18.344C23.3009 18.4965 23.3354 18.6605 23.3369 18.8265C23.3383 18.9924 23.3067 19.157 23.2438 19.3107C23.181 19.4643 23.0882 19.6038 22.9708 19.7212C22.8534 19.8386 22.7139 19.9314 22.5602 19.9942C22.4066 20.0571 22.242 20.0887 22.0761 20.0873C21.9101 20.0858 21.7461 20.0513 21.5935 19.9858C21.441 19.9203 21.3031 19.8251 21.1878 19.7057L15.0003 13.5182L8.8128 19.7057C8.57705 19.9334 8.2613 20.0594 7.93355 20.0566C7.60581 20.0537 7.29229 19.9222 7.06053 19.6905C6.82877 19.4587 6.69731 19.1452 6.69446 18.8175C6.69161 18.4897 6.8176 18.174 7.0453 17.9382L14.1166 10.867Z" fill="black"/>
</svg>
