<svg width="42" height="12" viewBox="0 0 42 12" fill="none" xmlns="http://www.w3.org/2000/svg">
<path d="M8.84315 0.835066H1.82501C0.911046 0.835066 0.170898 1.58175 0.170898 2.50342V9.58096C0.170898 10.502 0.911046 11.249 1.82501 11.249H8.84315C9.75692 11.249 10.4967 10.502 10.4967 9.58096V2.50342C10.4967 1.58175 9.75692 0.835066 8.84315 0.835066Z" fill="#1677FF"/>
<path d="M2.9611 8.84325C1.35469 8.84325 0.879755 7.56711 1.67365 6.8689C1.93857 6.63295 2.42267 6.51775 2.68077 6.4919C3.63502 6.3968 4.51836 6.76395 5.56079 7.27712C4.82805 8.24112 3.89477 8.84325 2.9611 8.84325ZM8.67257 7.37388C8.25938 7.2343 7.70495 7.02087 7.08742 6.79555C7.45827 6.14534 7.7545 5.4049 7.9492 4.60018H5.91379V3.86081H8.40716V3.44811H5.91379V2.21557H4.89624C4.71773 2.21557 4.71773 2.39329 4.71773 2.39329V3.44811H2.19598V3.86081H4.71773V4.60018H2.6357V5.01278H6.67374C6.52597 5.52624 6.32756 6.00829 6.0921 6.44626C4.78182 6.01024 3.38365 5.65685 2.50529 5.87437C1.94355 6.01395 1.58176 6.26307 1.36922 6.52409C0.393704 7.72113 1.09337 9.53931 3.15355 9.53931C4.37166 9.53931 5.54508 8.85437 6.45456 7.72561C7.81108 8.38324 10.4968 9.51239 10.4968 9.51239V7.90314C10.4968 7.90314 10.1595 7.87602 8.67257 7.37388Z" fill="white"/>
<path d="M22.5923 2.35936C22.5923 2.89808 22.986 3.26074 23.5351 3.26074C24.0843 3.26074 24.478 2.89808 24.478 2.35936C24.478 1.83097 24.0843 1.45788 23.5351 1.45788C22.986 1.45788 22.5923 1.83097 22.5923 2.35936Z" fill="#1677FF"/>
<path d="M19.9604 9.24963H21.5975V1.68604H19.9604V9.24963Z" fill="white"/>
<path d="M14.7076 6.62807L15.6815 3.26074H15.723L16.6452 6.62807H14.7076ZM17.0907 1.9449H14.8941L12.4385 9.24951H13.9513L14.3657 7.81965H16.9664L17.36 9.24951H19.2976L17.0907 1.9449Z" fill="white"/>
<path d="M22.7168 9.24959H24.3538V3.69604H22.7168V9.24959Z" fill="white"/>
<path d="M41.4605 3.70637L41.4708 3.69603H39.927L38.9531 7.07371H38.9013L37.7823 3.69603H35.9482L38.1553 9.27035L37.2332 10.9695V11.011H38.6734L41.4605 3.70637Z" fill="white"/>
<path d="M27.39 8.2964C27.2036 8.2964 27.0273 8.27572 26.8306 8.21349V5.20881C27.1725 4.97051 27.4522 4.85649 27.8045 4.85649C28.4158 4.85649 28.9028 5.34351 28.9028 6.3796C28.9028 7.70578 28.1879 8.2964 27.39 8.2964ZM28.4262 3.5821C27.8252 3.5821 27.359 3.81006 26.8306 4.24519V3.69603H25.1934V11.011H26.8306V9.19778C27.1414 9.28069 27.4315 9.32215 27.7838 9.32215C29.2447 9.32215 30.5606 8.2446 30.5606 6.32781C30.5606 4.60785 29.6072 3.5821 28.4262 3.5821" fill="white"/>
<path d="M33.9906 7.90254C33.5554 8.14084 33.3066 8.23409 33.0167 8.23409C32.6229 8.23409 32.3743 7.97511 32.3743 7.56066C32.3743 7.40518 32.4053 7.24979 32.5296 7.12553C32.7265 6.92859 33.11 6.78354 33.9906 6.57636V7.90254ZM35.6276 7.86109V5.54028C35.6276 4.27613 34.8817 3.58203 33.5659 3.58203C32.7265 3.58203 32.1464 3.72697 31.0895 4.04818L31.3795 5.32266C32.3431 4.88743 32.768 4.70093 33.2136 4.70093C33.7524 4.70093 33.9906 5.08427 33.9906 5.67488V5.71634C32.1151 6.06866 31.535 6.2655 31.1723 6.62816C30.903 6.89757 30.7891 7.28091 30.7891 7.72638C30.7891 8.79359 31.618 9.36353 32.3951 9.36353C32.9753 9.36353 33.4414 9.14591 34.0736 8.66922L34.1875 9.2495H35.8246L35.6276 7.86109Z" fill="white"/>
</svg>
