<svg width="43" height="9" viewBox="0 0 43 9" fill="none" xmlns="http://www.w3.org/2000/svg">
<path fill-rule="evenodd" clip-rule="evenodd" d="M3.41524 4.67649C3.3887 4.69936 3.35571 4.71353 3.32077 4.71704C3.28583 4.72056 3.25065 4.71325 3.22005 4.69611C2.9459 4.46933 2.89619 4.36466 2.74706 4.14878C2.29308 4.60816 1.97215 4.74554 1.38512 4.74554C0.689899 4.74554 0.148926 4.31887 0.148926 3.46553C0.148926 2.799 0.514448 2.34616 1.02618 2.12374C1.47431 1.92821 2.10009 1.8926 2.57892 1.83881V1.73269C2.57892 1.53716 2.59427 1.30602 2.47877 1.13666C2.37788 0.98547 2.18635 0.923686 2.01528 0.923686C1.7002 0.923686 1.41948 1.08432 1.35076 1.4165C1.34653 1.45419 1.3299 1.48943 1.30347 1.51677C1.27703 1.5441 1.24226 1.562 1.20455 1.56769L0.41064 1.48119C0.391036 1.4784 0.372207 1.47168 0.355295 1.46143C0.338383 1.45119 0.323741 1.43763 0.312256 1.42159C0.300771 1.40555 0.292683 1.38736 0.288484 1.36812C0.284284 1.34887 0.28406 1.32898 0.287824 1.30965C0.471317 0.344376 1.34857 0.0529031 2.13444 0.0529031C2.53652 0.0529031 3.06141 0.159025 3.37722 0.461401C3.77856 0.835009 3.74274 1.33364 3.74274 1.87515V3.1537C3.74274 3.53894 3.90357 3.70758 4.0549 3.91473C4.10754 3.98742 4.11923 4.07828 4.0549 4.13279C3.88603 4.27308 3.5863 4.53184 3.42181 4.67794L3.41524 4.67649ZM2.58258 2.6747C2.58258 2.99452 2.58989 3.26128 2.42832 3.54694C2.29674 3.77808 2.08839 3.92055 1.85592 3.92055C1.53937 3.92055 1.35442 3.68068 1.35442 3.32452C1.35442 2.62527 1.98531 2.49807 2.58258 2.49807V2.67616V2.6747Z" fill="white"/>
<path fill-rule="evenodd" clip-rule="evenodd" d="M5.67709 4.6445H4.85174C4.81469 4.64258 4.77956 4.62752 4.75274 4.60205C4.72591 4.57657 4.70916 4.54237 4.70553 4.50566V0.289854C4.70687 0.249235 4.72414 0.210749 4.75365 0.18263C4.78316 0.154511 4.82257 0.138992 4.86344 0.139393H5.63323C5.67132 0.141483 5.7073 0.15747 5.73428 0.184293C5.76126 0.211116 5.77734 0.24689 5.77944 0.284766V0.835002H5.79479C5.9951 0.302211 6.37305 0.0543502 6.88186 0.0543502C7.39066 0.0543502 7.72183 0.302211 7.95357 0.835002C8.02955 0.633621 8.15805 0.455963 8.32588 0.320254C8.49371 0.184545 8.69483 0.0956703 8.9086 0.0627479C9.12238 0.0298256 9.34111 0.0540405 9.54237 0.132909C9.74363 0.211777 9.92016 0.342458 10.0539 0.511548C10.3163 0.866257 10.2622 1.38378 10.2622 1.83299V4.49258C10.2618 4.51298 10.2574 4.5331 10.2492 4.55178C10.2409 4.57047 10.2291 4.58736 10.2143 4.60148C10.1995 4.61559 10.182 4.62666 10.1629 4.63404C10.1438 4.64143 10.1233 4.64498 10.1028 4.6445H9.27749C9.23837 4.64247 9.20148 4.62572 9.17433 4.59764C9.14718 4.56956 9.13178 4.53226 9.13128 4.49331V2.25893C9.13128 2.08157 9.14663 1.63819 9.10789 1.46955C9.04648 1.18608 8.86152 1.10612 8.62247 1.10612C8.51527 1.10938 8.41139 1.14382 8.32368 1.20519C8.23597 1.26656 8.16829 1.35215 8.12902 1.45138C8.04422 1.66508 8.05153 2.01906 8.05153 2.25893V4.49258C8.05115 4.51291 8.04674 4.53297 8.03856 4.55161C8.03038 4.57025 8.01859 4.58711 8.00386 4.60121C7.98913 4.61532 7.97175 4.6264 7.95271 4.63383C7.93367 4.64126 7.91334 4.64488 7.89289 4.6445H7.06535C7.02628 4.6423 6.9895 4.62549 6.96238 4.59745C6.93526 4.56941 6.91981 4.53221 6.91914 4.49331V2.25893C6.91914 1.78865 6.99224 1.09595 6.40741 1.09595C5.82257 1.09595 5.83719 1.76975 5.83719 2.25893V4.49258C5.83681 4.51298 5.83238 4.5331 5.82416 4.55178C5.81593 4.57047 5.80408 4.58736 5.78927 4.60148C5.77446 4.61559 5.75699 4.62666 5.73786 4.63404C5.71874 4.64143 5.6976 4.64498 5.67709 4.6445Z" fill="white"/>
<path fill-rule="evenodd" clip-rule="evenodd" d="M14.8788 3.91183C14.7274 3.70467 14.5666 3.53604 14.5666 3.15153V1.87225C14.5666 1.33001 14.6053 0.832104 14.2011 0.458496C13.8845 0.156121 13.3596 0.0499984 12.9583 0.0499984C12.1724 0.0499984 11.2952 0.340744 11.1109 1.30675C11.1071 1.32618 11.1072 1.3462 11.1114 1.36557C11.1156 1.38494 11.1238 1.40326 11.1353 1.41939C11.1469 1.43552 11.1617 1.44914 11.1787 1.45939C11.1958 1.46964 11.2148 1.47632 11.2345 1.47901L12.035 1.56478C12.0727 1.55898 12.1074 1.54105 12.1338 1.51373C12.1602 1.48642 12.1768 1.45124 12.1812 1.4136C12.2506 1.08142 12.5299 0.920781 12.845 0.920781C13.0153 0.920781 13.2105 0.983292 13.3085 1.13448C13.4247 1.30311 13.4094 1.53425 13.4094 1.72978V1.83372C12.9305 1.88678 12.304 1.9224 11.8566 2.11793C11.339 2.34035 10.9757 2.79318 10.9757 3.46044C10.9757 4.31306 11.5167 4.73973 12.2119 4.73973C12.7967 4.73973 13.1199 4.60235 13.5731 4.14297C13.7237 4.36103 13.7727 4.46352 14.0468 4.6903C14.0774 4.70732 14.1125 4.71464 14.1474 4.71126C14.1823 4.70788 14.2153 4.69397 14.242 4.6714C14.4065 4.52603 14.7062 4.26654 14.8751 4.12625C14.946 4.0761 14.9343 3.98742 14.8788 3.91183ZM13.2558 3.54331C13.125 3.77372 12.9159 3.91619 12.6842 3.91619C12.3676 3.91619 12.1827 3.67632 12.1827 3.32089C12.1827 2.62092 12.8136 2.49444 13.4108 2.49444V2.6718C13.4108 2.99234 13.4167 3.25838 13.2558 3.54331Z" fill="white"/>
<path fill-rule="evenodd" clip-rule="evenodd" d="M15.5776 0.877891V0.275321C15.5767 0.254995 15.58 0.234697 15.5875 0.215739C15.5949 0.196782 15.6063 0.179587 15.6208 0.165268C15.6353 0.150948 15.6527 0.139823 15.6719 0.132612C15.691 0.125401 15.7115 0.122265 15.7319 0.123406H18.4463C18.4667 0.122718 18.487 0.126149 18.5061 0.133494C18.5251 0.140838 18.5425 0.151943 18.5571 0.166139C18.5717 0.180334 18.5833 0.197327 18.5911 0.216092C18.599 0.234856 18.6029 0.255004 18.6027 0.275321V0.792121C18.6027 0.878618 18.5296 0.992008 18.3987 1.17082L16.9922 3.16679C17.5142 3.15443 18.0661 3.2322 18.5406 3.49751C18.5836 3.52033 18.6198 3.55407 18.6455 3.59531C18.6712 3.63654 18.6854 3.6838 18.6868 3.73229V4.37774C18.6868 4.46642 18.5895 4.56891 18.4865 4.51584C18.0427 4.28907 17.5508 4.1712 17.0519 4.17208C16.553 4.17297 16.0615 4.29259 15.6186 4.52093C15.5243 4.57109 15.4256 4.47005 15.4256 4.38138V3.76718C15.4169 3.62239 15.4521 3.47836 15.5265 3.35359L17.156 1.02762H15.7348C15.7143 1.02841 15.6939 1.02506 15.6748 1.01776C15.6556 1.01046 15.6382 0.999369 15.6235 0.985163C15.6088 0.970957 15.5971 0.95393 15.5893 0.935115C15.5814 0.9163 15.5774 0.89609 15.5776 0.87571" fill="white"/>
<path fill-rule="evenodd" clip-rule="evenodd" d="M20.9464 0.908408C20.3375 0.908408 20.2987 1.73267 20.2987 2.24729C20.2987 2.76191 20.2914 3.86093 20.9384 3.86093C21.5854 3.86093 21.6095 2.97416 21.6095 2.43337C21.6095 2.07866 21.5941 1.65272 21.4859 1.31618C21.3931 1.02543 21.2081 0.908408 20.9464 0.908408ZM20.9384 0.0478016C22.1643 0.0478016 22.8274 1.09449 22.8274 2.42465C22.8274 3.71047 22.0964 4.73026 20.9384 4.73026C19.7358 4.73026 19.0808 3.68357 19.0808 2.38031C19.0808 1.07704 19.7438 0.0478016 20.9384 0.0478016Z" fill="white"/>
<path fill-rule="evenodd" clip-rule="evenodd" d="M24.4255 4.63577H23.6023C23.5632 4.63375 23.5263 4.61699 23.4991 4.58891C23.472 4.56083 23.4566 4.52353 23.4561 4.48458V0.268774C23.4603 0.230168 23.4789 0.194543 23.5083 0.168963C23.5377 0.143382 23.5757 0.129715 23.6147 0.13067H24.3809C24.4148 0.131753 24.4475 0.143846 24.4739 0.165105C24.5003 0.186365 24.519 0.215624 24.5271 0.248422V0.89315H24.5432C24.7742 0.316747 25.098 0.0419922 25.6682 0.0419922C26.0382 0.0419922 26.3993 0.175008 26.6325 0.53844C26.8482 0.875705 26.8482 1.44339 26.8482 1.85116V4.50348C26.8423 4.5409 26.823 4.57494 26.7938 4.59927C26.7647 4.6236 26.7276 4.63657 26.6895 4.63577H25.859C25.823 4.63424 25.7885 4.62015 25.7618 4.59598C25.7351 4.5718 25.7178 4.53907 25.7128 4.50348V2.21459C25.7128 1.75376 25.7669 1.07923 25.196 1.07923C25.0922 1.084 24.9919 1.11832 24.9072 1.17811C24.8224 1.2379 24.7567 1.32064 24.7179 1.41649C24.6024 1.6738 24.587 1.93111 24.587 2.21604V4.48458C24.5855 4.52572 24.5678 4.56461 24.5377 4.59288C24.5076 4.62116 24.4669 4.63656 24.4255 4.63577Z" fill="white"/>
<path fill-rule="evenodd" clip-rule="evenodd" d="M31.1452 0.771041C30.7255 0.774337 30.3183 0.91339 29.9851 1.16718V3.56583C30.3545 3.84204 30.7354 3.9799 31.1277 3.97942C31.9241 3.97942 32.3222 3.44639 32.3222 2.38032C32.3222 1.31425 31.9299 0.77831 31.1452 0.771041ZM29.9244 0.659105C30.1319 0.477198 30.3689 0.33169 30.6255 0.228801C30.8678 0.132755 31.1263 0.083421 31.3872 0.0834283C31.6465 0.0786292 31.9038 0.130229 32.1409 0.234616C32.3644 0.336493 32.5602 0.490007 32.7119 0.682364C32.8771 0.895464 32.9992 1.13834 33.0715 1.3976C33.1592 1.70486 33.2016 2.02316 33.1973 2.34252C33.2013 2.66868 33.1559 2.99359 33.0628 3.30634C32.9848 3.57174 32.8571 3.82008 32.6863 4.0383C32.5277 4.23669 32.3263 4.39715 32.0971 4.50785C31.8561 4.61904 31.5928 4.67399 31.3273 4.66849C30.831 4.67665 30.3506 4.49444 29.9858 4.15968V6.17746C29.9892 6.20087 29.9871 6.22476 29.9796 6.24722C29.9722 6.26968 29.9595 6.29009 29.9427 6.30682C29.9258 6.32355 29.9053 6.33615 29.8827 6.34359C29.8601 6.35104 29.8361 6.35314 29.8126 6.34972H29.3008C29.2773 6.35314 29.2532 6.35104 29.2307 6.34359C29.2081 6.33615 29.1875 6.32355 29.1707 6.30682C29.1539 6.29009 29.1412 6.26968 29.1337 6.24722C29.1262 6.22476 29.1241 6.20087 29.1276 6.17746V0.383623C29.1243 0.360238 29.1265 0.336414 29.134 0.314026C29.1416 0.291638 29.1543 0.271296 29.1711 0.2546C29.1878 0.237904 29.2083 0.225309 29.2308 0.217805C29.2533 0.210302 29.2773 0.208094 29.3008 0.211356H29.6817C29.7063 0.209069 29.7311 0.211762 29.7546 0.219274C29.7781 0.226786 29.7999 0.23896 29.8185 0.255061C29.8372 0.271162 29.8524 0.290856 29.8631 0.312953C29.8739 0.335049 29.8801 0.35909 29.8813 0.383623L29.9244 0.659105Z" fill="white"/>
<path fill-rule="evenodd" clip-rule="evenodd" d="M35.3568 4.04484C35.5608 4.04227 35.7629 4.00465 35.9541 3.93363C36.1686 3.85518 36.37 3.7449 36.5513 3.60654V2.72776C36.4013 2.69269 36.2495 2.66551 36.0966 2.64636C35.9432 2.62634 35.7886 2.61615 35.6339 2.61583C34.9808 2.61583 34.6545 2.86563 34.655 3.36522C34.655 3.58328 34.7157 3.75119 34.837 3.86894C34.9584 3.98669 35.1316 4.04533 35.3568 4.04484ZM34.3436 0.961485L34.2785 0.983291C34.255 0.991582 34.2303 0.996001 34.2054 0.996375C34.1323 0.996375 34.0928 0.944767 34.0928 0.840826V0.61041C34.0873 0.552206 34.0995 0.493692 34.1279 0.442504C34.1653 0.400846 34.2129 0.369541 34.2661 0.351646C34.4859 0.26281 34.7153 0.199163 34.9496 0.161935C35.2181 0.113598 35.4904 0.0892724 35.7633 0.0892484C36.3115 0.0892484 36.7156 0.200943 36.9753 0.424333C37.2351 0.647722 37.3652 0.994921 37.3657 1.46593V4.40682C37.369 4.43021 37.3668 4.45403 37.3592 4.47642C37.3517 4.49881 37.339 4.51915 37.3222 4.53584C37.3054 4.55254 37.285 4.56513 37.2624 4.57264C37.2399 4.58014 37.216 4.58235 37.1924 4.57909H36.8196C36.7962 4.58138 36.7726 4.57891 36.7502 4.57184C36.7278 4.56476 36.707 4.55321 36.6892 4.53791C36.6715 4.52261 36.657 4.50387 36.6467 4.48283C36.6365 4.4618 36.6306 4.4389 36.6295 4.41554L36.5857 4.13134C36.3818 4.307 36.1491 4.44664 35.8978 4.5442C35.6594 4.63918 35.4052 4.68851 35.1484 4.68957C34.7332 4.68957 34.4042 4.57327 34.1615 4.34068C33.9188 4.10808 33.797 3.79674 33.796 3.40666C33.796 2.98798 33.9461 2.65362 34.2463 2.40358C34.5465 2.15354 34.9506 2.02876 35.4584 2.02925C35.8265 2.03488 36.1926 2.08367 36.5491 2.17462V1.60912C36.5491 1.29899 36.4799 1.08093 36.3415 0.954943C36.2031 0.828954 35.9606 0.765716 35.6141 0.765232C35.1833 0.769279 34.7553 0.835384 34.3436 0.961485Z" fill="white"/>
<path fill-rule="evenodd" clip-rule="evenodd" d="M40.1831 5.34155C40.0267 5.73745 39.8461 6.02165 39.6414 6.19416C39.4367 6.36667 39.1687 6.45268 38.8373 6.4522C38.6708 6.4544 38.5048 6.43411 38.3438 6.39187C38.2897 6.38038 38.2409 6.35152 38.2049 6.30973C38.1721 6.25716 38.157 6.19554 38.1618 6.13383V5.90996C38.1618 5.80093 38.2049 5.74641 38.2919 5.74641C38.3357 5.7484 38.3792 5.75399 38.4221 5.76313C38.4991 5.77636 38.5771 5.7822 38.6553 5.78058C38.839 5.7921 39.0208 5.73711 39.167 5.62575C39.2883 5.52254 39.398 5.33307 39.496 5.05735L39.6604 4.62123L37.9922 0.520987C37.9608 0.455706 37.9406 0.385704 37.9323 0.313831C37.9323 0.245506 37.9725 0.210616 38.0529 0.210616H38.5727C38.6392 0.204268 38.7061 0.219298 38.7635 0.253501C38.8124 0.307792 38.8477 0.372791 38.8665 0.443213L40.0793 3.78315L41.249 0.443213C41.2679 0.372791 41.3032 0.307792 41.3521 0.253501C41.4094 0.219298 41.4763 0.204268 41.5429 0.210616H42.0276C42.1087 0.210616 42.1489 0.245506 42.1489 0.313831C42.1402 0.385715 42.1197 0.455693 42.0882 0.520987L40.1831 5.34155Z" fill="white"/>
<path fill-rule="evenodd" clip-rule="evenodd" d="M16.6976 6.29738C15.147 7.43493 12.8962 8.04186 10.9633 8.04186C8.37741 8.05496 5.87981 7.10752 3.95986 5.38517C3.81365 5.25506 3.94378 5.07698 4.1185 5.17801C6.11279 6.33155 8.57787 7.02643 11.1263 7.02643C12.9632 7.01646 14.7799 6.64594 16.4724 5.93613C16.7341 5.82565 16.9542 6.10767 16.6976 6.29957M17.3424 5.56761C17.5412 5.81984 17.1231 6.8607 16.9352 7.32517C16.8782 7.46546 17.0002 7.52215 17.1282 7.41603C17.9594 6.72405 18.1743 5.27469 18.0054 5.06535C17.8366 4.85601 16.3825 4.67866 15.495 5.29867C15.3583 5.39389 15.3817 5.52546 15.5338 5.50728C16.0331 5.44768 17.1457 5.31466 17.3438 5.56761" fill="#FF9900"/>
</svg>
