<svg width="44" height="16" viewBox="0 0 44 16" fill="none" xmlns="http://www.w3.org/2000/svg">
<path fill-rule="evenodd" clip-rule="evenodd" d="M43.8489 8.86665H41.5913C40.91 8.86665 40.4152 9.02933 40.0647 9.28224V8.86665H36.7255C36.1915 8.86665 35.5647 8.99863 35.2682 9.28224V8.86665H29.3052V9.28224C28.8307 8.94093 28.0299 8.86665 27.6604 8.86665H23.7271V9.28224C23.3517 8.91975 22.5168 8.86665 22.0079 8.86665H17.6059L16.5986 9.95351L15.6552 8.86665H9.07959V15.9679H15.5314L16.5694 14.8638L17.5471 15.9679L21.5241 15.9714V14.3009H21.9151C22.4427 14.3091 23.0651 14.2879 23.6141 14.0512V15.9677H26.8944V14.1169H27.0526C27.2546 14.1169 27.2744 14.1252 27.2744 14.3264V15.9676H37.2393C37.8719 15.9676 38.5332 15.8061 38.8994 15.5132V15.9676H42.0602C42.718 15.9676 43.3603 15.8757 43.849 15.6402C43.849 -23.2128 43.8489 25.1342 43.8489 8.86665Z" fill="#006FCF"/>
<path fill-rule="evenodd" clip-rule="evenodd" d="M2.53359 7.209L3.00354 6.07886H4.05565L4.52437 7.209H8.62522V6.34497L8.99127 7.21268H11.1201L11.4862 6.33208V7.209H21.6776L21.6728 5.35388H21.87C22.0081 5.35864 22.0484 5.37138 22.0484 5.59866V7.209H27.3194V6.77714C27.7446 7.00427 28.4059 7.209 29.276 7.209H31.4935L31.9681 6.07886H33.0202L33.4843 7.209H37.7576V6.13549L38.4047 7.209H41.829V0.112671H38.4401V0.950755L37.9655 0.112671H34.4881V0.950755L34.0523 0.112671H29.3552C28.5689 0.112671 27.8777 0.222093 27.3194 0.527032V0.112671H24.078V0.527032C23.7227 0.212732 23.2386 0.112671 22.7003 0.112671H10.858L10.0634 1.94553L9.24741 0.112671H5.51737V0.950755L5.10761 0.112671H1.92649L0.449219 3.48665V7.209H2.53359Z" fill="#006FCF"/>
<path fill-rule="evenodd" clip-rule="evenodd" d="M21.9691 13.2537C23.0354 13.2537 24.0934 12.9618 24.0934 11.5481C24.0934 10.1386 23.0057 9.87146 22.0376 9.87146H18.1398L16.5882 11.5396L15.0874 9.87146H10.1812V14.9607H15.013L16.574 13.276L18.0761 14.9607H20.4471V13.2537H21.9691ZM20.4471 12.2202H22.0235C22.4922 12.2202 22.7837 11.9883 22.7837 11.5481C22.7837 11.1031 22.478 10.9241 22.0376 10.9241H20.4471V12.2202ZM14.3955 13.9002H11.3963V12.8876H14.0744V11.8492H11.3963V10.924H14.4546L15.7888 12.4071L14.3955 13.9002ZM19.2321 14.4979L17.3592 12.4249L19.2321 10.4177V14.4979Z" fill="white"/>
<path fill-rule="evenodd" clip-rule="evenodd" d="M29.3102 13.0229C29.2062 12.8747 28.9842 12.6956 28.7127 12.5957C29.0338 12.4686 29.5771 12.0541 29.5773 11.2418C29.5773 10.6612 29.3351 10.3435 28.9502 10.1116C28.5498 9.89862 28.1 9.87146 27.4824 9.87146H24.6661V14.9607H25.8919V13.1019H27.1955C27.6405 13.1019 27.9122 13.1455 28.0905 13.3278C28.2946 13.5409 28.291 13.9295 28.2883 14.2283C28.2879 14.2614 28.2877 14.2934 28.2877 14.324V14.9607H29.5123V13.9518C29.5074 13.5033 29.4825 13.2714 29.3102 13.0229ZM27.9759 11.9623C27.8128 12.0589 27.611 12.0671 27.3736 12.0671H25.8917V10.9241H27.3938C27.611 10.9241 27.8283 10.9287 27.9759 11.016C28.134 11.0985 28.2285 11.2561 28.2285 11.4738C28.2285 11.6916 28.134 11.867 27.9759 11.9623Z" fill="white"/>
<path d="M38.9832 12.2766C39.2207 12.5217 39.348 12.8311 39.348 13.3549C39.348 14.4497 38.6619 14.9607 37.4317 14.9607H35.0558V13.8694H37.4222C37.6535 13.8694 37.8176 13.8389 37.9205 13.7434C38.0043 13.6647 38.0645 13.5504 38.0645 13.4115C38.0645 13.2632 37.9994 13.1455 37.9157 13.0749C37.8224 12.9973 37.6937 12.962 37.4813 12.962C37.4066 12.9594 37.3307 12.9574 37.254 12.9553C36.1595 12.9256 34.9119 12.8918 34.9119 11.3868C34.9119 10.6486 35.3771 9.87161 36.6559 9.87161H39.1014V10.9548H36.8637C36.6419 10.9548 36.4977 10.9631 36.375 11.0467C36.2414 11.1291 36.1918 11.2514 36.1918 11.4129C36.1918 11.6049 36.3053 11.7355 36.4587 11.7919C36.5874 11.8366 36.7257 11.8497 36.9335 11.8497L37.5901 11.8673C38.2523 11.8834 38.7069 11.9976 38.9832 12.2766Z" fill="white"/>
<path d="M43.8491 10.9545H41.6259C41.4039 10.9545 41.2564 10.9628 41.1322 11.0464C41.0035 11.1288 40.954 11.2511 40.954 11.4126C40.954 11.6046 41.0626 11.7352 41.2207 11.7916C41.3494 11.8363 41.4876 11.8493 41.6908 11.8493L42.352 11.867C43.0191 11.8834 43.4644 11.9977 43.7359 12.2766C43.7776 12.3094 43.8053 12.3455 43.8334 12.3822L43.841 12.3921L43.8458 12.3984L43.8491 12.4026V14.3097C43.5528 14.7418 42.9754 14.9608 42.1937 14.9608H39.838V13.8694H42.1842C42.4169 13.8694 42.5798 13.8389 42.6778 13.7434C42.7628 13.6647 42.8221 13.5504 42.8221 13.4115C42.8221 13.2633 42.7628 13.1455 42.6731 13.0749C42.5845 12.9973 42.4557 12.962 42.2433 12.962C42.1684 12.9595 42.0922 12.9574 42.0153 12.9553C40.9171 12.9257 39.6689 12.8919 39.6689 11.3868C39.6689 10.6486 40.1391 9.87163 41.4191 9.87163H43.8489L43.8491 10.9545Z" fill="white"/>
<path d="M30.2537 9.87146H34.325V10.9239H31.4685V11.8492H34.2552V12.8876H31.4685V13.9001L34.325 13.9047V14.9607H30.2537V9.87146Z" fill="white"/>
<path fill-rule="evenodd" clip-rule="evenodd" d="M4.36121 4.00655L3.52629 1.97818L2.69614 4.00655H4.36121ZM22.7543 3.19891C22.5867 3.30035 22.3884 3.30372 22.1509 3.30372H20.669V2.17359H22.1711C22.3837 2.17359 22.6055 2.18311 22.7496 2.26537C22.9078 2.33949 23.0057 2.49725 23.0057 2.71518C23.0057 2.93755 22.9126 3.11649 22.7543 3.19891ZM33.326 4.00655L32.4818 1.97818L31.6423 4.00655H33.326ZM13.6198 6.20207H12.3693L12.3646 2.21714L10.5958 6.20207H9.52479L7.75136 2.21361V6.20207H5.27031L4.80159 5.06718H2.26175L1.78826 6.20207H0.463379L2.6478 1.11401H4.46018L6.53485 5.93135V1.11401H8.52578L10.1222 4.56565L11.5887 1.11401H13.6196V6.20207H13.6198ZM18.6039 6.20207H14.5289V1.11401H18.6039V2.17355H15.7488V3.09067H18.5354V4.13364H15.7488V5.14974H18.6039V6.20207ZM24.3495 2.48432C24.3495 3.29555 23.8064 3.71467 23.49 3.84051C23.7569 3.9418 23.9848 4.12074 24.0934 4.26899C24.2656 4.52206 24.2953 4.74812 24.2953 5.20254V6.20207H23.0649L23.0603 5.56042C23.0603 5.25425 23.0897 4.81396 22.8678 4.56918C22.6895 4.39023 22.4178 4.35141 21.9787 4.35141H20.6692V6.20207H19.4494V1.11401H22.2551C22.8785 1.11401 23.3379 1.13043 23.7322 1.35772C24.1181 1.585 24.3495 1.9168 24.3495 2.48432ZM26.3016 6.20207H25.057V1.11401H26.3016V6.20207ZM40.7415 6.20207H39.0129L36.7007 2.38319V6.20207H34.2164L33.7417 5.06718H31.2077L30.7472 6.20207H29.3198C28.7268 6.20207 27.9761 6.07131 27.5509 5.6393C27.1222 5.20729 26.8992 4.62212 26.8992 3.69687C26.8992 2.94227 27.0325 2.25243 27.5568 1.70732C27.9512 1.30124 28.5687 1.11401 29.4093 1.11401H30.5903V2.20425H29.4341C28.989 2.20425 28.7376 2.27024 28.4955 2.50565C28.2875 2.7199 28.1448 3.1249 28.1448 3.65819C28.1448 4.20331 28.2535 4.59634 28.4802 4.85309C28.668 5.05444 29.0093 5.11552 29.3304 5.11552H29.8782L31.5975 1.11417H33.4252L35.4905 5.92675V1.11417H37.3478L39.4921 4.65773V1.11417H40.7415V6.20207Z" fill="white"/>
</svg>
