<svg width="124" height="32" viewBox="0 0 124 32" fill="none" xmlns="http://www.w3.org/2000/svg">
<path d="M20.0188 14.8695C19.9862 11.337 22.9854 9.61852 23.1225 9.53851C21.424 7.12402 18.7913 6.79412 17.8662 6.76782C15.6551 6.54094 13.5103 8.05781 12.3839 8.05781C11.2351 8.05781 9.50059 6.78973 7.63121 6.827C5.22562 6.86317 2.97516 8.22111 1.74089 10.3298C-0.806328 14.6294 1.09341 20.9479 3.53384 24.4233C4.75462 26.1254 6.18111 28.0259 8.04825 27.959C9.87492 27.8856 10.5573 26.8236 12.7616 26.8236C14.9458 26.8236 15.5865 27.959 17.4907 27.9163C19.4512 27.8856 20.6854 26.2065 21.8635 24.4891C23.2743 22.5382 23.8408 20.6169 23.8633 20.5183C23.8172 20.5029 20.0559 19.1033 20.0188 14.8695Z" fill="white"/>
<path d="M16.4217 4.48155C17.4042 3.28362 18.0764 1.65387 17.8898 0C16.4678 0.0613761 14.6895 0.959002 13.6654 2.13063C12.7594 3.16306 11.95 4.85529 12.1591 6.44669C13.7565 6.56286 15.3965 5.66085 16.4217 4.48155Z" fill="white"/>
<path d="M41.2892 4.15605C41.2892 5.44605 40.8924 6.41711 40.0999 7.06923C39.3658 7.67093 38.3227 7.97233 36.9715 7.97233C36.3015 7.97233 35.7282 7.94384 35.2482 7.88685V0.838451C35.8744 0.739811 36.5488 0.689395 37.2772 0.689395C38.5643 0.689395 39.5345 0.962299 40.1887 1.50811C40.9216 2.12516 41.2892 3.00744 41.2892 4.15605ZM40.047 4.18784C40.047 3.35159 39.82 2.71042 39.3658 2.26325C38.9117 1.81718 38.2485 1.5936 37.375 1.5936C37.0041 1.5936 36.6882 1.61771 36.4263 1.66813V7.02648C36.5713 7.0484 36.8366 7.05827 37.2222 7.05827C38.1237 7.05827 38.8195 6.81386 39.3096 6.32504C39.7997 5.83622 40.047 5.12382 40.047 4.18784Z" fill="white"/>
<path d="M47.8753 5.28274C47.8753 6.07734 47.6426 6.72837 47.1772 7.2391C46.6894 7.76409 46.043 8.02603 45.2359 8.02603C44.458 8.02603 43.8386 7.77505 43.3766 7.27089C42.9158 6.76782 42.6853 6.13324 42.6853 5.36823C42.6853 4.56815 42.9225 3.91164 43.3991 3.402C43.8757 2.89236 44.5165 2.63699 45.3236 2.63699C46.1015 2.63699 46.7265 2.88797 47.1997 3.39104C47.6494 3.87986 47.8753 4.51115 47.8753 5.28274ZM46.6534 5.32C46.6534 4.84324 46.5477 4.43443 46.3375 4.09358C46.0902 3.68148 45.7384 3.47543 45.2809 3.47543C44.8076 3.47543 44.4479 3.68148 44.2006 4.09358C43.9893 4.43443 43.8847 4.84982 43.8847 5.34083C43.8847 5.81759 43.9904 6.2264 44.2006 6.56725C44.4558 6.97935 44.811 7.1854 45.2696 7.1854C45.7193 7.1854 46.0722 6.97606 46.3263 6.55629C46.5444 6.20886 46.6534 5.79676 46.6534 5.32Z" fill="white"/>
<path d="M56.7063 2.7422L55.0482 7.90876H53.9691L53.2823 5.66524C53.108 5.10519 52.9664 4.54842 52.8562 3.99603H52.8349C52.7326 4.56376 52.5909 5.11943 52.4088 5.66524L51.6793 7.90876H50.5878L49.0286 2.7422H50.2393L50.8384 5.19835C50.9835 5.77923 51.1026 6.33271 51.1982 6.8566H51.2195C51.3072 6.42477 51.4522 5.87458 51.6568 5.20931L52.4088 2.7433H53.3688L54.0894 5.1567C54.2636 5.74525 54.4052 6.31188 54.5143 6.85769H54.5469C54.6267 6.32613 54.747 5.7595 54.9066 5.1567L55.5496 2.7433H56.7063V2.7422Z" fill="white"/>
<path d="M62.8135 7.90877H61.6355V4.94956C61.6355 4.03769 61.2803 3.58175 60.5676 3.58175C60.218 3.58175 59.9358 3.7067 59.7166 3.95768C59.4997 4.20866 59.3895 4.50459 59.3895 4.84325V7.90767H58.2115V4.21853C58.2115 3.76478 58.1968 3.27268 58.1687 2.74002H59.204L59.2591 3.54778H59.2917C59.4289 3.29679 59.6334 3.08965 59.9021 2.92415C60.2214 2.73125 60.5788 2.63371 60.97 2.63371C61.4646 2.63371 61.876 2.78934 62.2031 3.1017C62.6101 3.48421 62.8135 4.05522 62.8135 4.81366V7.90877Z" fill="white"/>
<path d="M66.0622 7.90876H64.8853V0.371549H66.0622V7.90876Z" fill="white"/>
<path d="M72.9979 5.28274C72.9979 6.07734 72.7653 6.72837 72.2999 7.2391C71.812 7.76409 71.1645 8.02603 70.3586 8.02603C69.5795 8.02603 68.9602 7.77505 68.4993 7.27089C68.0384 6.76782 67.808 6.13324 67.808 5.36823C67.808 4.56815 68.0451 3.91164 68.5218 3.402C68.9984 2.89236 69.6391 2.63699 70.4451 2.63699C71.2241 2.63699 71.848 2.88797 72.3224 3.39104C72.772 3.87986 72.9979 4.51115 72.9979 5.28274ZM71.7749 5.32C71.7749 4.84324 71.6693 4.43443 71.459 4.09358C71.2129 3.68148 70.8599 3.47543 70.4035 3.47543C69.9291 3.47543 69.5694 3.68148 69.3232 4.09358C69.1119 4.43443 69.0074 4.84982 69.0074 5.34083C69.0074 5.81759 69.113 6.2264 69.3232 6.56725C69.5784 6.97935 69.9336 7.1854 70.3923 7.1854C70.8419 7.1854 71.1938 6.97606 71.4478 6.55629C71.667 6.20886 71.7749 5.79676 71.7749 5.32Z" fill="white"/>
<path d="M78.6994 7.90876H77.6416L77.5539 7.31363H77.5213C77.1594 7.7882 76.6434 8.02603 75.9734 8.02603C75.4732 8.02603 75.0686 7.86931 74.7639 7.55804C74.4874 7.27527 74.3491 6.92345 74.3491 6.50588C74.3491 5.87458 74.6189 5.39344 75.1618 5.06025C75.7037 4.72707 76.4658 4.56376 77.4472 4.57143V4.47499C77.4472 3.79437 77.0807 3.45461 76.3467 3.45461C75.8239 3.45461 75.3631 3.58284 74.9651 3.83711L74.7257 3.08306C75.218 2.78605 75.8262 2.63699 76.5434 2.63699C77.9283 2.63699 78.623 3.34939 78.623 4.77419V6.67685C78.623 7.19307 78.6488 7.60407 78.6994 7.90876ZM77.4764 6.13324V5.33644C76.1769 5.31452 75.5272 5.66196 75.5272 6.37765C75.5272 6.64726 75.6014 6.84893 75.7531 6.98374C75.9049 7.11854 76.0982 7.1854 76.3287 7.1854C76.5872 7.1854 76.8289 7.10539 77.0492 6.94647C77.2707 6.78645 77.4067 6.58369 77.4573 6.3349C77.4696 6.27901 77.4764 6.21105 77.4764 6.13324Z" fill="white"/>
<path d="M85.3935 7.90876H84.348L84.293 7.07908H84.2604C83.9265 7.71038 83.3577 8.02603 82.5585 8.02603C81.92 8.02603 81.3883 7.78162 80.9667 7.29281C80.5452 6.80399 80.335 6.1694 80.335 5.39014C80.335 4.55389 80.5632 3.87656 81.0218 3.35925C81.4658 2.87701 82.0099 2.63589 82.6574 2.63589C83.3689 2.63589 83.8669 2.86934 84.1502 3.33733H84.1727V0.371549H85.3519V6.51684C85.3519 7.0199 85.3653 7.48351 85.3935 7.90876ZM84.1727 5.72991V4.86845C84.1727 4.71939 84.1614 4.59883 84.1401 4.50677C84.0738 4.23057 83.931 3.99822 83.714 3.81081C83.4948 3.62339 83.2307 3.52913 82.926 3.52913C82.4865 3.52913 82.1425 3.69901 81.8896 4.03987C81.6389 4.38073 81.5119 4.81584 81.5119 5.3474C81.5119 5.85814 81.6322 6.27243 81.8739 6.59136C82.1291 6.93112 82.473 7.10101 82.9036 7.10101C83.2903 7.10101 83.5994 6.95962 83.8343 6.67576C84.0614 6.41381 84.1727 6.09816 84.1727 5.72991Z" fill="white"/>
<path d="M95.4688 5.28274C95.4688 6.07734 95.2361 6.72837 94.7707 7.2391C94.2829 7.76409 93.6376 8.02603 92.8294 8.02603C92.0527 8.02603 91.4333 7.77505 90.9701 7.27089C90.5093 6.76782 90.2788 6.13324 90.2788 5.36823C90.2788 4.56815 90.516 3.91164 90.9926 3.402C91.4692 2.89236 92.11 2.63699 92.9182 2.63699C93.695 2.63699 94.3211 2.88797 94.7932 3.39104C95.2429 3.87986 95.4688 4.51115 95.4688 5.28274ZM94.248 5.32C94.248 4.84324 94.1424 4.43443 93.9322 4.09358C93.6837 3.68148 93.333 3.47543 92.8744 3.47543C92.4023 3.47543 92.0425 3.68148 91.7941 4.09358C91.5828 4.43443 91.4782 4.84982 91.4782 5.34083C91.4782 5.81759 91.5839 6.2264 91.7941 6.56725C92.0493 6.97935 92.4045 7.1854 92.8631 7.1854C93.3128 7.1854 93.6669 6.97606 93.9209 6.55629C94.1379 6.20886 94.248 5.79676 94.248 5.32Z" fill="white"/>
<path d="M101.803 7.90877H100.626V4.94956C100.626 4.03769 100.271 3.58175 99.5572 3.58175C99.2076 3.58175 98.9254 3.7067 98.7074 3.95768C98.4893 4.20866 98.3802 4.50459 98.3802 4.84325V7.90767H97.2011V4.21853C97.2011 3.76478 97.1876 3.27268 97.1595 2.74002H98.1936L98.2487 3.54778H98.2813C98.4196 3.29679 98.6242 3.08965 98.8917 2.92415C99.2121 2.73125 99.5684 2.63371 99.9607 2.63371C100.454 2.63371 100.866 2.78934 101.193 3.1017C101.601 3.48421 101.803 4.05522 101.803 4.81366V7.90877Z" fill="white"/>
<path d="M109.731 3.60257H108.434V6.11242C108.434 6.75029 108.665 7.06923 109.121 7.06923C109.332 7.06923 109.508 7.05169 109.646 7.01552L109.676 7.88685C109.444 7.97233 109.138 8.01508 108.761 8.01508C108.296 8.01508 107.934 7.87698 107.672 7.60079C107.409 7.3246 107.279 6.85989 107.279 6.20777V3.60257H106.504V2.74221H107.279V1.79526L108.433 1.4555V2.74111H109.73V3.60257H109.731Z" fill="white"/>
<path d="M115.968 7.90876H114.789V4.97147C114.789 4.04535 114.434 3.58174 113.722 3.58174C113.176 3.58174 112.803 3.85026 112.598 4.3873C112.563 4.50019 112.543 4.63829 112.543 4.8005V7.90766H111.366V0.371549H112.543V3.48529H112.565C112.936 2.91866 113.468 2.63589 114.157 2.63589C114.645 2.63589 115.048 2.79152 115.369 3.10388C115.768 3.49296 115.968 4.07165 115.968 4.83666V7.90876Z" fill="white"/>
<path d="M122.401 5.08107C122.401 5.28712 122.385 5.46029 122.357 5.60167H118.824C118.84 6.11241 119.009 6.50149 119.336 6.7711C119.635 7.01223 120.02 7.13279 120.493 7.13279C121.015 7.13279 121.492 7.05168 121.921 6.88838L122.106 7.68627C121.603 7.89889 121.012 8.0052 120.327 8.0052C119.507 8.0052 118.86 7.76956 118.393 7.29828C117.923 6.827 117.69 6.19461 117.69 5.4011C117.69 4.62184 117.907 3.97301 118.344 3.4557C118.801 2.90331 119.418 2.62712 120.197 2.62712C120.959 2.62712 121.538 2.90331 121.929 3.4557C122.245 3.8941 122.401 4.43662 122.401 5.08107ZM121.277 4.78405C121.286 4.4432 121.209 4.14947 121.049 3.90177C120.844 3.58283 120.533 3.42282 120.111 3.42282C119.727 3.42282 119.413 3.57845 119.174 3.89081C118.978 4.1396 118.863 4.43662 118.824 4.78405H121.277Z" fill="white"/>
<path d="M46.4544 27.7146H43.9016L42.5032 23.4303H37.6426L36.3105 27.7146H33.8251L38.6408 13.129H41.6151L46.4544 27.7146ZM42.0816 21.6329L40.817 17.8243C40.6833 17.4352 40.4326 16.5189 40.0628 15.0766H40.0178C39.8705 15.6969 39.6333 16.6132 39.3074 17.8243L38.0652 21.6329H42.0816Z" fill="white"/>
<path d="M58.8387 22.3267C58.8387 24.1154 58.343 25.5292 57.3515 26.5671C56.4635 27.491 55.3607 27.9525 54.0444 27.9525C52.6235 27.9525 51.6028 27.4549 50.9812 26.4597H50.9362V32H48.5396V20.6597C48.5396 19.5352 48.5093 18.3811 48.4508 17.1974H50.5585L50.6923 18.8644H50.7373C51.5365 17.6084 52.7494 16.9815 54.3771 16.9815C55.6496 16.9815 56.7119 17.4714 57.5617 18.4523C58.4138 19.4343 58.8387 20.7254 58.8387 22.3267ZM56.3971 22.4122C56.3971 21.3885 56.1611 20.5446 55.6867 19.8804C55.1685 19.1877 54.4727 18.8414 53.6003 18.8414C53.0091 18.8414 52.4717 19.0343 51.9918 19.4146C51.5106 19.7982 51.1959 20.2991 51.0486 20.9194C50.9744 21.2088 50.9373 21.4455 50.9373 21.6318V23.3854C50.9373 24.1504 51.1779 24.796 51.659 25.3232C52.1401 25.8503 52.7651 26.1134 53.534 26.1134C54.4367 26.1134 55.1393 25.7736 55.6417 25.0963C56.1453 24.4179 56.3971 23.5235 56.3971 22.4122Z" fill="white"/>
<path d="M71.2454 22.3267C71.2454 24.1154 70.7497 25.5292 69.7571 26.5671C68.8702 27.491 67.7675 27.9525 66.4511 27.9525C65.0303 27.9525 64.0096 27.4549 63.3891 26.4597H63.3441V32H60.9475V20.6597C60.9475 19.5352 60.9172 18.3811 60.8587 17.1974H62.9664L63.1002 18.8644H63.1451C63.9433 17.6084 65.1562 16.9815 66.785 16.9815C68.0564 16.9815 69.1186 17.4714 69.9707 18.4523C70.8194 19.4343 71.2454 20.7254 71.2454 22.3267ZM68.8039 22.4122C68.8039 21.3885 68.5667 20.5446 68.0923 19.8804C67.5741 19.1877 66.8805 18.8414 66.0071 18.8414C65.4147 18.8414 64.8785 19.0343 64.3974 19.4146C63.9163 19.7982 63.6026 20.2991 63.4554 20.9194C63.3823 21.2088 63.3441 21.4455 63.3441 21.6318V23.3854C63.3441 24.1504 63.5847 24.796 64.0635 25.3232C64.5446 25.8492 65.1697 26.1134 65.9408 26.1134C66.8435 26.1134 67.546 25.7736 68.0485 25.0963C68.5521 24.4179 68.8039 23.5235 68.8039 22.4122Z" fill="white"/>
<path d="M85.1169 23.6243C85.1169 24.865 84.6751 25.8744 83.7882 26.6537C82.8136 27.5053 81.4568 27.9305 79.7133 27.9305C78.1036 27.9305 76.8131 27.628 75.8363 27.0219L76.3916 25.0744C77.4438 25.6947 78.5982 26.006 79.8561 26.006C80.7587 26.006 81.4613 25.8065 81.966 25.4097C82.4685 25.013 82.7192 24.4803 82.7192 23.8161C82.7192 23.2243 82.5123 22.7256 82.0975 22.3212C81.685 21.9168 80.9959 21.5408 80.0337 21.1934C77.4145 20.241 76.1061 18.8458 76.1061 17.0111C76.1061 15.812 76.5647 14.8289 77.4831 14.0639C78.3981 13.2978 79.6189 12.9153 81.1454 12.9153C82.5067 12.9153 83.6376 13.1466 84.5402 13.608L83.9411 15.5128C83.098 15.0657 82.1448 14.8421 81.078 14.8421C80.2349 14.8421 79.5762 15.0448 79.1041 15.4482C78.705 15.8087 78.5049 16.2482 78.5049 16.7688C78.5049 17.3453 78.7331 17.8221 79.1917 18.1969C79.5908 18.5433 80.3158 18.9181 81.368 19.3225C82.6551 19.8278 83.6005 20.4185 84.2086 21.0959C84.8145 21.771 85.1169 22.616 85.1169 23.6243Z" fill="white"/>
<path d="M93.0407 18.951H90.3991V24.0572C90.3991 25.356 90.8645 26.0048 91.7975 26.0048C92.2257 26.0048 92.581 25.9687 92.862 25.8963L92.9283 27.6708C92.4562 27.8428 91.8346 27.9294 91.0645 27.9294C90.118 27.9294 89.3784 27.6478 88.8444 27.0855C88.3127 26.5222 88.0452 25.5774 88.0452 24.2501V18.9488H86.4715V17.1952H88.0452V15.2695L90.3991 14.5768V17.1952H93.0407V18.951Z" fill="white"/>
<path d="M104.96 22.3694C104.96 23.986 104.485 25.3133 103.539 26.3512C102.546 27.4198 101.229 27.9524 99.5864 27.9524C98.0036 27.9524 96.7435 27.4406 95.8038 26.4169C94.864 25.3933 94.3941 24.1011 94.3941 22.5437C94.3941 20.9139 94.8775 19.579 95.8476 18.5411C96.8155 17.5021 98.1217 16.9826 99.764 16.9826C101.347 16.9826 102.62 17.4944 103.581 18.5192C104.501 19.5132 104.96 20.7966 104.96 22.3694ZM102.473 22.445C102.473 21.4751 102.261 20.6432 101.83 19.9494C101.328 19.1099 100.609 18.6912 99.6785 18.6912C98.7152 18.6912 97.9834 19.111 97.4809 19.9494C97.0504 20.6443 96.8379 21.4893 96.8379 22.4889C96.8379 23.4588 97.0504 24.2907 97.4809 24.9834C97.9991 25.8229 98.7231 26.2416 99.6572 26.2416C100.572 26.2416 101.291 25.8141 101.809 24.9615C102.25 24.2545 102.473 23.4139 102.473 22.445Z" fill="white"/>
<path d="M112.75 19.2524C112.512 19.2096 112.26 19.1877 111.994 19.1877C111.151 19.1877 110.499 19.4979 110.041 20.1193C109.642 20.6673 109.441 21.36 109.441 22.1963V27.7146H107.046L107.068 20.5095C107.068 19.2973 107.038 18.1937 106.978 17.1985H109.066L109.154 19.2107H109.22C109.473 18.5192 109.872 17.9624 110.418 17.5448C110.952 17.1689 111.529 16.9815 112.151 16.9815C112.372 16.9815 112.572 16.9968 112.75 17.0242V19.2524Z" fill="white"/>
<path d="M123.468 21.9584C123.468 22.3771 123.44 22.73 123.38 23.0182H116.191C116.219 24.0573 116.566 24.8519 117.234 25.3999C117.84 25.8898 118.623 26.1353 119.585 26.1353C120.65 26.1353 121.621 25.9698 122.495 25.6377L122.87 27.2598C121.849 27.6938 120.644 27.9097 119.254 27.9097C117.581 27.9097 116.268 27.4297 115.313 26.4706C114.359 25.5116 113.882 24.2238 113.882 22.6083C113.882 21.0224 114.326 19.7017 115.215 18.6485C116.146 17.524 117.403 16.9617 118.986 16.9617C120.541 16.9617 121.718 17.524 122.517 18.6485C123.15 19.5417 123.468 20.6465 123.468 21.9584ZM121.183 21.3523C121.198 20.6596 121.042 20.0612 120.717 19.556C120.303 18.906 119.665 18.5816 118.807 18.5816C118.024 18.5816 117.387 18.8984 116.9 19.534C116.501 20.0393 116.264 20.6454 116.191 21.3512H121.183V21.3523Z" fill="white"/>
</svg>
