<svg width="314" height="363" viewBox="0 0 314 363" fill="none" xmlns="http://www.w3.org/2000/svg">
<path d="M112.546 200.499L107.116 202.848L85.4162 187.713L79.6398 190.91C74.9995 193.682 70.4939 193.875 68.3374 192.643L67.8944 192.854C64.5441 194.318 62.5609 193.008 61.887 191.43C61.2131 189.851 61.5982 187.579 64.9485 186.077L65.3914 185.884C65.7957 183.959 67.548 180.724 74.3834 178.818L80.6795 176.796L84.5305 150.629L89.9603 148.261L94.177 172.502L109.696 167.188L112.045 160.969L116.358 159.371L116.666 165.147L118.207 165.012L119.612 168.228L118.457 169.364L122.539 173.6L118.419 175.66L112.296 173.118L97.7969 180.82L112.546 200.499ZM112.142 171.713L118.303 174.274L120.229 173.272L116.493 169.422L117.899 167.997L117.244 166.476L115.319 166.649L115.03 161.258L112.931 162.028L110.582 168.266L93.0218 174.254L88.8435 150.167L85.5894 151.573L81.8349 177.836L74.7299 180.108C68.1063 181.937 66.797 184.902 66.6044 186.5V186.905L66.2193 187.04C65.9747 187.109 65.7364 187.199 65.5069 187.309C63.4466 188.195 62.5224 189.6 63.1193 190.948C63.7162 192.296 65.3528 192.604 67.4131 191.699C67.6449 191.606 67.8701 191.496 68.0871 191.372L68.4529 191.16L68.7995 191.41C70.2051 192.45 74.3063 192.643 79.0429 189.831L85.5125 186.212L107.27 201.403L110.524 199.998L95.7752 180.474L112.142 171.713Z" fill="#999999"/>
<path d="M298.896 362.102C299 362.103 299.103 362.077 299.194 362.027C299.285 361.976 299.362 361.902 299.416 361.813C300.109 360.76 300.751 359.701 301.341 358.636C301.428 358.495 301.457 358.325 301.421 358.163C301.385 358.001 301.287 357.86 301.149 357.769C301.005 357.684 300.834 357.658 300.672 357.698C300.51 357.737 300.37 357.839 300.282 357.981C299.627 359.04 298.973 360.08 298.357 361.139C298.31 361.207 298.277 361.283 298.261 361.364C298.244 361.445 298.244 361.528 298.26 361.609C298.276 361.689 298.309 361.766 298.355 361.834C298.401 361.902 298.461 361.961 298.53 362.005C298.642 362.067 298.768 362.1 298.896 362.102ZM302.747 355.709C302.855 355.708 302.962 355.679 303.056 355.625C303.151 355.571 303.23 355.494 303.286 355.401C303.902 354.303 304.518 353.206 305.211 352.108C305.289 351.965 305.309 351.796 305.266 351.639C305.223 351.481 305.12 351.346 304.98 351.261C304.834 351.185 304.664 351.168 304.506 351.215C304.348 351.262 304.214 351.368 304.133 351.512C303.536 352.609 302.92 353.687 302.304 354.766C302.218 354.909 302.193 355.08 302.232 355.242C302.272 355.404 302.374 355.544 302.516 355.632C302.616 355.687 302.729 355.713 302.843 355.709H302.747ZM306.328 349.124C306.444 349.123 306.557 349.09 306.656 349.029C306.754 348.967 306.834 348.881 306.886 348.777C307.464 347.661 308.022 346.525 308.562 345.408C308.598 345.335 308.619 345.255 308.623 345.174C308.628 345.092 308.617 345.011 308.59 344.934C308.563 344.857 308.521 344.786 308.467 344.725C308.412 344.664 308.346 344.615 308.273 344.58C308.2 344.544 308.12 344.523 308.038 344.518C307.957 344.513 307.875 344.524 307.798 344.551C307.721 344.578 307.651 344.62 307.59 344.675C307.529 344.729 307.48 344.795 307.445 344.869C306.906 345.985 306.347 347.102 305.77 348.219C305.734 348.292 305.713 348.372 305.708 348.453C305.703 348.535 305.714 348.616 305.741 348.693C305.768 348.77 305.81 348.841 305.864 348.902C305.919 348.963 305.985 349.012 306.058 349.047C306.11 349.086 306.17 349.113 306.233 349.126C306.296 349.139 306.361 349.139 306.424 349.124H306.328ZM309.582 342.346C309.703 342.345 309.82 342.309 309.922 342.245C310.024 342.18 310.106 342.089 310.16 341.981L311.662 338.534C311.725 338.378 311.724 338.204 311.659 338.048C311.594 337.893 311.471 337.77 311.315 337.706C311.162 337.648 310.992 337.652 310.841 337.717C310.69 337.781 310.57 337.902 310.506 338.053C310.025 339.189 309.524 340.325 309.024 341.48C308.989 341.553 308.969 341.632 308.966 341.713C308.962 341.794 308.975 341.875 309.004 341.95C309.033 342.026 309.077 342.095 309.133 342.153C309.19 342.211 309.257 342.257 309.332 342.289C309.439 342.342 309.56 342.362 309.678 342.346H309.582ZM312.49 335.434C312.613 335.433 312.733 335.396 312.836 335.327C312.938 335.259 313.019 335.162 313.067 335.049C313.529 333.855 313.972 332.681 314.415 331.506C314.442 331.429 314.454 331.347 314.449 331.266C314.445 331.184 314.424 331.104 314.388 331.031C314.352 330.957 314.302 330.892 314.24 330.838C314.179 330.784 314.107 330.743 314.03 330.717C313.876 330.666 313.709 330.675 313.563 330.743C313.416 330.811 313.301 330.932 313.24 331.082C312.817 332.257 312.374 333.412 311.912 334.587C311.854 334.74 311.858 334.91 311.923 335.061C311.987 335.212 312.108 335.331 312.258 335.395L312.49 335.434ZM315.07 328.387C315.198 328.385 315.323 328.344 315.426 328.268C315.53 328.192 315.607 328.085 315.647 327.963C316.071 326.769 316.456 325.576 316.822 324.382C316.871 324.223 316.856 324.052 316.78 323.905C316.705 323.757 316.574 323.645 316.417 323.592C316.259 323.544 316.088 323.559 315.941 323.634C315.793 323.71 315.681 323.84 315.628 323.997C315.262 325.191 314.877 326.365 314.473 327.559C314.424 327.717 314.439 327.888 314.514 328.036C314.59 328.183 314.72 328.295 314.877 328.348L315.07 328.387ZM317.303 321.224C317.439 321.221 317.57 321.174 317.678 321.091C317.785 321.008 317.863 320.893 317.9 320.762C318.247 319.549 318.593 318.336 318.901 317.142C318.943 316.981 318.92 316.811 318.837 316.667C318.754 316.523 318.618 316.417 318.458 316.372C318.38 316.352 318.298 316.347 318.218 316.358C318.138 316.37 318.061 316.397 317.991 316.438C317.922 316.479 317.86 316.533 317.812 316.598C317.763 316.663 317.728 316.736 317.708 316.815C317.38 318.009 317.053 319.222 316.706 320.415C316.683 320.494 316.675 320.576 316.684 320.657C316.692 320.739 316.717 320.818 316.757 320.889C316.796 320.961 316.849 321.024 316.913 321.075C316.978 321.126 317.051 321.163 317.13 321.186L317.303 321.224ZM319.229 313.965C319.367 313.961 319.5 313.911 319.608 313.825C319.716 313.738 319.792 313.618 319.826 313.484C320.114 312.251 320.403 311.019 320.653 309.806C320.673 309.728 320.677 309.646 320.664 309.566C320.652 309.486 320.623 309.41 320.579 309.341C320.536 309.273 320.479 309.214 320.413 309.168C320.346 309.122 320.271 309.09 320.191 309.074C320.112 309.054 320.029 309.051 319.948 309.063C319.866 309.076 319.789 309.104 319.719 309.147C319.649 309.19 319.588 309.247 319.54 309.314C319.492 309.381 319.458 309.456 319.44 309.537C319.19 310.75 318.901 311.963 318.612 313.195C318.577 313.356 318.606 313.524 318.692 313.664C318.778 313.804 318.915 313.905 319.075 313.946L319.229 313.965ZM320.808 306.61C320.953 306.612 321.094 306.564 321.207 306.472C321.32 306.38 321.396 306.252 321.424 306.109C321.655 304.877 321.886 303.645 322.098 302.412C322.126 302.251 322.088 302.086 321.995 301.953C321.901 301.819 321.758 301.728 321.597 301.7C321.516 301.683 321.432 301.683 321.351 301.699C321.27 301.716 321.193 301.748 321.125 301.795C321.057 301.842 320.998 301.902 320.954 301.971C320.909 302.041 320.879 302.119 320.865 302.2C320.653 303.414 320.442 304.646 320.191 305.878C320.175 305.959 320.174 306.043 320.191 306.124C320.207 306.205 320.24 306.282 320.286 306.35C320.333 306.419 320.393 306.477 320.463 306.521C320.532 306.566 320.61 306.596 320.692 306.61H320.808ZM322.078 299.216C322.227 299.222 322.373 299.172 322.487 299.076C322.601 298.98 322.675 298.844 322.694 298.696C322.887 297.445 323.06 296.193 323.214 294.961C323.225 294.88 323.22 294.797 323.198 294.719C323.177 294.64 323.14 294.566 323.09 294.501C323.04 294.437 322.977 294.383 322.906 294.343C322.835 294.303 322.756 294.277 322.675 294.268C322.594 294.254 322.51 294.257 322.43 294.278C322.35 294.298 322.276 294.335 322.21 294.385C322.145 294.436 322.091 294.499 322.052 294.572C322.013 294.645 321.989 294.724 321.982 294.807C321.828 296.013 321.655 297.246 321.462 298.504C321.44 298.667 321.481 298.832 321.578 298.965C321.675 299.098 321.82 299.188 321.982 299.216H322.078ZM323.022 291.764C323.177 291.77 323.328 291.714 323.443 291.61C323.558 291.506 323.628 291.361 323.638 291.206C323.773 289.955 323.907 288.703 324.004 287.471C324.014 287.305 323.96 287.142 323.852 287.016C323.744 286.89 323.591 286.812 323.426 286.797C323.346 286.786 323.264 286.792 323.186 286.815C323.108 286.838 323.036 286.877 322.974 286.93C322.912 286.982 322.862 287.048 322.827 287.121C322.793 287.194 322.774 287.274 322.772 287.355C322.656 288.587 322.54 289.839 322.406 291.091C322.398 291.172 322.406 291.253 322.43 291.331C322.453 291.409 322.492 291.481 322.544 291.544C322.596 291.607 322.66 291.658 322.732 291.696C322.804 291.734 322.883 291.757 322.964 291.764H323.022ZM323.657 284.294C323.814 284.294 323.965 284.234 324.08 284.127C324.194 284.02 324.264 283.873 324.273 283.716C324.273 282.426 324.427 281.174 324.466 279.865C324.471 279.783 324.46 279.7 324.432 279.622C324.405 279.544 324.362 279.472 324.306 279.411C324.251 279.35 324.183 279.301 324.108 279.266C324.033 279.232 323.952 279.213 323.869 279.21C323.707 279.218 323.553 279.282 323.434 279.391C323.314 279.5 323.237 279.647 323.214 279.807C323.214 281.04 323.214 282.291 323.041 283.543C323.03 283.708 323.085 283.871 323.193 283.997C323.301 284.123 323.454 284.202 323.619 284.217L323.657 284.294ZM323.946 276.784C324.109 276.784 324.266 276.719 324.382 276.604C324.497 276.488 324.562 276.332 324.562 276.168C324.562 275.283 324.562 274.416 324.562 273.55V272.414C324.562 272.25 324.497 272.093 324.382 271.978C324.266 271.862 324.109 271.797 323.946 271.797C323.783 271.797 323.626 271.862 323.51 271.978C323.395 272.093 323.33 272.25 323.33 272.414V273.55C323.33 274.416 323.33 275.283 323.33 276.149C323.327 276.232 323.341 276.314 323.371 276.391C323.401 276.468 323.446 276.538 323.503 276.597C323.561 276.656 323.63 276.704 323.706 276.736C323.782 276.768 323.863 276.784 323.946 276.784ZM323.946 269.275C324.029 269.275 324.11 269.259 324.186 269.226C324.262 269.194 324.331 269.147 324.389 269.088C324.446 269.029 324.491 268.958 324.521 268.881C324.551 268.804 324.565 268.722 324.562 268.64C324.562 267.35 324.447 266.098 324.389 264.789C324.374 264.624 324.295 264.471 324.169 264.363C324.044 264.255 323.88 264.2 323.715 264.211C323.634 264.216 323.555 264.237 323.482 264.272C323.409 264.308 323.344 264.358 323.29 264.418C323.236 264.479 323.195 264.55 323.169 264.627C323.143 264.704 323.132 264.785 323.137 264.866C323.137 266.079 323.272 267.33 323.311 268.601C323.302 268.692 323.313 268.784 323.344 268.869C323.374 268.955 323.424 269.033 323.488 269.098C323.553 269.162 323.631 269.211 323.716 269.242C323.802 269.273 323.894 269.284 323.984 269.275H323.946ZM323.503 261.785C323.584 261.778 323.663 261.755 323.735 261.717C323.807 261.679 323.871 261.627 323.923 261.564C323.975 261.502 324.014 261.429 324.037 261.352C324.061 261.274 324.07 261.192 324.062 261.111C323.946 259.827 323.811 258.544 323.657 257.26C323.65 257.178 323.627 257.098 323.587 257.025C323.548 256.953 323.494 256.889 323.429 256.839C323.364 256.788 323.289 256.751 323.209 256.731C323.129 256.711 323.045 256.707 322.964 256.721C322.802 256.745 322.656 256.83 322.555 256.96C322.455 257.089 322.408 257.252 322.425 257.414C322.579 258.589 322.714 259.84 322.829 261.13C322.822 261.225 322.836 261.32 322.871 261.409C322.906 261.497 322.962 261.576 323.033 261.639C323.103 261.703 323.188 261.749 323.28 261.774C323.371 261.799 323.468 261.803 323.561 261.785H323.503ZM322.579 254.334C322.74 254.305 322.883 254.214 322.977 254.081C323.07 253.947 323.108 253.782 323.08 253.621L322.964 252.87C322.791 251.888 322.598 250.945 322.406 249.905C322.39 249.825 322.358 249.749 322.312 249.682C322.267 249.614 322.208 249.556 322.14 249.512C322.072 249.467 321.996 249.436 321.916 249.421C321.836 249.406 321.754 249.407 321.674 249.424C321.593 249.437 321.515 249.467 321.446 249.512C321.378 249.557 321.319 249.616 321.273 249.684C321.228 249.753 321.198 249.83 321.184 249.911C321.17 249.992 321.173 250.075 321.193 250.155C321.385 251.137 321.558 252.081 321.732 253.082L321.867 253.814C321.875 253.9 321.902 253.984 321.946 254.059C321.99 254.134 322.05 254.199 322.121 254.248C322.193 254.298 322.274 254.331 322.36 254.346C322.446 254.361 322.534 254.356 322.617 254.334H322.579ZM321.096 246.978H321.231C321.31 246.962 321.386 246.931 321.453 246.885C321.519 246.839 321.576 246.78 321.619 246.712C321.662 246.643 321.691 246.567 321.704 246.487C321.717 246.407 321.713 246.325 321.693 246.247C321.404 245.014 321.116 243.801 320.788 242.569C320.766 242.49 320.729 242.417 320.678 242.352C320.627 242.288 320.564 242.235 320.492 242.196C320.42 242.156 320.341 242.131 320.26 242.123C320.179 242.114 320.096 242.122 320.018 242.145C319.94 242.166 319.866 242.201 319.801 242.25C319.737 242.298 319.682 242.359 319.641 242.429C319.6 242.499 319.573 242.576 319.562 242.656C319.55 242.736 319.555 242.818 319.575 242.896C319.903 244.109 320.211 245.303 320.48 246.516C320.52 246.657 320.606 246.779 320.725 246.863C320.845 246.948 320.989 246.988 321.135 246.978H321.096ZM319.171 239.739H319.344C319.423 239.716 319.497 239.679 319.561 239.628C319.625 239.577 319.678 239.514 319.717 239.442C319.757 239.371 319.782 239.292 319.79 239.21C319.799 239.129 319.791 239.047 319.768 238.968C319.402 237.755 319.017 236.562 318.612 235.368C318.586 235.29 318.545 235.219 318.491 235.157C318.438 235.096 318.372 235.046 318.298 235.01C318.225 234.974 318.145 234.953 318.063 234.948C317.982 234.944 317.9 234.955 317.823 234.983C317.746 235.009 317.674 235.05 317.612 235.104C317.551 235.158 317.501 235.223 317.465 235.297C317.429 235.37 317.408 235.45 317.404 235.532C317.399 235.613 317.411 235.695 317.438 235.772C317.842 236.947 318.208 238.14 318.574 239.334C318.619 239.459 318.704 239.566 318.815 239.639C318.926 239.711 319.058 239.747 319.19 239.739H319.171ZM316.764 232.614C316.833 232.632 316.906 232.632 316.976 232.614C317.129 232.558 317.253 232.443 317.322 232.295C317.391 232.147 317.398 231.978 317.342 231.825C316.899 230.65 316.437 229.476 315.936 228.321C315.906 228.244 315.862 228.175 315.805 228.116C315.748 228.057 315.68 228.01 315.605 227.977C315.529 227.945 315.448 227.928 315.366 227.928C315.284 227.927 315.203 227.943 315.127 227.974C315.053 228.005 314.985 228.051 314.928 228.109C314.871 228.167 314.826 228.235 314.796 228.31C314.766 228.386 314.75 228.466 314.751 228.547C314.752 228.628 314.768 228.708 314.8 228.783C315.281 229.938 315.743 231.093 316.167 232.268C316.224 232.38 316.313 232.473 316.423 232.535C316.532 232.596 316.658 232.624 316.783 232.614H316.764ZM313.934 225.798C314.023 225.816 314.114 225.816 314.203 225.798C314.352 225.727 314.467 225.601 314.525 225.446C314.582 225.292 314.577 225.121 314.511 224.97C313.972 223.834 313.433 222.698 312.855 221.562C312.778 221.42 312.649 221.313 312.495 221.263C312.341 221.213 312.174 221.224 312.027 221.293C311.877 221.367 311.763 221.498 311.708 221.657C311.654 221.815 311.665 221.989 311.739 222.14C312.316 223.237 312.855 224.354 313.375 225.49C313.43 225.589 313.511 225.67 313.61 225.725C313.709 225.779 313.821 225.805 313.934 225.798ZM310.545 219.098C310.639 219.124 310.739 219.124 310.834 219.098C310.907 219.059 310.971 219.007 311.023 218.943C311.075 218.879 311.114 218.806 311.138 218.727C311.161 218.648 311.168 218.565 311.159 218.483C311.15 218.401 311.124 218.322 311.084 218.25C310.468 217.153 309.832 216.055 309.159 214.996C309.119 214.925 309.065 214.862 309 214.812C308.935 214.762 308.86 214.726 308.781 214.706C308.701 214.686 308.619 214.683 308.538 214.697C308.457 214.71 308.38 214.74 308.311 214.785C308.242 214.826 308.181 214.881 308.132 214.946C308.084 215.011 308.049 215.085 308.029 215.164C308.01 215.243 308.006 215.325 308.018 215.405C308.03 215.485 308.058 215.562 308.099 215.632C308.754 216.691 309.37 217.769 310.025 218.867C310.088 218.92 310.162 218.959 310.242 218.983C310.321 219.006 310.405 219.012 310.487 219.001L310.545 219.098ZM306.694 212.686C306.807 212.72 306.927 212.72 307.04 212.686C307.11 212.641 307.169 212.583 307.216 212.515C307.262 212.447 307.294 212.37 307.31 212.289C307.326 212.208 307.326 212.125 307.31 212.044C307.293 211.964 307.26 211.887 307.214 211.819C306.501 210.78 305.789 209.74 305.038 208.719C304.939 208.59 304.793 208.504 304.632 208.479C304.47 208.453 304.306 208.491 304.172 208.585C304.042 208.684 303.956 208.829 303.931 208.991C303.906 209.152 303.944 209.317 304.037 209.451C304.768 210.452 305.481 211.473 306.174 212.512C306.296 212.584 306.439 212.611 306.578 212.59L306.694 212.686ZM221.974 208.43H222.763C222.844 208.426 222.923 208.405 222.996 208.369C223.069 208.334 223.134 208.284 223.188 208.223C223.241 208.162 223.283 208.091 223.309 208.015C223.335 207.938 223.346 207.857 223.341 207.776C223.338 207.694 223.319 207.613 223.285 207.539C223.25 207.465 223.2 207.399 223.139 207.345C223.077 207.291 223.006 207.25 222.928 207.224C222.85 207.199 222.767 207.19 222.686 207.198C221.949 207.266 221.208 207.266 220.472 207.198C220.03 207.143 219.593 207.059 219.162 206.948C219.002 206.906 218.831 206.93 218.687 207.012C218.543 207.095 218.437 207.231 218.392 207.391C218.372 207.47 218.368 207.553 218.381 207.635C218.393 207.716 218.422 207.794 218.465 207.864C218.508 207.934 218.565 207.994 218.632 208.042C218.698 208.09 218.774 208.124 218.854 208.142C219.34 208.277 219.836 208.373 220.337 208.43C220.813 208.421 221.289 208.389 221.762 208.334L221.974 208.43ZM226.402 207.68H226.595C227.846 207.24 229.011 206.589 230.041 205.754C230.156 205.636 230.221 205.477 230.221 205.311C230.221 205.146 230.156 204.987 230.041 204.868C229.984 204.809 229.915 204.762 229.839 204.73C229.763 204.697 229.681 204.681 229.598 204.681C229.516 204.681 229.434 204.697 229.358 204.73C229.282 204.762 229.213 204.809 229.155 204.868C228.236 205.603 227.201 206.182 226.094 206.582C226.017 206.608 225.945 206.649 225.884 206.703C225.822 206.757 225.772 206.823 225.736 206.896C225.7 206.97 225.679 207.049 225.675 207.131C225.67 207.213 225.682 207.294 225.709 207.371C225.769 207.439 225.844 207.493 225.927 207.53C226.01 207.566 226.1 207.584 226.19 207.583L226.402 207.68ZM302.362 206.64C302.502 206.642 302.638 206.594 302.747 206.505C302.862 206.386 302.926 206.228 302.926 206.062C302.926 205.897 302.862 205.738 302.747 205.619C301.957 204.637 301.129 203.694 300.321 202.731C300.202 202.616 300.043 202.551 299.878 202.551C299.712 202.551 299.553 202.616 299.435 202.731C299.32 202.85 299.255 203.009 299.255 203.174C299.255 203.339 299.32 203.498 299.435 203.617C300.244 204.541 301.052 205.542 301.822 206.467C301.923 206.52 302.036 206.547 302.15 206.544L302.362 206.64ZM215.6 206.544C215.702 206.541 215.801 206.515 215.891 206.468C215.981 206.422 216.059 206.355 216.12 206.274C216.207 206.133 216.236 205.963 216.2 205.802C216.164 205.64 216.066 205.498 215.928 205.408C214.934 204.748 214.034 203.958 213.251 203.058C213.136 202.944 212.98 202.88 212.818 202.88C212.656 202.88 212.5 202.944 212.385 203.058C212.27 203.177 212.205 203.336 212.205 203.501C212.205 203.667 212.27 203.826 212.385 203.944C213.239 204.94 214.231 205.809 215.331 206.524C215.35 206.532 215.369 206.538 215.388 206.544H215.6ZM232.025 202.981C232.135 202.979 232.243 202.947 232.337 202.889C232.432 202.832 232.51 202.751 232.564 202.654C233.199 201.455 233.61 200.15 233.777 198.803C233.787 198.722 233.782 198.64 233.761 198.561C233.739 198.482 233.702 198.408 233.652 198.344C233.602 198.279 233.54 198.225 233.468 198.185C233.397 198.145 233.319 198.12 233.238 198.11C233.077 198.088 232.914 198.13 232.784 198.228C232.654 198.325 232.568 198.469 232.544 198.63C232.385 199.799 232.027 200.932 231.485 201.98C231.445 202.052 231.419 202.131 231.41 202.213C231.401 202.295 231.408 202.378 231.432 202.457C231.455 202.536 231.494 202.609 231.546 202.673C231.598 202.737 231.663 202.789 231.736 202.827C231.76 202.848 231.786 202.867 231.813 202.885L232.025 202.981ZM297.394 201.056C297.558 201.058 297.717 200.996 297.837 200.883C297.952 200.764 298.016 200.605 298.016 200.44C298.016 200.274 297.952 200.116 297.837 199.997C296.951 199.092 296.046 198.206 295.141 197.34C295.022 197.225 294.864 197.16 294.698 197.16C294.533 197.16 294.374 197.225 294.255 197.34C294.141 197.455 294.077 197.611 294.077 197.773C294.077 197.935 294.141 198.091 294.255 198.206C295.141 199.054 296.027 199.939 296.893 200.825C296.981 200.875 297.081 200.902 297.182 200.902L297.394 201.056ZM210.748 201.056C210.843 201.074 210.942 201.074 211.037 201.056C211.18 200.975 211.288 200.842 211.338 200.685C211.388 200.528 211.376 200.358 211.307 200.209C210.764 199.137 210.369 197.997 210.132 196.82C210.114 196.74 210.08 196.664 210.032 196.597C209.984 196.53 209.924 196.474 209.854 196.431C209.784 196.388 209.706 196.359 209.625 196.347C209.544 196.334 209.461 196.338 209.381 196.358C209.301 196.374 209.225 196.406 209.158 196.451C209.09 196.497 209.032 196.555 208.988 196.623C208.943 196.691 208.912 196.768 208.897 196.848C208.882 196.928 208.883 197.01 208.9 197.09C209.179 198.363 209.612 199.598 210.19 200.767C210.282 200.825 210.389 200.858 210.498 200.863L210.748 201.056ZM291.983 195.954C292.071 195.953 292.158 195.934 292.237 195.898C292.317 195.861 292.388 195.808 292.446 195.742C292.561 195.623 292.625 195.464 292.625 195.299C292.625 195.133 292.561 194.975 292.446 194.856L291.29 193.893L289.499 192.488C289.366 192.387 289.199 192.342 289.033 192.364C288.867 192.385 288.716 192.471 288.614 192.603C288.518 192.735 288.477 192.898 288.499 193.059C288.52 193.221 288.603 193.367 288.729 193.47L290.501 194.856L291.637 195.819C291.671 195.803 291.703 195.783 291.733 195.761L291.983 195.954ZM233.218 195.78C233.384 195.761 233.535 195.677 233.639 195.548C233.744 195.418 233.793 195.253 233.777 195.087C233.63 193.781 233.359 192.491 232.968 191.236C232.946 191.157 232.908 191.084 232.857 191.02C232.807 190.956 232.743 190.902 232.672 190.863C232.6 190.823 232.521 190.799 232.44 190.79C232.358 190.781 232.276 190.789 232.198 190.813C232.119 190.834 232.046 190.872 231.983 190.923C231.919 190.974 231.867 191.038 231.829 191.11C231.791 191.182 231.768 191.261 231.762 191.343C231.756 191.424 231.767 191.506 231.793 191.583C232.142 192.747 232.393 193.939 232.544 195.145C232.57 195.249 232.623 195.345 232.697 195.423C232.772 195.5 232.865 195.557 232.968 195.588L233.218 195.78ZM209.246 193.855C209.403 193.855 209.554 193.795 209.669 193.688C209.783 193.581 209.853 193.434 209.862 193.277C209.951 192.093 210.224 190.93 210.671 189.831C210.703 189.756 210.719 189.676 210.72 189.595C210.721 189.514 210.706 189.433 210.675 189.358C210.645 189.283 210.6 189.215 210.543 189.157C210.486 189.099 210.418 189.053 210.344 189.022C210.269 188.99 210.189 188.973 210.108 188.973C210.027 188.972 209.947 188.987 209.871 189.018C209.796 189.048 209.728 189.093 209.67 189.15C209.613 189.207 209.567 189.275 209.535 189.349C209.025 190.575 208.719 191.876 208.63 193.2C208.622 193.283 208.631 193.366 208.656 193.445C208.681 193.524 208.722 193.597 208.776 193.66C208.83 193.723 208.896 193.774 208.97 193.811C209.044 193.848 209.125 193.869 209.208 193.874L209.246 193.855ZM285.764 191.14C285.866 191.142 285.967 191.118 286.058 191.071C286.149 191.024 286.227 190.955 286.284 190.87C286.375 190.734 286.41 190.568 286.381 190.406C286.352 190.245 286.262 190.1 286.13 190.004C285.09 189.291 284.012 188.598 282.953 187.944C282.81 187.858 282.638 187.832 282.476 187.872C282.314 187.912 282.174 188.013 282.087 188.155C282.045 188.225 282.017 188.302 282.005 188.382C281.993 188.462 281.997 188.544 282.016 188.623C282.036 188.702 282.071 188.776 282.119 188.841C282.168 188.906 282.229 188.961 282.298 189.003C283.351 189.657 284.391 190.331 285.418 191.024C285.519 191.097 285.64 191.137 285.764 191.14ZM230.888 188.348C230.971 188.368 231.056 188.368 231.139 188.348C231.291 188.28 231.41 188.156 231.472 188.001C231.533 187.846 231.531 187.673 231.466 187.52C230.985 186.422 230.426 185.267 229.791 184.112C229.753 184.039 229.7 183.975 229.636 183.922C229.573 183.87 229.499 183.831 229.42 183.808C229.341 183.785 229.258 183.777 229.177 183.786C229.095 183.796 229.015 183.821 228.944 183.862C228.8 183.943 228.694 184.077 228.647 184.235C228.601 184.393 228.617 184.563 228.693 184.709C229.31 185.826 229.868 186.942 230.33 188.021C230.375 188.132 230.452 188.228 230.551 188.297C230.651 188.365 230.768 188.403 230.888 188.406V188.348ZM279.275 187.289C279.39 187.292 279.502 187.262 279.601 187.204C279.7 187.147 279.78 187.063 279.834 186.962C279.91 186.815 279.927 186.645 279.88 186.487C279.833 186.329 279.727 186.196 279.583 186.114C278.486 185.518 277.35 184.94 276.214 184.381C276.141 184.346 276.061 184.325 275.98 184.32C275.898 184.315 275.816 184.326 275.739 184.353C275.662 184.38 275.592 184.422 275.531 184.476C275.47 184.531 275.421 184.597 275.386 184.67C275.35 184.744 275.329 184.823 275.324 184.905C275.319 184.986 275.33 185.068 275.357 185.145C275.384 185.222 275.426 185.293 275.481 185.353C275.535 185.414 275.601 185.463 275.675 185.498C276.791 186.037 277.908 186.615 278.986 187.212C279.074 187.264 279.174 187.291 279.275 187.289ZM211.73 186.808C211.822 186.806 211.913 186.785 211.996 186.745C212.079 186.705 212.153 186.648 212.211 186.577C212.99 185.666 213.868 184.846 214.83 184.131C214.899 184.085 214.957 184.026 215.001 183.956C215.045 183.887 215.074 183.809 215.087 183.727C215.1 183.646 215.095 183.563 215.074 183.483C215.053 183.404 215.016 183.329 214.965 183.265C214.919 183.196 214.859 183.138 214.79 183.094C214.72 183.05 214.643 183.02 214.561 183.008C214.48 182.995 214.397 182.999 214.317 183.02C214.237 183.041 214.163 183.079 214.098 183.13C213.051 183.904 212.094 184.796 211.249 185.787C211.139 185.905 211.078 186.06 211.078 186.22C211.078 186.381 211.139 186.536 211.249 186.654C211.334 186.729 211.437 186.782 211.548 186.805C211.66 186.829 211.776 186.823 211.884 186.788L211.73 186.808ZM272.536 184.016C272.658 184.01 272.777 183.971 272.878 183.903C272.98 183.835 273.062 183.741 273.114 183.631C273.146 183.556 273.162 183.476 273.163 183.395C273.164 183.314 273.148 183.233 273.118 183.158C273.088 183.083 273.043 183.015 272.986 182.957C272.929 182.899 272.861 182.853 272.786 182.822C271.612 182.321 270.437 181.859 269.263 181.416C269.107 181.36 268.935 181.366 268.784 181.435C268.633 181.503 268.515 181.628 268.454 181.782C268.399 181.94 268.408 182.114 268.48 182.266C268.552 182.417 268.681 182.534 268.839 182.591C269.995 183.014 271.15 183.476 272.286 183.958C272.395 184.005 272.516 184.018 272.632 183.996L272.536 184.016ZM217.68 182.321C217.767 182.349 217.862 182.349 217.949 182.321C219.052 181.79 220.183 181.32 221.338 180.916C221.416 180.89 221.487 180.849 221.549 180.795C221.61 180.741 221.66 180.675 221.696 180.602C221.732 180.528 221.753 180.448 221.757 180.367C221.762 180.285 221.75 180.203 221.723 180.126C221.697 180.049 221.656 179.977 221.602 179.916C221.548 179.854 221.483 179.804 221.409 179.768C221.336 179.732 221.256 179.712 221.174 179.707C221.093 179.702 221.011 179.714 220.934 179.741C219.726 180.162 218.543 180.65 217.391 181.204C217.244 181.282 217.134 181.415 217.083 181.573C217.033 181.731 217.047 181.903 217.121 182.052C217.192 182.155 217.293 182.234 217.41 182.279C217.527 182.324 217.654 182.332 217.776 182.302L217.68 182.321ZM227.307 181.801C227.424 181.809 227.54 181.775 227.634 181.705C227.705 181.664 227.765 181.609 227.813 181.543C227.862 181.477 227.895 181.402 227.914 181.323C227.932 181.244 227.933 181.162 227.918 181.082C227.903 181.002 227.872 180.925 227.827 180.858C227.519 180.357 227.192 179.876 226.864 179.356L228.578 179.009C228.739 178.981 228.882 178.89 228.976 178.757C229.069 178.623 229.106 178.458 229.078 178.297C229.065 178.215 229.035 178.137 228.99 178.068C228.945 177.998 228.887 177.938 228.819 177.891C228.751 177.845 228.674 177.812 228.593 177.796C228.511 177.78 228.428 177.78 228.347 177.796C227.596 177.931 226.845 178.085 226.113 178.259L225.728 177.719C225.682 177.652 225.623 177.594 225.554 177.55C225.485 177.505 225.408 177.475 225.327 177.46C225.247 177.446 225.164 177.448 225.084 177.466C225.004 177.484 224.928 177.518 224.862 177.565C224.794 177.612 224.736 177.671 224.692 177.74C224.647 177.809 224.617 177.886 224.603 177.966C224.588 178.047 224.59 178.13 224.608 178.21C224.626 178.29 224.66 178.365 224.708 178.432L224.804 178.567H224.65C224.489 178.612 224.352 178.717 224.266 178.86C224.18 179.003 224.152 179.174 224.188 179.337C224.237 179.494 224.344 179.627 224.486 179.709C224.629 179.791 224.797 179.816 224.958 179.78L225.555 179.645C225.998 180.261 226.402 180.896 226.787 181.57C226.848 181.643 226.925 181.7 227.012 181.736C227.099 181.773 227.194 181.789 227.288 181.782L227.307 181.801ZM265.547 181.397C265.679 181.403 265.81 181.364 265.918 181.287C266.026 181.211 266.105 181.1 266.144 180.973C266.192 180.815 266.178 180.644 266.102 180.496C266.026 180.349 265.896 180.237 265.739 180.184C264.545 179.818 263.313 179.452 262.1 179.144C262.022 179.121 261.939 179.114 261.858 179.125C261.777 179.135 261.699 179.161 261.629 179.203C261.558 179.244 261.497 179.3 261.449 179.366C261.401 179.432 261.367 179.507 261.349 179.587C261.329 179.665 261.324 179.747 261.336 179.827C261.347 179.907 261.374 179.985 261.415 180.054C261.456 180.124 261.511 180.185 261.575 180.234C261.64 180.282 261.714 180.318 261.792 180.338C262.986 180.646 264.18 181.012 265.374 181.378L265.547 181.397ZM258.307 179.472C258.45 179.473 258.589 179.424 258.698 179.332C258.808 179.24 258.881 179.112 258.904 178.971C258.921 178.891 258.922 178.809 258.907 178.729C258.891 178.649 258.861 178.573 258.816 178.505C258.771 178.437 258.713 178.378 258.646 178.333C258.578 178.287 258.502 178.255 258.423 178.239C257.19 177.97 255.939 177.739 254.706 177.546C254.546 177.518 254.38 177.555 254.247 177.649C254.113 177.743 254.022 177.886 253.994 178.047C253.977 178.128 253.978 178.212 253.996 178.293C254.013 178.374 254.048 178.451 254.097 178.518C254.146 178.585 254.208 178.641 254.28 178.682C254.352 178.724 254.431 178.75 254.514 178.759C255.727 178.971 256.959 179.202 258.172 179.452L258.307 179.472ZM232.178 178.413C233.391 178.239 234.643 178.104 235.875 178.008C236.041 177.993 236.193 177.915 236.301 177.789C236.409 177.663 236.464 177.5 236.453 177.334C236.446 177.253 236.423 177.174 236.385 177.102C236.347 177.03 236.295 176.967 236.232 176.915C236.17 176.863 236.097 176.824 236.02 176.8C235.942 176.776 235.86 176.768 235.779 176.776C234.528 176.776 233.257 177.007 231.928 177.18C231.848 177.19 231.77 177.215 231.7 177.256C231.629 177.296 231.568 177.35 231.519 177.415C231.471 177.48 231.436 177.554 231.417 177.633C231.397 177.712 231.395 177.793 231.408 177.873C231.415 177.967 231.443 178.058 231.491 178.138C231.538 178.219 231.603 178.288 231.681 178.34C231.759 178.392 231.848 178.426 231.941 178.438C232.034 178.451 232.128 178.442 232.217 178.413H232.178ZM250.894 178.259C251.048 178.259 251.196 178.202 251.311 178.099C251.425 177.996 251.496 177.853 251.51 177.7C251.526 177.54 251.479 177.379 251.378 177.253C251.277 177.127 251.131 177.046 250.971 177.026C249.719 176.872 248.449 176.757 247.12 176.68C247.039 176.674 246.958 176.685 246.881 176.711C246.804 176.738 246.734 176.779 246.673 176.833C246.612 176.886 246.562 176.951 246.527 177.024C246.491 177.097 246.47 177.176 246.465 177.257C246.458 177.339 246.466 177.421 246.492 177.499C246.517 177.577 246.558 177.649 246.612 177.71C246.666 177.772 246.732 177.821 246.807 177.856C246.881 177.891 246.961 177.91 247.043 177.912C248.275 178.008 249.527 178.104 250.74 178.259H250.894ZM239.649 177.796C240.901 177.796 242.133 177.796 243.385 177.796C243.465 177.799 243.544 177.785 243.619 177.757C243.694 177.728 243.762 177.684 243.819 177.629C243.877 177.573 243.922 177.506 243.954 177.432C243.985 177.359 244.001 177.28 244.001 177.2C244.003 177.119 243.99 177.038 243.961 176.962C243.933 176.886 243.889 176.817 243.834 176.758C243.779 176.699 243.712 176.652 243.638 176.618C243.564 176.585 243.485 176.567 243.404 176.564C242.133 176.564 240.882 176.564 239.553 176.564C239.47 176.567 239.389 176.586 239.314 176.62C239.239 176.655 239.171 176.704 239.116 176.765C239.06 176.826 239.017 176.898 238.99 176.976C238.962 177.054 238.951 177.136 238.956 177.219C238.96 177.307 238.983 177.394 239.023 177.472C239.064 177.551 239.12 177.62 239.19 177.675C239.259 177.73 239.34 177.769 239.426 177.79C239.512 177.811 239.601 177.813 239.688 177.796H239.649ZM222.994 175.659C223.134 175.661 223.271 175.613 223.379 175.524C223.493 175.409 223.557 175.253 223.557 175.091C223.557 174.929 223.493 174.773 223.379 174.658C222.609 173.657 221.8 172.732 220.992 171.712C220.876 171.598 220.721 171.534 220.558 171.534C220.396 171.534 220.241 171.598 220.125 171.712C220.01 171.831 219.945 171.989 219.945 172.155C219.945 172.32 220.01 172.479 220.125 172.598C220.915 173.522 221.723 174.523 222.474 175.467C222.535 175.557 222.619 175.629 222.717 175.677C222.815 175.724 222.924 175.745 223.033 175.736L222.994 175.659ZM218.103 169.883C218.182 169.883 218.26 169.868 218.333 169.838C218.405 169.809 218.471 169.765 218.527 169.709C218.586 169.654 218.633 169.587 218.665 169.512C218.697 169.438 218.713 169.357 218.713 169.276C218.713 169.195 218.697 169.115 218.665 169.04C218.633 168.966 218.586 168.899 218.527 168.843C217.661 167.919 216.756 167.033 215.831 166.186C215.776 166.127 215.708 166.08 215.634 166.048C215.559 166.016 215.479 166 215.398 166C215.317 166 215.237 166.016 215.162 166.048C215.088 166.08 215.021 166.127 214.965 166.186C214.905 166.243 214.858 166.312 214.826 166.388C214.794 166.464 214.777 166.546 214.777 166.629C214.777 166.711 214.794 166.793 214.826 166.869C214.858 166.945 214.905 167.014 214.965 167.072C215.87 167.9 216.756 168.785 217.622 169.671C217.673 169.763 217.748 169.839 217.84 169.89C217.932 169.941 218.037 169.966 218.142 169.96L218.103 169.883ZM212.616 164.78C212.798 164.776 212.971 164.7 213.097 164.569C213.212 164.45 213.277 164.291 213.277 164.126C213.277 163.96 213.212 163.801 213.097 163.683C212.115 162.874 211.172 162.104 210.093 161.372C210.027 161.325 209.951 161.291 209.871 161.273C209.791 161.255 209.709 161.253 209.628 161.267C209.547 161.282 209.47 161.312 209.401 161.356C209.333 161.401 209.273 161.459 209.227 161.526C209.178 161.592 209.143 161.666 209.124 161.746C209.104 161.825 209.101 161.907 209.113 161.988C209.126 162.068 209.154 162.146 209.197 162.215C209.24 162.285 209.296 162.345 209.362 162.393C210.363 163.112 211.345 163.862 212.308 164.645C212.395 164.754 212.518 164.829 212.654 164.857L212.616 164.78ZM206.512 160.429C206.616 160.428 206.718 160.402 206.809 160.351C206.9 160.301 206.977 160.228 207.032 160.14C207.119 159.999 207.148 159.829 207.112 159.667C207.076 159.506 206.978 159.364 206.839 159.273C205.761 158.619 204.644 157.983 203.528 157.348C203.379 157.273 203.207 157.26 203.049 157.31C202.891 157.36 202.758 157.471 202.68 157.618C202.606 157.763 202.593 157.932 202.644 158.087C202.694 158.243 202.805 158.371 202.95 158.445C204.047 159.023 205.126 159.639 206.185 160.371C206.234 160.417 206.291 160.452 206.354 160.475C206.417 160.499 206.484 160.509 206.551 160.506L206.512 160.429ZM199.85 156.963C199.972 156.966 200.091 156.933 200.194 156.867C200.297 156.802 200.378 156.708 200.428 156.597C200.459 156.522 200.476 156.442 200.477 156.361C200.477 156.28 200.462 156.2 200.432 156.125C200.401 156.05 200.356 155.981 200.3 155.924C200.243 155.866 200.175 155.82 200.1 155.788C198.945 155.288 197.751 154.826 196.557 154.402C196.48 154.375 196.399 154.363 196.317 154.368C196.235 154.373 196.156 154.393 196.082 154.429C196.009 154.465 195.943 154.515 195.889 154.577C195.835 154.638 195.794 154.71 195.768 154.787C195.741 154.864 195.729 154.946 195.734 155.028C195.738 155.109 195.759 155.189 195.795 155.262C195.831 155.336 195.881 155.402 195.943 155.456C196.004 155.509 196.076 155.551 196.153 155.577C197.308 155.981 198.483 156.443 199.6 156.924C199.684 156.987 199.784 157.027 199.889 157.04L199.85 156.963ZM151.906 155.423H152.041L155.699 154.652C155.781 154.639 155.859 154.608 155.928 154.564C155.998 154.519 156.058 154.461 156.105 154.393C156.151 154.325 156.184 154.247 156.2 154.166C156.217 154.085 156.216 154.002 156.2 153.921C156.163 153.762 156.066 153.623 155.93 153.534C155.794 153.444 155.629 153.41 155.468 153.439C154.236 153.67 153.004 153.94 151.771 154.21C151.613 154.246 151.474 154.343 151.384 154.479C151.295 154.615 151.261 154.781 151.29 154.941C151.313 155.098 151.392 155.24 151.513 155.343C151.633 155.446 151.786 155.501 151.945 155.5L151.906 155.423ZM192.764 154.498C192.904 154.503 193.041 154.459 193.153 154.375C193.265 154.291 193.346 154.172 193.38 154.036C193.401 153.958 193.405 153.876 193.394 153.796C193.383 153.716 193.356 153.639 193.315 153.569C193.274 153.499 193.219 153.438 193.154 153.39C193.09 153.341 193.016 153.305 192.938 153.285C191.725 152.958 190.492 152.65 189.241 152.4C189.078 152.371 188.91 152.408 188.773 152.501C188.637 152.595 188.542 152.738 188.509 152.9C188.48 153.061 188.514 153.226 188.603 153.362C188.693 153.498 188.832 153.595 188.99 153.632C190.223 153.863 191.436 154.152 192.61 154.479L192.764 154.498ZM159.261 153.959H159.377C160.66 153.741 161.893 153.548 163.074 153.382C163.236 153.353 163.38 153.263 163.477 153.13C163.574 152.997 163.616 152.832 163.594 152.669C163.584 152.589 163.559 152.511 163.518 152.44C163.478 152.37 163.424 152.309 163.359 152.26C163.294 152.211 163.22 152.177 163.141 152.158C163.062 152.138 162.98 152.136 162.9 152.149C161.649 152.323 160.417 152.515 159.165 152.727C159.004 152.755 158.861 152.846 158.767 152.98C158.673 153.113 158.636 153.278 158.664 153.439C158.664 153.521 158.681 153.602 158.713 153.677C158.746 153.752 158.793 153.82 158.853 153.876C158.912 153.932 158.983 153.975 159.06 154.002C159.136 154.03 159.218 154.042 159.3 154.036L159.261 153.959ZM185.428 153.016C185.578 153.013 185.722 152.957 185.835 152.859C185.948 152.76 186.022 152.625 186.044 152.477C186.055 152.396 186.05 152.313 186.028 152.234C186.007 152.155 185.97 152.082 185.92 152.017C185.87 151.953 185.807 151.899 185.736 151.859C185.665 151.818 185.586 151.793 185.505 151.783C184.273 151.61 183.002 151.475 181.654 151.379C181.574 151.371 181.494 151.379 181.417 151.403C181.34 151.427 181.269 151.467 181.208 151.519C181.147 151.571 181.097 151.635 181.061 151.707C181.025 151.779 181.005 151.857 181 151.937C180.992 152.018 181 152.1 181.024 152.178C181.048 152.256 181.087 152.328 181.138 152.391C181.19 152.453 181.254 152.505 181.326 152.543C181.398 152.581 181.477 152.604 181.558 152.611C182.81 152.708 184.061 152.842 185.255 153.016H185.428ZM166.694 152.919C167.926 152.785 169.177 152.688 170.41 152.592C170.491 152.587 170.57 152.566 170.643 152.531C170.716 152.495 170.781 152.446 170.834 152.385C170.888 152.324 170.929 152.253 170.956 152.176C170.982 152.1 170.993 152.018 170.987 151.937C170.983 151.855 170.961 151.774 170.924 151.7C170.888 151.625 170.836 151.559 170.773 151.505C170.71 151.451 170.637 151.411 170.558 151.386C170.479 151.361 170.396 151.352 170.313 151.36C169.062 151.36 167.81 151.552 166.462 151.687C166.381 151.694 166.303 151.718 166.231 151.755C166.159 151.793 166.095 151.845 166.043 151.908C165.991 151.97 165.952 152.043 165.928 152.121C165.904 152.198 165.896 152.28 165.904 152.361C165.894 152.465 165.911 152.57 165.953 152.665C165.994 152.761 166.06 152.844 166.142 152.908C166.225 152.971 166.323 153.013 166.426 153.028C166.529 153.044 166.634 153.033 166.732 152.996L166.694 152.919ZM177.938 152.419C178.1 152.419 178.256 152.357 178.374 152.247C178.493 152.136 178.564 151.984 178.574 151.822C178.576 151.739 178.562 151.657 178.532 151.58C178.503 151.503 178.458 151.433 178.4 151.374C178.343 151.314 178.274 151.267 178.198 151.235C178.122 151.203 178.04 151.186 177.958 151.187C176.706 151.187 175.435 151.187 174.107 151.187C174.024 151.186 173.942 151.203 173.866 151.235C173.79 151.267 173.721 151.314 173.664 151.374C173.606 151.433 173.561 151.503 173.532 151.58C173.502 151.657 173.488 151.739 173.49 151.822C173.495 151.982 173.562 152.134 173.678 152.245C173.793 152.357 173.946 152.419 174.107 152.419H177.861H177.938Z" fill="#999999"/>
<path d="M81.7451 52.2378L76.3154 54.5868L54.6154 39.4527L48.8391 42.649C44.1987 45.4216 39.6931 45.6142 37.5366 44.3819L37.0937 44.5937C33.7434 46.0571 31.7601 44.7477 31.0862 43.1688C30.4123 41.5899 30.7975 39.3179 34.1478 37.816L34.5906 37.6235C34.9949 35.698 36.7472 32.4633 43.5826 30.5571L49.8788 28.5353L53.7297 2.36828L59.1595 0L63.3763 24.2416L78.8955 18.9273L81.2446 12.708L85.5576 11.1099L85.8656 16.8863L87.406 16.7515L88.8117 19.967L87.6563 21.103L91.7383 25.3391L87.6179 27.3993L81.4949 24.8577L66.9961 32.5596L81.7451 52.2378ZM81.3409 23.4521L87.5024 26.013L89.4278 25.0117L85.6924 21.1608L87.098 19.736L86.4433 18.2149L84.5178 18.3881L84.2291 12.9969L82.1302 13.767L79.7812 20.0055L62.221 25.9937L58.0427 1.90619L54.7887 3.3118L51.0341 29.5751L43.9291 31.8471C37.3056 33.6763 35.9962 36.6415 35.8036 38.2396V38.644L35.4185 38.7788C35.1739 38.8484 34.9356 38.9386 34.7061 39.0484C32.6459 39.9341 31.7217 41.3396 32.3186 42.6875C32.9154 44.0353 34.5521 44.3434 36.6123 43.4384C36.8441 43.3448 37.0694 43.2354 37.2863 43.1111L37.6521 42.8993L37.9987 43.1496C39.4043 44.1894 43.5055 44.3819 48.2422 41.5707L54.7117 37.9508L76.4694 53.1427L79.7234 51.7372L64.9744 32.2129L81.3409 23.4521Z" fill="#999999"/>
<path d="M268.091 213.841C268.195 213.842 268.298 213.816 268.39 213.766C268.481 213.715 268.557 213.641 268.611 213.552C269.304 212.499 269.946 211.44 270.536 210.375C270.624 210.234 270.652 210.065 270.616 209.903C270.581 209.741 270.483 209.599 270.344 209.509C270.201 209.423 270.029 209.397 269.867 209.437C269.705 209.477 269.565 209.578 269.477 209.72C268.823 210.779 268.168 211.819 267.552 212.878C267.505 212.946 267.473 213.023 267.456 213.103C267.44 213.184 267.439 213.267 267.456 213.348C267.472 213.429 267.504 213.505 267.55 213.574C267.597 213.642 267.656 213.7 267.725 213.745C267.838 213.806 267.963 213.839 268.091 213.841ZM271.942 207.448C272.051 207.447 272.157 207.419 272.252 207.365C272.346 207.311 272.425 207.233 272.481 207.14C273.097 206.043 273.713 204.945 274.407 203.848C274.484 203.704 274.504 203.536 274.461 203.378C274.418 203.22 274.316 203.085 274.175 203.001C274.029 202.924 273.859 202.908 273.701 202.954C273.543 203.001 273.409 203.107 273.328 203.251C272.731 204.348 272.115 205.427 271.499 206.505C271.414 206.648 271.388 206.819 271.427 206.981C271.467 207.144 271.569 207.284 271.711 207.371C271.811 207.426 271.924 207.453 272.038 207.448H271.942ZM275.523 200.863C275.639 200.862 275.752 200.829 275.851 200.768C275.949 200.707 276.029 200.62 276.082 200.517C276.659 199.4 277.218 198.264 277.757 197.147C277.793 197.074 277.814 196.994 277.819 196.913C277.824 196.831 277.812 196.75 277.785 196.673C277.759 196.596 277.717 196.525 277.662 196.464C277.608 196.403 277.542 196.354 277.468 196.319C277.395 196.283 277.315 196.262 277.234 196.257C277.152 196.252 277.071 196.264 276.994 196.291C276.917 196.317 276.846 196.359 276.785 196.414C276.724 196.468 276.675 196.534 276.64 196.608C276.101 197.725 275.543 198.842 274.965 199.958C274.929 200.032 274.908 200.111 274.903 200.193C274.898 200.274 274.909 200.356 274.936 200.433C274.963 200.51 275.005 200.581 275.06 200.641C275.114 200.702 275.18 200.751 275.254 200.786C275.305 200.825 275.365 200.852 275.428 200.865C275.491 200.879 275.557 200.878 275.62 200.863H275.523ZM278.777 194.086C278.898 194.084 279.016 194.049 279.118 193.984C279.22 193.92 279.302 193.828 279.355 193.72L280.857 190.273C280.921 190.117 280.92 189.943 280.855 189.788C280.79 189.632 280.666 189.509 280.51 189.445C280.357 189.388 280.187 189.391 280.036 189.456C279.886 189.521 279.766 189.641 279.702 189.792C279.22 190.928 278.72 192.064 278.219 193.219C278.184 193.292 278.164 193.372 278.161 193.452C278.157 193.533 278.171 193.614 278.2 193.69C278.228 193.765 278.272 193.834 278.329 193.892C278.385 193.951 278.452 193.997 278.527 194.028C278.634 194.081 278.755 194.102 278.874 194.086H278.777ZM281.685 187.173C281.808 187.172 281.928 187.135 282.031 187.067C282.133 186.998 282.214 186.901 282.262 186.788C282.725 185.594 283.167 184.42 283.61 183.245C283.638 183.168 283.649 183.086 283.644 183.005C283.64 182.923 283.619 182.843 283.583 182.77C283.547 182.696 283.497 182.631 283.436 182.577C283.374 182.523 283.303 182.482 283.225 182.456C283.072 182.405 282.905 182.414 282.758 182.482C282.611 182.55 282.496 182.672 282.436 182.822C282.012 183.996 281.569 185.151 281.107 186.326C281.049 186.479 281.053 186.649 281.118 186.8C281.182 186.951 281.303 187.071 281.454 187.135L281.685 187.173ZM284.265 180.126C284.393 180.124 284.518 180.083 284.622 180.007C284.725 179.931 284.802 179.824 284.843 179.702C285.266 178.509 285.651 177.315 286.017 176.121C286.066 175.963 286.051 175.792 285.976 175.644C285.9 175.497 285.77 175.385 285.613 175.332C285.454 175.283 285.283 175.298 285.136 175.373C284.988 175.449 284.876 175.579 284.823 175.736C284.458 176.93 284.072 178.104 283.668 179.298C283.619 179.456 283.634 179.628 283.71 179.775C283.785 179.923 283.915 180.035 284.072 180.088L284.265 180.126ZM286.498 172.963C286.634 172.96 286.766 172.914 286.873 172.831C286.98 172.747 287.058 172.632 287.095 172.501C287.442 171.288 287.789 170.075 288.097 168.881C288.138 168.721 288.115 168.55 288.032 168.406C287.949 168.262 287.814 168.156 287.654 168.111C287.575 168.091 287.494 168.086 287.414 168.098C287.333 168.109 287.256 168.136 287.187 168.177C287.117 168.218 287.056 168.273 287.007 168.337C286.958 168.402 286.923 168.476 286.903 168.554C286.576 169.748 286.248 170.961 285.902 172.155C285.878 172.233 285.87 172.315 285.879 172.397C285.888 172.478 285.912 172.557 285.952 172.629C285.991 172.7 286.045 172.763 286.109 172.814C286.173 172.865 286.246 172.903 286.325 172.925L286.498 172.963ZM288.424 165.704C288.562 165.7 288.695 165.651 288.803 165.564C288.911 165.477 288.987 165.357 289.021 165.223C289.31 163.991 289.598 162.758 289.849 161.545C289.869 161.467 289.872 161.385 289.86 161.305C289.847 161.225 289.818 161.149 289.775 161.08C289.732 161.012 289.675 160.953 289.608 160.907C289.541 160.861 289.466 160.829 289.387 160.814C289.307 160.794 289.224 160.79 289.143 160.802C289.062 160.815 288.984 160.843 288.914 160.887C288.844 160.93 288.783 160.986 288.735 161.053C288.688 161.12 288.654 161.196 288.636 161.276C288.385 162.489 288.097 163.702 287.808 164.934C287.773 165.095 287.801 165.263 287.887 165.403C287.974 165.543 288.111 165.644 288.27 165.685L288.424 165.704ZM290.003 158.349C290.148 158.352 290.29 158.303 290.402 158.211C290.515 158.12 290.592 157.991 290.619 157.848C290.85 156.616 291.081 155.384 291.293 154.152C291.321 153.991 291.284 153.825 291.19 153.692C291.096 153.558 290.953 153.467 290.792 153.439C290.711 153.422 290.628 153.422 290.546 153.439C290.465 153.455 290.388 153.487 290.32 153.534C290.252 153.581 290.194 153.641 290.149 153.711C290.105 153.78 290.074 153.858 290.061 153.94C289.849 155.153 289.637 156.385 289.387 157.617C289.37 157.698 289.37 157.782 289.386 157.863C289.402 157.944 289.435 158.021 289.482 158.089C289.528 158.158 289.588 158.216 289.658 158.261C289.728 158.305 289.806 158.335 289.887 158.349H290.003ZM291.274 150.955C291.423 150.961 291.569 150.911 291.683 150.815C291.797 150.719 291.871 150.583 291.89 150.435C292.082 149.184 292.256 147.932 292.41 146.7C292.42 146.619 292.415 146.537 292.394 146.458C292.372 146.379 292.335 146.305 292.285 146.241C292.235 146.176 292.173 146.122 292.101 146.082C292.03 146.042 291.952 146.016 291.87 146.007C291.789 145.993 291.706 145.997 291.626 146.017C291.546 146.037 291.471 146.074 291.406 146.124C291.341 146.175 291.287 146.239 291.247 146.311C291.208 146.384 291.184 146.464 291.177 146.546C291.023 147.753 290.85 148.985 290.657 150.243C290.635 150.406 290.677 150.571 290.774 150.704C290.871 150.837 291.015 150.927 291.177 150.955H291.274ZM292.217 143.504C292.372 143.509 292.523 143.454 292.638 143.35C292.753 143.245 292.823 143.1 292.833 142.945C292.968 141.694 293.103 140.442 293.199 139.21C293.21 139.044 293.155 138.881 293.047 138.755C292.94 138.63 292.787 138.551 292.621 138.536C292.541 138.525 292.459 138.531 292.381 138.554C292.303 138.577 292.231 138.616 292.169 138.669C292.108 138.722 292.058 138.787 292.023 138.86C291.988 138.933 291.969 139.013 291.967 139.094C291.851 140.327 291.736 141.578 291.601 142.83C291.593 142.911 291.601 142.993 291.625 143.07C291.649 143.148 291.688 143.221 291.74 143.283C291.792 143.346 291.855 143.398 291.927 143.435C292 143.473 292.078 143.497 292.159 143.504H292.217ZM292.852 136.033C293.009 136.033 293.161 135.974 293.275 135.866C293.39 135.759 293.459 135.612 293.469 135.455C293.469 134.165 293.623 132.914 293.661 131.604C293.666 131.522 293.655 131.439 293.628 131.361C293.6 131.283 293.557 131.212 293.502 131.151C293.446 131.089 293.378 131.04 293.303 131.006C293.228 130.971 293.147 130.952 293.064 130.95C292.903 130.957 292.749 131.021 292.629 131.13C292.51 131.239 292.432 131.386 292.41 131.547C292.41 132.779 292.41 134.03 292.236 135.282C292.226 135.448 292.28 135.611 292.388 135.737C292.496 135.862 292.649 135.941 292.814 135.956L292.852 136.033ZM293.141 128.524C293.305 128.524 293.461 128.459 293.577 128.343C293.693 128.228 293.758 128.071 293.758 127.908C293.758 127.022 293.758 126.155 293.758 125.289V124.153C293.758 123.989 293.693 123.833 293.577 123.717C293.461 123.602 293.305 123.537 293.141 123.537C292.978 123.537 292.821 123.602 292.706 123.717C292.59 123.833 292.525 123.989 292.525 124.153V125.289C292.525 126.155 292.525 127.022 292.525 127.888C292.523 127.971 292.537 128.053 292.566 128.13C292.596 128.207 292.641 128.277 292.699 128.336C292.756 128.396 292.825 128.443 292.901 128.475C292.977 128.507 293.059 128.524 293.141 128.524ZM293.141 121.014C293.224 121.014 293.306 120.998 293.382 120.966C293.458 120.934 293.526 120.886 293.584 120.827C293.641 120.768 293.686 120.698 293.716 120.621C293.746 120.544 293.76 120.461 293.758 120.379C293.758 119.089 293.642 117.837 293.584 116.528C293.569 116.363 293.491 116.21 293.365 116.102C293.239 115.994 293.076 115.94 292.91 115.95C292.829 115.955 292.75 115.976 292.677 116.012C292.604 116.047 292.539 116.097 292.485 116.158C292.432 116.219 292.391 116.289 292.364 116.366C292.338 116.443 292.327 116.524 292.333 116.605C292.333 117.818 292.467 119.07 292.506 120.34C292.497 120.431 292.508 120.523 292.539 120.609C292.57 120.694 292.619 120.772 292.683 120.837C292.748 120.901 292.826 120.951 292.912 120.981C292.998 121.012 293.089 121.023 293.18 121.014H293.141ZM292.698 113.524C292.779 113.517 292.858 113.494 292.93 113.456C293.002 113.418 293.066 113.366 293.118 113.304C293.17 113.241 293.209 113.169 293.233 113.091C293.257 113.013 293.265 112.931 293.257 112.85C293.141 111.567 293.007 110.283 292.852 108.999C292.846 108.917 292.822 108.837 292.783 108.765C292.743 108.692 292.689 108.629 292.624 108.578C292.559 108.527 292.484 108.491 292.404 108.47C292.324 108.45 292.241 108.447 292.159 108.46C291.998 108.484 291.851 108.57 291.751 108.699C291.65 108.828 291.604 108.991 291.62 109.154C291.774 110.328 291.909 111.58 292.025 112.87C292.017 112.964 292.031 113.06 292.067 113.148C292.102 113.236 292.157 113.315 292.228 113.379C292.299 113.442 292.383 113.488 292.475 113.513C292.567 113.539 292.663 113.542 292.756 113.524H292.698ZM291.774 106.073C291.935 106.045 292.078 105.954 292.172 105.82C292.266 105.687 292.303 105.521 292.275 105.36L292.159 104.609C291.986 103.627 291.794 102.684 291.601 101.644C291.585 101.564 291.553 101.489 291.508 101.421C291.462 101.353 291.404 101.296 291.336 101.251C291.267 101.206 291.191 101.175 291.111 101.16C291.031 101.145 290.949 101.146 290.869 101.163C290.788 101.176 290.711 101.207 290.642 101.251C290.573 101.296 290.514 101.355 290.469 101.424C290.424 101.492 290.393 101.57 290.379 101.651C290.365 101.732 290.368 101.815 290.388 101.895C290.58 102.876 290.754 103.82 290.927 104.821L291.062 105.553C291.07 105.64 291.097 105.723 291.141 105.798C291.185 105.873 291.245 105.938 291.316 105.988C291.388 106.037 291.469 106.07 291.555 106.085C291.641 106.1 291.729 106.096 291.813 106.073H291.774ZM290.292 98.7175H290.426C290.506 98.7017 290.581 98.6699 290.648 98.6241C290.715 98.5782 290.771 98.5193 290.815 98.4509C290.858 98.3824 290.887 98.3059 290.899 98.226C290.912 98.146 290.908 98.0643 290.889 97.9858C290.6 96.7535 290.311 95.5405 289.984 94.3082C289.961 94.2294 289.924 94.1558 289.873 94.0917C289.822 94.0276 289.759 93.9743 289.687 93.9349C289.616 93.8955 289.537 93.8707 289.455 93.8621C289.374 93.8534 289.292 93.8611 289.213 93.8846C289.135 93.9048 289.061 93.9402 288.997 93.9889C288.932 94.0376 288.877 94.0985 288.836 94.1683C288.795 94.238 288.768 94.3152 288.757 94.3954C288.746 94.4755 288.75 94.5572 288.771 94.6355C289.098 95.8486 289.406 97.0424 289.676 98.2554C289.715 98.3959 289.802 98.5185 289.921 98.6027C290.04 98.6868 290.185 98.7274 290.33 98.7175H290.292ZM288.366 91.4778H288.539C288.618 91.4557 288.692 91.4181 288.756 91.3672C288.82 91.3163 288.873 91.2532 288.913 91.1815C288.952 91.1098 288.977 91.031 288.986 90.9496C288.994 90.8682 288.987 90.786 288.963 90.7076C288.597 89.4945 288.212 88.3008 287.808 87.107C287.782 87.0295 287.741 86.9579 287.687 86.8965C287.633 86.835 287.567 86.7849 287.494 86.7491C287.42 86.7132 287.34 86.6924 287.259 86.6877C287.177 86.683 287.095 86.6947 287.018 86.7219C286.941 86.7479 286.869 86.789 286.808 86.8429C286.746 86.8969 286.696 86.9625 286.66 87.0359C286.625 87.1094 286.604 87.1893 286.599 87.2709C286.594 87.3525 286.606 87.4342 286.633 87.5113C287.038 88.6858 287.403 89.8796 287.769 91.0734C287.815 91.1982 287.899 91.305 288.01 91.3779C288.121 91.4507 288.253 91.4858 288.385 91.4778H288.366ZM285.959 84.3536C286.029 84.3715 286.102 84.3715 286.171 84.3536C286.324 84.2972 286.449 84.1824 286.517 84.0345C286.586 83.8865 286.593 83.7173 286.537 83.5641C286.094 82.3896 285.632 81.2151 285.131 80.0598C285.102 79.9834 285.057 79.9138 285 79.8549C284.943 79.7959 284.875 79.7489 284.8 79.7167C284.725 79.6844 284.644 79.6675 284.562 79.6669C284.48 79.6663 284.398 79.682 284.323 79.7132C284.248 79.7447 284.18 79.7907 284.124 79.8484C284.067 79.9062 284.022 79.9745 283.991 80.0496C283.961 80.1248 283.946 80.2051 283.946 80.2862C283.947 80.3672 283.964 80.4473 283.995 80.5219C284.477 81.6772 284.939 82.8325 285.362 84.007C285.419 84.1193 285.508 84.2122 285.618 84.2739C285.728 84.3356 285.853 84.3633 285.979 84.3536H285.959ZM283.129 77.5374C283.218 77.5556 283.31 77.5556 283.399 77.5374C283.547 77.4663 283.662 77.3402 283.72 77.1857C283.777 77.0313 283.773 76.8605 283.707 76.7095C283.167 75.5735 282.628 74.4374 282.051 73.3014C281.973 73.1595 281.844 73.0526 281.69 73.0025C281.536 72.9524 281.369 72.9629 281.223 73.0319C281.073 73.1064 280.958 73.2373 280.904 73.396C280.85 73.5547 280.86 73.7283 280.934 73.8791C281.512 74.9766 282.051 76.0933 282.571 77.2293C282.625 77.3282 282.706 77.4097 282.805 77.4642C282.904 77.5187 283.016 77.5441 283.129 77.5374ZM279.74 70.8368C279.835 70.8631 279.934 70.8631 280.029 70.8368C280.102 70.7985 280.166 70.7459 280.219 70.6823C280.271 70.6186 280.31 70.5451 280.333 70.4661C280.356 70.3871 280.364 70.3042 280.354 70.2224C280.345 70.1406 280.32 70.0614 280.279 69.9896C279.663 68.8921 279.028 67.7946 278.354 66.7356C278.314 66.6639 278.26 66.6011 278.195 66.5512C278.13 66.5013 278.056 66.4653 277.976 66.4454C277.897 66.4256 277.814 66.4223 277.733 66.4358C277.653 66.4492 277.575 66.4792 277.507 66.5238C277.437 66.5654 277.376 66.6203 277.328 66.6855C277.279 66.7506 277.244 66.8247 277.225 66.9034C277.205 66.9821 277.201 67.0639 277.213 67.1442C277.225 67.2244 277.253 67.3015 277.295 67.371C277.949 68.43 278.566 69.5082 279.22 70.6058C279.284 70.6591 279.358 70.6986 279.437 70.7218C279.517 70.745 279.6 70.7514 279.682 70.7406L279.74 70.8368ZM275.889 64.425C276.002 64.4593 276.123 64.4593 276.236 64.425C276.305 64.3803 276.365 64.3222 276.411 64.254C276.457 64.1859 276.489 64.1092 276.505 64.0284C276.522 63.9476 276.521 63.8644 276.505 63.7837C276.488 63.703 276.456 63.6265 276.409 63.5586C275.697 62.5188 274.984 61.4791 274.233 60.4586C274.134 60.3291 273.988 60.2429 273.827 60.2178C273.666 60.1927 273.501 60.2306 273.367 60.3238C273.237 60.4232 273.151 60.5687 273.126 60.7301C273.101 60.8914 273.139 61.0562 273.232 61.1902C273.964 62.1915 274.676 63.212 275.369 64.2518C275.491 64.323 275.634 64.3502 275.774 64.3288L275.889 64.425ZM191.169 60.1698H191.958C192.039 60.1649 192.118 60.144 192.191 60.1084C192.264 60.0729 192.329 60.0232 192.383 59.9624C192.437 59.9016 192.478 59.8308 192.504 59.754C192.53 59.6772 192.541 59.5961 192.536 59.5151C192.534 59.4332 192.515 59.3527 192.48 59.2786C192.445 59.2044 192.396 59.1381 192.334 59.084C192.273 59.0298 192.201 58.9888 192.123 58.9636C192.045 58.9384 191.963 58.9295 191.881 58.9375C191.145 59.0051 190.404 59.0051 189.667 58.9375C189.226 58.882 188.788 58.7984 188.358 58.6872C188.197 58.6457 188.026 58.6688 187.882 58.7516C187.738 58.8344 187.633 58.9702 187.588 59.13C187.568 59.2097 187.564 59.2926 187.576 59.3738C187.589 59.455 187.617 59.5328 187.66 59.6028C187.703 59.6728 187.76 59.7334 187.827 59.7812C187.894 59.829 187.969 59.8629 188.05 59.8809C188.535 60.0159 189.031 60.1125 189.532 60.1698C190.008 60.1604 190.484 60.1282 190.957 60.0735L191.169 60.1698ZM195.597 59.4188H195.79C197.041 58.9795 198.207 58.3282 199.237 57.4934C199.352 57.3748 199.416 57.2159 199.416 57.0505C199.416 56.8851 199.352 56.7263 199.237 56.6077C199.179 56.5483 199.11 56.501 199.034 56.4688C198.958 56.4365 198.876 56.4199 198.794 56.4199C198.711 56.4199 198.629 56.4365 198.553 56.4688C198.477 56.501 198.408 56.5483 198.351 56.6077C197.431 57.3425 196.397 57.9214 195.289 58.3213C195.212 58.3473 195.14 58.3885 195.079 58.4424C195.017 58.4963 194.967 58.5619 194.931 58.6354C194.896 58.7088 194.875 58.7887 194.87 58.8703C194.865 58.9519 194.877 59.0337 194.904 59.1107C194.965 59.1784 195.039 59.2323 195.122 59.2688C195.205 59.3053 195.295 59.3237 195.386 59.3225L195.597 59.4188ZM271.557 58.3791C271.697 58.3808 271.833 58.3331 271.942 58.2443C272.057 58.1257 272.122 57.9668 272.122 57.8014C272.122 57.6361 272.057 57.4772 271.942 57.3586C271.153 56.3766 270.325 55.4331 269.516 54.4704C269.397 54.3551 269.238 54.2906 269.073 54.2906C268.908 54.2906 268.749 54.3551 268.63 54.4704C268.515 54.589 268.45 54.7479 268.45 54.9133C268.45 55.0786 268.515 55.2375 268.63 55.3561C269.439 56.2803 270.248 57.2816 271.018 58.2058C271.118 58.2595 271.231 58.2861 271.345 58.2828L271.557 58.3791ZM184.796 58.2828C184.897 58.2799 184.996 58.2541 185.086 58.2075C185.176 58.1608 185.255 58.0944 185.315 58.0132C185.403 57.8723 185.431 57.7027 185.396 57.5408C185.36 57.3789 185.262 57.2375 185.123 57.1468C184.13 56.4871 183.23 55.697 182.447 54.7977C182.331 54.6837 182.175 54.6197 182.013 54.6197C181.851 54.6197 181.695 54.6837 181.58 54.7977C181.465 54.9163 181.4 55.0752 181.4 55.2406C181.4 55.406 181.465 55.5648 181.58 55.6834C182.434 56.6794 183.426 57.5483 184.526 58.2636C184.545 58.2711 184.564 58.2775 184.584 58.2828H184.796ZM201.22 54.7207C201.33 54.7178 201.438 54.6861 201.533 54.6286C201.627 54.5712 201.705 54.4901 201.759 54.3934C202.395 53.1944 202.806 51.8893 202.972 50.5425C202.983 50.4615 202.977 50.3791 202.956 50.3002C202.935 50.2213 202.898 50.1475 202.847 50.083C202.797 50.0185 202.735 49.9646 202.664 49.9245C202.592 49.8844 202.514 49.8588 202.433 49.8493C202.272 49.8272 202.109 49.8695 201.979 49.9668C201.85 50.0641 201.763 50.2087 201.74 50.3692C201.58 51.5381 201.222 52.6712 200.681 53.7195C200.64 53.7913 200.615 53.8704 200.606 53.9523C200.596 54.0341 200.604 54.117 200.627 54.1959C200.65 54.2749 200.689 54.3484 200.741 54.4121C200.794 54.4758 200.858 54.5283 200.931 54.5667C200.955 54.5875 200.981 54.6067 201.008 54.6244L201.22 54.7207ZM266.589 52.7952C266.754 52.797 266.912 52.7349 267.032 52.6219C267.147 52.5033 267.212 52.3445 267.212 52.1791C267.212 52.0137 267.147 51.8549 267.032 51.7363C266.146 50.8313 265.241 49.9456 264.336 49.0791C264.218 48.9638 264.059 48.8994 263.894 48.8994C263.728 48.8994 263.569 48.9638 263.451 49.0791C263.337 49.1945 263.273 49.3501 263.273 49.5123C263.273 49.6746 263.337 49.8302 263.451 49.9456C264.336 50.7928 265.222 51.6785 266.089 52.5642C266.176 52.6148 266.276 52.6413 266.377 52.6412L266.589 52.7952ZM179.943 52.7952C180.039 52.8134 180.137 52.8134 180.232 52.7952C180.376 52.7139 180.483 52.5815 180.533 52.4244C180.583 52.2674 180.572 52.0973 180.502 51.9481C179.96 50.8765 179.565 49.7366 179.327 48.5592C179.309 48.4791 179.275 48.4034 179.228 48.3365C179.18 48.2697 179.119 48.2131 179.049 48.17C178.979 48.127 178.901 48.0983 178.82 48.0858C178.739 48.0733 178.656 48.0771 178.576 48.0971C178.497 48.1132 178.421 48.1449 178.353 48.1905C178.286 48.236 178.228 48.2945 178.183 48.3625C178.138 48.4306 178.107 48.5068 178.092 48.5869C178.077 48.6669 178.078 48.7491 178.095 48.8288C178.374 50.1024 178.807 51.3374 179.385 52.5064C179.478 52.5645 179.584 52.5977 179.693 52.6027L179.943 52.7952ZM261.179 47.6928C261.266 47.6924 261.353 47.6733 261.433 47.6368C261.512 47.6002 261.583 47.5471 261.641 47.481C261.756 47.3624 261.821 47.2035 261.821 47.0381C261.821 46.8727 261.756 46.7138 261.641 46.5952L260.485 45.6325L258.695 44.227C258.562 44.1258 258.394 44.0812 258.228 44.1028C258.062 44.1244 257.912 44.2106 257.809 44.3425C257.714 44.4743 257.673 44.6375 257.694 44.7987C257.716 44.9599 257.798 45.1067 257.925 45.2089L259.696 46.5952L260.832 47.558C260.866 47.5418 260.898 47.5224 260.928 47.5002L261.179 47.6928ZM202.414 47.5195C202.579 47.5001 202.73 47.4167 202.834 47.287C202.939 47.1574 202.988 46.9919 202.972 46.8263C202.825 45.5199 202.554 44.2305 202.163 42.9754C202.141 42.8966 202.104 42.823 202.053 42.7589C202.002 42.6949 201.939 42.6416 201.867 42.6021C201.795 42.5627 201.717 42.5379 201.635 42.5293C201.554 42.5206 201.471 42.5283 201.393 42.5518C201.315 42.5736 201.241 42.6113 201.178 42.6625C201.114 42.7137 201.062 42.7773 201.024 42.8494C200.986 42.9216 200.964 43.0007 200.958 43.082C200.951 43.1633 200.962 43.245 200.989 43.322C201.338 44.4864 201.589 45.6779 201.74 46.884C201.765 46.9884 201.818 47.0842 201.893 47.1619C201.967 47.2396 202.06 47.2965 202.163 47.3269L202.414 47.5195ZM178.442 45.594C178.599 45.5943 178.75 45.5347 178.864 45.4274C178.979 45.32 179.048 45.173 179.058 45.0163C179.146 43.8324 179.419 42.6696 179.866 41.5698C179.898 41.4952 179.915 41.4151 179.916 41.3341C179.916 41.253 179.901 41.1727 179.871 41.0976C179.84 41.0224 179.795 40.954 179.738 40.8963C179.681 40.8386 179.614 40.7926 179.539 40.7611C179.465 40.7294 179.384 40.7127 179.303 40.712C179.222 40.7113 179.142 40.7266 179.067 40.757C178.992 40.7874 178.923 40.8323 178.866 40.8892C178.808 40.9461 178.762 41.0138 178.73 41.0885C178.22 42.3139 177.914 43.6149 177.825 44.9394C177.818 45.0219 177.826 45.105 177.851 45.1841C177.876 45.2631 177.917 45.3362 177.971 45.3991C178.025 45.462 178.091 45.5135 178.165 45.5502C178.239 45.587 178.32 45.6085 178.403 45.6133L178.442 45.594ZM254.959 42.8791C255.062 42.8808 255.163 42.8571 255.253 42.8101C255.344 42.763 255.422 42.6941 255.479 42.6095C255.57 42.4731 255.605 42.3068 255.577 42.1453C255.548 41.9838 255.458 41.8397 255.325 41.7431C254.285 41.0307 253.207 40.3375 252.148 39.6828C252.005 39.5973 251.834 39.5715 251.672 39.6112C251.51 39.6508 251.369 39.7526 251.282 39.8947C251.24 39.9642 251.212 40.0412 251.2 40.1214C251.188 40.2017 251.192 40.2835 251.212 40.3622C251.231 40.4409 251.266 40.515 251.315 40.5802C251.363 40.6453 251.424 40.7003 251.494 40.7419C252.546 41.3965 253.586 42.0704 254.613 42.7636C254.714 42.8363 254.835 42.8765 254.959 42.8791ZM200.084 40.0872C200.166 40.1068 200.252 40.1068 200.334 40.0872C200.486 40.0196 200.606 39.895 200.667 39.7401C200.728 39.5853 200.726 39.4126 200.661 39.2592C200.18 38.1617 199.622 37.0065 198.986 35.8512C198.948 35.7783 198.895 35.7138 198.832 35.6616C198.768 35.6093 198.695 35.5704 198.616 35.5471C198.537 35.5238 198.454 35.5165 198.372 35.5257C198.29 35.535 198.211 35.5605 198.139 35.6009C197.996 35.682 197.889 35.8158 197.843 35.9739C197.796 36.132 197.812 36.302 197.889 36.4481C198.505 37.5648 199.063 38.6816 199.525 39.7599C199.571 39.8717 199.648 39.9677 199.747 40.0362C199.846 40.1046 199.963 40.1424 200.084 40.1449V40.0872ZM248.471 39.0282C248.585 39.0308 248.698 39.0016 248.796 38.9438C248.895 38.8859 248.975 38.8018 249.029 38.7008C249.105 38.5547 249.122 38.3847 249.075 38.2266C249.028 38.0686 248.922 37.9349 248.779 37.8537C247.681 37.2568 246.545 36.6791 245.409 36.1207C245.336 36.0848 245.256 36.0638 245.175 36.0588C245.093 36.0539 245.012 36.0653 244.935 36.0922C244.858 36.119 244.787 36.1609 244.726 36.2154C244.665 36.2699 244.616 36.3359 244.581 36.4096C244.545 36.4828 244.524 36.5624 244.519 36.6439C244.514 36.7253 244.526 36.8069 244.553 36.8839C244.579 36.9609 244.621 37.0318 244.676 37.0925C244.73 37.1532 244.796 37.2025 244.87 37.2375C245.987 37.7767 247.103 38.3543 248.182 38.9512C248.269 39.0035 248.369 39.0303 248.471 39.0282ZM180.925 38.5468C181.018 38.5455 181.108 38.5242 181.192 38.4843C181.275 38.4444 181.348 38.3869 181.407 38.3158C182.185 37.4051 183.064 36.5848 184.025 35.8704C184.094 35.8245 184.152 35.7649 184.196 35.6954C184.24 35.6259 184.27 35.5481 184.282 35.4667C184.295 35.3853 184.291 35.3022 184.27 35.2226C184.249 35.1429 184.211 35.0685 184.16 35.004C184.114 34.9356 184.055 34.8775 183.985 34.8333C183.916 34.7891 183.838 34.7597 183.756 34.747C183.675 34.7344 183.592 34.7387 183.512 34.7597C183.433 34.7807 183.358 34.818 183.294 34.8692C182.246 35.6436 181.29 36.535 180.444 37.5263C180.334 37.644 180.273 37.7988 180.273 37.9596C180.273 38.1204 180.334 38.2752 180.444 38.3928C180.529 38.4686 180.632 38.5209 180.744 38.5445C180.855 38.5682 180.971 38.5623 181.079 38.5276L180.925 38.5468ZM241.731 35.7549C241.854 35.7491 241.972 35.7103 242.074 35.6425C242.175 35.5746 242.257 35.4804 242.309 35.3698C242.341 35.2952 242.358 35.2151 242.358 35.1341C242.359 35.053 242.344 34.9727 242.313 34.8976C242.283 34.8224 242.238 34.754 242.181 34.6963C242.124 34.6386 242.056 34.5926 241.982 34.5611C240.807 34.0605 239.633 33.5984 238.458 33.1556C238.302 33.0989 238.131 33.1055 237.979 33.1738C237.828 33.2422 237.71 33.3669 237.65 33.5214C237.594 33.6797 237.603 33.8536 237.675 34.0051C237.748 34.1566 237.877 34.2734 238.035 34.3301C239.19 34.7537 240.345 35.2158 241.481 35.6971C241.59 35.7442 241.711 35.7576 241.828 35.7357L241.731 35.7549ZM186.875 34.0605C186.963 34.0885 187.057 34.0885 187.145 34.0605C188.247 33.5288 189.378 33.0595 190.533 32.6549C190.611 32.6289 190.683 32.5878 190.744 32.5339C190.805 32.48 190.856 32.4143 190.891 32.3408C190.927 32.2674 190.948 32.1875 190.953 32.1059C190.957 32.0243 190.946 31.9426 190.919 31.8655C190.893 31.788 190.851 31.7164 190.797 31.6549C190.744 31.5935 190.678 31.5434 190.605 31.5076C190.531 31.4717 190.451 31.4509 190.37 31.4462C190.288 31.4415 190.206 31.4531 190.129 31.4804C188.921 31.9008 187.739 32.3894 186.586 32.9437C186.439 33.0216 186.329 33.154 186.279 33.3123C186.228 33.4707 186.242 33.6425 186.317 33.7909C186.387 33.8942 186.488 33.9735 186.605 34.0182C186.722 34.0629 186.85 34.071 186.971 34.0413L186.875 34.0605ZM196.502 33.5406C196.619 33.5478 196.735 33.5138 196.83 33.4444C196.9 33.4031 196.961 33.3479 197.009 33.2822C197.057 33.2165 197.091 33.1416 197.109 33.0623C197.127 32.983 197.129 32.9008 197.114 32.8208C197.099 32.7408 197.068 32.6647 197.022 32.5972C196.714 32.0965 196.387 31.6152 196.06 31.0953L197.773 30.7487C197.934 30.7205 198.077 30.6296 198.171 30.4961C198.265 30.3625 198.302 30.1971 198.274 30.0363C198.26 29.9547 198.23 29.8767 198.185 29.807C198.141 29.7373 198.082 29.6774 198.014 29.6306C197.946 29.5839 197.869 29.5515 197.788 29.5352C197.707 29.5188 197.623 29.519 197.542 29.5357C196.791 29.6705 196.04 29.8245 195.309 29.9978L194.924 29.4586C194.877 29.391 194.818 29.3332 194.749 29.2888C194.68 29.2443 194.603 29.214 194.523 29.1996C194.442 29.1853 194.359 29.1872 194.279 29.2052C194.199 29.2232 194.124 29.2571 194.057 29.3046C193.989 29.3509 193.932 29.4101 193.887 29.479C193.843 29.5478 193.812 29.6248 193.798 29.7055C193.784 29.7862 193.786 29.8689 193.804 29.9488C193.822 30.0288 193.855 30.1043 193.903 30.1711L193.999 30.3059H193.845C193.685 30.3511 193.547 30.456 193.461 30.5992C193.375 30.7423 193.347 30.9129 193.383 31.076C193.432 31.2332 193.539 31.366 193.682 31.4481C193.824 31.5302 193.993 31.5555 194.153 31.5189L194.75 31.3841C195.193 32.0003 195.597 32.6357 195.982 33.3096C196.043 33.382 196.12 33.4389 196.207 33.4757C196.294 33.5126 196.389 33.5282 196.483 33.5214L196.502 33.5406ZM234.742 33.1363C234.874 33.142 235.005 33.1034 235.113 33.0267C235.221 32.95 235.301 32.8395 235.339 32.7127C235.388 32.5543 235.373 32.3832 235.297 32.2357C235.222 32.0882 235.092 31.9761 234.935 31.9232C233.741 31.5574 232.509 31.1915 231.296 30.8835C231.217 30.8604 231.135 30.8537 231.054 30.8638C230.973 30.8738 230.894 30.9005 230.824 30.942C230.754 30.9835 230.692 31.0391 230.644 31.1052C230.596 31.1713 230.562 31.2466 230.545 31.3263C230.524 31.4047 230.52 31.4863 230.531 31.5665C230.542 31.6467 230.569 31.7239 230.61 31.7936C230.652 31.8633 230.706 31.9243 230.771 31.9729C230.835 32.0216 230.909 32.0571 230.987 32.0773C232.181 32.3854 233.375 32.7512 234.569 33.117L234.742 33.1363ZM227.502 31.2108C227.645 31.2127 227.784 31.1632 227.894 31.0713C228.003 30.9795 228.076 30.8513 228.099 30.7102C228.116 30.6305 228.117 30.5483 228.102 30.4683C228.087 30.3882 228.056 30.312 228.011 30.2439C227.966 30.1759 227.909 30.1174 227.841 30.0719C227.774 30.0263 227.698 29.9945 227.618 29.9785C226.386 29.7089 225.134 29.4779 223.902 29.2854C223.741 29.2574 223.576 29.2944 223.442 29.3882C223.308 29.4821 223.217 29.6252 223.189 29.786C223.173 29.8673 223.173 29.9512 223.191 30.0323C223.209 30.1133 223.243 30.1899 223.292 30.2569C223.341 30.3239 223.403 30.38 223.475 30.4216C223.547 30.4632 223.627 30.4894 223.709 30.4984C224.922 30.7102 226.154 30.9412 227.368 31.1915L227.502 31.2108ZM201.374 30.1518C202.587 29.9785 203.838 29.8437 205.071 29.7475C205.236 29.7327 205.389 29.654 205.497 29.5281C205.605 29.4022 205.659 29.239 205.648 29.0735C205.641 28.9925 205.618 28.9137 205.58 28.8417C205.542 28.7696 205.49 28.7058 205.428 28.6539C205.365 28.602 205.293 28.563 205.215 28.5392C205.137 28.5154 205.055 28.5072 204.974 28.5152C203.723 28.5152 202.452 28.7462 201.123 28.9195C201.043 28.9288 200.965 28.9545 200.895 28.9948C200.825 29.0352 200.763 29.0895 200.714 29.1543C200.666 29.2192 200.631 29.2933 200.612 29.3721C200.593 29.4509 200.59 29.5327 200.604 29.6127C200.611 29.7061 200.639 29.7968 200.686 29.8777C200.733 29.9587 200.798 30.0278 200.876 30.0797C200.954 30.1317 201.043 30.1653 201.136 30.1778C201.229 30.1902 201.323 30.1814 201.412 30.1518H201.374ZM220.089 29.9978C220.243 29.9984 220.392 29.9415 220.506 29.8382C220.62 29.7348 220.691 29.5926 220.705 29.4394C220.722 29.2788 220.674 29.1183 220.574 28.9923C220.473 28.8662 220.327 28.7849 220.166 28.7655C218.915 28.6115 217.644 28.4959 216.315 28.4189C216.234 28.4137 216.153 28.4245 216.076 28.4507C216 28.477 215.929 28.5181 215.868 28.5718C215.807 28.6254 215.758 28.6906 215.722 28.7634C215.686 28.8363 215.666 28.9156 215.661 28.9966C215.653 29.0781 215.662 29.1603 215.687 29.2382C215.712 29.3162 215.753 29.388 215.807 29.4494C215.861 29.5108 215.928 29.5604 216.002 29.5951C216.076 29.6299 216.157 29.6489 216.238 29.6512C217.471 29.7475 218.722 29.8437 219.935 29.9978H220.089ZM208.845 29.5357C210.096 29.5357 211.328 29.5357 212.58 29.5357C212.66 29.5383 212.74 29.5247 212.814 29.4959C212.889 29.4671 212.957 29.4235 213.015 29.3678C213.072 29.3121 213.118 29.2454 213.149 29.1717C213.18 29.098 213.196 29.0188 213.196 28.9388C213.199 28.8579 213.185 28.7772 213.157 28.7015C213.128 28.6257 213.085 28.5564 213.029 28.4974C212.974 28.4384 212.907 28.3908 212.834 28.3575C212.76 28.3242 212.68 28.3058 212.599 28.3034C211.328 28.3034 210.077 28.3034 208.748 28.3034C208.666 28.3058 208.584 28.3248 208.509 28.3593C208.434 28.3938 208.367 28.4431 208.311 28.5041C208.255 28.5652 208.213 28.6369 208.185 28.7149C208.158 28.7928 208.146 28.8755 208.151 28.958C208.155 29.0464 208.178 29.1328 208.219 29.2116C208.259 29.2903 208.316 29.3594 208.385 29.4142C208.455 29.469 208.535 29.5082 208.621 29.5292C208.707 29.5501 208.796 29.5523 208.883 29.5357H208.845ZM192.189 27.3984C192.33 27.4001 192.466 27.3524 192.574 27.2636C192.688 27.1483 192.752 26.9926 192.752 26.8304C192.752 26.6682 192.688 26.5125 192.574 26.3972C191.804 25.3959 190.996 24.4717 190.187 23.4512C190.071 23.3372 189.916 23.2732 189.754 23.2732C189.591 23.2732 189.436 23.3372 189.32 23.4512C189.205 23.5698 189.141 23.7287 189.141 23.8941C189.141 24.0595 189.205 24.2183 189.32 24.3369C190.11 25.2611 190.919 26.2624 191.669 27.2058C191.73 27.2961 191.814 27.3687 191.912 27.416C192.01 27.4634 192.119 27.4839 192.228 27.4754L192.189 27.3984ZM187.299 21.622C187.377 21.6224 187.455 21.6073 187.528 21.5776C187.601 21.5478 187.667 21.504 187.722 21.4487C187.781 21.3929 187.828 21.3258 187.86 21.2513C187.892 21.1768 187.909 21.0966 187.909 21.0155C187.909 20.9344 187.892 20.8542 187.86 20.7797C187.828 20.7052 187.781 20.6381 187.722 20.5823C186.856 19.6581 185.951 18.7723 185.027 17.9251C184.971 17.8663 184.904 17.8194 184.829 17.7874C184.755 17.7554 184.675 17.7388 184.593 17.7388C184.512 17.7388 184.432 17.7554 184.358 17.7874C184.283 17.8194 184.216 17.8663 184.16 17.9251C184.101 17.9826 184.054 18.0514 184.021 18.1275C183.989 18.2035 183.972 18.2853 183.972 18.368C183.972 18.4506 183.989 18.5324 184.021 18.6085C184.054 18.6846 184.101 18.7534 184.16 18.8108C185.065 19.6388 185.951 20.5245 186.817 21.4102C186.868 21.5025 186.944 21.5785 187.036 21.6296C187.128 21.6807 187.232 21.7048 187.337 21.699L187.299 21.622ZM181.811 16.5195C181.993 16.5149 182.166 16.4389 182.292 16.3078C182.408 16.1892 182.472 16.0303 182.472 15.8649C182.472 15.6995 182.408 15.5406 182.292 15.422C181.311 14.6133 180.367 13.8432 179.289 13.1115C179.222 13.0639 179.146 13.0301 179.067 13.0121C178.987 12.994 178.904 12.9921 178.823 13.0065C178.742 13.0208 178.666 13.0512 178.597 13.0956C178.528 13.1401 178.469 13.1978 178.422 13.2655C178.374 13.3311 178.339 13.4056 178.319 13.4848C178.3 13.564 178.296 13.6463 178.309 13.7269C178.321 13.8075 178.35 13.8848 178.392 13.9544C178.435 14.0239 178.491 14.0843 178.557 14.132C179.558 14.8508 180.54 15.6017 181.503 16.3847C181.59 16.4937 181.713 16.5687 181.85 16.5966L181.811 16.5195ZM175.707 12.168C175.811 12.1676 175.914 12.141 176.005 12.0905C176.095 12.04 176.172 11.9673 176.227 11.8792C176.315 11.7382 176.343 11.5686 176.307 11.4067C176.271 11.2448 176.174 11.1035 176.035 11.0127C174.956 10.3581 173.84 9.72269 172.723 9.08728C172.574 9.01249 172.403 8.99882 172.244 9.04921C172.086 9.0996 171.954 9.21001 171.876 9.35682C171.802 9.50238 171.789 9.67131 171.839 9.82655C171.89 9.98178 172 10.1106 172.145 10.1848C173.243 10.7624 174.321 11.3785 175.38 12.1102C175.429 12.156 175.487 12.1915 175.549 12.2147C175.612 12.2378 175.679 12.2482 175.746 12.245L175.707 12.168ZM169.045 8.70217C169.167 8.70504 169.287 8.67185 169.39 8.60674C169.492 8.54163 169.574 8.44753 169.623 8.33632C169.655 8.26174 169.671 8.18167 169.672 8.10064C169.673 8.0196 169.657 7.93919 169.627 7.86407C169.597 7.78895 169.552 7.72054 169.495 7.66281C169.438 7.60508 169.37 7.55919 169.296 7.52766C168.14 7.02704 166.947 6.56493 165.753 6.14133C165.676 6.1141 165.594 6.10246 165.512 6.10713C165.431 6.1118 165.351 6.13264 165.277 6.16848C165.204 6.20432 165.138 6.2544 165.084 6.31585C165.03 6.37729 164.989 6.44888 164.963 6.52639C164.936 6.60347 164.924 6.68522 164.929 6.76683C164.934 6.84845 164.955 6.92828 164.99 7.00176C165.026 7.07523 165.076 7.14087 165.138 7.19479C165.199 7.2487 165.271 7.28985 165.348 7.31583C166.504 7.72018 167.678 8.18231 168.795 8.66368C168.88 8.72626 168.979 8.76603 169.084 8.7792L169.045 8.70217ZM121.101 7.16182H121.236L124.894 6.39159C124.976 6.37777 125.054 6.34769 125.124 6.3031C125.193 6.2585 125.253 6.20033 125.3 6.13204C125.347 6.06376 125.379 5.98675 125.396 5.90564C125.412 5.82453 125.412 5.741 125.395 5.65996C125.358 5.50119 125.262 5.36268 125.125 5.27308C124.989 5.18349 124.824 5.14966 124.663 5.1786C123.431 5.40965 122.199 5.67921 120.967 5.94877C120.808 5.9857 120.669 6.08224 120.58 6.21842C120.49 6.35461 120.456 6.52003 120.485 6.68046C120.508 6.83691 120.588 6.97961 120.708 7.08226C120.828 7.18491 120.982 7.24052 121.14 7.2388L121.101 7.16182ZM161.96 6.23758C162.1 6.24201 162.237 6.19865 162.349 6.11465C162.461 6.03066 162.541 5.91105 162.576 5.77549C162.596 5.6971 162.601 5.61545 162.589 5.53527C162.578 5.4551 162.551 5.37796 162.51 5.30822C162.469 5.23848 162.414 5.1775 162.35 5.12883C162.285 5.08015 162.211 5.04472 162.133 5.02453C160.92 4.6972 159.688 4.38914 158.436 4.13883C158.273 4.11049 158.105 4.14692 157.969 4.24043C157.832 4.33393 157.737 4.47714 157.704 4.63947C157.675 4.7999 157.709 4.96526 157.799 5.10144C157.888 5.23763 158.027 5.33417 158.186 5.3711C159.418 5.60215 160.631 5.89098 161.806 6.2183L161.96 6.23758ZM128.457 5.69845H128.572C129.856 5.48023 131.088 5.28771 132.269 5.12084C132.431 5.09246 132.576 5.00232 132.673 4.86946C132.77 4.73659 132.811 4.57131 132.789 4.40837C132.78 4.32782 132.754 4.25004 132.714 4.17973C132.673 4.10942 132.619 4.04804 132.554 3.99939C132.489 3.95075 132.415 3.91587 132.336 3.8968C132.257 3.87773 132.176 3.8749 132.096 3.88851C130.844 4.0618 129.612 4.25433 128.36 4.46613C128.199 4.49433 128.056 4.58522 127.963 4.7188C127.869 4.85237 127.832 5.01775 127.86 5.1786C127.859 5.26033 127.876 5.34118 127.909 5.41622C127.941 5.49127 127.988 5.55887 128.048 5.61484C128.107 5.6708 128.178 5.71395 128.255 5.74158C128.332 5.76921 128.414 5.78076 128.495 5.77549L128.457 5.69845ZM154.624 4.75499C154.773 4.75218 154.917 4.69651 155.03 4.59787C155.143 4.49922 155.217 4.36394 155.24 4.21587C155.251 4.13486 155.245 4.05248 155.224 3.9736C155.202 3.89471 155.166 3.82087 155.115 3.75636C155.065 3.69185 155.003 3.63794 154.931 3.59782C154.86 3.5577 154.782 3.53217 154.701 3.52267C153.468 3.34938 152.197 3.21461 150.85 3.11834C150.77 3.11042 150.689 3.11869 150.612 3.14272C150.536 3.16676 150.465 3.20605 150.404 3.25819C150.342 3.31033 150.292 3.37425 150.257 3.44616C150.221 3.51808 150.2 3.59654 150.195 3.67674C150.187 3.75772 150.195 3.83944 150.219 3.91725C150.243 3.99505 150.282 4.06736 150.334 4.13002C150.386 4.19267 150.45 4.24446 150.522 4.28232C150.594 4.32019 150.672 4.34337 150.753 4.3506C152.005 4.44688 153.257 4.5817 154.45 4.75499H154.624ZM135.889 4.65869C137.121 4.5239 138.373 4.42766 139.605 4.33139C139.686 4.32649 139.765 4.30563 139.838 4.27004C139.911 4.23446 139.976 4.18485 140.03 4.12402C140.083 4.0632 140.125 3.99236 140.151 3.9156C140.177 3.83884 140.188 3.75769 140.183 3.67674C140.178 3.59402 140.156 3.51307 140.12 3.43882C140.083 3.36457 140.031 3.29854 139.969 3.24462C139.906 3.19069 139.832 3.14998 139.753 3.12498C139.674 3.09998 139.591 3.09116 139.509 3.09907C138.257 3.09907 137.006 3.29164 135.658 3.42642C135.577 3.43366 135.498 3.45684 135.426 3.4947C135.354 3.53256 135.29 3.58435 135.238 3.64701C135.186 3.70966 135.147 3.78197 135.124 3.85978C135.1 3.93758 135.091 4.0193 135.099 4.10028C135.09 4.20412 135.106 4.30877 135.148 4.40437C135.19 4.49997 135.255 4.58344 135.338 4.64693C135.42 4.71043 135.518 4.75186 135.621 4.76739C135.724 4.78292 135.83 4.77203 135.927 4.73572L135.889 4.65869ZM147.134 4.15811C147.296 4.1584 147.452 4.09672 147.57 3.98576C147.688 3.87481 147.759 3.72291 147.769 3.56116C147.772 3.47864 147.758 3.39647 147.728 3.31948C147.698 3.24249 147.653 3.17226 147.595 3.11299C147.538 3.05372 147.469 3.0066 147.393 2.97443C147.317 2.94227 147.235 2.92574 147.153 2.92578C145.901 2.92578 144.63 2.92578 143.302 2.92578C143.219 2.92574 143.138 2.94227 143.062 2.97443C142.986 3.0066 142.917 3.05372 142.859 3.11299C142.802 3.17226 142.757 3.24249 142.727 3.31948C142.697 3.39647 142.683 3.47864 142.686 3.56116C142.691 3.72121 142.758 3.87305 142.873 3.98447C142.988 4.09589 143.142 4.15818 143.302 4.15811H147.057H147.134Z" fill="#999999"/>
<path d="M50.9365 146.585L45.5068 148.934L23.8068 133.8L18.0305 136.997C13.3901 139.769 8.88452 139.962 6.728 138.73L6.28507 138.941C2.93476 140.405 0.95155 139.095 0.277637 137.516C-0.396275 135.938 -0.0111313 133.666 3.33917 132.164L3.78199 131.971C4.18634 130.046 5.93859 126.811 12.774 124.905L19.0702 122.883L22.9211 96.7159L28.3509 94.3477L32.5677 118.589L48.0869 113.275L50.436 107.056L54.749 105.458L55.0571 111.234L56.5974 111.099L58.0031 114.315L56.8477 115.451L60.9297 119.687L56.8093 121.747L50.6863 119.205L36.1875 126.907L50.9365 146.585ZM50.5323 117.8L56.6938 120.361L58.6192 119.359L54.8838 115.508L56.2894 114.084L55.6347 112.563L53.7092 112.736L53.4205 107.345L51.3217 108.115L48.9726 114.353L31.4124 120.341L27.2341 96.2538L23.9801 97.6595L20.2255 123.923L13.1206 126.195C6.49696 128.024 5.18759 130.989 4.99504 132.587V132.992L4.60993 133.126C4.3653 133.196 4.12699 133.286 3.89751 133.396C1.83727 134.282 0.913067 135.687 1.50996 137.035C2.10685 138.383 3.74346 138.691 5.8037 137.786C6.03554 137.692 6.26077 137.583 6.47769 137.459L6.84353 137.247L7.1901 137.497C8.59568 138.537 12.6969 138.73 17.4336 135.918L23.9031 132.298L45.6608 147.49L48.9148 146.085L34.1658 126.561L50.5323 117.8Z" fill="#999999"/>
</svg>
