<svg version="1.2" xmlns="http://www.w3.org/2000/svg" viewBox="0 0 671 595" width="671" height="595"><defs><clipPath clipPathUnits="userSpaceOnUse" id="cp1"><path d="m853.11 231.69c125.21 216.88 50.9 494.2-165.97 619.42-216.88 125.21-494.2 50.9-619.42-165.97-125.21-216.88-50.91-494.2 165.97-619.42 216.88-125.21 494.2-50.9 619.42 165.97zm-700.45 404.41c98.13 169.97 315.47 228.2 485.44 130.07 169.97-98.13 228.2-315.47 130.07-485.44-98.13-169.97-315.47-228.2-485.44-130.07-169.97 98.13-228.2 315.47-130.07 485.44z"/></clipPath></defs><style>.a{fill:#f47500}</style><g clip-path="url(#cp1)"><path class="a" d="m-380.2 109.1l959.4-553.9 594.6 1030-959.4 553.9z"/></g></svg>