<svg width="35" height="36" viewBox="0 0 35 36" fill="none" xmlns="http://www.w3.org/2000/svg">
<path fill-rule="evenodd" clip-rule="evenodd" d="M12.221 10.9717C13.1209 9.57102 14.4409 8.49097 15.992 7.88609C17.543 7.2812 19.2457 7.18249 20.8563 7.60407C22.4669 8.02565 23.9028 8.94592 24.9586 10.2332C26.0144 11.5204 26.636 13.1087 26.7343 14.7706C27.605 14.7296 28.4752 14.8634 29.2934 15.164C30.1117 15.4646 30.8615 15.926 31.4986 16.5209C32.1357 17.1159 32.6473 17.8324 33.0031 18.6282C33.3589 19.424 33.5518 20.283 33.5704 21.1545C33.589 22.026 33.4329 22.8924 33.1114 23.7027C32.7898 24.5129 32.3093 25.2506 31.6981 25.8722C31.087 26.4938 30.3576 26.9868 29.5529 27.322C28.7482 27.6572 27.8845 27.828 27.0128 27.8242H10.0262C8.80854 27.8226 7.60526 27.5614 6.4965 27.0582C5.38774 26.555 4.39897 25.8212 3.59611 24.9058C2.79324 23.9904 2.19472 22.9143 1.84043 21.7494C1.48614 20.5845 1.38423 19.3574 1.54148 18.15C1.69872 16.9426 2.11153 15.7825 2.75237 14.7472C3.39321 13.7119 4.24737 12.825 5.25791 12.1458C6.26846 11.4665 7.41218 11.0105 8.61285 10.808C9.81351 10.6056 11.0435 10.6614 12.221 10.9717ZM21.9189 17.295C22.1121 17.0877 22.2172 16.8134 22.2122 16.5301C22.2072 16.2467 22.0925 15.9764 21.8921 15.776C21.6917 15.5756 21.4213 15.4608 21.138 15.4558C20.8546 15.4508 20.5804 15.556 20.373 15.7492L16.0418 20.0804L13.898 17.9367C13.7979 17.8292 13.6772 17.743 13.543 17.6832C13.4088 17.6235 13.264 17.5913 13.1171 17.5887C12.9703 17.5861 12.8244 17.6131 12.6882 17.6682C12.552 17.7232 12.4283 17.805 12.3244 17.9089C12.2206 18.0128 12.1387 18.1365 12.0837 18.2727C12.0287 18.4089 12.0017 18.5547 12.0043 18.7016C12.0068 18.8485 12.039 18.9933 12.0988 19.1275C12.1585 19.2616 12.2447 19.3824 12.3522 19.4825L15.2689 22.3992C15.4739 22.604 15.7519 22.719 16.0418 22.719C16.3316 22.719 16.6096 22.604 16.8147 22.3992L21.9189 17.295Z" fill="#F47500"/>
</svg>
