<svg width="186" height="14" viewBox="0 0 186 14" fill="none" xmlns="http://www.w3.org/2000/svg">
<path d="M4.03552 7.49057C5.49179 7.49057 7.01741 7.42275 8.47368 7.35494C9.09779 7.35494 9.65257 7.28713 10.2767 7.28713C12.9118 7.1515 15.547 7.01587 18.1821 6.88024C21.3721 6.74462 24.4927 6.54118 27.6826 6.40555C32.1901 6.1343 36.6976 5.93085 41.2051 5.6596C42.2453 5.59179 43.2855 5.59179 44.3257 5.52397C46.9608 5.38835 49.596 5.25272 52.2311 5.18491C54.8663 5.04928 57.5015 4.91365 60.1366 4.84584C61.1768 4.77803 62.217 4.71021 63.2572 4.71021C67.418 4.57458 71.6481 4.43896 75.8089 4.30333C78.3747 4.23552 80.9405 4.1677 83.5756 4.03208C84.6158 4.03208 85.5867 3.96426 86.6269 3.96426C90.6489 3.89645 94.7404 3.82864 98.7625 3.76082C102.785 3.69301 106.737 3.6252 110.759 3.55738C111.8 3.55738 112.84 3.55738 113.949 3.55738C116.584 3.55738 119.15 3.55738 121.785 3.55738C125.877 3.55738 129.899 3.55738 133.99 3.48957C135.308 3.48957 136.625 3.48957 137.943 3.48957C140.717 3.48957 143.491 3.48957 146.265 3.48957C146.473 3.48957 146.75 3.48957 146.958 3.48957C140.717 3.55738 134.406 3.6252 128.165 3.76082C125.53 3.82864 122.964 3.82864 120.329 3.89645C119.22 3.89645 118.041 3.89645 116.931 3.96426C113.117 4.03208 109.372 4.1677 105.558 4.23552C101.19 4.37114 96.8208 4.43896 92.452 4.57458C91.6891 4.57458 90.9957 4.6424 90.2329 4.6424C87.8751 4.77803 85.5867 4.84584 83.2289 4.98147C78.5134 5.18491 73.7978 5.38835 69.0823 5.59179C68.3888 5.59179 67.6954 5.6596 67.0019 5.72741C64.7135 5.86304 62.3557 6.06648 60.0673 6.20211C55.9065 6.47336 51.8151 6.74462 47.6543 7.01587C46.5448 7.08368 45.3659 7.21931 44.2563 7.28713C41.6212 7.49057 38.986 7.69401 36.3509 7.96526C33.0222 8.23651 29.6243 8.50777 26.2957 8.77902C21.6495 9.1859 16.9339 9.59278 12.2877 9.99967C11.1782 10.0675 10.0686 10.2031 8.88976 10.2709C6.87872 10.4744 4.86768 10.6778 2.85664 10.8812C2.6486 10.8812 2.44056 11.0169 2.44056 11.2881C2.44056 11.4916 2.6486 11.695 2.85664 11.695C3.61944 11.695 4.31291 11.7628 5.07571 11.7628C4.93702 12.1019 4.86768 12.3053 4.86768 12.5088C4.86768 13.2547 5.49179 13.9328 6.32395 13.9328C12.0797 13.5938 17.7661 13.1869 23.5218 12.9156C28.5147 12.7122 33.5077 12.441 38.5006 12.2375C43.9789 11.9663 49.5266 11.695 55.005 11.4916C56.7386 11.4237 58.4723 11.3559 60.206 11.2203C60.6914 11.2203 61.1768 11.1525 61.7316 11.1525C70.6079 10.9491 79.4842 10.6778 88.3605 10.4744C93.0761 10.3387 97.8609 10.2031 102.576 10.1353C104.31 10.0675 105.974 10.0675 107.708 9.99967C116.792 9.86404 125.877 9.72841 134.961 9.59278C138.845 9.52497 142.728 9.45716 146.611 9.38934C149.94 9.32153 153.269 9.32153 156.597 9.1859C159.371 9.11809 162.076 8.98246 164.849 8.91465C166.236 8.84684 167.623 8.84684 168.941 8.77902C172.061 8.57558 175.182 8.37214 178.303 8.1687C178.095 8.43995 178.095 8.84684 178.164 9.11809C178.233 9.45716 178.441 9.72841 178.788 9.86404C179.065 9.99967 179.481 10.1353 179.759 9.99967C180.452 9.72841 181.146 9.45716 181.77 9.1859C181.77 9.1859 181.77 9.1859 181.701 9.1859C181.77 9.1859 181.77 9.11809 181.839 9.11809C181.909 9.11809 181.978 9.05028 181.978 9.05028H181.909C182.255 8.91465 182.602 8.77902 183.018 8.57558C183.365 8.43995 183.781 8.23651 184.128 8.10089C184.544 7.89745 184.89 7.69401 185.307 7.49057C185.723 7.28712 186 6.74462 186 6.26992C186 5.99867 185.931 5.79523 185.792 5.52397C185.653 5.25272 185.307 4.91365 184.96 4.84584C184.613 4.77803 184.266 4.71021 183.92 4.71021C183.85 4.71021 183.781 4.71021 183.712 4.71021C183.504 4.71021 183.226 4.71021 183.018 4.77803C182.463 4.84584 181.978 4.91365 181.423 4.91365C181.007 4.91365 180.591 4.98147 180.106 4.98147C178.927 5.04928 177.817 5.11709 176.638 5.25272C176.361 5.25272 176.014 5.32053 175.737 5.32053C175.875 5.18491 175.945 5.04928 175.945 4.91365C176.014 4.77803 176.014 4.6424 176.014 4.50677C176.014 4.43896 176.014 4.30333 176.083 4.23552C176.083 4.09989 176.083 3.96426 176.014 3.89645C176.014 3.89645 176.083 3.89645 176.083 3.82864C176.292 3.69301 176.5 3.55738 176.638 3.28613C176.777 3.08269 176.846 2.81143 176.846 2.54018C176.846 2.26893 176.777 2.06549 176.638 1.79423C176.569 1.72642 176.5 1.59079 176.43 1.52298C176.222 1.31954 176.014 1.25172 175.806 1.18391C175.39 1.04828 174.905 0.980469 174.419 0.980469C174.003 0.980469 173.656 0.980469 173.24 0.980469C172.686 0.980469 172.131 0.980469 171.576 0.980469C170.813 0.980469 169.981 0.980469 169.218 0.980469C167.138 0.980469 165.057 0.980469 162.977 0.980469C161.035 0.980469 159.024 0.980469 157.083 0.980469C155.28 0.980469 153.546 0.980469 151.743 0.980469C144.6 0.980469 137.527 1.04828 130.384 1.1161C125.045 1.18391 119.705 1.25172 114.365 1.25172C112.008 1.25172 109.58 1.31954 107.223 1.38735C101.883 1.52298 96.5434 1.59079 91.2037 1.72642C89.6781 1.72642 88.1525 1.79423 86.6269 1.79423C85.7254 1.79423 84.8932 1.86204 83.9917 1.86204C78.7214 2.06549 73.4511 2.26893 68.1808 2.47237C66.5858 2.54018 64.9908 2.60799 63.3265 2.67581C62.425 2.67581 61.5235 2.74362 60.622 2.81143C55.3517 3.08269 50.1508 3.35394 44.8804 3.6252C42.1759 3.76082 39.4714 3.89645 36.7669 4.09989C32.1207 4.37114 27.4745 4.6424 22.8977 4.98147C18.8756 5.25272 14.8535 5.45616 10.8315 5.6596C10.2073 5.72741 9.58322 5.72741 8.88976 5.79523C7.84956 5.86304 6.80937 5.86304 5.76918 5.93085C4.86768 6.20211 3.89683 6.20211 2.99533 6.20211C2.92598 5.93085 2.6486 5.72741 2.44056 5.79523C1.81644 5.79523 1.26167 5.86304 0.637556 5.93085C0.360171 5.99867 0.0827865 6.1343 0.0134403 6.40555C-0.0559059 6.74462 0.152133 7.08368 0.429518 7.1515C0.706903 7.21931 0.984287 7.28713 1.26167 7.35494C1.53906 7.42275 1.7471 7.42275 2.02448 7.42275C2.71794 7.49057 3.34206 7.49057 4.03552 7.49057ZM166.306 5.32053C167.138 5.32053 168.039 5.32053 168.871 5.32053C168.941 5.52397 169.08 5.6596 169.218 5.79523C168.871 5.79523 168.525 5.86304 168.247 5.86304C167.623 5.86304 166.999 5.93085 166.375 5.93085C163.601 5.99867 160.897 6.1343 158.123 6.20211C156.875 6.26992 155.626 6.33774 154.378 6.33774C152.436 6.33774 150.425 6.40555 148.484 6.40555C143.976 6.47336 139.538 6.54118 135.031 6.60899C126.293 6.74462 117.625 6.88024 108.887 7.01587C102.646 7.08368 96.4047 7.28712 90.1635 7.49057C80.8018 7.76182 71.3707 7.96526 62.009 8.23651C60.1366 8.30433 58.2643 8.37214 56.3919 8.50777C51.0523 8.77902 45.7126 8.98246 40.3729 9.25372C35.172 9.52497 29.9017 9.72841 24.7007 9.99967C24.2153 9.99967 23.7298 10.0675 23.2444 10.0675C24.6313 9.93185 26.0876 9.86404 27.4745 9.72841C32.3981 9.38934 37.3217 8.98246 42.2453 8.6434C43.9789 8.50777 45.7126 8.37214 47.3769 8.23651C48.2784 8.1687 49.1799 8.10089 50.0121 8.10089C55.213 7.82963 60.3447 7.49057 65.4763 7.21931C66.4471 7.1515 67.4873 7.08368 68.4582 7.01587C69.9144 6.94806 71.3707 6.88024 72.7576 6.88024C78.0279 6.6768 83.2982 6.47336 88.5686 6.26992C89.7474 6.20211 90.9263 6.20211 92.0359 6.1343C92.3133 6.1343 92.66 6.1343 92.9374 6.1343C93.7695 6.1343 94.6017 6.1343 95.3645 6.06648C100.635 5.93085 105.974 5.86304 111.245 5.72741C113.672 5.6596 116.099 5.59179 118.526 5.59179C126.362 5.52397 134.268 5.45616 142.104 5.38835C150.287 5.38835 158.331 5.32053 166.306 5.32053Z" fill="#1E293B"/>
</svg>
