<svg width="15" height="15" viewBox="0 0 15 15" fill="none" xmlns="http://www.w3.org/2000/svg">
<g clip-path="url(#clip0_1896_2809)">
<path fill-rule="evenodd" clip-rule="evenodd" d="M8.16305 10.0375C7.98727 10.2131 7.74899 10.3117 7.50055 10.3117C7.25211 10.3117 7.01383 10.2131 6.83805 10.0375L3.3018 6.50249C3.12601 6.32662 3.02729 6.08812 3.02734 5.83946C3.0274 5.5908 3.12624 5.35234 3.30211 5.17655C3.47798 5.00077 3.71648 4.90204 3.96514 4.9021C4.21381 4.90216 4.45226 5.00099 4.62805 5.17687L7.50055 8.04937L10.373 5.17687C10.5498 5.00601 10.7866 4.9114 11.0324 4.91342C11.2782 4.91544 11.5134 5.01392 11.6873 5.18766C11.8612 5.3614 11.9599 5.59649 11.9621 5.8423C11.9644 6.08811 11.87 6.32497 11.6993 6.50187L8.16367 10.0381L8.16305 10.0375Z" fill="black"/>
</g>
<defs>
<clipPath id="clip0_1896_2809">
<rect width="15" height="15" fill="white"/>
</clipPath>
</defs>
</svg>
