<svg width="45" height="46" viewBox="0 0 45 46" fill="none" xmlns="http://www.w3.org/2000/svg">
<rect y="0.5" width="45" height="45" rx="22.5" fill="#F47500"/>
<path fill-rule="evenodd" clip-rule="evenodd" d="M15.209 31.3333C14.3802 31.3333 13.5853 31.0041 12.9993 30.418C12.4132 29.832 12.084 29.0371 12.084 28.2083V17.7916C12.084 16.9628 12.4132 16.168 12.9993 15.5819C13.5853 14.9959 14.3802 14.6666 15.209 14.6666H29.7923C30.6211 14.6666 31.416 14.9959 32.002 15.5819C32.5881 16.168 32.9173 16.9628 32.9173 17.7916V28.2083C32.9173 29.0371 32.5881 29.832 32.002 30.418C31.416 31.0041 30.6211 31.3333 29.7923 31.3333H15.209ZM17.9434 19.0625C17.8372 18.9719 17.714 18.9035 17.581 18.8614C17.4479 18.8194 17.3078 18.8044 17.1689 18.8176C17.03 18.8307 16.8951 18.8716 16.7723 18.9379C16.6495 19.0041 16.5413 19.0944 16.454 19.2033C16.3668 19.3121 16.3023 19.4375 16.2644 19.5717C16.2265 19.706 16.216 19.8466 16.2335 19.985C16.2509 20.1234 16.296 20.2569 16.3661 20.3776C16.4361 20.4983 16.5297 20.6037 16.6413 20.6875L20.5475 23.8135C21.1018 24.2573 21.7906 24.499 22.5007 24.499C23.2107 24.499 23.8995 24.2573 24.4538 23.8135L28.36 20.6885C28.4669 20.603 28.5558 20.4973 28.6218 20.3774C28.6878 20.2576 28.7295 20.1259 28.7446 19.9899C28.7597 19.8539 28.7478 19.7162 28.7097 19.5848C28.6716 19.4534 28.608 19.3308 28.5225 19.2239C28.437 19.1171 28.3313 19.0281 28.2115 18.9621C28.0916 18.8962 27.9599 18.8544 27.8239 18.8393C27.6879 18.8243 27.5503 18.8361 27.4188 18.8742C27.2874 18.9123 27.1648 18.9759 27.0579 19.0614L23.1517 22.1864C22.9669 22.3343 22.7373 22.4149 22.5007 22.4149C22.264 22.4149 22.0344 22.3343 21.8496 22.1864L17.9434 19.0625Z" fill="white"/>
</svg>
