<svg width="121" height="119" viewBox="0 0 121 119" fill="none" xmlns="http://www.w3.org/2000/svg">
<path fill-rule="evenodd" clip-rule="evenodd" d="M114.158 59.8325C112.155 63.9942 109.964 68.0305 107.937 72.1738C107.52 73.0255 106.796 76.0887 106.138 76.4381C105.215 76.9274 103.137 74.2564 102.638 73.6498C100.082 70.5378 97.8093 67.2134 95.5144 63.8668C95.2477 63.4781 93.4297 61.2915 93.5658 60.8886C94.0826 59.357 97.1304 59.5556 98.1947 59.4113C102.841 58.782 109.189 57.7749 113.914 58.5" fill="#F47500"/>
<path d="M114.158 59.8325C112.155 63.9942 109.964 68.0305 107.937 72.1738C107.52 73.0255 106.796 76.0887 106.138 76.4381C105.215 76.9274 103.137 74.2564 102.638 73.6498C100.082 70.5378 97.8093 67.2134 95.5144 63.8668C95.2477 63.4781 93.4297 61.2915 93.5658 60.8886C94.0826 59.357 97.1304 59.5556 98.1947 59.4113C102.841 58.782 109.189 57.7749 113.914 58.5" stroke="#F47500" stroke-miterlimit="1.5" stroke-linecap="round" stroke-linejoin="round"/>
<path d="M101.18 68.578C92.1837 79.458 75.6183 90.5318 61.5206 89.5343C55.1247 89.0819 40.0476 81.1871 44.4955 71.3568C49.3692 60.5863 61.8954 74.8526 55.3543 83.0807C49.5704 90.356 39.9808 89.2725 32.5428 85.2846C19.3978 78.2364 11.2464 66.0734 8.16144 50.3919" stroke="#F47500" stroke-width="4" stroke-miterlimit="1.5" stroke-linecap="round" stroke-linejoin="round"/>
</svg>
