<svg width="154" height="153" viewBox="0 0 154 153" fill="none" xmlns="http://www.w3.org/2000/svg">
<g clip-path="url(#clip0_78_557)">
<path d="M77.0362 153.002C119.287 153.002 153.539 118.751 153.539 76.4999C153.539 34.2488 119.287 -0.00256348 77.0362 -0.00256348C34.785 -0.00256348 0.533691 34.2488 0.533691 76.4999C0.533691 118.751 34.785 153.002 77.0362 153.002Z" fill="#F2E6DC"/>
<path d="M22.9109 89.1521C22.8089 89.1521 22.7261 89.0693 22.7261 88.9681L22.7119 79.0482C22.7077 75.9673 25.2109 73.4583 28.291 73.4533C29.7834 73.4491 31.1871 74.0302 32.2439 75.0844C33.3007 76.1379 33.8834 77.54 33.8859 79.0323L33.9001 88.9522C33.9001 89.0542 33.8174 89.137 33.7154 89.137L22.9109 89.1521ZM28.2993 73.822C28.2968 73.822 28.2943 73.822 28.2918 73.822C25.4149 73.8262 23.0773 76.1696 23.0815 79.0466L23.0957 88.7817L33.5314 88.7666L33.5181 79.0315C33.5164 77.6378 32.9713 76.3285 31.9847 75.3444C30.9982 74.3629 29.6906 73.822 28.2993 73.822Z" fill="#E0AA63"/>
<path d="M20.4597 89.1554C20.4112 89.1554 20.3644 89.1362 20.3293 89.1019C20.295 89.0676 20.275 89.0208 20.275 88.9715L20.2608 79.0516C20.2582 77.5592 20.8376 76.1554 21.8919 75.0986C22.9454 74.0419 24.3483 73.4591 25.8407 73.4566C27.333 73.4491 28.7368 74.0335 29.7936 75.0878C30.8504 76.1412 31.4331 77.5433 31.4356 79.0357L31.4498 88.9556C31.4498 89.0049 31.4306 89.0518 31.3963 89.086C31.362 89.1203 31.3152 89.1404 31.2659 89.1404L20.4597 89.1554ZM25.849 73.8262C25.8465 73.8262 25.844 73.8262 25.8415 73.8262C24.4478 73.8278 23.1385 74.3729 22.1536 75.3595C21.1696 76.3461 20.6286 77.657 20.6303 79.0507L20.6437 88.7859L31.0794 88.7708L31.0652 79.0357C31.0636 77.642 30.5184 76.3327 29.5319 75.3486C28.5478 74.3663 27.2394 73.8262 25.849 73.8262Z" fill="#E0AA63"/>
<path d="M44.4329 130.85L9.43604 130.899L11.6073 86.2618L42.1362 86.2191L44.4329 130.85Z" fill="#EFBC73"/>
<path d="M11.6074 86.2618L6.08105 126.187L9.43619 130.899L11.6074 86.2618Z" fill="#E0AA63"/>
<path d="M11.6074 86.2618L6.081 126.187L1.99097 125.542L11.6074 86.2618Z" fill="#EFBC73"/>
<path d="M26.7642 98.6122C26.6907 98.6122 26.6213 98.5679 26.5928 98.4951L22.813 88.9481C22.2453 87.5134 22.2695 85.9433 22.8824 84.5278C23.4952 83.1115 24.6231 82.0196 26.0578 81.4511C29.0191 80.279 32.3834 81.7345 33.5556 84.6959L37.3355 94.2429C37.3538 94.2881 37.353 94.3391 37.3329 94.3842C37.3137 94.4294 37.2769 94.4645 37.2318 94.4829L26.832 98.5988C26.8094 98.608 26.7868 98.6122 26.7642 98.6122ZM28.1772 81.4143C27.5159 81.4143 26.8445 81.5364 26.1932 81.7939C24.8505 82.3256 23.7945 83.3482 23.221 84.6742C22.6475 85.9993 22.624 87.4691 23.1558 88.8118L26.8671 98.1875L36.9233 94.207L33.212 84.8313C32.3726 82.7102 30.3317 81.4143 28.1772 81.4143Z" fill="#776E42"/>
<path d="M24.4049 99.546C24.3313 99.546 24.2619 99.5017 24.2335 99.429L20.4536 89.882C19.8859 88.4473 19.9102 86.8771 20.523 85.4617C21.1358 84.0454 22.2637 82.9535 23.6984 82.385C26.6597 81.2128 30.0232 82.6684 31.1962 85.6297L34.9761 95.1768C34.9945 95.2219 34.9936 95.2729 34.9736 95.318C34.9543 95.3632 34.9176 95.3983 34.8724 95.4167L24.4726 99.5327C24.4508 99.5419 24.4283 99.546 24.4049 99.546ZM25.8186 82.3482C25.1573 82.3482 24.486 82.4702 23.8347 82.7277C22.4919 83.2595 21.436 84.282 20.8625 85.608C20.2889 86.9332 20.2655 88.403 20.7972 89.7457L24.5085 99.1213L34.5647 95.1408L30.8534 85.7652C30.014 83.6441 27.9732 82.3482 25.8186 82.3482Z" fill="#776E42"/>
<path d="M63.3915 130.59L29.7081 143.923L14.8521 100.113L44.2347 88.4833L63.3915 130.59Z" fill="#9E9569"/>
<path d="M14.8521 100.113L24.6875 140.659L29.7081 143.923L14.8521 100.113Z" fill="#776E42"/>
<path d="M14.8521 100.113L24.6875 140.659L20.5047 141.589L14.8521 100.113Z" fill="#8B865C"/>
<path d="M95.1612 66.3452C95.1102 66.3452 95.06 66.3243 95.0241 66.2833C91.2559 62.072 90.9173 55.9102 91.2969 51.4833C91.7066 46.7035 93.0192 42.8593 93.0317 42.8208C93.0652 42.7246 93.1697 42.6736 93.2667 42.7063C93.3628 42.7397 93.4138 42.8442 93.3812 42.9412C93.3294 43.0925 88.2461 58.1534 95.3 66.0367C95.3677 66.1127 95.3619 66.229 95.2858 66.2975C95.249 66.3301 95.2047 66.3452 95.1612 66.3452Z" fill="#363E44"/>
<path d="M101.24 57.8599L118.389 62.8061L153.314 40.7741L139.085 18.2212L104.16 40.2532L101.24 57.8599ZM111.13 51.6295C111.835 52.7465 111.5 54.223 110.383 54.927C109.266 55.6318 107.79 55.2974 107.086 54.1804C106.382 53.0634 106.716 51.5869 107.833 50.8829C108.949 50.179 110.425 50.5126 111.13 51.6295Z" fill="#EFBC73"/>
<path d="M146.235 38.9557C146.222 38.9557 146.21 38.954 146.197 38.9515L123.741 34.3448C123.642 34.3247 123.577 34.2269 123.597 34.1266C123.617 34.0271 123.714 33.9627 123.816 33.9828L146.272 38.5895C146.371 38.6096 146.435 38.7074 146.415 38.8077C146.398 38.8955 146.321 38.9557 146.235 38.9557Z" fill="#363E44"/>
<path d="M133.169 46.4894C132.083 46.4894 131.019 45.9502 130.399 44.9653C129.933 44.227 129.783 43.3508 129.975 42.4989C130.168 41.6469 130.681 40.9212 131.419 40.4555C132.944 39.4932 134.966 39.9514 135.929 41.4764C136.394 42.2146 136.545 43.0908 136.352 43.9419C136.159 44.7939 135.647 45.5196 134.908 45.9853C134.368 46.3264 133.765 46.4894 133.169 46.4894ZM133.16 40.3218C132.63 40.3218 132.096 40.4656 131.616 40.7682C130.961 41.1812 130.506 41.825 130.335 42.5808C130.164 43.3366 130.298 44.1133 130.711 44.768C131.564 46.1207 133.359 46.5262 134.711 45.6734C135.367 45.2604 135.822 44.6166 135.992 43.8608C136.164 43.105 136.03 42.3283 135.617 41.6737C135.066 40.8008 134.123 40.3218 133.16 40.3218Z" fill="#363E44"/>
<path d="M136.727 32.8699C135.641 32.8699 134.577 32.3307 133.957 31.3458C133.491 30.6075 133.341 29.7313 133.533 28.8802C133.726 28.0283 134.239 27.3026 134.977 26.8369C136.502 25.8746 138.524 26.3327 139.487 27.8577C139.952 28.596 140.103 29.4722 139.911 30.3233C139.718 31.1752 139.205 31.9009 138.466 32.3666C137.926 32.7077 137.323 32.8699 136.727 32.8699ZM136.717 26.7023C136.188 26.7023 135.653 26.8461 135.174 27.1487C134.518 27.5618 134.063 28.2055 133.893 28.9613C133.721 29.7171 133.855 30.4938 134.268 31.1485C135.122 32.5012 136.916 32.9067 138.269 32.0539C138.924 31.6409 139.379 30.9972 139.55 30.2413C139.721 29.4855 139.587 28.7088 139.174 28.0542C138.624 27.1813 137.68 26.7023 136.717 26.7023Z" fill="#363E44"/>
<path d="M93.4281 51.8293L111.188 50.0594L135.443 16.6419L113.86 0.979004L89.6047 34.3965L93.4281 51.8293ZM100.3 42.3743C101.368 43.1502 101.606 44.645 100.831 45.7135C100.055 46.782 98.5598 47.0195 97.4913 46.2444C96.4228 45.4694 96.1854 43.9737 96.9604 42.9052C97.7355 41.8367 99.2312 41.5984 100.3 42.3743Z" fill="#D87355"/>
<path d="M105.564 21.6474C105.476 21.6474 105.398 21.5847 105.382 21.4953C105.364 21.3949 105.431 21.2988 105.531 21.2812L128.094 17.2263C128.194 17.2079 128.29 17.2748 128.308 17.3751C128.326 17.4755 128.259 17.5716 128.159 17.5892L105.596 21.6441C105.585 21.6466 105.574 21.6474 105.564 21.6474Z" fill="white"/>
<path d="M117.633 29.6602C116.949 29.6602 116.284 29.4454 115.72 29.0365C115.014 28.524 114.549 27.7666 114.412 26.9037C114.274 26.0409 114.482 25.1773 114.994 24.4708C115.507 23.7643 116.264 23.2995 117.127 23.1623C117.989 23.0252 118.854 23.2326 119.56 23.7451C120.267 24.2576 120.731 25.0151 120.869 25.8779C121.006 26.7407 120.798 27.6044 120.286 28.3108C119.773 29.0173 119.016 29.4822 118.153 29.6193C117.979 29.6469 117.805 29.6602 117.633 29.6602ZM117.646 23.4901C117.493 23.4901 117.339 23.5018 117.185 23.5269C116.42 23.6481 115.748 24.0603 115.293 24.6873C114.838 25.3144 114.654 26.081 114.775 26.846C114.897 27.611 115.309 28.2832 115.936 28.7381C116.563 29.1929 117.33 29.3768 118.094 29.2548C118.859 29.1335 119.532 28.7213 119.987 28.0943C120.441 27.4672 120.625 26.7006 120.504 25.9356C120.382 25.1706 119.971 24.4984 119.344 24.0436C118.843 23.6799 118.253 23.4901 117.646 23.4901Z" fill="white"/>
<path d="M115.886 15.6913C115.22 15.6913 114.549 15.4889 113.969 15.0692C113.263 14.5567 112.798 13.7993 112.661 12.9364C112.524 12.0745 112.731 11.21 113.244 10.5035C114.303 9.04455 116.351 8.71932 117.81 9.77778C118.517 10.2903 118.982 11.0478 119.119 11.9106C119.256 12.7734 119.048 13.6371 118.536 14.3435C117.897 15.2239 116.898 15.6913 115.886 15.6913ZM113.543 10.72C113.088 11.3471 112.904 12.1138 113.026 12.8788C113.147 13.6438 113.56 14.3159 114.187 14.7708C115.481 15.7097 117.299 15.4212 118.237 14.127C118.692 13.4999 118.876 12.7333 118.755 11.9683C118.633 11.2033 118.221 10.5311 117.595 10.0763C116.299 9.13736 114.482 9.4258 113.543 10.72Z" fill="white"/>
<path d="M92.9691 68.6452C92.9022 68.6452 92.8387 68.6092 92.8052 68.5465C92.7584 68.4562 92.7927 68.345 92.883 68.2974C98.6552 65.2767 101.354 59.9635 100.904 52.5041C100.568 46.9217 98.4946 42.177 98.4737 42.1294C98.4328 42.0366 98.4746 41.927 98.5682 41.8861C98.6627 41.8451 98.7705 41.8869 98.8115 41.9805C98.8324 42.0282 100.932 46.8347 101.272 52.4824C101.724 59.9919 98.8826 65.5735 93.0535 68.6243C93.0276 68.6385 92.9984 68.6452 92.9691 68.6452Z" fill="#363E44"/>
<path d="M96.9956 69.3465C96.9279 69.3465 96.8635 69.3098 96.8309 69.2454C96.7849 69.1542 96.8217 69.0431 96.912 68.9971C107.502 63.6412 109.177 50.6396 109.193 50.5083C109.205 50.4071 109.293 50.3352 109.399 50.347C109.5 50.3587 109.572 50.4506 109.56 50.5518C109.556 50.5852 109.143 53.9161 107.407 57.8707C105.804 61.5251 102.709 66.4788 97.0784 69.3256C97.0516 69.3399 97.0232 69.3465 96.9956 69.3465Z" fill="#363E44"/>
<path d="M83.5283 31.9862L22.4102 69.8842L3.27271 38.8461L64.3908 0.94812L83.5283 31.9862Z" fill="#D3BBA3"/>
<path d="M80.8989 31.4369L19.7808 69.3349L0.643311 38.2968L61.7614 0.398804L80.8989 31.4369Z" fill="white"/>
<path d="M19.7808 69.5197C19.7666 69.5197 19.7523 69.518 19.7381 69.5147C19.6905 69.5038 19.6495 69.4737 19.6236 69.4319L0.486044 38.3938C0.432536 38.3069 0.45929 38.194 0.546241 38.1405L61.6643 0.241626C61.7061 0.215708 61.7563 0.207347 61.8039 0.219052C61.8516 0.229921 61.8926 0.260019 61.9185 0.301823L81.056 31.3399C81.1095 31.4269 81.0828 31.5397 80.9958 31.5932L19.8777 69.4921C19.8485 69.5105 19.815 69.5197 19.7808 69.5197ZM0.896552 38.357L19.8401 69.0808L80.6455 31.3767L61.7011 0.65297L0.896552 38.357Z" fill="#D3BBA3"/>
<path d="M58.1688 31.788C58.1203 31.788 58.0727 31.7696 58.0367 31.7329L51.487 25.0611L49.3567 26.408C49.2706 26.4623 49.1569 26.4364 49.1017 26.3503C49.0473 26.2642 49.0732 26.1504 49.1594 26.0953L51.4159 24.6689C51.4895 24.623 51.5848 24.6338 51.6458 24.6957L58.1872 31.3591L65.6808 25.8018L62.6225 20.8406L60.2757 22.2953C60.1887 22.3489 60.075 22.3221 60.0215 22.236C59.968 22.149 59.9948 22.0353 60.0809 21.9818L62.5849 20.4292C62.6267 20.4033 62.6769 20.395 62.7245 20.4067C62.7722 20.4175 62.8131 20.4476 62.8391 20.4894L66.083 25.7525C66.1332 25.8344 66.1131 25.9406 66.0362 25.9974L58.2775 31.7512C58.2457 31.7763 58.2073 31.788 58.1688 31.788Z" fill="#363E44"/>
<path d="M53.1533 26.6788C53.0914 26.6788 53.0312 26.6478 52.9961 26.5918C52.9426 26.5049 52.9693 26.3912 53.0554 26.3377L55.6447 24.7324C55.7317 24.6789 55.8454 24.7057 55.8989 24.7918C55.9524 24.8787 55.9257 24.9924 55.8396 25.0459L53.2503 26.6512C53.2202 26.6696 53.1859 26.6788 53.1533 26.6788Z" fill="#363E44"/>
<path d="M58.8812 36.0745C58.7474 36.0745 58.6128 36.0586 58.4799 36.0277C58.0276 35.9207 57.6438 35.6439 57.3997 35.2476C56.8964 34.4308 57.1497 33.3556 57.964 32.8506C58.3586 32.6065 58.8243 32.5304 59.2758 32.6366C59.7281 32.7436 60.1119 33.0203 60.356 33.4166C60.8593 34.2335 60.606 35.3087 59.7917 35.8136C59.5132 35.9859 59.1997 36.0745 58.8812 36.0745ZM58.8753 32.9593C58.6245 32.9593 58.3779 33.0287 58.1588 33.165C57.5167 33.563 57.3169 34.4107 57.714 35.0545C57.9063 35.3663 58.2082 35.5846 58.5643 35.669C58.9188 35.7526 59.2867 35.6933 59.5969 35.501C60.239 35.103 60.4388 34.2552 60.0416 33.6114C59.8493 33.2996 59.5475 33.0814 59.1914 32.9969C59.086 32.971 58.9798 32.9593 58.8753 32.9593Z" fill="#363E44"/>
<path d="M68.4207 30.161C68.287 30.161 68.1524 30.1452 68.0194 30.1142C67.5671 30.0072 67.1834 29.7305 66.9392 29.3342C66.4359 28.5173 66.6892 27.4422 67.5036 26.9372C67.8982 26.693 68.363 26.617 68.8154 26.7231C69.2677 26.8302 69.6514 27.1069 69.8956 27.5032C70.3989 28.32 70.1455 29.3952 69.3312 29.9002C69.0536 30.0724 68.7393 30.161 68.4207 30.161ZM68.4149 27.045C68.1641 27.045 67.9174 27.1144 67.6984 27.2507C67.0563 27.6487 66.8565 28.4964 67.2536 29.1402C67.4459 29.4521 67.7477 29.6703 68.1039 29.7547C68.4592 29.8383 68.8262 29.779 69.1364 29.5858C69.7785 29.1879 69.9783 28.3401 69.5812 27.6963C69.3889 27.3845 69.0871 27.1663 68.7309 27.0818C68.6264 27.0576 68.5202 27.045 68.4149 27.045Z" fill="#363E44"/>
<path d="M60.1928 33.6884C60.1309 33.6884 60.0708 33.6575 60.0356 33.6006C59.9821 33.5137 60.0089 33.4 60.095 33.3464L66.9825 29.0767C67.0695 29.0231 67.1832 29.0499 67.2367 29.136C67.2902 29.223 67.2634 29.3367 67.1773 29.3902L60.2898 33.66C60.2597 33.68 60.2263 33.6884 60.1928 33.6884Z" fill="#363E44"/>
<path d="M58.4841 33.0104C58.4021 33.0104 58.3269 32.9552 58.306 32.8725L57.99 31.6501C57.964 31.5515 58.0234 31.4512 58.1221 31.4252C58.2207 31.4002 58.3211 31.4587 58.347 31.5573L58.663 32.7797C58.6889 32.8783 58.6296 32.9786 58.5309 33.0046C58.515 33.0079 58.5 33.0104 58.4841 33.0104Z" fill="#363E44"/>
<path d="M57.7422 17.3851L54.4949 12.1171L49.5554 15.1787L52.8027 20.4468L51.4968 21.2569L57.595 22.6833L59.0489 16.575L57.7422 17.3851Z" fill="#E6D0BE"/>
<path d="M56.8652 22.695C56.851 22.695 56.8368 22.6933 56.8234 22.6899L50.7251 21.2628C50.6524 21.2461 50.5972 21.1867 50.5847 21.1131C50.573 21.0395 50.6064 20.966 50.67 20.9267L51.8195 20.2144L48.6684 15.1026C48.6149 15.0157 48.6417 14.9028 48.7286 14.8493L53.6681 11.7876C53.7099 11.7617 53.7601 11.7534 53.8077 11.7651C53.8554 11.7759 53.8963 11.806 53.9223 11.8478L57.0725 16.9587L58.2213 16.2464C58.2848 16.2071 58.3659 16.2096 58.427 16.2539C58.4872 16.2974 58.5156 16.3735 58.4989 16.4462L57.0458 22.5545C57.0241 22.6381 56.9488 22.695 56.8652 22.695ZM51.2435 21.0061L56.7289 22.2895L58.0365 16.7957L57.111 17.3692C57.0692 17.3951 57.019 17.4035 56.9714 17.3918C56.9237 17.3809 56.8828 17.3508 56.8568 17.309L53.7065 12.1982L49.0806 15.0659L52.2317 20.1776C52.2852 20.2645 52.2585 20.3774 52.1715 20.4309L51.2435 21.0061Z" fill="#BC8271"/>
<path d="M53.8193 20.7469C53.8051 20.7469 53.7908 20.7452 53.7766 20.7419C53.6771 20.7185 53.6161 20.619 53.6395 20.5203L54.7766 15.687C54.8 15.5875 54.8995 15.5265 54.999 15.5499C55.0984 15.5733 55.1595 15.6728 55.1361 15.7715L53.999 20.6048C53.979 20.69 53.9029 20.7469 53.8193 20.7469Z" fill="#BC8271"/>
<path d="M53.0384 18.6216C52.9766 18.6216 52.9155 18.6141 52.8537 18.5999C52.6463 18.5505 52.4699 18.4235 52.3579 18.242C52.1271 17.8666 52.2433 17.3734 52.6171 17.1418C52.7985 17.0297 53.0125 16.9946 53.2199 17.0431C53.4272 17.0924 53.6036 17.2195 53.7156 17.4009C53.9464 17.7755 53.8302 18.2696 53.4565 18.5012C53.3286 18.5806 53.1847 18.6216 53.0384 18.6216ZM53.0359 17.3909C52.9573 17.3909 52.8804 17.4127 52.8119 17.4553C52.6104 17.5799 52.5477 17.8466 52.6722 18.0481C52.7324 18.1459 52.8269 18.2144 52.9389 18.2404C53.0501 18.2663 53.1647 18.2479 53.2625 18.1877C53.464 18.0631 53.5267 17.7964 53.4021 17.5949C53.3419 17.4971 53.2475 17.4285 53.1354 17.4026C53.102 17.3943 53.0685 17.3909 53.0359 17.3909Z" fill="#BC8271"/>
<path d="M55.7523 19.2637C55.6904 19.2637 55.6294 19.2562 55.5675 19.242C55.3602 19.1926 55.1838 19.0655 55.0717 18.8841C54.841 18.5087 54.9572 18.0154 55.3309 17.7839C55.5124 17.6718 55.7264 17.6367 55.9337 17.6852C56.1411 17.7345 56.3175 17.8616 56.4295 18.043C56.6603 18.4176 56.5441 18.9117 56.1703 19.1433C56.0424 19.2227 55.8986 19.2637 55.7523 19.2637ZM55.7498 18.033C55.6712 18.033 55.5943 18.0547 55.5249 18.0974C55.3234 18.222 55.2607 18.4887 55.3853 18.6902C55.4455 18.788 55.5399 18.8565 55.652 18.8824C55.7632 18.9084 55.8777 18.89 55.9755 18.8298C56.177 18.7052 56.2397 18.4393 56.1152 18.237C56.055 18.1392 55.9605 18.0706 55.8485 18.0447C55.8158 18.0363 55.7824 18.033 55.7498 18.033Z" fill="#BC8271"/>
<path d="M15.521 46.7369C15.184 46.7369 14.8446 46.6976 14.5077 46.6181C13.3656 46.3489 12.3974 45.6491 11.7813 44.6492C10.5096 42.5866 11.1492 39.8702 13.2059 38.5952L37.4543 23.5636C38.4509 22.9458 39.6273 22.7543 40.7668 23.0235C41.9089 23.2927 42.877 23.9925 43.4941 24.9925C44.7657 27.055 44.1261 29.7706 42.0694 31.0456L17.8193 46.078C17.1179 46.5128 16.3261 46.7369 15.521 46.7369ZM12.0956 44.4552C12.6608 45.3716 13.547 46.012 14.5929 46.2586C15.6364 46.5044 16.7132 46.3289 17.6254 45.7637L41.8754 30.7312C43.7599 29.5632 44.3452 27.0751 43.1805 25.1856C42.6153 24.2693 41.7283 23.6288 40.6832 23.3822C39.6398 23.1356 38.5621 23.312 37.65 23.8771L13.4007 38.9088C11.5154 40.0776 10.9301 42.5657 12.0956 44.4552Z" fill="#D3BBA3"/>
<path d="M37.6282 27.6068L36.4092 28.5942L37.9325 28.9637L38.4927 30.4319L39.3145 29.0933L40.8796 29.0131L39.8638 27.8158L40.271 26.2975L38.8221 26.897L37.5078 26.0392L37.6282 27.6068Z" fill="#D87355"/>
<path d="M32.1145 31.0247L30.8955 32.0129L32.4188 32.3824L32.979 33.8506L33.8 32.5112L35.366 32.4309L34.3501 31.2337L34.7573 29.7162L33.3084 30.3149L31.9941 29.4579L32.1145 31.0247Z" fill="#D87355"/>
<path d="M26.6006 34.4434L25.3816 35.4307L26.9049 35.8003L27.4651 37.2684L28.2861 35.9299L29.852 35.8496L28.8354 34.6524L29.2434 33.1341L27.7936 33.7335L26.4802 32.8757L26.6006 34.4434Z" fill="#D87355"/>
<path d="M21.0868 37.8612L19.8669 38.8494L21.3911 39.219L21.9513 40.6871L22.7723 39.3477L24.3374 39.2675L23.3216 38.0702L23.7296 36.5528L22.2798 37.1514L20.9664 36.2936L21.0868 37.8612Z" fill="#D87355"/>
<path d="M15.5728 41.2789L14.353 42.2672L15.8772 42.6367L16.4365 44.1048L17.2584 42.7663L18.8235 42.6852L17.8076 41.4888L18.2148 39.9705L16.7659 40.57L15.4525 39.7122L15.5728 41.2789Z" fill="#D87355"/>
<path d="M135.666 108.666C135.564 108.666 135.481 108.583 135.481 108.482C135.461 96.0965 139.133 85.4115 142.216 78.6302C145.557 71.2812 148.95 66.7982 148.985 66.7539C149.047 66.6728 149.162 66.6569 149.243 66.7188C149.324 66.7807 149.34 66.896 149.278 66.9771C149.245 67.0214 145.872 71.4785 142.548 78.7924C139.482 85.5386 135.831 96.1658 135.851 108.481C135.851 108.583 135.768 108.666 135.666 108.666Z" fill="#E6D0BE"/>
<path d="M147.08 69.9109C147.08 69.9109 146.153 65.9379 152.763 61.4365C152.763 61.4365 152.798 69.3064 147.08 69.9109Z" fill="#E6D0BE"/>
<path d="M145.194 72.2335C145.281 72.282 146.376 68.3901 142.442 64.0074C142.442 64.0074 141.948 70.4259 145.194 72.2335Z" fill="#E6D0BE"/>
<path d="M143.043 75.8929C143.043 75.8929 142.993 72.4023 137.641 68.8624C137.641 68.8624 140.007 75.9464 143.043 75.8929Z" fill="#E6D0BE"/>
<path d="M141.117 80.4127C141.217 80.4052 139.982 76.5559 134.282 75.0719C134.282 75.0727 137.412 80.6978 141.117 80.4127Z" fill="#E6D0BE"/>
<path d="M139.725 83.8999C139.725 83.8999 137.814 81.426 132.075 81.737C132.075 81.7362 137.577 85.5528 139.725 83.8999Z" fill="#E6D0BE"/>
<path d="M138.148 88.7708C138.148 88.7708 135.789 87.4047 131.258 89.55C131.258 89.55 136.96 90.815 138.148 88.7708Z" fill="#E6D0BE"/>
<path d="M145.767 72.7711C145.691 72.7251 148.21 70.1742 153.314 71.2837C153.313 71.2837 148.583 74.4791 145.767 72.7711Z" fill="#E6D0BE"/>
<path d="M144.006 76.4606C144.006 76.4606 147.065 74.7776 152.789 77.6779C152.789 77.6771 145.461 79.126 144.006 76.4606Z" fill="#E6D0BE"/>
<path d="M142.075 81.2312C142.033 81.1409 145.99 80.3107 150.097 84.5303C150.098 84.5303 143.661 84.5922 142.075 81.2312Z" fill="#E6D0BE"/>
<path d="M140.61 84.5194C140.61 84.5194 143.705 84.9567 146.273 90.0976C146.273 90.0976 140.235 87.204 140.61 84.5194Z" fill="#E6D0BE"/>
<path d="M138.981 89.1747C138.981 89.1747 141.336 90.5492 141.712 95.548C141.711 95.548 137.792 91.2189 138.981 89.1747Z" fill="#E6D0BE"/>
<path d="M123.544 97.8171C123.523 97.8171 123.502 97.8138 123.482 97.8063C123.386 97.772 123.336 97.6666 123.37 97.5705C128.967 81.8608 124.274 66.8693 124.225 66.7197C124.195 66.6227 124.248 66.519 124.345 66.4872C124.442 66.4563 124.546 66.509 124.577 66.6068C124.626 66.7573 129.358 81.8633 123.718 97.6951C123.691 97.7703 123.62 97.8171 123.544 97.8171Z" fill="white"/>
<path d="M125.05 69.1819C125.05 69.1819 126.609 66.7489 123.261 62.1798C123.262 62.1798 121.376 67.4253 125.05 69.1819Z" fill="white"/>
<path d="M125.76 71.1783C125.69 71.19 125.879 68.3332 129.543 66.3375C129.543 66.3375 128.355 70.7394 125.76 71.1783Z" fill="white"/>
<path d="M126.33 74.1305C126.33 74.1305 127.189 71.8121 131.6 70.7144C131.6 70.7144 128.345 74.8846 126.33 74.1305Z" fill="white"/>
<path d="M126.546 77.6035C126.482 77.5751 128.217 75.2968 132.374 75.6555C132.374 75.6555 128.953 78.6703 126.546 77.6035Z" fill="white"/>
<path d="M126.651 80.2605C126.651 80.2605 128.512 79.0608 132.27 80.6259C132.27 80.6267 127.694 81.8733 126.651 80.2605Z" fill="white"/>
<path d="M126.551 83.8858C126.551 83.8858 128.449 83.5322 130.967 86.0362C130.967 86.0362 126.861 85.532 126.551 83.8858Z" fill="white"/>
<path d="M125.25 71.4017C125.312 71.3891 124.234 69.0899 120.564 68.6234C120.563 68.6234 122.966 71.8757 125.25 71.4017Z" fill="white"/>
<path d="M125.553 74.2811C125.553 74.2811 123.909 72.4342 119.401 73.0161C119.401 73.0161 123.95 75.7166 125.553 74.2811Z" fill="white"/>
<path d="M125.713 77.9238C125.762 77.8736 123.317 76.3829 119.576 78.2281C119.576 78.2281 123.859 79.7924 125.713 77.9238Z" fill="white"/>
<path d="M125.913 80.4655C125.913 80.4655 123.744 80.0249 120.813 82.8499C120.812 82.8499 125.528 82.3466 125.913 80.4655Z" fill="white"/>
<path d="M125.899 83.9585C125.899 83.9585 124.002 84.3197 122.568 87.5678C122.568 87.5678 126.209 85.6047 125.899 83.9585Z" fill="white"/>
<path d="M139.694 99.0302L90.9834 119.617L97.3224 134.616L100.943 137.156L100.429 141.965L103.197 148.513L151.907 127.926L149.14 121.379L145.736 118.948L146.033 114.028L139.694 99.0302Z" fill="white"/>
<path d="M103.886 147.408L103.815 147.239L91.5286 118.173L91.6983 118.101L140.579 97.4425L140.651 97.6122L152.937 126.678L152.767 126.75L103.886 147.408ZM92.0126 118.368L104.083 146.924L152.453 126.482L140.383 97.9258L92.0126 118.368Z" fill="#363E44"/>
<path d="M146.032 114.025L97.3228 134.612L100.429 141.963L149.139 121.376L146.032 114.025Z" fill="#40484C"/>
<path d="M74.1026 152.42L75.605 141.404L77.614 152.232H109.47L95.2885 100.579L52.7135 107.998L43.6965 152.42H74.1026Z" fill="#363E44"/>
<path d="M38.4502 71.5588C33.7992 76.6739 13.9108 96.7971 20.5952 103.386C25.5388 108.26 45.3084 91.5768 50.2563 86.797C46.8777 83.145 41.8296 75.2108 38.4502 71.5588Z" fill="#9D6C5B"/>
<path d="M104.77 69.2788C109.421 74.3939 129.31 94.5171 122.625 101.106C117.682 105.98 97.9119 89.2967 92.9641 84.5169C96.3435 80.865 101.391 72.9299 104.77 69.2788Z" fill="#9D6C5B"/>
<path d="M118.571 80.8074C118.571 80.8074 102.758 58.4368 73.0015 58.4418C50.8758 58.4451 30.4207 77.1278 30.4207 77.1278L48.1762 89.5877L49.7915 88.0351L48.0407 117.233L103.169 118.133L102.609 91.7481L118.571 80.8074Z" fill="#D3BBA3"/>
<path d="M49.0181 89.2031L44.6847 93.7154L27.4116 78.902L31.6271 74.9691L49.0181 89.2031Z" fill="white"/>
<path d="M98.9989 88.6889L103.428 94.4862L119.941 80.2898L114.771 75.4323L98.9989 88.6889Z" fill="white"/>
<path d="M102.846 93.9737C102.79 93.9737 102.734 93.9486 102.699 93.901L92.0203 79.8292C91.9584 79.7481 91.9743 79.6319 92.0554 79.5708C92.1365 79.509 92.2527 79.5257 92.3138 79.6059L102.992 93.6778C103.054 93.7589 103.038 93.8751 102.957 93.9361C102.923 93.9612 102.884 93.9737 102.846 93.9737Z" fill="#363E44"/>
<path d="M97.4328 83.2762H53.8262V121.825H97.4328V83.2762Z" fill="#D87355"/>
<path d="M98.9988 79.3301H52.3413V83.5472H98.9988V79.3301Z" fill="#D87355"/>
<path d="M96.6125 83.8858H54.9021C54.8001 83.8858 54.7173 83.803 54.7173 83.701C54.7173 83.599 54.8001 83.5162 54.9021 83.5162H96.6125C96.7145 83.5162 96.7973 83.599 96.7973 83.701C96.7973 83.803 96.7145 83.8858 96.6125 83.8858Z" fill="#363E44"/>
<path d="M78.0253 79.3301H73.3149V121.825H78.0253V79.3301Z" fill="white"/>
<path d="M88.5673 68.9427L75.9478 78.7164L76.5338 79.9061L93.5001 76.8979L88.5673 68.9427ZM76.533 79.0541L86.8526 73.2644L87.4244 74.7308L76.533 79.0541Z" fill="white"/>
<path d="M56.0652 75.5226L75.8933 80.4938L76.6851 79.1344L62.5639 66.5173L56.0652 75.5226ZM63.4351 73.4625L64.2335 71.7745L75.9644 79.4847L63.4351 73.4625Z" fill="white"/>
<path d="M33.1579 96.1233C38.9351 99.4249 52.925 106.526 54.2627 107.273C56.7642 108.671 69.7583 115.105 68.0302 117.525C67.215 118.666 61.3358 115.366 60.0198 114.637C61.3575 115.716 67.6364 119.706 66.4675 121.102C65.2645 122.537 57.9748 117.52 57.8987 117.508C58.6027 118.089 64.1692 121.903 63.0112 123.519C61.8968 125.075 56.6446 120.301 55.7366 119.913C56.5359 120.764 60.131 123.476 59.4028 124.489C58.4271 125.847 53.919 122.147 53.0679 121.891C50.8448 120.651 47.0633 119.285 42.6397 117.375C32.2507 112.89 27.807 110.454 23.1802 107.378C21.3861 106.185 18.5819 103.155 19.3285 98.4216C23.9745 97.6407 28.5127 96.9058 33.1579 96.1233Z" fill="#9D6C5B"/>
<path d="M37.0238 98.4224C36.9937 98.4224 36.9628 98.4149 36.9343 98.399C36.2663 98.0278 35.1911 97.4451 34.2422 96.9317C33.3802 96.4644 32.6361 96.0614 32.3636 95.9067C32.2749 95.8565 32.2432 95.7437 32.2942 95.6551C32.3443 95.5664 32.4572 95.5347 32.5458 95.5857C32.8159 95.7387 33.5591 96.1408 34.4194 96.6073C35.3684 97.1215 36.4444 97.7051 37.1141 98.0771C37.2035 98.1265 37.2353 98.2393 37.186 98.328C37.1517 98.3882 37.089 98.4224 37.0238 98.4224Z" fill="#363E44"/>
<path d="M112.457 90.6111C105.824 91.1345 90.1407 91.5926 88.6115 91.6988C85.753 91.8961 71.2548 92.177 71.7874 95.1024C72.0382 96.4819 78.7635 96.0037 80.2642 95.9059C78.5946 96.3114 71.213 97.2436 71.6753 99.0043C72.1511 100.816 80.8846 99.3856 80.959 99.4073C80.0745 99.6322 73.4135 100.709 73.7714 102.664C74.1158 104.547 80.9022 102.468 81.8887 102.504C80.8027 102.933 76.3941 103.854 76.6207 105.081C76.9242 106.725 82.5801 105.3 83.4588 105.431C85.9988 105.257 90.0019 105.634 94.8168 105.792C106.126 106.164 111.185 105.856 116.681 105.047C118.813 104.733 122.503 103.482 123.847 98.8823C119.98 96.1935 116.325 93.299 112.457 90.6111Z" fill="#9D6C5B"/>
<path d="M107.708 90.9915C107.612 90.9915 107.531 90.9171 107.524 90.8193C107.518 90.7173 107.594 90.6295 107.696 90.6228C108.519 90.5685 110.922 90.4748 113.043 90.392C114.639 90.3302 116.018 90.2758 116.3 90.2549C116.403 90.2482 116.49 90.3235 116.498 90.4255C116.505 90.5275 116.429 90.6153 116.327 90.6236C116.039 90.6454 114.657 90.6989 113.057 90.7616C110.94 90.8444 108.539 90.938 107.722 90.9923C107.717 90.9907 107.712 90.9915 107.708 90.9915Z" fill="#363E44"/>
<path d="M67.8423 45.2617L83.0176 46.6899L84.1329 34.8393L68.9577 33.411L67.8423 45.2617Z" fill="#363E44"/>
<path d="M75.2696 65.1102L69.8193 58.568L70.3369 50.1815L80.2242 49.7133L80.6455 59.0003L75.2696 65.1102Z" fill="#9D6C5B"/>
<path d="M83.3267 43.916C83.1277 48.1332 80.6221 54.7038 75.1776 54.4471C69.7331 54.1904 67.8562 47.4141 68.0543 43.197C68.2533 38.9799 71.8668 36.8295 76.0839 37.0277C80.301 37.2258 83.5249 39.6989 83.3267 43.916Z" fill="#9D6C5B"/>
<path d="M68.7733 48.812C69.885 48.3802 70.2612 46.6784 69.6135 45.0111C68.9657 43.3437 67.5394 42.3422 66.4277 42.7741C65.316 43.2059 64.9399 44.9077 65.5876 46.575C66.2353 48.2424 67.6616 49.2439 68.7733 48.812Z" fill="#9D6C5B"/>
<path d="M85.4235 47.5098C86.225 45.9106 86.0105 44.1809 84.9442 43.6465C83.8779 43.112 82.3638 43.9752 81.5622 45.5744C80.7606 47.1736 80.9752 48.9032 82.0415 49.4377C83.1078 49.9721 84.6219 49.109 85.4235 47.5098Z" fill="#9D6C5B"/>
<path d="M83.6762 48.1991C83.6119 48.1991 83.55 48.1657 83.5157 48.1063C83.4656 48.0177 83.4965 47.9048 83.5851 47.8547C83.8978 47.6766 84.1754 47.3672 84.3677 46.9835C84.56 46.5997 84.6419 46.1917 84.5976 45.8347C84.5566 45.5053 84.4128 45.2629 84.1921 45.1525C84.1486 45.1308 84.1026 45.114 84.055 45.1032C83.9555 45.0806 83.8936 44.9819 83.9162 44.8824C83.9388 44.783 84.0374 44.7211 84.1369 44.7437C84.213 44.7612 84.2874 44.788 84.3568 44.8222C84.6912 44.9895 84.9061 45.3331 84.9629 45.7887C85.0165 46.2168 84.9211 46.7001 84.6971 47.1482C84.4722 47.5963 84.1428 47.9608 83.7674 48.1749C83.7381 48.1908 83.7072 48.1991 83.6762 48.1991Z" fill="#363E44"/>
<path d="M67.3513 47.43C67.3145 47.43 67.2777 47.4191 67.2451 47.3965C66.8923 47.1482 66.598 46.7544 66.4158 46.2871C66.0245 45.2796 66.2694 44.2763 66.9726 44.0038C67.0453 43.9753 67.1214 43.9561 67.1991 43.9461C67.2995 43.9327 67.3931 44.0038 67.4057 44.1049C67.419 44.2061 67.348 44.2989 67.2468 44.3114C67.1983 44.3181 67.1507 44.3298 67.1055 44.3474C66.6122 44.5388 66.4534 45.3657 66.7585 46.1533C66.914 46.5538 67.1615 46.8882 67.4558 47.0947C67.5394 47.1532 67.5595 47.2686 67.501 47.3522C67.4667 47.4024 67.4098 47.43 67.3513 47.43Z" fill="#363E44"/>
<path d="M82.4498 48.4483C82.4298 48.4483 82.4089 48.445 82.388 48.4374C82.2918 48.4032 82.2416 48.2978 82.2759 48.2017C82.6739 47.078 82.9515 45.8707 83.0785 44.7111C83.0894 44.6099 83.1831 44.5372 83.2817 44.5481C83.3829 44.5589 83.4564 44.6501 83.4456 44.7512C83.3152 45.9393 83.0317 47.175 82.6237 48.3246C82.597 48.4015 82.5259 48.4483 82.4498 48.4483Z" fill="#363E44"/>
<path d="M68.6254 48.1974C68.5451 48.1974 68.4707 48.1439 68.4481 48.0628C68.0552 46.6641 67.8445 45.1132 67.8562 43.696C67.857 43.594 67.9415 43.5154 68.0418 43.5129C68.1438 43.5138 68.2257 43.5974 68.2249 43.6994C68.214 45.0822 68.4188 46.5972 68.8034 47.9633C68.831 48.0611 68.7742 48.1631 68.6755 48.1907C68.6588 48.1957 68.6421 48.1974 68.6254 48.1974Z" fill="#363E44"/>
<path d="M82.5851 44.0171C82.5851 44.0171 82.2106 44.5832 81.5451 45.1383C81.1028 45.5078 79.7099 45.4886 79.7099 45.4886C79.7099 45.4886 78.1623 46.2227 77.5253 46.0847C76.8873 45.9459 76.4609 45.7478 76.4609 45.7478C76.4609 45.7478 76.6666 45.4376 77.0437 45.0505C77.5144 44.5681 79.4783 44.4954 79.4783 44.4954C79.4783 44.4954 80.7642 43.5331 81.3829 43.6526C82.096 43.7889 82.5851 44.0171 82.5851 44.0171Z" fill="white"/>
<path d="M79.189 43.7011C78.2535 43.9653 77.5203 44.5622 77.0496 45.0438C77.119 45.4259 77.282 45.7837 77.5244 46.0839C78.1615 46.2226 79.0101 46.3012 79.8562 46.0621C80.5368 45.8698 81.1087 45.5011 81.5526 45.1291C81.6655 44.6157 81.5969 44.0999 81.3846 43.6526C80.7642 43.533 79.9766 43.4787 79.189 43.7011Z" fill="#363E44"/>
<path d="M68.6104 43.3584C68.6104 43.3584 68.9774 44.0457 69.6755 44.7045C70.0618 45.069 71.3685 44.9578 71.3685 44.9578C71.3685 44.9578 72.7021 45.9686 73.3324 45.9051C74.0456 45.8332 74.5439 45.6559 74.5439 45.6559C74.5439 45.6559 74.3725 45.334 74.0398 44.9202C73.6175 44.3943 71.7824 44.0298 71.7824 44.0298C71.7824 44.0298 70.4505 43.0457 69.8193 43.1093C69.1078 43.182 68.6104 43.3584 68.6104 43.3584Z" fill="white"/>
<path d="M74.0431 44.9243C73.6209 44.3976 72.9395 43.7196 72.0198 43.3642C71.2523 43.0674 70.4589 43.0482 69.8285 43.1109C69.6187 43.5465 69.5409 44.0498 69.6437 44.5598C69.6538 44.6108 69.668 44.6601 69.6822 44.7095C70.0676 45.0723 70.5525 45.4268 71.1336 45.6517C71.9011 45.9485 72.6945 45.9677 73.3249 45.905C73.6493 45.6475 73.8968 45.3081 74.0431 44.9243Z" fill="#363E44"/>
<path d="M75.4385 54.7715C75.3407 54.7715 75.2429 54.7681 75.1434 54.7623C73.0114 54.6327 71.387 53.1428 70.2106 51.8603C70.1421 51.785 70.1471 51.6688 70.2223 51.5994C70.2967 51.5309 70.4138 51.535 70.4832 51.6103C71.6829 52.9187 73.1778 54.2723 75.1668 54.3936C77.1608 54.5148 78.8313 53.2716 80.067 52.1746C80.1431 52.1069 80.2593 52.1136 80.3278 52.1897C80.3956 52.2658 80.3889 52.3828 80.312 52.4505C79.0829 53.5424 77.4334 54.7715 75.4385 54.7715Z" fill="#363E44"/>
<path d="M75.6016 48.9232C75.5322 48.9232 75.467 48.8848 75.4352 48.8179C75.3909 48.7259 75.4302 48.6155 75.5222 48.5721C75.7345 48.4709 75.9971 48.3045 76.0405 48.0897C76.0656 47.9642 76.0138 47.8572 75.9109 47.6633C75.8324 47.5153 75.7345 47.3322 75.6693 47.0897C75.5732 46.7352 75.5707 46.3557 75.6626 45.9619C75.686 45.8624 75.7839 45.8005 75.8842 45.8239C75.9837 45.8473 76.0447 45.946 76.0221 46.0455C75.9444 46.3791 75.9452 46.6976 76.0255 46.9927C76.0807 47.1951 76.1634 47.3514 76.237 47.4902C76.349 47.7017 76.4561 47.9015 76.4034 48.1632C76.344 48.4559 76.1016 48.705 75.6819 48.9057C75.6551 48.9174 75.6284 48.9232 75.6016 48.9232Z" fill="#363E44"/>
<path d="M75.0891 50.5945C74.6493 50.5945 74.1928 50.3637 73.9094 49.9933C73.7271 49.7551 73.6234 49.4691 73.6184 49.1882C73.6168 49.0862 73.6979 49.0026 73.7999 49.0001C73.8968 48.9951 73.9855 49.0795 73.988 49.1815C73.9913 49.3838 74.0674 49.592 74.2028 49.7684C74.4294 50.0644 74.7973 50.2433 75.1409 50.2233C75.2404 50.2166 75.3299 50.2952 75.3357 50.3963C75.3416 50.4983 75.2638 50.5853 75.1626 50.5911C75.1384 50.5945 75.1142 50.5945 75.0891 50.5945Z" fill="#363E44"/>
<path d="M81.1386 36.8997C81.591 38.0577 82.8969 38.6295 84.0548 38.1772C85.2128 37.7249 87.5722 36.4173 87.1199 35.2593C86.6676 34.1014 83.5741 33.532 82.4162 33.9843C81.2574 34.4358 80.6863 35.7418 81.1386 36.8997Z" fill="#363E44"/>
<path d="M64.9184 37.3587C65.471 38.7725 69.0301 38.6504 70.4439 38.0978C71.8577 37.5451 72.5558 35.9516 72.0032 34.5378C71.4505 33.124 69.857 32.4259 68.4432 32.9785C67.0286 33.5303 64.3657 35.9449 64.9184 37.3587Z" fill="#363E44"/>
<path d="M79.485 34.2962C80.0377 35.71 81.6312 36.4081 83.045 35.8555C84.4588 35.3028 86.819 32.0338 85.8817 30.9461C84.891 29.7965 82.4581 30.1836 81.0443 30.7354C79.6305 31.2881 78.9324 32.8824 79.485 34.2962Z" fill="#363E44"/>
<path d="M70.0099 33.4668C70.3585 34.358 71.3626 34.7978 72.2539 34.45C73.1451 34.1013 73.5849 33.0972 73.2371 32.206C72.8884 31.3147 71.2096 30.0356 70.3184 30.3842C69.4271 30.7328 69.6612 32.5755 70.0099 33.4668Z" fill="#363E44"/>
<path d="M72.5149 34.0705C73.0675 35.4843 74.661 36.1824 76.0748 35.6297C77.4886 35.0771 78.1867 33.4836 77.6341 32.0698C77.0815 30.656 74.2071 26.5685 72.7933 27.1211C71.3795 27.6737 71.9622 32.6567 72.5149 34.0705Z" fill="#363E44"/>
<path d="M72.8684 39.1212C73.421 40.535 76.5563 40.193 77.9701 39.6404C79.3838 39.0877 80.082 37.4942 79.5293 36.0804C78.9767 34.6666 77.3831 33.9685 75.9694 34.5211C74.5556 35.0738 72.3158 37.7074 72.8684 39.1212Z" fill="#363E44"/>
<path d="M76.1517 32.895C76.7044 34.3088 78.2979 35.0069 79.7117 34.4543C81.1255 33.9016 81.8236 32.3081 81.271 30.8943C80.7183 29.4805 78.4818 27.5442 77.0681 28.096C75.6551 28.6486 75.5991 31.4812 76.1517 32.895Z" fill="#363E44"/>
<path d="M78.496 39.7984C78.8446 40.6896 80.1907 41.9822 81.082 41.6335C81.9732 41.2849 82.0719 39.428 81.7232 38.5368C81.3746 37.6455 80.3705 37.2057 79.4792 37.5535C78.5871 37.9022 78.1474 38.9071 78.496 39.7984Z" fill="#363E44"/>
<path d="M70.0349 55.0758L73.7453 63.281L68.3327 68.3467L65.6138 59.1006L70.0349 55.0758Z" fill="white"/>
<path d="M80.4932 55.6719L76.7827 63.3904L82.1954 68.9436L84.8875 59.7878L80.4932 55.6719Z" fill="white"/>
<path d="M75.2946 73.2359C75.1935 73.2359 75.1107 73.154 75.1099 73.0529L75.0371 64.8368C75.0363 64.7348 75.1182 64.6512 75.2202 64.6504C75.2211 64.6504 75.221 64.6504 75.2219 64.6504C75.323 64.6504 75.4058 64.7323 75.4067 64.8335L75.4794 73.0495C75.4802 73.1515 75.3983 73.2351 75.2963 73.2359C75.2955 73.2359 75.2946 73.2359 75.2946 73.2359Z" fill="#363E44"/>
<path d="M24.9029 51.7681L22.1108 49.2035L23.0544 48.6365L24.6328 50.2982L24.6572 50.2835L24.0102 48.0622L24.7529 47.616L26.4141 49.2361L26.4385 49.2215L25.7087 47.0417L26.6523 46.4747L27.6059 50.144L26.7962 50.6305L25.2204 49.2076L25.1961 49.2223L25.7126 51.2816L24.9029 51.7681Z" fill="#F47500"/>
<path d="M29.2126 49.2283C29.0635 49.318 28.9169 49.3729 28.773 49.3931C28.6295 49.4116 28.4951 49.3902 28.3698 49.3288C28.2445 49.2673 28.1352 49.159 28.0419 49.0037C27.9651 48.8759 27.9214 48.7537 27.9108 48.6372C27.8995 48.5197 27.9156 48.4085 27.959 48.3037C28.0024 48.199 28.0666 48.1003 28.1518 48.0076C28.2381 47.9144 28.3388 47.8269 28.4541 47.7453C28.5788 47.6565 28.6765 47.5812 28.7472 47.5194C28.8182 47.4561 28.8635 47.4005 28.8832 47.3528C28.9022 47.304 28.8983 47.2574 28.8715 47.2127L28.8678 47.2066C28.8313 47.1457 28.7799 47.1131 28.7137 47.1087C28.6475 47.1042 28.5779 47.124 28.5048 47.1679C28.4247 47.216 28.3699 47.2731 28.3405 47.3391C28.3115 47.4035 28.3136 47.4747 28.3467 47.5529L27.5736 48.0174C27.4984 47.8693 27.4649 47.7113 27.4731 47.5434C27.4817 47.3739 27.542 47.2065 27.654 47.0411C27.7653 46.8748 27.9372 46.7218 28.1695 46.5822C28.3369 46.4816 28.499 46.4112 28.6557 46.3709C28.8118 46.3296 28.9575 46.3159 29.0929 46.3298C29.2277 46.3427 29.3475 46.3812 29.4523 46.4453C29.5575 46.5078 29.6427 46.5933 29.708 46.7018L30.67 48.3029L29.8847 48.7748L29.6871 48.4461L29.6689 48.457C29.6746 48.5723 29.6602 48.677 29.6255 48.771C29.5919 48.8644 29.5398 48.9489 29.4692 49.0245C29.3996 49.0994 29.3141 49.1674 29.2126 49.2283ZM29.1683 48.5341C29.2322 48.4957 29.2842 48.4465 29.3241 48.3866C29.3651 48.3261 29.3884 48.2603 29.394 48.1892C29.3997 48.1182 29.3812 48.0471 29.3385 47.9761L29.2214 47.7813C29.2046 47.8039 29.1859 47.8268 29.1655 47.8502C29.146 47.8729 29.1242 47.8964 29.1 47.9206C29.0769 47.9441 29.0514 47.9684 29.0236 47.9934C28.9969 48.0178 28.9683 48.0425 28.9378 48.0677C28.879 48.1169 28.8358 48.1656 28.8082 48.214C28.781 48.2607 28.7673 48.3069 28.7672 48.3526C28.7674 48.3966 28.7797 48.4389 28.8041 48.4795C28.8431 48.5444 28.8958 48.5804 28.9622 48.5875C29.0286 48.5946 29.0973 48.5768 29.1683 48.5341Z" fill="#F47500"/>
<path d="M32.2233 47.4276C31.9696 47.58 31.7223 47.6603 31.4813 47.6684C31.2398 47.6754 31.0165 47.6176 30.8116 47.4949C30.6061 47.3712 30.4314 47.1896 30.2875 46.9502C30.1436 46.7107 30.0656 46.4717 30.0535 46.2332C30.0408 45.9937 30.0945 45.7694 30.2148 45.5604C30.3344 45.3505 30.5211 45.1693 30.7747 45.0168C31.0284 44.8644 31.276 44.7847 31.5176 44.7776C31.7585 44.7696 31.9818 44.8274 32.1873 44.9511C32.3922 45.0738 32.5666 45.2549 32.7105 45.4943C32.8544 45.7338 32.9327 45.9733 32.9454 46.2128C32.9575 46.4513 32.9038 46.6756 32.7841 46.8856C32.6639 47.0945 32.4769 47.2752 32.2233 47.4276ZM31.8563 46.803C31.9273 46.7603 31.9743 46.6996 31.9974 46.6208C32.0205 46.5421 32.0198 46.45 31.9951 46.3446C31.9705 46.2393 31.9216 46.1257 31.8484 46.004C31.7747 45.8812 31.6974 45.7847 31.6165 45.7146C31.5351 45.6433 31.4542 45.5995 31.3738 45.5829C31.2934 45.5663 31.2176 45.5793 31.1466 45.622C31.0715 45.6671 31.0214 45.7296 30.9963 45.8096C30.9712 45.8896 30.9709 45.9823 30.9956 46.0877C31.0196 46.192 31.0685 46.3055 31.1423 46.4283C31.2154 46.5501 31.2927 46.6466 31.3742 46.7178C31.4556 46.789 31.5376 46.8322 31.62 46.8476C31.7024 46.863 31.7812 46.8481 31.8563 46.803Z" fill="#F47500"/>
<path d="M35.4773 42.763L34.619 43.2787C34.5702 43.2114 34.5152 43.1567 34.4541 43.1147C34.394 43.0721 34.3286 43.0437 34.258 43.0296C34.1877 43.0138 34.1139 43.0139 34.0366 43.03C33.9586 43.0451 33.8791 43.077 33.7979 43.1258C33.6559 43.2111 33.5563 43.3179 33.4994 43.446C33.4434 43.5735 33.4288 43.717 33.4555 43.8763C33.4832 44.035 33.5513 44.2047 33.6598 44.3853C33.7745 44.5761 33.8958 44.7206 34.024 44.819C34.1526 44.9157 34.2851 44.9673 34.4215 44.9737C34.5573 44.9791 34.6937 44.9407 34.8307 44.8584C34.9088 44.8114 34.973 44.7597 35.0233 44.7033C35.073 44.6458 35.1094 44.5845 35.1325 44.5196C35.1556 44.4546 35.1655 44.3872 35.1622 44.3174C35.1594 44.2459 35.1429 44.1736 35.1128 44.1006L35.9748 43.5909C36.0439 43.7289 36.0877 43.8856 36.1061 44.061C36.1238 44.2353 36.1086 44.4157 36.0604 44.6021C36.0126 44.7869 35.9235 44.9661 35.7931 45.1397C35.6627 45.3134 35.4833 45.4688 35.255 45.606C34.9689 45.7779 34.6753 45.8708 34.3743 45.8846C34.0742 45.8977 33.7866 45.8247 33.5114 45.6655C33.2373 45.5058 32.9966 45.2534 32.7893 44.9084C32.5808 44.5614 32.4722 44.2289 32.4634 43.911C32.4541 43.5921 32.5265 43.3035 32.6806 43.0452C32.8341 42.7858 33.0509 42.572 33.3309 42.4038C33.5278 42.2855 33.7251 42.2036 33.9227 42.158C34.1204 42.1124 34.3128 42.1038 34.4998 42.1323C34.6862 42.1598 34.8625 42.2258 35.0288 42.3302C35.1952 42.4347 35.3447 42.5789 35.4773 42.763Z" fill="#F47500"/>
<path d="M36.0112 40.8513L37.8841 43.9683L37.044 44.4731L35.1711 41.3561L36.0112 40.8513Z" fill="#F47500"/>
<path d="M39.2135 41.7775L38.4234 40.4625L39.2635 39.9577L40.6681 42.2955L39.8706 42.7746L39.6036 42.3302L39.5792 42.3449C39.6181 42.5245 39.5995 42.6945 39.5232 42.8549C39.4464 43.0144 39.3207 43.1465 39.1462 43.2513C38.9828 43.3495 38.8172 43.3979 38.6493 43.3966C38.4825 43.3947 38.3254 43.3482 38.1782 43.2571C38.032 43.1655 37.9071 43.0347 37.8037 42.8649L36.9075 41.3733L37.7476 40.8685L38.5377 42.1835C38.6082 42.2986 38.6922 42.3717 38.7897 42.4029C38.8882 42.4335 38.9902 42.4171 39.0957 42.3537C39.1657 42.3116 39.2172 42.2606 39.2503 42.2007C39.2837 42.1392 39.2977 42.0728 39.2922 42.0016C39.2871 41.9287 39.2608 41.854 39.2135 41.7775Z" fill="#F47500"/>
<path d="M41.0832 42.046L39.2104 38.9291L40.0505 38.4243L40.7638 39.6114L40.776 39.6041C40.7589 39.5066 40.7599 39.4073 40.7791 39.306C40.7978 39.2036 40.8388 39.1065 40.9023 39.0145C40.9652 38.9214 41.0544 38.8402 41.1701 38.7707C41.3243 38.678 41.4956 38.631 41.684 38.6297C41.8734 38.6277 42.0648 38.6888 42.2581 38.8129C42.4525 38.9364 42.6344 39.1392 42.8039 39.4213C42.9661 39.6912 43.0584 39.9402 43.0808 40.1684C43.1043 40.3959 43.0723 40.5954 42.9847 40.7668C42.8981 40.9376 42.7716 41.073 42.6052 41.173C42.4957 41.2388 42.3871 41.2799 42.2795 41.2962C42.1723 41.3109 42.0697 41.3055 41.9716 41.2802C41.874 41.2533 41.7851 41.21 41.7051 41.1504L41.6868 41.1614L41.9173 41.5449L41.0832 42.046ZM41.2028 40.3833C41.2711 40.497 41.3449 40.5866 41.4243 40.6521C41.5041 40.716 41.5852 40.7543 41.6674 40.767C41.75 40.7781 41.8299 40.7605 41.907 40.7142C41.9841 40.6679 42.0365 40.6067 42.064 40.5308C42.092 40.4532 42.0955 40.3648 42.0745 40.2656C42.0539 40.1647 42.0089 40.0564 41.9394 39.9407C41.8699 39.8251 41.7958 39.735 41.7169 39.6705C41.6385 39.6043 41.5588 39.5659 41.4778 39.5552C41.3972 39.5429 41.3184 39.5599 41.2413 39.6062C41.1642 39.6525 41.1111 39.7148 41.0821 39.793C41.0536 39.8695 41.049 39.9585 41.0686 40.06C41.0886 40.1599 41.1333 40.2677 41.2028 40.3833Z" fill="#F47500"/>
<path d="M42.6789 36.8449L42.8984 37.2102C42.9581 37.3096 42.9976 37.4213 43.0168 37.5451C43.0363 37.6673 43.0408 37.7896 43.0301 37.912C43.0198 38.0328 42.9993 38.1411 42.9685 38.237L42.5154 38.2689C42.5141 38.1703 42.5013 38.0627 42.4768 37.9462C42.4524 37.8297 42.3981 37.7014 42.314 37.5614L42.0945 37.1961L42.6789 36.8449Z" fill="#F47500"/>
<path d="M45.8801 37.0178L45.1069 37.4823C45.0742 37.4371 45.0328 37.4061 44.9826 37.3892C44.9325 37.3724 44.8786 37.3689 44.8209 37.3787C44.7637 37.3868 44.7072 37.4077 44.6514 37.4412C44.5793 37.4845 44.5254 37.5349 44.4895 37.5924C44.4536 37.6498 44.4508 37.7026 44.481 37.7507C44.5008 37.7858 44.5347 37.8089 44.5828 37.8201C44.6319 37.8306 44.706 37.8171 44.8051 37.7797L45.3311 37.5796C45.5968 37.4794 45.8191 37.446 45.9979 37.4793C46.1772 37.5111 46.3192 37.6129 46.4238 37.7848C46.5228 37.9518 46.5599 38.1263 46.5353 38.3082C46.5111 38.4885 46.4343 38.663 46.3051 38.8318C46.1763 38.9989 46.0039 39.1474 45.7877 39.2773C45.4306 39.4919 45.1072 39.5868 44.8175 39.562C44.5288 39.5366 44.3008 39.4112 44.1336 39.1858L44.9676 38.6846C45.0233 38.752 45.0943 38.7874 45.1805 38.7908C45.2672 38.7925 45.3583 38.7648 45.4536 38.7075C45.5307 38.6611 45.5862 38.6098 45.6201 38.5536C45.655 38.4967 45.6583 38.4436 45.6301 38.3943C45.6022 38.3503 45.5586 38.3282 45.4991 38.328C45.4406 38.3272 45.3608 38.3462 45.2598 38.3848L44.8019 38.5605C44.5385 38.6622 44.3123 38.6903 44.1235 38.645C43.9347 38.5996 43.7856 38.4848 43.6763 38.3005C43.5777 38.1388 43.5377 37.9757 43.5563 37.8113C43.5753 37.6452 43.6477 37.4843 43.7737 37.3285C43.9001 37.1711 44.0744 37.0256 44.2966 36.8921C44.6345 36.6891 44.9429 36.5991 45.2218 36.622C45.5018 36.6444 45.7212 36.7763 45.8801 37.0178Z" fill="#F47500"/>
<path d="M20.8699 56.9489L22.7428 60.0659L21.9027 60.5707L20.0298 57.4537L20.8699 56.9489Z" fill="#F47500"/>
<path d="M24.3227 59.1746C24.069 59.327 23.8217 59.4072 23.5807 59.4153C23.3392 59.4224 23.1159 59.3646 22.911 59.2419C22.7055 59.1182 22.5308 58.9366 22.3869 58.6971C22.243 58.4577 22.165 58.2187 22.1529 57.9802C22.1402 57.7406 22.1939 57.5164 22.3142 57.3074C22.4338 57.0974 22.6205 56.9162 22.8741 56.7638C23.1278 56.6114 23.3754 56.5317 23.617 56.5246C23.8579 56.5165 24.0812 56.5744 24.2867 56.6981C24.4916 56.8207 24.666 57.0018 24.8099 57.2413C24.9538 57.4807 25.0321 57.7202 25.0448 57.9598C25.0569 58.1983 25.0032 58.4225 24.8835 58.6325C24.7633 58.8415 24.5763 59.0222 24.3227 59.1746ZM23.9557 58.55C24.0267 58.5073 24.0737 58.4466 24.0968 58.3678C24.1199 58.289 24.1192 58.1969 24.0945 58.0916C24.0699 57.9863 24.021 57.8727 23.9478 57.751C23.8741 57.6282 23.7968 57.5317 23.7159 57.4615C23.6345 57.3903 23.5536 57.3464 23.4732 57.3298C23.3928 57.3132 23.317 57.3263 23.246 57.3689C23.1709 57.414 23.1208 57.4766 23.0957 57.5566C23.0706 57.6366 23.0703 57.7293 23.095 57.8346C23.119 57.939 23.1679 58.0525 23.2417 58.1753C23.3148 58.297 23.3921 58.3935 23.4736 58.4647C23.555 58.5359 23.637 58.5792 23.7194 58.5946C23.8018 58.61 23.8806 58.5951 23.9557 58.55Z" fill="#F47500"/>
<path d="M26.8164 58.8113C26.7201 58.8693 26.6237 58.9168 26.5272 58.954C26.4315 58.9923 26.343 59.0185 26.2618 59.0328L26.0859 58.3264C26.1696 58.3093 26.2419 58.2872 26.303 58.2602C26.3651 58.2325 26.4119 58.1989 26.4433 58.1593C26.4758 58.1191 26.4883 58.0722 26.481 58.0186L26.4736 57.965L24.1849 56.0176L25.0616 55.4909L26.4121 56.8834L26.4364 56.8688L25.8469 55.019L26.7297 54.4886L27.3991 57.5333C27.4339 57.6877 27.4415 57.8406 27.4219 57.9918C27.4039 58.1435 27.3475 58.2886 27.2526 58.4271C27.1576 58.5656 27.0123 58.6937 26.8164 58.8113Z" fill="#F47500"/>
<path d="M28.988 56.3631C28.8389 56.4527 28.6923 56.5076 28.5484 56.5278C28.4049 56.5464 28.2705 56.5249 28.1452 56.4635C28.0199 56.4021 27.9106 56.2937 27.8173 56.1385C27.7405 56.0107 27.6968 55.8885 27.6862 55.772C27.6749 55.6544 27.691 55.5433 27.7344 55.4385C27.7778 55.3337 27.842 55.235 27.9272 55.1424C28.0135 55.0492 28.1142 54.9617 28.2295 54.88C28.3542 54.7912 28.4519 54.7159 28.5226 54.6542C28.5936 54.5908 28.6389 54.5353 28.6586 54.4875C28.6776 54.4388 28.6737 54.3921 28.6469 54.3475L28.6432 54.3414C28.6067 54.2805 28.5553 54.2479 28.4891 54.2434C28.4229 54.239 28.3533 54.2587 28.2802 54.3026C28.2001 54.3508 28.1453 54.4079 28.1159 54.4739C28.0869 54.5382 28.089 54.6095 28.1221 54.6876L27.349 55.1522C27.2738 55.004 27.2403 54.846 27.2485 54.6781C27.2571 54.5086 27.3174 54.3412 27.4294 54.1759C27.5407 54.0096 27.7126 53.8566 27.9449 53.717C28.1123 53.6164 28.2744 53.5459 28.4311 53.5056C28.5872 53.4643 28.7329 53.4506 28.8683 53.4646C29.0031 53.4775 29.1229 53.516 29.2277 53.58C29.3329 53.6425 29.4181 53.728 29.4834 53.8366L30.4454 55.4377L29.6601 55.9096L29.4625 55.5808L29.4443 55.5918C29.45 55.7071 29.4356 55.8118 29.4009 55.9058C29.3673 55.9992 29.3152 56.0837 29.2446 56.1592C29.175 56.2342 29.0895 56.3021 28.988 56.3631ZM28.9437 55.6688C29.0076 55.6304 29.0596 55.5813 29.0995 55.5214C29.1405 55.4608 29.1638 55.3951 29.1694 55.324C29.1751 55.2529 29.1566 55.1819 29.1139 55.1109L28.9968 54.9161C28.98 54.9386 28.9613 54.9616 28.9409 54.9849C28.9214 55.0077 28.8996 55.0311 28.8754 55.0553C28.8523 55.0789 28.8268 55.1031 28.799 55.1281C28.7723 55.1525 28.7437 55.1773 28.7132 55.2025C28.6544 55.2516 28.6112 55.3004 28.5836 55.3487C28.5564 55.3954 28.5427 55.4416 28.5426 55.4873C28.5428 55.5314 28.5551 55.5737 28.5795 55.6143C28.6185 55.6792 28.6712 55.7152 28.7376 55.7223C28.804 55.7293 28.8727 55.7115 28.9437 55.6688Z" fill="#F47500"/>
<path d="M29.8141 51.5747L31.6869 54.6917L30.8468 55.1965L28.974 52.0795L29.8141 51.5747Z" fill="#F47500"/>
<path d="M32.1045 51.2591L32.4703 51.8679L30.93 52.7933L30.5642 52.1846L32.1045 51.2591ZM30.526 51.4452L31.3661 50.9404L32.6556 53.0864C32.6751 53.1189 32.6971 53.1429 32.7217 53.1585C32.7456 53.1731 32.7726 53.179 32.8027 53.1761C32.8321 53.1723 32.8651 53.1594 32.9016 53.1374C32.927 53.1222 32.9546 53.1014 32.9844 53.0752C33.0153 53.0484 33.0376 53.0281 33.0514 53.0143L33.5279 53.5317C33.4971 53.5654 33.4516 53.6114 33.3913 53.6697C33.3321 53.7274 33.2563 53.7874 33.164 53.8498C32.9773 53.9758 32.8036 54.0532 32.6428 54.0821C32.4814 54.1101 32.3351 54.0896 32.204 54.0206C32.0728 53.9517 31.9591 53.8349 31.863 53.6703L30.526 51.4452Z" fill="#F47500"/>
<path d="M34.8901 53.9602C34.7937 54.0181 34.6973 54.0657 34.6009 54.1029C34.5051 54.1411 34.4166 54.1674 34.3354 54.1816L34.1595 53.4753C34.2432 53.4582 34.3155 53.4361 34.3766 53.4091C34.4387 53.3814 34.4855 53.3478 34.5169 53.3082C34.5494 53.268 34.5619 53.2211 34.5546 53.1675L34.5473 53.1139L32.2586 51.1665L33.1352 50.6398L34.4857 52.0323L34.51 52.0177L33.9205 50.1679L34.8033 49.6375L35.4727 52.6821C35.5075 52.8366 35.5151 52.9895 35.4955 53.1407C35.4775 53.2924 35.4211 53.4375 35.3262 53.576C35.2313 53.7145 35.0859 53.8426 34.8901 53.9602Z" fill="#F47500"/>
<path d="M37.2885 51.3259L35.4156 48.209L36.7611 47.4006C36.9924 47.2616 37.2223 47.1856 37.4506 47.1727C37.679 47.1597 37.8911 47.207 38.0868 47.3145C38.2826 47.4219 38.4469 47.5863 38.5798 47.8074C38.714 48.0307 38.7804 48.2538 38.7791 48.4769C38.7788 48.6994 38.7159 48.9085 38.5904 49.104C38.4659 49.299 38.2849 49.4678 38.0475 49.6105L37.2439 50.0933L36.8488 49.4358L37.482 49.0554C37.5814 48.9957 37.6558 48.9275 37.705 48.8509C37.7547 48.7727 37.7788 48.6899 37.7774 48.6024C37.7769 48.5143 37.7501 48.4261 37.6971 48.3378C37.6435 48.2486 37.5784 48.184 37.5021 48.1443C37.4261 48.1029 37.3426 48.0869 37.2515 48.096C37.1607 48.1036 37.0656 48.1373 36.9662 48.197L36.6679 48.3763L38.1347 50.8175L37.2885 51.3259Z" fill="#F47500"/>
<path d="M40.1133 49.6286L38.7086 47.2909L39.5244 46.8008L39.7914 47.2452L39.8158 47.2305C39.7596 47.0406 39.7549 46.8798 39.8015 46.7482C39.8491 46.616 39.9353 46.5124 40.0601 46.4374C40.0966 46.4155 40.1345 46.3969 40.1736 46.3816C40.2132 46.3648 40.2528 46.3513 40.2924 46.3414L40.7231 47.0582C40.673 47.069 40.6153 47.0891 40.5502 47.1186C40.485 47.1481 40.4306 47.1759 40.387 47.2022C40.3048 47.2515 40.242 47.3148 40.1986 47.392C40.1557 47.4675 40.1355 47.5501 40.1382 47.6396C40.1403 47.7281 40.1682 47.817 40.2218 47.9063L40.9534 49.1239L40.1133 49.6286Z" fill="#F47500"/>
<path d="M42.9895 47.9584C42.7358 48.1108 42.4885 48.1911 42.2476 48.1992C42.006 48.2062 41.7828 48.1484 41.5779 48.0257C41.3723 47.902 41.1976 47.7204 41.0538 47.481C40.9099 47.2415 40.8319 47.0025 40.8197 46.764C40.807 46.5245 40.8608 46.3002 40.981 46.0912C41.1007 45.8813 41.2873 45.7001 41.541 45.5476C41.7946 45.3952 42.0422 45.3155 42.2838 45.3084C42.5248 45.3004 42.748 45.3582 42.9535 45.4819C43.1584 45.6046 43.3328 45.7857 43.4767 46.0251C43.6206 46.2646 43.6989 46.5041 43.7116 46.7436C43.7238 46.9821 43.67 47.2064 43.5504 47.4164C43.4301 47.6253 43.2432 47.806 42.9895 47.9584ZM42.6225 47.3338C42.6935 47.2911 42.7406 47.2304 42.7637 47.1516C42.7868 47.0728 42.786 46.9808 42.7614 46.8754C42.7367 46.7701 42.6878 46.6565 42.6147 46.5348C42.5409 46.412 42.4636 46.3155 42.3828 46.2453C42.3013 46.1741 42.2204 46.1302 42.14 46.1137C42.0596 46.0971 41.9839 46.1101 41.9128 46.1528C41.8378 46.1979 41.7877 46.2604 41.7625 46.3404C41.7374 46.4204 41.7372 46.5131 41.7618 46.6185C41.7858 46.7228 41.8347 46.8363 41.9085 46.9591C41.9816 47.0809 42.0589 47.1773 42.1404 47.2486C42.2218 47.3198 42.3038 47.363 42.3862 47.3784C42.4686 47.3938 42.5474 47.3789 42.6225 47.3338Z" fill="#F47500"/>
<path d="M46.1986 47.2317C45.9642 47.3725 45.7432 47.4597 45.5355 47.4934C45.3295 47.5274 45.1452 47.5138 44.9828 47.4526C44.822 47.3918 44.6909 47.2897 44.5895 47.1462L45.3992 46.6597C45.4372 46.7045 45.4815 46.7324 45.5323 46.7434C45.583 46.7543 45.6378 46.7511 45.6964 46.7338C45.7567 46.7169 45.8188 46.6893 45.8827 46.6509C45.9913 46.5856 46.0652 46.5053 46.1046 46.4099C46.1449 46.3138 46.1236 46.1968 46.0407 46.0588L45.8029 45.6631L45.7786 45.6777C45.7957 45.7752 45.7896 45.8707 45.7602 45.9643C45.7302 46.0569 45.6799 46.1444 45.6093 46.2269C45.5381 46.3083 45.4497 46.3807 45.3442 46.4441C45.1778 46.5441 45.0014 46.5976 44.8151 46.6047C44.6297 46.6111 44.4447 46.5559 44.2599 46.439C44.0761 46.3216 43.9031 46.128 43.7409 45.8581C43.5714 45.576 43.4773 45.3205 43.4585 45.0915C43.4407 44.8619 43.4766 44.6643 43.5662 44.4986C43.6568 44.3322 43.7793 44.2027 43.9335 44.1101C44.0492 44.0406 44.1628 43.9999 44.2745 43.9881C44.3855 43.9752 44.4905 43.9846 44.5896 44.0162C44.6881 44.0468 44.7763 44.0925 44.8543 44.1533L44.8726 44.1424L44.6275 43.7345L45.4676 43.2297L46.8686 45.5613C46.9875 45.7592 47.0372 45.9579 47.0176 46.1575C46.9997 46.3574 46.9203 46.5494 46.7795 46.7334C46.6388 46.9174 46.4451 47.0835 46.1986 47.2317ZM45.2962 45.661C45.3733 45.6147 45.4265 45.5537 45.4557 45.4782C45.4853 45.401 45.4907 45.3135 45.4719 45.2157C45.4536 45.1162 45.4103 45.0097 45.342 44.896C45.2725 44.7804 45.1979 44.6906 45.118 44.6267C45.0386 44.5612 44.9579 44.5234 44.8759 44.5133C44.7943 44.5015 44.7149 44.5188 44.6378 44.5652C44.5607 44.6115 44.5081 44.6735 44.4802 44.751C44.4526 44.827 44.4491 44.9154 44.4697 45.0163C44.4907 45.1155 44.5359 45.223 44.6054 45.3386C44.6749 45.4543 44.7482 45.5442 44.8254 45.6083C44.903 45.6708 44.9815 45.7072 45.0609 45.7175C45.1407 45.7261 45.2191 45.7073 45.2962 45.661Z" fill="#F47500"/>
<path d="M47.2996 45.3107L45.8949 42.9729L46.7107 42.4828L46.9777 42.9272L47.0021 42.9126C46.9459 42.7226 46.9412 42.5618 46.9878 42.4302C47.0354 42.298 47.1216 42.1945 47.2464 42.1195C47.2829 42.0975 47.3208 42.0789 47.36 42.0637C47.3995 42.0468 47.4391 42.0334 47.4787 42.0234L47.9094 42.7402C47.8593 42.751 47.8016 42.7712 47.7365 42.8006C47.6713 42.8301 47.6169 42.858 47.5733 42.8842C47.4911 42.9336 47.4283 42.9968 47.385 43.074C47.342 43.1496 47.3218 43.2321 47.3245 43.3216C47.3266 43.4101 47.3545 43.499 47.4081 43.5883L48.1397 44.8059L47.2996 45.3107Z" fill="#F47500"/>
<path d="M49.7224 43.9046C49.5733 43.9942 49.4267 44.0491 49.2828 44.0693C49.1393 44.0879 49.0049 44.0664 48.8796 44.005C48.7543 43.9436 48.645 43.8352 48.5518 43.68C48.4749 43.5522 48.4312 43.43 48.4206 43.3135C48.4093 43.1959 48.4254 43.0848 48.4688 42.98C48.5122 42.8752 48.5765 42.7765 48.6617 42.6839C48.7479 42.5907 48.8486 42.5032 48.9639 42.4215C49.0887 42.3327 49.1864 42.2575 49.257 42.1957C49.328 42.1323 49.3733 42.0768 49.393 42.029C49.412 41.9803 49.4081 41.9336 49.3813 41.889L49.3777 41.8829C49.3411 41.822 49.2897 41.7894 49.2235 41.7849C49.1573 41.7805 49.0877 41.8002 49.0147 41.8441C48.9345 41.8923 48.8797 41.9494 48.8503 42.0154C48.8213 42.0798 48.8234 42.151 48.8566 42.2291L48.0834 42.6937C48.0082 42.5456 47.9747 42.3875 47.9829 42.2196C47.9915 42.0501 48.0518 41.8827 48.1638 41.7174C48.2751 41.5511 48.447 41.3981 48.6793 41.2585C48.8467 41.1579 49.0088 41.0874 49.1655 41.0472C49.3216 41.0058 49.4673 40.9921 49.6027 41.0061C49.7375 41.019 49.8573 41.0575 49.9621 41.1216C50.0673 41.184 50.1525 41.2695 50.2178 41.3781L51.1798 42.9792L50.3945 43.4511L50.197 43.1223L50.1787 43.1333C50.1844 43.2486 50.17 43.3533 50.1353 43.4473C50.1017 43.5407 50.0496 43.6252 49.979 43.7007C49.9094 43.7757 49.8239 43.8436 49.7224 43.9046ZM49.6781 43.2104C49.7421 43.1719 49.794 43.1228 49.8339 43.0629C49.8749 43.0024 49.8982 42.9366 49.9039 42.8655C49.9095 42.7945 49.891 42.7234 49.8483 42.6524L49.7312 42.4576C49.7144 42.4801 49.6958 42.5031 49.6753 42.5264C49.6558 42.5492 49.634 42.5726 49.6098 42.5968C49.5867 42.6204 49.5612 42.6447 49.5335 42.6696C49.5067 42.694 49.4781 42.7188 49.4476 42.744C49.3888 42.7932 49.3456 42.8419 49.318 42.8902C49.2908 42.9369 49.2772 42.9831 49.277 43.0288C49.2772 43.0729 49.2895 43.1152 49.3139 43.1558C49.3529 43.2207 49.4056 43.2567 49.472 43.2638C49.5384 43.2708 49.6071 43.253 49.6781 43.2104Z" fill="#F47500"/>
<path d="M51.5812 42.738L50.1766 40.4003L50.9741 39.9211L51.2411 40.3655L51.2655 40.3509C51.2264 40.1755 51.2401 40.0098 51.3066 39.8539C51.3731 39.6979 51.4875 39.5712 51.6498 39.4736C51.8142 39.3749 51.9819 39.3335 52.1531 39.3494C52.3236 39.3643 52.464 39.436 52.5744 39.5644L52.5987 39.5498C52.5523 39.3829 52.5676 39.2177 52.6447 39.054C52.7211 38.8893 52.8461 38.7549 53.0196 38.6506C53.2438 38.5159 53.4687 38.4788 53.6943 38.5393C53.9209 38.5993 54.1061 38.749 54.25 38.9884L55.1974 40.5652L54.3573 41.07L53.5379 39.7063C53.4763 39.6038 53.4023 39.5392 53.3158 39.5125C53.2287 39.4847 53.1415 39.4971 53.0542 39.5495C52.968 39.6013 52.9172 39.6719 52.9018 39.7612C52.8869 39.8489 52.9102 39.944 52.9717 40.0465L53.7911 41.4102L52.9875 41.893L52.1681 40.5293C52.1066 40.4269 52.0325 40.3623 51.946 40.3355C51.8589 40.3078 51.7717 40.3201 51.6845 40.3725C51.6267 40.4073 51.5849 40.4503 51.5591 40.5017C51.5334 40.5531 51.5238 40.6106 51.5303 40.6744C51.5372 40.7365 51.5611 40.8015 51.602 40.8695L52.4214 42.2332L51.5812 42.738Z" fill="#F47500"/>
</g>
<defs>
<clipPath id="clip0_78_557">
<rect width="153.083" height="153" fill="white" transform="translate(0.458496)"/>
</clipPath>
</defs>
</svg>
