<svg width="40" height="41" viewBox="0 0 40 41" fill="none" xmlns="http://www.w3.org/2000/svg">
<path d="M39.9882 20.5427C39.9882 30.6439 32.5028 38.9949 22.7786 40.35C21.8693 40.4761 20.9391 40.542 19.9948 40.542C18.9048 40.542 17.8345 40.4551 16.7922 40.2869C7.2711 38.7538 0 30.4968 0 20.5427C0 9.4969 8.95228 0.541992 19.9934 0.541992C31.0346 0.541992 39.9882 9.4969 39.9882 20.5427Z" fill="#1877F2"/>
<path d="M22.7789 16.6006V20.9575H28.1671L27.3139 26.8266H22.7789V40.3486C21.8697 40.4748 20.9394 40.5406 19.9952 40.5406C18.9052 40.5406 17.8349 40.4538 16.7925 40.2856V26.8266H11.8232V20.9575H16.7925V15.6266C16.7925 12.3194 19.4726 9.63708 22.7803 9.63708V9.63989C22.7901 9.63989 22.7985 9.63708 22.8083 9.63708H28.1685V14.7129H24.666C23.6251 14.7129 22.7803 15.558 22.7803 16.5992L22.7789 16.6006Z" fill="white"/>
</svg>
