<svg width="24" height="24" viewBox="0 0 24 24" fill="none" xmlns="http://www.w3.org/2000/svg">
<path d="M21.1763 10.1679H20.4225V10.1291H12.0002V13.8723H17.289C16.5174 16.0514 14.4441 17.6156 12.0002 17.6156C8.8994 17.6156 6.38534 15.1015 6.38534 12.0007C6.38534 8.89989 8.8994 6.38583 12.0002 6.38583C13.4315 6.38583 14.7337 6.92579 15.7252 7.8078L18.3722 5.16085C16.7008 3.60319 14.4652 2.64258 12.0002 2.64258C6.83219 2.64258 2.64209 6.83268 2.64209 12.0007C2.64209 17.1687 6.83219 21.3588 12.0002 21.3588C17.1682 21.3588 21.3584 17.1687 21.3584 12.0007C21.3584 11.3732 21.2938 10.7608 21.1763 10.1679Z" fill="#FFC107"/>
<path d="M3.7207 7.64497L6.79532 9.89981C7.62725 7.84008 9.64206 6.38583 11.9998 6.38583C13.4312 6.38583 14.7334 6.92579 15.7248 7.8078L18.3718 5.16085C16.7004 3.60319 14.4648 2.64258 11.9998 2.64258C8.40538 2.64258 5.28819 4.67189 3.7207 7.64497Z" fill="#FF3D00"/>
<path d="M12.0005 21.3597C14.4177 21.3597 16.6141 20.4346 18.2747 18.9303L15.3783 16.4794C14.4072 17.2179 13.2206 17.6174 12.0005 17.6164C9.56646 17.6164 7.49972 16.0644 6.72112 13.8984L3.66943 16.2497C5.2182 19.2803 8.36347 21.3597 12.0005 21.3597Z" fill="#4CAF50"/>
<path d="M21.1761 10.1677H20.4223V10.1289H12V13.8722H17.2887C16.9197 14.9092 16.2548 15.8155 15.3764 16.4789L15.3778 16.4779L18.2742 18.9288C18.0692 19.1151 21.3581 16.6796 21.3581 12.0005C21.3581 11.3731 21.2936 10.7606 21.1761 10.1677Z" fill="#1976D2"/>
</svg>
