<svg width="35" height="14" viewBox="0 0 35 14" fill="none" xmlns="http://www.w3.org/2000/svg">
<path d="M16.3902 10.6974H15.1738V1.23253H18.3985C19.2157 1.23253 19.9126 1.50495 20.4828 2.04978C21.0656 2.59461 21.357 3.25981 21.357 4.04539C21.357 4.84996 21.0656 5.51516 20.4828 6.05366C19.9189 6.59216 19.2221 6.85824 18.3985 6.85824H16.3902V10.6974ZM16.3902 2.39822V5.69889H18.4238C18.9053 5.69889 19.3107 5.53417 19.6275 5.21107C19.9506 4.88797 20.1153 4.49519 20.1153 4.05172C20.1153 3.61459 19.9506 3.22814 19.6275 2.90504C19.3107 2.56927 18.9116 2.40455 18.4238 2.40455H16.3902V2.39822Z" fill="white"/>
<path d="M24.5372 4.00737C25.4368 4.00737 26.1463 4.24811 26.6658 4.72959C27.1853 5.21107 27.445 5.86994 27.445 6.70619V10.6974H26.2857V9.7978H26.235C25.7345 10.539 25.063 10.9065 24.2268 10.9065C23.5109 10.9065 22.9154 10.6974 22.4339 10.2729C21.9524 9.84848 21.7117 9.32265 21.7117 8.68913C21.7117 8.01759 21.9651 7.48543 22.4719 7.09264C22.9787 6.69352 23.6566 6.49713 24.4992 6.49713C25.2214 6.49713 25.8169 6.63017 26.2794 6.89625V6.6175C26.2794 6.19303 26.1147 5.83826 25.7789 5.5405C25.4431 5.24275 25.0503 5.09704 24.6005 5.09704C23.9227 5.09704 23.3842 5.38212 22.9914 5.95863L21.9207 5.28709C22.5099 4.43183 23.3842 4.00737 24.5372 4.00737ZM22.966 8.70813C22.966 9.02489 23.0991 9.29097 23.3715 9.50004C23.6376 9.7091 23.9543 9.8168 24.3154 9.8168C24.8286 9.8168 25.2847 9.62674 25.6839 9.24663C26.083 8.86651 26.2857 8.42305 26.2857 7.90989C25.9056 7.61213 25.3798 7.46009 24.7019 7.46009C24.2077 7.46009 23.796 7.58046 23.4665 7.81486C23.1308 8.06194 22.966 8.35969 22.966 8.70813Z" fill="white"/>
<path d="M34.0591 4.2165L30.0045 13.542H28.7502L30.258 10.2793L27.5845 4.2165H28.9086L30.8345 8.86657H30.8598L32.735 4.2165H34.0591Z" fill="white"/>
<path d="M11.5519 6.09168C11.5519 5.69509 11.5164 5.31561 11.4506 4.9507H6.35197V7.04133L9.28834 7.04196C9.16924 7.73758 8.78596 8.33055 8.19868 8.72587V10.0823H9.94657C10.9672 9.13767 11.5519 7.74138 11.5519 6.09168Z" fill="#4285F4"/>
<path d="M8.1993 8.72594C7.71276 9.0541 7.0862 9.24606 6.35322 9.24606C4.9373 9.24606 3.73614 8.29197 3.30598 7.00592H1.50297V8.40474C2.39624 10.1773 4.23219 11.3937 6.35322 11.3937C7.81919 11.3937 9.05076 10.9116 9.94719 10.0817L8.1993 8.72594Z" fill="#34A853"/>
<path d="M3.13614 5.96813C3.13614 5.60702 3.19632 5.25794 3.30592 4.92978V3.53095H1.50292C1.13358 4.26394 0.925781 5.09133 0.925781 5.96813C0.925781 6.84492 1.13421 7.67231 1.50292 8.4053L3.30592 7.00647C3.19632 6.67831 3.13614 6.32924 3.13614 5.96813Z" fill="#FABB05"/>
<path d="M6.35322 2.68964C7.15336 2.68964 7.86987 2.96523 8.43561 3.50372L9.98457 1.95602C9.04379 1.07986 7.81729 0.541992 6.35322 0.541992C4.23282 0.541992 2.39619 1.75835 1.50292 3.53095L3.30592 4.92978C3.73608 3.64372 4.9373 2.68964 6.35322 2.68964Z" fill="#E94235"/>
</svg>
