<svg width="140" height="32" viewBox="0 0 140 32" fill="none" xmlns="http://www.w3.org/2000/svg">
<path d="M1.48688 1.3471C1.13889 1.70227 0.9375 2.25524 0.9375 2.97135V28.5147C0.9375 29.2308 1.13889 29.7838 1.48688 30.1389L1.57276 30.2169L16.2534 15.9091V15.5712L1.57276 1.26336L1.48688 1.3471Z" fill="white"/>
<path d="M22.9184 20.6807L18.0303 15.909V15.5712L22.9244 10.7995L23.0339 10.8616L28.8298 14.0769C30.4838 14.9894 30.4838 16.4909 28.8298 17.4091L23.0339 20.6187L22.9184 20.6807Z" fill="white"/>
<path d="M22.1455 21.5072L17.1419 16.6286L2.37534 31.0274C2.92472 31.5905 3.8206 31.6584 4.83939 31.0953L22.1455 21.5072Z" fill="white"/>
<path d="M22.1455 9.97313L4.83939 0.384995C3.8206 -0.172304 2.92472 -0.104448 2.37534 0.458626L17.1419 14.8517L22.1455 9.97313Z" fill="white"/>
<path d="M46.1863 4.47144C46.1863 5.43589 45.8901 6.20831 45.3067 6.78438C44.6359 7.46729 43.7622 7.8109 42.6916 7.8109C41.6684 7.8109 40.7947 7.46151 40.078 6.77283C39.3598 6.07404 39.0014 5.21643 39.0014 4.18991C39.0014 3.16338 39.3598 2.30578 40.078 1.61276C40.7947 0.918304 41.6684 0.568909 42.6916 0.568909C43.201 0.568909 43.6867 0.671417 44.1502 0.861996C44.6122 1.05402 44.9883 1.3139 45.2608 1.63442L44.6418 2.24369C44.1665 1.6965 43.5194 1.42651 42.6916 1.42651C41.9453 1.42651 41.2982 1.68062 40.7488 2.19316C40.2053 2.70715 39.9328 3.37273 39.9328 4.18991C39.9328 5.00709 40.2053 5.67844 40.7488 6.19243C41.2982 6.69919 41.9453 6.95907 42.6916 6.95907C43.4838 6.95907 44.1502 6.69919 44.6759 6.18665C45.0224 5.84737 45.2193 5.37958 45.2711 4.78186H42.6916V3.94735H46.133C46.1744 4.12782 46.1863 4.30252 46.1863 4.47144Z" fill="white"/>
<path d="M51.646 1.5781H48.4134V3.77265H51.3276V4.60715H48.4134V6.8017H51.646V7.65208H47.4983V0.727718H51.646V1.5781Z" fill="white"/>
<path d="M55.499 7.65208H54.5839V1.5781H52.6011V0.727718H57.4833V1.5781H55.499V7.65208Z" fill="white"/>
<path d="M61.0165 7.65208V0.727718H61.9301V7.65208H61.0165Z" fill="white"/>
<path d="M65.9801 7.65208H65.0723V1.5781H63.0822V0.727718H67.9703V1.5781H65.9801V7.65208Z" fill="white"/>
<path d="M77.2135 6.76128C76.513 7.46151 75.6453 7.8109 74.6102 7.8109C73.5692 7.8109 72.7015 7.46151 72.001 6.76128C71.3021 6.06249 70.9541 5.20488 70.9541 4.18991C70.9541 3.17493 71.3021 2.31733 72.001 1.61854C72.7015 0.918304 73.5692 0.568909 74.6102 0.568909C75.6394 0.568909 76.5071 0.918303 77.2075 1.62431C77.9124 2.32888 78.2604 3.18071 78.2604 4.18991C78.2604 5.20488 77.9124 6.06249 77.2135 6.76128ZM72.6778 6.18088C73.2049 6.6992 73.8461 6.95907 74.6102 6.95907C75.3684 6.95907 76.0155 6.6992 76.5367 6.18088C77.0624 5.66256 77.3289 4.99698 77.3289 4.18991C77.3289 3.38284 77.0624 2.71725 76.5367 2.19894C76.0155 1.68062 75.3684 1.42074 74.6102 1.42074C73.8461 1.42074 73.2049 1.68062 72.6778 2.19894C72.1521 2.71725 71.8855 3.38284 71.8855 4.18991C71.8855 4.99698 72.1521 5.66256 72.6778 6.18088Z" fill="white"/>
<path d="M79.5442 7.65208V0.727718H80.6548L84.1081 6.11301H84.148L84.1081 4.78185V0.727718H85.0217V7.65208H84.0681L80.452 2.00113H80.412L80.452 3.33807V7.65208H79.5442Z" fill="white"/>
<path d="M70.729 17.7643C67.9466 17.7643 65.6736 19.8289 65.6736 22.6775C65.6736 25.503 67.9466 27.5893 70.729 27.5893C73.5174 27.5893 75.7904 25.503 75.7904 22.6775C75.7904 19.8289 73.5174 17.7643 70.729 17.7643ZM70.729 25.6546C69.2023 25.6546 67.8889 24.4259 67.8889 22.6775C67.8889 20.906 69.2023 19.699 70.729 19.699C72.2557 19.699 73.5751 20.906 73.5751 22.6775C73.5751 24.4259 72.2557 25.6546 70.729 25.6546ZM59.6986 17.7643C56.9102 17.7643 54.6431 19.8289 54.6431 22.6775C54.6431 25.503 56.9102 27.5893 59.6986 27.5893C62.4854 27.5893 64.754 25.503 64.754 22.6775C64.754 19.8289 62.4854 17.7643 59.6986 17.7643ZM59.6986 25.6546C58.1704 25.6546 56.8525 24.4259 56.8525 22.6775C56.8525 20.906 58.1704 19.699 59.6986 19.699C61.2253 19.699 62.5387 20.906 62.5387 22.6775C62.5387 24.4259 61.2253 25.6546 59.6986 25.6546ZM46.5728 19.2702V21.3579H51.686C51.5364 22.5245 51.1366 23.3821 50.5235 23.9798C49.7772 24.7017 48.6148 25.503 46.5728 25.503C43.4261 25.503 40.962 23.0269 40.962 19.9589C40.962 16.8909 43.4261 14.4148 46.5728 14.4148C48.2742 14.4148 49.5121 15.063 50.4258 15.9033L51.9347 14.4321C50.6568 13.2424 48.9569 12.3285 46.5728 12.3285C42.2577 12.3285 38.6312 15.7517 38.6312 19.9589C38.6312 24.1661 42.2577 27.5893 46.5728 27.5893C48.905 27.5893 50.6568 26.8443 52.034 25.4467C53.4452 24.0708 53.8849 22.1361 53.8849 20.5739C53.8849 20.0888 53.8435 19.6427 53.7694 19.2702H46.5728ZM100.246 20.8887C99.8297 19.79 98.5458 17.7643 95.9308 17.7643C93.3394 17.7643 91.1818 19.7553 91.1818 22.6775C91.1818 25.4294 93.3171 27.5893 96.1795 27.5893C98.494 27.5893 99.8297 26.2133 100.379 25.412L98.6613 24.296C98.0883 25.1132 97.3079 25.6546 96.1795 25.6546C95.0586 25.6546 94.2545 25.1536 93.7392 24.1661L100.478 21.4474L100.246 20.8887ZM93.3749 22.5245C93.3171 20.6302 94.8838 19.66 96.0063 19.66C96.8859 19.66 97.6322 20.0888 97.881 20.7024L93.3749 22.5245ZM87.8974 27.2904H90.1127V12.8526H87.8974V27.2904ZM84.2695 18.8587H84.1954C83.6979 18.2841 82.7487 17.7643 81.5463 17.7643C79.023 17.7643 76.7159 19.9242 76.7159 22.6934C76.7159 25.4467 79.023 27.5893 81.5463 27.5893C82.7487 27.5893 83.6979 27.0652 84.1954 26.4732H84.2695V27.1778C84.2695 29.0561 83.2403 30.0653 81.5803 30.0653C80.2269 30.0653 79.3873 29.1124 79.0408 28.3111L77.1142 29.0951C77.6695 30.3974 79.14 32 81.5803 32C84.1777 32 86.3692 30.51 86.3692 26.8847V18.0632H84.2695V18.8587ZM81.7358 25.6546C80.2091 25.6546 78.9312 24.4086 78.9312 22.6934C78.9312 20.9623 80.2091 19.699 81.7358 19.699C83.2403 19.699 84.4264 20.9623 84.4264 22.6934C84.4264 24.4086 83.2403 25.6546 81.7358 25.6546ZM110.617 12.8526H105.319V27.2904H107.528V21.8199H110.617C113.071 21.8199 115.477 20.0888 115.477 17.3355C115.477 14.5837 113.065 12.8526 110.617 12.8526ZM110.675 19.8116H107.528V14.8609H110.675C112.325 14.8609 113.266 16.1964 113.266 17.3355C113.266 18.453 112.325 19.8116 110.675 19.8116ZM124.332 17.7369C122.736 17.7369 121.076 18.4241 120.394 19.9473L122.354 20.7486C122.776 19.9473 123.552 19.6875 124.372 19.6875C125.519 19.6875 126.681 20.3588 126.699 21.5442V21.6957C126.299 21.4705 125.443 21.137 124.39 21.137C122.279 21.137 120.127 22.2704 120.127 24.3855C120.127 26.3202 121.857 27.5662 123.801 27.5662C125.288 27.5662 126.108 26.9121 126.623 26.1513H126.699V27.2673H128.833V21.729C128.833 19.1691 126.872 17.7369 124.332 17.7369ZM124.066 25.6488C123.343 25.6488 122.336 25.2994 122.336 24.4259C122.336 23.3085 123.592 22.8796 124.679 22.8796C125.652 22.8796 126.108 23.089 126.699 23.3648C126.526 24.7017 125.345 25.6488 124.066 25.6488ZM136.607 18.0531L134.067 24.3119H133.992L131.366 18.0531H128.984L132.929 26.7995L130.678 31.6665H132.986L139.065 18.0531H136.607ZM116.692 27.2904H118.907V12.8526H116.692V27.2904Z" fill="white"/>
</svg>
