<svg width="41" height="41" viewBox="0 0 41 41" fill="none" xmlns="http://www.w3.org/2000/svg">
<path d="M21.0279 0.541992H20.9369C9.91957 0.541992 0.988281 9.47591 0.988281 20.4964V20.5875C0.988281 31.6081 9.91957 40.542 20.9369 40.542H21.0279C32.0452 40.542 40.9765 31.6081 40.9765 20.5875V20.4964C40.9765 9.47591 32.0452 0.541992 21.0279 0.541992Z" fill="url(#paint0_linear_291_18233)"/>
<path d="M27.1695 8.67993H14.796C11.3776 8.67993 8.59668 11.4617 8.59668 14.8811V26.2044C8.59668 29.6238 11.3776 32.4055 14.796 32.4055H27.1695C30.5879 32.4055 33.3688 29.6238 33.3688 26.2044V14.8811C33.3688 11.4617 30.5879 8.67993 27.1695 8.67993ZM10.7836 14.8811C10.7836 12.6683 12.5839 10.8675 14.796 10.8675H27.1695C29.3816 10.8675 31.1819 12.6683 31.1819 14.8811V26.2044C31.1819 28.4172 29.3816 30.218 27.1695 30.218H14.796C12.5839 30.218 10.7836 28.4172 10.7836 26.2044V14.8811Z" fill="white"/>
<path d="M20.9823 26.3095C24.1611 26.3095 26.7487 23.7225 26.7487 20.5413C26.7487 17.3602 24.1625 14.7732 20.9823 14.7732C17.802 14.7732 15.2158 17.3602 15.2158 20.5413C15.2158 23.7225 17.802 26.3095 20.9823 26.3095ZM20.9823 16.9622C22.9562 16.9622 24.5618 18.5682 24.5618 20.5427C24.5618 22.5173 22.9562 24.1233 20.9823 24.1233C19.0083 24.1233 17.4028 22.5173 17.4028 20.5427C17.4028 18.5682 19.0083 16.9622 20.9823 16.9622Z" fill="white"/>
<path d="M27.2832 15.7051C28.1392 15.7051 28.8369 15.0086 28.8369 14.1509C28.8369 13.2933 28.1406 12.5968 27.2832 12.5968C26.4258 12.5968 25.7295 13.2933 25.7295 14.1509C25.7295 15.0086 26.4258 15.7051 27.2832 15.7051Z" fill="white"/>
<defs>
<linearGradient id="paint0_linear_291_18233" x1="6.83037" y1="34.6982" x2="35.1427" y2="6.39555" gradientUnits="userSpaceOnUse">
<stop stop-color="#FAAD4F"/>
<stop offset="0.35" stop-color="#DD2A7B"/>
<stop offset="0.62" stop-color="#9537B0"/>
<stop offset="1" stop-color="#515BD4"/>
</linearGradient>
</defs>
</svg>
