<svg width="28" height="22" viewBox="0 0 28 22" fill="none" xmlns="http://www.w3.org/2000/svg">
<path d="M27.2693 17.2236C27.2693 19.5252 25.3951 21.3995 23.0934 21.3995H0.372559V4.86033C0.372559 2.55866 2.24678 0.684448 4.54845 0.684448H27.2693V17.2236Z" fill="white"/>
<path d="M21.4002 2.08191C19.7562 2.08191 18.408 3.41359 18.408 5.07408V8.18133H22.6333C22.7319 8.18133 22.847 8.18133 22.9292 8.19777C23.8827 8.24709 24.5897 8.7403 24.5897 9.59521C24.5897 10.2693 24.1129 10.8447 23.2251 10.9598V10.9927C24.1951 11.0584 24.9349 11.6009 24.9349 12.4394C24.9349 13.3436 24.1129 13.9355 23.0278 13.9355H18.3916V20.0185H22.7812C24.4253 20.0185 25.7734 18.6868 25.7734 17.0263V2.08191H21.4002Z" fill="url(#paint0_linear_291_18306)"/>
<path d="M19.8714 12.982H21.5976C21.6223 12.982 21.6634 12.9778 21.7045 12.9737C21.7456 12.9696 21.7867 12.9655 21.8113 12.9655C22.1402 12.8998 22.4196 12.6038 22.4196 12.1928C22.4196 11.7982 22.1402 11.5023 21.8113 11.4201C21.762 11.4037 21.6634 11.4037 21.5976 11.4037H19.8714V12.982Z" fill="url(#paint1_linear_291_18306)"/>
<path d="M21.5976 9.08557C21.9264 9.13489 22.2059 9.39794 22.2059 9.79251C22.2059 10.1871 21.9264 10.4501 21.5976 10.4995C21.5812 10.5159 21.4825 10.5159 21.4332 10.5159H19.8714V9.06913H21.4332C21.4604 9.06913 21.4975 9.07411 21.5308 9.07859C21.5581 9.08225 21.5828 9.08557 21.5976 9.08557Z" fill="url(#paint2_linear_291_18306)"/>
<path d="M4.86067 2.08191C3.21662 2.08191 1.86849 3.41359 1.86849 5.07408V12.4559C2.70696 12.8669 3.57831 13.1299 4.44966 13.1299C5.48541 13.1299 6.04439 12.5052 6.04439 11.6503V8.16489H8.60911V11.6338C8.60911 12.9819 7.77064 14.0835 4.92643 14.0835C3.20017 14.0835 1.85205 13.7053 1.85205 13.7053V20.002H6.24167C7.88573 20.002 9.23385 18.6704 9.23385 17.0099V2.08191H4.86067Z" fill="url(#paint3_linear_291_18306)"/>
<path d="M13.1304 2.08191C11.4863 2.08191 10.1382 3.41359 10.1382 5.07408V8.98691C10.8944 8.34573 12.2097 7.93472 14.3305 8.03336C15.4649 8.08269 16.6815 8.39505 16.6815 8.39505V9.66097C16.0732 9.3486 15.3498 9.06911 14.4127 9.00335C12.8016 8.88827 11.8316 9.67741 11.8316 11.0584C11.8316 12.4559 12.8016 13.245 14.4127 13.1135C15.3498 13.0477 16.0732 12.7518 16.6815 12.4559V13.7218C16.6815 13.7218 15.4814 14.0341 14.3305 14.0835C12.2097 14.1821 10.8944 13.7711 10.1382 13.1299V20.0349H14.5278C16.1719 20.0349 17.52 18.7032 17.52 17.0427V2.08191H13.1304Z" fill="url(#paint4_linear_291_18306)"/>
<defs>
<linearGradient id="paint0_linear_291_18306" x1="18.4052" y1="9.79046" x2="25.7935" y2="9.79046" gradientUnits="userSpaceOnUse">
<stop stop-color="#007940"/>
<stop offset="0.2285" stop-color="#00873F"/>
<stop offset="0.7433" stop-color="#40A737"/>
<stop offset="1" stop-color="#5CB531"/>
</linearGradient>
<linearGradient id="paint1_linear_291_18306" x1="18.4052" y1="9.79046" x2="25.7935" y2="9.79046" gradientUnits="userSpaceOnUse">
<stop stop-color="#007940"/>
<stop offset="0.2285" stop-color="#00873F"/>
<stop offset="0.7433" stop-color="#40A737"/>
<stop offset="1" stop-color="#5CB531"/>
</linearGradient>
<linearGradient id="paint2_linear_291_18306" x1="18.4052" y1="9.79046" x2="25.7935" y2="9.79046" gradientUnits="userSpaceOnUse">
<stop stop-color="#007940"/>
<stop offset="0.2285" stop-color="#00873F"/>
<stop offset="0.7433" stop-color="#40A737"/>
<stop offset="1" stop-color="#5CB531"/>
</linearGradient>
<linearGradient id="paint3_linear_291_18306" x1="1.86501" y1="11.043" x2="9.36733" y2="11.043" gradientUnits="userSpaceOnUse">
<stop stop-color="#1F286F"/>
<stop offset="0.4751" stop-color="#004E94"/>
<stop offset="0.8261" stop-color="#0066B1"/>
<stop offset="1" stop-color="#006FBC"/>
</linearGradient>
<linearGradient id="paint4_linear_291_18306" x1="10.0957" y1="11.043" x2="17.3822" y2="11.043" gradientUnits="userSpaceOnUse">
<stop stop-color="#6C2C2F"/>
<stop offset="0.1735" stop-color="#882730"/>
<stop offset="0.5731" stop-color="#BE1833"/>
<stop offset="0.8585" stop-color="#DC0436"/>
<stop offset="1" stop-color="#E60039"/>
</linearGradient>
</defs>
</svg>
