<svg width="31" height="20" viewBox="0 0 31 20" fill="none" xmlns="http://www.w3.org/2000/svg">
<path d="M19.4918 2.85467H11.4928V17.2292H19.4918V2.85467Z" fill="#FF5F00"/>
<path d="M12.0007 10.0419C11.9994 8.65757 12.3131 7.29105 12.9181 6.04584C13.523 4.80063 14.4033 3.70937 15.4923 2.85467C14.1437 1.79463 12.5241 1.13542 10.8185 0.952358C9.113 0.7693 7.39037 1.06978 5.84753 1.81947C4.30469 2.56917 3.00389 3.73782 2.09384 5.19184C1.18378 6.64586 0.701172 8.3266 0.701172 10.0419C0.701172 11.7573 1.18378 13.438 2.09384 14.892C3.00389 16.3461 4.30469 17.5147 5.84753 18.2644C7.39037 19.0141 9.113 19.3146 10.8185 19.1315C12.5241 18.9485 14.1437 18.2892 15.4923 17.2292C14.4033 16.3745 13.523 15.2832 12.9181 14.038C12.3132 12.7928 11.9994 11.4263 12.0007 10.0419Z" fill="#EB001B"/>
<path d="M30.283 10.0419C30.2831 11.7573 29.8005 13.438 28.8905 14.892C27.9805 16.346 26.6798 17.5147 25.137 18.2644C23.5941 19.0141 21.8715 19.3146 20.166 19.1315C18.4605 18.9485 16.8409 18.2892 15.4923 17.2292C16.5804 16.3736 17.46 15.2822 18.0648 14.0372C18.6697 12.7922 18.9839 11.4261 18.9839 10.0419C18.9839 8.65778 18.6697 7.29169 18.0648 6.04668C17.46 4.80167 16.5804 3.71023 15.4923 2.85467C16.8409 1.79463 18.4605 1.13541 20.166 0.952355C21.8715 0.7693 23.5941 1.0698 25.137 1.8195C26.6798 2.5692 27.9805 3.73785 28.8905 5.19187C29.8005 6.6459 30.2831 8.32662 30.283 10.0419Z" fill="#F79E1B"/>
<path d="M29.4109 15.7067V15.4124H29.5295V15.3525H29.2273V15.4124H29.346V15.7067H29.4109ZM29.9976 15.7067V15.3519H29.9049L29.7984 15.596L29.6918 15.3519H29.5991V15.7067H29.6645V15.4391L29.7645 15.6698H29.8323L29.9322 15.4385V15.7067H29.9976Z" fill="#F79E1B"/>
</svg>
