<svg width="24" height="25" viewBox="0 0 24 25" fill="none" xmlns="http://www.w3.org/2000/svg">
<path d="M6 7.13696H11C11.2652 7.13696 11.5196 7.24232 11.7071 7.42986C11.8946 7.61739 12 7.87175 12 8.13696C12 8.40218 11.8946 8.65653 11.7071 8.84407C11.5196 9.03161 11.2652 9.13696 11 9.13696H6C5.73478 9.13696 5.48043 9.03161 5.29289 8.84407C5.10536 8.65653 5 8.40218 5 8.13696C5 7.87175 5.10536 7.61739 5.29289 7.42986C5.48043 7.24232 5.73478 7.13696 6 7.13696ZM13 15.137H18C18.2652 15.137 18.5196 15.2423 18.7071 15.4299C18.8946 15.6174 19 15.8717 19 16.137C19 16.4022 18.8946 16.6565 18.7071 16.8441C18.5196 17.0316 18.2652 17.137 18 17.137H13C12.7348 17.137 12.4804 17.0316 12.2929 16.8441C12.1054 16.6565 12 16.4022 12 16.137C12 15.8717 12.1054 15.6174 12.2929 15.4299C12.4804 15.2423 12.7348 15.137 13 15.137ZM6 11.137H18C18.2652 11.137 18.5196 11.2423 18.7071 11.4299C18.8946 11.6174 19 11.8717 19 12.137C19 12.4022 18.8946 12.6565 18.7071 12.8441C18.5196 13.0316 18.2652 13.137 18 13.137H6C5.73478 13.137 5.48043 13.0316 5.29289 12.8441C5.10536 12.6565 5 12.4022 5 12.137C5 11.8717 5.10536 11.6174 5.29289 11.4299C5.48043 11.2423 5.73478 11.137 6 11.137Z" fill="#F47500"/>
</svg>
