<svg width="45" height="46" viewBox="0 0 45 46" fill="none" xmlns="http://www.w3.org/2000/svg">
<rect y="0.5" width="45" height="45" rx="22.5" fill="#F47500"/>
<g clip-path="url(#clip0_548_494)">
<path d="M14.6875 13.625C14.6875 12.7962 15.0167 12.0013 15.6028 11.4153C16.1888 10.8292 16.9837 10.5 17.8125 10.5H27.1875C28.0163 10.5 28.8112 10.8292 29.3972 11.4153C29.9833 12.0013 30.3125 12.7962 30.3125 13.625V32.375C30.3125 33.2038 29.9833 33.9987 29.3972 34.5847C28.8112 35.1708 28.0163 35.5 27.1875 35.5H17.8125C16.9837 35.5 16.1888 35.1708 15.6028 34.5847C15.0167 33.9987 14.6875 33.2038 14.6875 32.375V13.625ZM24.0625 30.8125C24.0625 30.3981 23.8979 30.0007 23.6049 29.7076C23.3118 29.4146 22.9144 29.25 22.5 29.25C22.0856 29.25 21.6882 29.4146 21.3951 29.7076C21.1021 30.0007 20.9375 30.3981 20.9375 30.8125C20.9375 31.2269 21.1021 31.6243 21.3951 31.9174C21.6882 32.2104 22.0856 32.375 22.5 32.375C22.9144 32.375 23.3118 32.2104 23.6049 31.9174C23.8979 31.6243 24.0625 31.2269 24.0625 30.8125Z" fill="white"/>
</g>
<defs>
<clipPath id="clip0_548_494">
<rect width="25" height="25" fill="white" transform="translate(10 10.5)"/>
</clipPath>
</defs>
</svg>
