<svg width="25" height="24" viewBox="0 0 25 24" fill="none" xmlns="http://www.w3.org/2000/svg">
<path d="M20.5 7V17C20.5 21 19.5 22 15.5 22H9.5C5.5 22 4.5 21 4.5 17V7C4.5 3 5.5 2 9.5 2H15.5C19.5 2 20.5 3 20.5 7Z" stroke="black" stroke-width="1.5" stroke-linecap="round" stroke-linejoin="round"/>
<path d="M14.5 5.5H10.5" stroke="black" stroke-width="1.5" stroke-linecap="round" stroke-linejoin="round"/>
<path d="M12.4992 19.1C13.3553 19.1 14.0492 18.406 14.0492 17.55C14.0492 16.694 13.3553 16 12.4992 16C11.6432 16 10.9492 16.694 10.9492 17.55C10.9492 18.406 11.6432 19.1 12.4992 19.1Z" stroke="black" stroke-width="1.5" stroke-linecap="round" stroke-linejoin="round"/>
</svg>
