<svg width="279" height="385" viewBox="0 0 279 385" fill="none" xmlns="http://www.w3.org/2000/svg">
<path d="M135.028 128.638C170.242 168.79 184.223 226.565 171.31 278.378C166.736 296.663 159.112 314.018 152.439 331.675C170.322 279.613 161.658 219.12 129.705 174.251C97.3375 128.793 41.9648 100.66 -13.8555 101.293C-10.1448 90.4905 -5.20074 80.8245 0.922653 72.317C50.9741 69.7067 101.939 90.9004 135.028 128.638Z" fill="url(#paint0_linear_245_18298)"/>
<path opacity="0.5" d="M156.543 302.485C158.798 293.113 160.801 283.697 161.966 274.144C168.444 221.138 147.47 165.51 107.602 129.978C75.1913 101.09 31.0101 86.1449 -12.2797 88.2902C-9.2914 81.6993 -5.78539 75.5907 -1.74673 70.0006C48.3048 67.3904 99.2696 88.5841 132.359 126.322C167.573 166.474 181.554 224.248 168.64 276.062C164.067 294.347 156.443 311.701 149.769 329.359C152.786 320.6 155.024 311.594 156.543 302.485Z" fill="url(#paint1_linear_245_18298)"/>
<defs>
<linearGradient id="paint0_linear_245_18298" x1="40.5713" y1="55.8359" x2="154.844" y2="330.661" gradientUnits="userSpaceOnUse">
<stop stop-color="#F12711"/>
<stop offset="1" stop-color="#F5AF19"/>
</linearGradient>
<linearGradient id="paint1_linear_245_18298" x1="41.6238" y1="51.9719" x2="155.896" y2="326.797" gradientUnits="userSpaceOnUse">
<stop stop-color="#F12711"/>
<stop offset="1" stop-color="#F5AF19"/>
</linearGradient>
</defs>
</svg>
