<svg width="25" height="26" viewBox="0 0 25 26" fill="none" xmlns="http://www.w3.org/2000/svg">
<path d="M12.5004 20.2917C13.4858 20.2917 14.3858 20.1844 15.2066 19.999L13.3764 18.1688C13.092 18.1906 12.8035 18.2083 12.5004 18.2083C6.92642 18.2083 4.76704 14.2021 4.24412 13C4.63678 12.1238 5.16709 11.316 5.81496 10.6073L4.35871 9.15105C2.75662 10.8875 2.14933 12.6365 2.13787 12.6708C2.06602 12.8848 2.06602 13.1163 2.13787 13.3302C2.15975 13.399 4.54933 20.2917 12.5004 20.2917ZM12.5004 5.70834C10.5868 5.70834 9.01496 6.12084 7.70454 6.73022L3.86183 2.88855L2.38892 4.36147L21.1389 23.1115L22.6118 21.6385L19.1545 18.1813C21.8775 16.149 22.8493 13.374 22.8639 13.3302C22.9358 13.1163 22.9358 12.8848 22.8639 12.6708C22.841 12.601 20.4514 5.70834 12.5004 5.70834ZM17.6795 16.7063L15.3045 14.3313C15.5025 13.925 15.6254 13.4781 15.6254 13C15.6254 11.2906 14.2097 9.87501 12.5004 9.87501C12.0222 9.87501 11.5754 9.99792 11.1702 10.1969L9.28683 8.31355C10.3207 7.95877 11.4074 7.7823 12.5004 7.79167C18.0743 7.79167 20.2337 11.7979 20.7566 13C20.442 13.7208 19.542 15.4396 17.6795 16.7063Z" fill="#979797"/>
</svg>
