<svg width="25" height="26" viewBox="0 0 25 26" fill="none" xmlns="http://www.w3.org/2000/svg">
<path d="M12.5 9.875C11.6729 9.88046 10.8812 10.2115 10.2963 10.7963C9.71145 11.3812 9.38046 12.1729 9.375 13C9.375 14.7104 10.7896 16.125 12.5 16.125C14.2094 16.125 15.625 14.7104 15.625 13C15.625 11.2906 14.2094 9.875 12.5 9.875Z" fill="#979797"/>
<path d="M12.5003 5.70837C4.54922 5.70837 2.15964 12.6011 2.13776 12.6709L2.02734 13L2.13672 13.3292C2.15964 13.399 4.54922 20.2917 12.5003 20.2917C20.4513 20.2917 22.8409 13.399 22.8628 13.3292L22.9732 13L22.8638 12.6709C22.8409 12.6011 20.4513 5.70837 12.5003 5.70837ZM12.5003 18.2084C6.9263 18.2084 4.76693 14.2021 4.24401 13C4.76901 11.7938 6.92943 7.79171 12.5003 7.79171C18.0742 7.79171 20.2336 11.798 20.7565 13C20.2315 14.2063 18.0711 18.2084 12.5003 18.2084Z" fill="#979797"/>
</svg>
