<svg width="45" height="46" viewBox="0 0 45 46" fill="none" xmlns="http://www.w3.org/2000/svg">
<rect y="0.5" width="45" height="45" rx="22.5" fill="#F47500"/>
<g clip-path="url(#clip0_444_2102)">
<path d="M28.334 28.8333H26.6673V27.1666H28.334V28.8333ZM23.334 28.8333H25.0007V27.1666H23.334V28.8333ZM31.6673 28.8333H30.0007V27.1666H31.6673V28.8333Z" fill="white"/>
<path fill-rule="evenodd" clip-rule="evenodd" d="M15 20.5V16.3333C15 15.5673 15.1509 14.8087 15.444 14.101C15.7372 13.3933 16.1669 12.7502 16.7085 12.2085C17.2502 11.6669 17.8933 11.2372 18.601 10.944C19.3087 10.6509 20.0673 10.5 20.8333 10.5C21.5994 10.5 22.3579 10.6509 23.0657 10.944C23.7734 11.2372 24.4164 11.6669 24.9581 12.2085C25.4998 12.7502 25.9295 13.3933 26.2226 14.101C26.5158 14.8087 26.6667 15.5673 26.6667 16.3333V20.5H29.1667C29.8297 20.5 30.4656 20.7634 30.9344 21.2322C31.4033 21.7011 31.6667 22.337 31.6667 23V23.9167C32.6086 24.1079 33.4554 24.6189 34.0636 25.3631C34.6719 26.1073 35.0042 27.0389 35.0042 28C35.0042 28.9611 34.6719 29.8927 34.0636 30.6369C33.4554 31.3811 32.6086 31.8921 31.6667 32.0833V33C31.6667 33.663 31.4033 34.2989 30.9344 34.7678C30.4656 35.2366 29.8297 35.5 29.1667 35.5H12.5C11.837 35.5 11.2011 35.2366 10.7322 34.7678C10.2634 34.2989 10 33.663 10 33V23C10 22.337 10.2634 21.7011 10.7322 21.2322C11.2011 20.7634 11.837 20.5 12.5 20.5H15ZM16.6667 16.3333C16.6667 15.2283 17.1057 14.1685 17.8871 13.3871C18.6685 12.6057 19.7283 12.1667 20.8333 12.1667C21.9384 12.1667 22.9982 12.6057 23.7796 13.3871C24.561 14.1685 25 15.2283 25 16.3333V20.5H16.6667V16.3333ZM24.1667 25.5C23.5036 25.5 22.8677 25.7634 22.3989 26.2322C21.9301 26.7011 21.6667 27.337 21.6667 28C21.6667 28.663 21.9301 29.2989 22.3989 29.7678C22.8677 30.2366 23.5036 30.5 24.1667 30.5H30.8333C31.4964 30.5 32.1323 30.2366 32.6011 29.7678C33.0699 29.2989 33.3333 28.663 33.3333 28C33.3333 27.337 33.0699 26.7011 32.6011 26.2322C32.1323 25.7634 31.4964 25.5 30.8333 25.5H24.1667Z" fill="white"/>
</g>
<defs>
<clipPath id="clip0_444_2102">
<rect width="25" height="25" fill="white" transform="translate(10 10.5)"/>
</clipPath>
</defs>
</svg>
