<svg width="32" height="14" viewBox="0 0 32 14" fill="none" xmlns="http://www.w3.org/2000/svg">
<path d="M6.58945 2.19633C6.9519 1.74297 7.19787 1.13425 7.13299 0.512207C6.60241 0.53859 5.95493 0.862253 5.58007 1.31596C5.24349 1.7045 4.94559 2.33871 5.02325 2.93467C5.61886 2.98634 6.21392 2.63696 6.58945 2.19633Z" fill="white"/>
<path d="M7.12625 3.05104C6.26128 2.99952 5.52585 3.54196 5.11278 3.54196C4.69948 3.54196 4.06694 3.07701 3.3828 3.08954C2.49234 3.10262 1.6661 3.60609 1.21423 4.40685C0.284816 6.00876 0.968961 8.38494 1.87277 9.68961C2.31168 10.3351 2.84064 11.0458 3.53763 11.0202C4.19617 10.9944 4.45429 10.5938 5.25476 10.5938C6.05466 10.5938 6.28717 11.0202 6.98427 11.0073C7.70718 10.9944 8.15913 10.3615 8.59803 9.71545C9.10154 8.97966 9.30766 8.2692 9.32063 8.23019C9.30766 8.21728 7.92665 7.68749 7.91385 6.09889C7.90081 4.76874 8.99809 4.13605 9.04974 4.09681C8.43009 3.18035 7.4619 3.07701 7.12625 3.05104Z" fill="white"/>
<path d="M14.6577 1.2509C16.5377 1.2509 17.8468 2.5468 17.8468 4.43353C17.8468 6.327 16.5108 7.62963 14.6106 7.62963H12.529V10.9398H11.0252V1.2509L14.6577 1.2509ZM12.529 6.36728H14.2547C15.564 6.36728 16.3092 5.66234 16.3092 4.44026C16.3092 3.21832 15.564 2.51999 14.2614 2.51999H12.529V6.36728Z" fill="white"/>
<path d="M18.2397 8.93225C18.2397 7.6967 19.1865 6.93802 20.8652 6.84399L22.7988 6.72989V6.18607C22.7988 5.40045 22.2683 4.93045 21.3822 4.93045C20.5427 4.93045 20.019 5.33323 19.8915 5.96447H18.5218C18.6023 4.68865 19.69 3.74865 21.4358 3.74865C23.148 3.74865 24.2423 4.65511 24.2423 6.07184V10.9398H22.8524V9.77822H22.819C22.4095 10.5638 21.5164 11.0606 20.5898 11.0606C19.2067 11.0606 18.2397 10.2012 18.2397 8.93225ZM22.7988 8.2944V7.73711L21.0597 7.84448C20.1935 7.90496 19.7035 8.28767 19.7035 8.89197C19.7035 9.50961 20.2137 9.91252 20.9926 9.91252C22.0064 9.91252 22.7988 9.21419 22.7988 8.2944Z" fill="white"/>
<path d="M25.5546 13.5383V12.3633C25.6618 12.3901 25.9035 12.3901 26.0244 12.3901C26.6958 12.3901 27.0584 12.1081 27.2799 11.383C27.2799 11.3695 27.4076 10.9533 27.4076 10.9465L24.8562 3.87622H26.4272L28.2134 9.62384H28.2401L30.0263 3.87622H31.5572L28.9115 11.3091C28.3075 13.0213 27.6091 13.5719 26.1454 13.5719C26.0244 13.5719 25.6618 13.5584 25.5546 13.5383Z" fill="white"/>
</svg>
