<svg width="41" height="11" viewBox="0 0 41 11" fill="none" xmlns="http://www.w3.org/2000/svg">
<g clip-path="url(#clip0_291_18337)">
<mask id="mask0_291_18337" style="mask-type:luminance" maskUnits="userSpaceOnUse" x="0" y="0" width="41" height="11">
<path d="M40.7706 0.308838H0.820801V10.0386H40.7706V0.308838Z" fill="white"/>
</mask>
<g mask="url(#mask0_291_18337)">
<path d="M9.37421 0.308838C9.76728 0.310287 10.1438 0.462492 10.4216 0.732235C10.6994 1.00198 10.856 1.36736 10.8571 1.74865V8.6015C10.8556 8.98255 10.6989 9.34758 10.4211 9.61704C10.1434 9.88647 9.76704 10.0385 9.37421 10.04H2.30373C1.91089 10.0385 1.53457 9.88647 1.25679 9.61704C0.979009 9.34758 0.822293 8.98255 0.820801 8.6015V3.35471V1.67034C0.841754 1.30328 1.00653 0.957857 1.28141 0.704759C1.55628 0.451665 1.92049 0.310028 2.29948 0.308838H9.37421Z" fill="white"/>
<path d="M29.3137 2.12793H27.5361C27.4584 2.12793 27.3838 2.15789 27.3288 2.21122C27.2738 2.26456 27.2429 2.33689 27.2429 2.41232V7.84321H28.495V5.90057H29.3137C30.5261 5.90057 31.6238 5.16829 31.6238 3.92632C31.6238 2.68435 30.5261 2.12793 29.3137 2.12793ZM28.495 5.31667V2.70633H29.3137C29.4817 2.70415 29.6483 2.73421 29.8045 2.79478C29.9603 2.85532 30.1024 2.94521 30.2224 3.05921C30.3424 3.17324 30.4381 3.30916 30.5038 3.45913C30.5694 3.60913 30.6039 3.77024 30.6053 3.93319C30.6053 4.70805 29.9283 5.30705 29.3137 5.30705H28.495V5.31667ZM33.7554 3.554C32.8078 3.554 32.322 3.7807 32.322 3.7807L32.4381 4.1214C32.7755 4.0007 33.1341 3.94605 33.4933 3.96067C34.2696 3.96067 34.4282 4.32611 34.4282 4.82484L34.4183 5.04878C34.1057 4.97421 33.7852 4.93729 33.4635 4.93886C32.8715 4.93886 31.8941 5.29332 31.8941 6.45013C31.8941 7.54921 32.7554 7.91054 33.3672 7.91054C33.7441 7.91675 34.114 7.81184 34.4282 7.60967V7.83497H35.6787V4.82621C35.6787 3.87548 34.703 3.55538 33.7554 3.55538V3.554ZM33.8078 7.37335C33.2652 7.37335 32.8743 6.98457 32.8743 6.41165C32.8743 5.83875 33.3957 5.4994 33.8657 5.4994C34.0613 5.49024 34.2552 5.53811 34.4224 5.63678V7.10957C34.2594 7.27343 34.0368 7.36865 33.802 7.37473L33.8078 7.37335ZM38.602 8.36392C38.2224 9.17862 37.5965 9.28578 37.3159 9.316C37.1143 9.33611 36.9112 9.343 36.7085 9.33662V8.6703C37.2652 8.6703 37.5697 8.71289 37.8983 8.07951L38.1206 7.52997L36.0668 3.56362H37.3783L38.7253 6.20008L39.9165 3.56362H40.7664C40.7664 3.56362 38.9761 7.54784 38.602 8.36392ZM15.0013 2.12793H13.2238C13.1459 2.12793 13.0712 2.15785 13.016 2.21114C12.9608 2.26444 12.9296 2.33677 12.9292 2.41232V7.84321H14.1813V5.90057H15.0013C16.2123 5.90057 17.31 5.16829 17.31 3.92632C17.31 2.68435 16.2123 2.12793 15.0013 2.12793ZM14.1813 5.31667V2.70633H15.0013C15.1692 2.70434 15.3358 2.73452 15.4916 2.79516C15.6475 2.85581 15.7894 2.94573 15.9093 3.0597C16.0292 3.1737 16.1246 3.30956 16.1903 3.45946C16.2559 3.60935 16.2903 3.77035 16.2916 3.93319C16.2916 4.70805 15.6146 5.30705 15.0013 5.30705H14.1813V5.31667ZM19.4416 3.554C18.4941 3.554 18.0083 3.7807 18.0083 3.7807L18.1244 4.1214C18.4617 4.0007 18.8204 3.94605 19.1796 3.96067C19.9557 3.96067 20.1144 4.32611 20.1144 4.82484L20.1045 5.04878C19.7926 4.97419 19.4725 4.93727 19.1513 4.93886C18.5592 4.93886 17.5805 5.29332 17.5805 6.45013C17.5805 7.54921 18.4417 7.91054 19.0535 7.91054C19.4304 7.91675 19.8003 7.81184 20.1144 7.60967V7.83497H21.365V4.82621C21.365 3.87548 20.3891 3.55538 19.4416 3.55538V3.554ZM19.4954 7.37335C18.9515 7.37335 18.5606 6.98457 18.5606 6.41165C18.5606 5.83875 19.0833 5.4994 19.5521 5.4994C19.7476 5.49008 19.9416 5.53794 20.1087 5.63678V7.10957C19.9461 7.27311 19.7239 7.3683 19.4898 7.37473L19.4954 7.37335ZM24.2884 8.36392C23.9088 9.17862 23.2828 9.28578 23.0023 9.316C22.8005 9.33611 22.5975 9.343 22.3947 9.33662V8.6703C22.9513 8.6703 23.2559 8.71289 23.5845 8.07951L23.8082 7.52997L21.7531 3.56362H23.0646L24.413 6.20008L25.6042 3.56362H26.454C26.454 3.56362 24.6708 7.54784 24.2884 8.36392Z" fill="white"/>
<path d="M2.77396 10.04H2.30373C1.91089 10.0385 1.53457 9.88647 1.25679 9.61704C0.979009 9.34758 0.822293 8.98255 0.820801 8.6015V3.35471C2.03745 3.23052 3.26369 3.22177 4.4821 3.32861L2.77396 10.04ZM8.80764 5.50617C9.04276 4.57744 7.49752 3.72015 5.02315 3.39317L4.12516 7.01744C6.19873 7.11223 8.55412 6.50636 8.80764 5.50617ZM9.37421 0.311588H2.30373C1.92473 0.312778 1.56053 0.454411 1.28566 0.707505C1.01078 0.960602 0.846003 1.30602 0.82505 1.67309C6.73978 1.51235 9.61639 3.5072 9.16458 5.49793C8.75807 7.28396 6.88141 7.9709 3.83197 8.20171L3.37591 10.0427H9.37421C9.76704 10.0413 10.1434 9.88923 10.4211 9.61977C10.6989 9.35033 10.8556 8.98531 10.8571 8.60425V1.74865C10.856 1.36736 10.6994 1.00198 10.4216 0.732235C10.1438 0.462492 9.76728 0.310287 9.37421 0.308838" fill="#FF0033"/>
</g>
</g>
<defs>
<clipPath id="clip0_291_18337">
<rect width="40" height="10" fill="white" transform="translate(0.820801 0.0419922)"/>
</clipPath>
</defs>
</svg>
