<svg width="41" height="12" viewBox="0 0 41 12" fill="none" xmlns="http://www.w3.org/2000/svg">
<path fill-rule="evenodd" clip-rule="evenodd" d="M4.8461 0.677896H1.71386C1.49952 0.677896 1.31722 0.833658 1.2838 1.04516L0.0169577 9.07623C-0.00822181 9.23475 0.114519 9.37758 0.275282 9.37758H1.77064C1.98499 9.37758 2.16728 9.22182 2.20071 9.0099L2.54239 6.84382C2.57535 6.63168 2.75809 6.47613 2.97199 6.47613H3.96354C6.02686 6.47613 7.21759 5.47776 7.52873 3.49945C7.66883 2.63395 7.53466 1.95389 7.12921 1.47748C6.68411 0.954665 5.8944 0.677896 4.8461 0.677896ZM5.20747 3.61113C5.03622 4.73497 4.17744 4.73496 3.34709 4.73496H2.87443L3.20602 2.63607C3.22571 2.50934 3.33563 2.41588 3.46388 2.41588H3.68051C4.24614 2.41588 4.77976 2.41588 5.0555 2.73822C5.21976 2.93065 5.27021 3.21632 5.20747 3.61113ZM14.2091 3.57511H12.7092C12.5814 3.57511 12.4709 3.66857 12.4512 3.79551L12.3849 4.21491L12.28 4.06295C11.9553 3.59164 11.2313 3.43418 10.5085 3.43418C8.85087 3.43418 7.43526 4.6894 7.15952 6.45028C7.01624 7.32849 7.21992 8.16834 7.71821 8.7541C8.17539 9.2926 8.82946 9.51703 9.60752 9.51703C10.943 9.51703 11.6838 8.65831 11.6838 8.65831L11.6168 9.07517C11.5916 9.23453 11.7143 9.37737 11.8741 9.37737H13.2253C13.4402 9.37737 13.6214 9.2216 13.6553 9.00968L14.466 3.87646C14.4917 3.71858 14.3694 3.57511 14.2091 3.57511ZM12.1183 6.49414C11.9735 7.35095 11.2934 7.92612 10.4261 7.92612C9.99051 7.92612 9.64228 7.78646 9.41889 7.52176C9.19719 7.25898 9.11283 6.88472 9.18341 6.46808C9.31864 5.61848 10.0102 5.02466 10.8644 5.02466C11.2902 5.02466 11.6365 5.16601 11.8646 5.43304C12.093 5.70282 12.1838 6.07919 12.1183 6.49414ZM20.6903 3.5749H22.1977C22.4088 3.5749 22.5319 3.81161 22.412 3.98476L17.3987 11.2203C17.3176 11.3375 17.1838 11.4072 17.041 11.4072H15.5355C15.3236 11.4072 15.1998 11.1685 15.3225 10.995L16.8835 8.79182L15.2233 3.92012C15.1659 3.75079 15.2909 3.5749 15.4711 3.5749H16.9522C17.1446 3.5749 17.3144 3.7012 17.3699 3.88536L18.251 6.82771L20.33 3.76584C20.4114 3.64631 20.5466 3.5749 20.6903 3.5749Z" fill="#253B80"/>
<path fill-rule="evenodd" clip-rule="evenodd" d="M37.0334 9.07551L38.3189 0.897581C38.3386 0.770638 38.4486 0.677182 38.5764 0.676758H40.0236C40.1834 0.676758 40.3061 0.820017 40.2809 0.978536L39.0132 9.00918C38.9802 9.2211 38.7979 9.37687 38.5832 9.37687H37.2907C37.1309 9.37687 37.0082 9.23403 37.0334 9.07551ZM27.1886 0.677178H24.0558C23.842 0.677178 23.6597 0.832943 23.6262 1.04444L22.3594 9.07551C22.3342 9.23403 22.4569 9.37687 22.6169 9.37687H24.2243C24.3737 9.37687 24.5015 9.26794 24.5249 9.11959L24.8843 6.8431C24.9174 6.63097 25.1001 6.47542 25.3139 6.47542H26.305C28.3688 6.47542 29.5593 5.47704 29.8706 3.49873C30.0111 2.63324 29.8761 1.95317 29.4709 1.47677C29.026 0.953952 28.2369 0.677178 27.1886 0.677178ZM27.55 3.61042C27.3792 4.73425 26.5204 4.73425 25.6895 4.73425H25.2173L25.5494 2.63536C25.5691 2.50863 25.6781 2.41517 25.8067 2.41517H26.0233C26.5886 2.41517 27.1227 2.41517 27.3982 2.7375C27.5627 2.92993 27.6127 3.21561 27.55 3.61042ZM36.5508 3.57439H35.0519C34.9231 3.57439 34.8137 3.66785 34.7944 3.79479L34.7281 4.21419L34.6227 4.06224C34.298 3.59092 33.5744 3.43346 32.8517 3.43346C31.194 3.43346 29.7788 4.68869 29.5031 6.44956C29.3602 7.32778 29.5631 8.16763 30.0614 8.75338C30.5194 9.29188 31.1726 9.51631 31.9507 9.51631C33.2862 9.51631 34.0267 8.6576 34.0267 8.6576L33.96 9.07445C33.9347 9.23382 34.0575 9.37665 34.2183 9.37665H35.5689C35.7827 9.37665 35.965 9.22089 35.9985 9.00896L36.8096 3.87575C36.8344 3.71786 36.7117 3.57439 36.5508 3.57439ZM34.4602 6.49343C34.3162 7.35024 33.6353 7.9254 32.7677 7.9254C32.333 7.9254 31.9842 7.78574 31.7606 7.52105C31.5389 7.25827 31.4556 6.88401 31.5253 6.46737C31.6612 5.61776 32.3519 5.02395 33.2061 5.02395C33.6321 5.02395 33.9782 5.1653 34.2065 5.43233C34.4358 5.70211 34.5265 6.07848 34.4602 6.49343Z" fill="#179BD7"/>
</svg>
