<svg width="40" height="41" viewBox="0 0 40 41" fill="none" xmlns="http://www.w3.org/2000/svg">
<rect y="0.976807" width="40" height="40" rx="10" fill="white"/>
<g clip-path="url(#clip0_2906_2761)">
<path d="M23.75 22.4768C23.9489 22.4768 24.1397 22.5558 24.2803 22.6965C24.421 22.8371 24.5 23.0279 24.5 23.2268C24.5 23.4257 24.579 23.6165 24.7197 23.7571C24.8603 23.8978 25.0511 23.9768 25.25 23.9768C25.4489 23.9768 25.6397 23.8978 25.7803 23.7571C25.921 23.6165 26 23.4257 26 23.2268C25.9986 22.763 25.8537 22.311 25.5851 21.9328C25.3165 21.5546 24.9375 21.2689 24.5 21.1148V20.9768C24.5 20.7779 24.421 20.5871 24.2803 20.4465C24.1397 20.3058 23.9489 20.2268 23.75 20.2268C23.5511 20.2268 23.3603 20.3058 23.2197 20.4465C23.079 20.5871 23 20.7779 23 20.9768V21.1148C22.5625 21.2689 22.1835 21.5546 21.9149 21.9328C21.6463 22.311 21.5014 22.763 21.5 23.2268C21.5 24.4673 22.5095 25.4768 23.75 25.4768C23.8983 25.4768 24.0433 25.5208 24.1667 25.6032C24.29 25.6856 24.3861 25.8028 24.4429 25.9398C24.4997 26.0768 24.5145 26.2276 24.4856 26.3731C24.4567 26.5186 24.3852 26.6522 24.2803 26.7571C24.1754 26.862 24.0418 26.9335 23.8963 26.9624C23.7508 26.9913 23.6 26.9765 23.463 26.9197C23.3259 26.863 23.2088 26.7668 23.1264 26.6435C23.044 26.5201 23 26.3751 23 26.2268C23 26.0279 22.921 25.8371 22.7803 25.6965C22.6397 25.5558 22.4489 25.4768 22.25 25.4768C22.0511 25.4768 21.8603 25.5558 21.7197 25.6965C21.579 25.8371 21.5 26.0279 21.5 26.2268C21.5 27.2033 22.1292 28.0283 23 28.3388V28.4768C23 28.6757 23.079 28.8665 23.2197 29.0071C23.3603 29.1478 23.5511 29.2268 23.75 29.2268C23.9489 29.2268 24.1397 29.1478 24.2803 29.0071C24.421 28.8665 24.5 28.6757 24.5 28.4768V28.3388C24.9375 28.1847 25.3165 27.899 25.5851 27.5208C25.8537 27.1427 25.9986 26.6906 26 26.2268C26 24.9863 24.9905 23.9768 23.75 23.9768C23.5511 23.9768 23.3603 23.8978 23.2197 23.7571C23.079 23.6165 23 23.4257 23 23.2268C23 23.0279 23.079 22.8371 23.2197 22.6965C23.3603 22.5558 23.5511 22.4768 23.75 22.4768Z" fill="black"/>
<path d="M23.7503 17.9768C23.4683 17.9768 23.1923 17.9993 22.9193 18.0331L23.0003 16.5166C23.0059 16.4147 22.9905 16.3129 22.9553 16.2172C22.9201 16.1215 22.8657 16.034 22.7955 15.9601C22.7253 15.8862 22.6407 15.8273 22.547 15.7872C22.4532 15.7471 22.3523 15.7266 22.2503 15.7268H20.0003V14.2268C20.0003 12.1591 18.3181 10.4768 16.2503 10.4768C14.1826 10.4768 12.5003 12.1591 12.5003 14.2268V15.7268H10.2503C10.1484 15.7267 10.0476 15.7473 9.95395 15.7875C9.8603 15.8276 9.77583 15.8865 9.7057 15.9604C9.63557 16.0343 9.58125 16.1217 9.54607 16.2174C9.51089 16.313 9.49559 16.4148 9.5011 16.5166L10.2511 30.7666C10.2613 30.9584 10.3447 31.139 10.4841 31.2711C10.6235 31.4033 10.8083 31.4769 11.0003 31.4768H21.5003C21.6006 31.4768 21.6999 31.4565 21.7922 31.4172C21.8845 31.3779 21.9679 31.3204 22.0373 31.2481C22.5961 31.3978 23.1719 31.4746 23.7503 31.4768C27.4726 31.4768 30.5003 28.4491 30.5003 24.7268C30.5003 21.0046 27.4726 17.9768 23.7503 17.9768ZM14.0003 14.2268C14.0003 12.9863 15.0098 11.9768 16.2503 11.9768C17.4908 11.9768 18.5003 12.9863 18.5003 14.2268V15.7268H14.0003V14.2268ZM11.7128 29.9768L11.0408 17.2268H12.5003V17.9768C12.5003 18.1757 12.5794 18.3665 12.72 18.5071C12.8607 18.6478 13.0514 18.7268 13.2503 18.7268C13.4493 18.7268 13.64 18.6478 13.7807 18.5071C13.9213 18.3665 14.0003 18.1757 14.0003 17.9768V17.2268H18.5003V17.9768C18.5003 18.1757 18.5794 18.3665 18.72 18.5071C18.8607 18.6478 19.0514 18.7268 19.2503 18.7268C19.4493 18.7268 19.64 18.6478 19.7807 18.5071C19.9213 18.3665 20.0003 18.1757 20.0003 17.9768V17.2268H21.4598L21.3968 18.4081C18.8341 19.3666 17.0003 21.8333 17.0003 24.7268C17.0005 25.7344 17.2266 26.729 17.6621 27.6376C18.0976 28.5462 18.7313 29.3456 19.5166 29.9768H11.7128ZM23.7503 29.9768C20.8553 29.9768 18.5003 27.6218 18.5003 24.7268C18.5003 21.8318 20.8553 19.4768 23.7503 19.4768C26.6453 19.4768 29.0003 21.8318 29.0003 24.7268C29.0003 27.6218 26.6453 29.9768 23.7503 29.9768Z" fill="black"/>
</g>
<defs>
<clipPath id="clip0_2906_2761">
<rect width="24" height="24" fill="white" transform="translate(8 8.97681)"/>
</clipPath>
</defs>
</svg>
