<svg width="314" height="363" viewBox="0 0 314 363" fill="none" xmlns="http://www.w3.org/2000/svg">
<path d="M112.551 200.498L107.121 202.847L85.4211 187.713L79.6447 190.909C75.0044 193.682 70.4988 193.875 68.3423 192.642L67.8993 192.854C64.549 194.317 62.5658 193.008 61.8919 191.429C61.218 189.85 61.6031 187.578 64.9534 186.076L65.3963 185.884C65.8006 183.958 67.5529 180.724 74.3882 178.817L80.6844 176.796L84.5353 150.629L89.9652 148.26L94.1819 172.502L109.701 167.188L112.05 160.968L116.363 159.37L116.671 165.147L118.212 165.012L119.617 168.227L118.462 169.363L122.544 173.599L118.424 175.66L112.301 173.118L97.8018 180.82L112.551 200.498ZM112.147 171.712L118.308 174.273L120.233 173.272L116.498 169.421L117.904 167.996L117.249 166.475L115.323 166.649L115.035 161.257L112.936 162.027L110.587 168.266L93.0267 174.254L88.8484 150.167L85.5943 151.572L81.8398 177.835L74.7348 180.107C68.1112 181.937 66.8018 184.902 66.6093 186.5V186.904L66.2242 187.039C65.9796 187.109 65.7412 187.199 65.5118 187.309C63.4515 188.194 62.5273 189.6 63.1242 190.948C63.7211 192.296 65.3577 192.604 67.418 191.699C67.6498 191.605 67.875 191.496 68.0919 191.371L68.4578 191.16L68.8044 191.41C70.2099 192.45 74.3112 192.642 79.0478 189.831L85.5173 186.211L107.275 201.403L110.529 199.998L95.7801 180.473L112.147 171.712Z" fill="#999999"/>
<path d="M298.898 362.101C299.002 362.103 299.105 362.077 299.196 362.026C299.287 361.976 299.364 361.902 299.418 361.812C300.111 360.76 300.753 359.701 301.343 358.635C301.43 358.494 301.459 358.325 301.423 358.163C301.387 358.001 301.289 357.86 301.15 357.769C301.007 357.683 300.836 357.658 300.674 357.697C300.512 357.737 300.372 357.839 300.284 357.981C299.629 359.04 298.975 360.079 298.359 361.139C298.312 361.206 298.279 361.283 298.263 361.364C298.246 361.444 298.246 361.528 298.262 361.608C298.278 361.689 298.311 361.766 298.357 361.834C298.403 361.902 298.463 361.96 298.532 362.005C298.644 362.066 298.77 362.099 298.898 362.101ZM302.749 355.709C302.857 355.708 302.964 355.679 303.058 355.625C303.153 355.571 303.232 355.494 303.288 355.401C303.904 354.303 304.52 353.206 305.213 352.108C305.291 351.964 305.311 351.796 305.268 351.638C305.225 351.48 305.122 351.345 304.982 351.261C304.836 351.185 304.666 351.168 304.508 351.215C304.35 351.261 304.216 351.368 304.135 351.511C303.538 352.609 302.922 353.687 302.306 354.765C302.22 354.909 302.194 355.08 302.234 355.242C302.274 355.404 302.376 355.544 302.518 355.632C302.618 355.686 302.731 355.713 302.845 355.709H302.749ZM306.33 349.124C306.446 349.122 306.559 349.089 306.657 349.028C306.756 348.967 306.836 348.88 306.888 348.777C307.466 347.66 308.024 346.524 308.564 345.407C308.599 345.334 308.62 345.255 308.625 345.173C308.63 345.092 308.619 345.01 308.592 344.933C308.565 344.856 308.523 344.785 308.469 344.725C308.414 344.664 308.348 344.615 308.275 344.58C308.201 344.544 308.122 344.523 308.04 344.518C307.959 344.513 307.877 344.524 307.8 344.551C307.723 344.578 307.652 344.62 307.592 344.674C307.531 344.729 307.482 344.795 307.447 344.868C306.908 345.985 306.349 347.102 305.772 348.219C305.736 348.292 305.715 348.372 305.71 348.453C305.705 348.534 305.716 348.616 305.743 348.693C305.77 348.77 305.812 348.841 305.866 348.902C305.921 348.962 305.987 349.012 306.06 349.047C306.112 349.085 306.172 349.112 306.235 349.126C306.298 349.139 306.363 349.138 306.426 349.124H306.33ZM309.584 342.346C309.705 342.344 309.822 342.309 309.924 342.245C310.026 342.18 310.108 342.088 310.162 341.98L311.664 338.534C311.727 338.378 311.726 338.203 311.661 338.048C311.596 337.893 311.473 337.77 311.317 337.706C311.163 337.648 310.994 337.652 310.843 337.716C310.692 337.781 310.572 337.901 310.508 338.052C310.027 339.188 309.526 340.324 309.026 341.48C308.991 341.553 308.971 341.632 308.967 341.713C308.964 341.794 308.977 341.874 309.006 341.95C309.035 342.026 309.079 342.095 309.135 342.153C309.192 342.211 309.259 342.257 309.334 342.288C309.441 342.342 309.562 342.362 309.68 342.346H309.584ZM312.491 335.434C312.615 335.432 312.735 335.395 312.838 335.327C312.94 335.259 313.021 335.162 313.069 335.049C313.531 333.855 313.974 332.68 314.417 331.506C314.444 331.429 314.456 331.347 314.451 331.265C314.446 331.184 314.426 331.104 314.39 331.03C314.354 330.957 314.304 330.891 314.242 330.837C314.181 330.783 314.109 330.742 314.032 330.716C313.878 330.665 313.711 330.675 313.565 330.743C313.418 330.811 313.303 330.932 313.242 331.082C312.819 332.257 312.376 333.412 311.914 334.586C311.856 334.74 311.86 334.91 311.925 335.06C311.989 335.211 312.109 335.331 312.26 335.395L312.491 335.434ZM315.072 328.386C315.2 328.385 315.325 328.343 315.428 328.267C315.532 328.191 315.609 328.085 315.649 327.963C316.073 326.769 316.458 325.575 316.824 324.381C316.873 324.223 316.858 324.052 316.782 323.905C316.707 323.757 316.576 323.645 316.419 323.592C316.261 323.543 316.09 323.558 315.942 323.634C315.795 323.709 315.683 323.839 315.63 323.996C315.264 325.19 314.879 326.365 314.475 327.558C314.426 327.717 314.441 327.888 314.516 328.035C314.592 328.183 314.722 328.295 314.879 328.348L315.072 328.386ZM317.305 321.224C317.441 321.221 317.572 321.174 317.68 321.091C317.787 321.008 317.865 320.892 317.902 320.762C318.249 319.549 318.595 318.336 318.903 317.142C318.945 316.981 318.922 316.81 318.839 316.666C318.756 316.522 318.62 316.417 318.46 316.372C318.382 316.351 318.3 316.347 318.22 316.358C318.14 316.369 318.063 316.396 317.993 316.437C317.923 316.478 317.862 316.533 317.814 316.598C317.765 316.662 317.73 316.736 317.71 316.814C317.382 318.008 317.055 319.221 316.708 320.415C316.685 320.493 316.677 320.576 316.686 320.657C316.694 320.738 316.719 320.817 316.759 320.889C316.798 320.961 316.851 321.024 316.915 321.075C316.98 321.125 317.053 321.163 317.132 321.185L317.305 321.224ZM319.231 313.965C319.369 313.96 319.502 313.911 319.61 313.824C319.718 313.737 319.794 313.618 319.827 313.483C320.116 312.251 320.405 311.019 320.655 309.806C320.675 309.727 320.679 309.646 320.666 309.566C320.653 309.486 320.625 309.409 320.581 309.341C320.538 309.272 320.481 309.213 320.415 309.167C320.348 309.122 320.273 309.09 320.193 309.074C320.114 309.054 320.031 309.05 319.95 309.063C319.868 309.075 319.79 309.104 319.721 309.147C319.651 309.19 319.59 309.247 319.542 309.313C319.494 309.38 319.46 309.456 319.442 309.536C319.192 310.749 318.903 311.962 318.614 313.195C318.579 313.355 318.608 313.523 318.694 313.663C318.78 313.803 318.917 313.904 319.077 313.945L319.231 313.965ZM320.809 306.609C320.955 306.612 321.096 306.563 321.209 306.472C321.322 306.38 321.398 306.252 321.426 306.109C321.657 304.877 321.888 303.644 322.1 302.412C322.127 302.251 322.09 302.086 321.997 301.952C321.903 301.819 321.76 301.728 321.599 301.7C321.518 301.683 321.434 301.683 321.353 301.699C321.272 301.715 321.195 301.748 321.127 301.794C321.059 301.841 321 301.901 320.956 301.971C320.911 302.041 320.881 302.119 320.867 302.2C320.655 303.413 320.444 304.645 320.193 305.878C320.177 305.959 320.176 306.042 320.193 306.123C320.209 306.205 320.242 306.282 320.288 306.35C320.335 306.418 320.395 306.476 320.465 306.521C320.534 306.566 320.612 306.596 320.694 306.609H320.809ZM322.08 299.216C322.229 299.222 322.375 299.172 322.489 299.075C322.603 298.979 322.677 298.844 322.696 298.696C322.889 297.444 323.062 296.193 323.216 294.96C323.227 294.879 323.222 294.797 323.2 294.718C323.179 294.639 323.142 294.565 323.092 294.501C323.042 294.436 322.979 294.383 322.908 294.342C322.837 294.302 322.758 294.277 322.677 294.267C322.596 294.254 322.512 294.257 322.432 294.277C322.352 294.298 322.277 294.334 322.212 294.385C322.147 294.435 322.093 294.499 322.054 294.572C322.015 294.644 321.991 294.724 321.984 294.806C321.83 296.013 321.657 297.245 321.464 298.503C321.442 298.666 321.483 298.831 321.58 298.964C321.677 299.097 321.822 299.187 321.984 299.216H322.08ZM323.024 291.764C323.179 291.769 323.33 291.714 323.445 291.61C323.56 291.506 323.63 291.361 323.64 291.206C323.775 289.954 323.909 288.703 324.006 287.47C324.016 287.305 323.962 287.142 323.854 287.016C323.746 286.89 323.593 286.811 323.428 286.796C323.348 286.786 323.266 286.792 323.188 286.815C323.11 286.838 323.038 286.877 322.976 286.929C322.914 286.982 322.864 287.047 322.829 287.121C322.795 287.194 322.775 287.274 322.773 287.355C322.658 288.587 322.542 289.839 322.408 291.09C322.4 291.171 322.408 291.253 322.432 291.331C322.455 291.409 322.494 291.481 322.546 291.544C322.598 291.606 322.662 291.658 322.734 291.696C322.806 291.734 322.885 291.757 322.966 291.764H323.024ZM323.659 284.293C323.816 284.294 323.967 284.234 324.082 284.127C324.196 284.019 324.265 283.872 324.275 283.716C324.275 282.426 324.429 281.174 324.468 279.865C324.473 279.782 324.462 279.7 324.434 279.622C324.407 279.544 324.364 279.472 324.308 279.411C324.252 279.35 324.185 279.301 324.11 279.266C324.035 279.232 323.954 279.213 323.871 279.21C323.709 279.218 323.555 279.281 323.436 279.39C323.316 279.499 323.239 279.647 323.216 279.807C323.216 281.039 323.216 282.291 323.043 283.542C323.032 283.708 323.087 283.871 323.195 283.997C323.303 284.123 323.456 284.202 323.621 284.216L323.659 284.293ZM323.948 276.784C324.111 276.784 324.268 276.719 324.384 276.604C324.499 276.488 324.564 276.331 324.564 276.168C324.564 275.282 324.564 274.416 324.564 273.549V272.413C324.564 272.25 324.499 272.093 324.384 271.978C324.268 271.862 324.111 271.797 323.948 271.797C323.785 271.797 323.628 271.862 323.512 271.978C323.397 272.093 323.332 272.25 323.332 272.413V273.549C323.332 274.416 323.332 275.282 323.332 276.149C323.329 276.231 323.343 276.313 323.373 276.39C323.403 276.467 323.448 276.538 323.505 276.597C323.563 276.656 323.632 276.703 323.708 276.735C323.784 276.768 323.865 276.784 323.948 276.784ZM323.948 269.275C324.031 269.275 324.112 269.258 324.188 269.226C324.264 269.194 324.333 269.147 324.391 269.088C324.448 269.028 324.493 268.958 324.523 268.881C324.553 268.804 324.567 268.722 324.564 268.639C324.564 267.349 324.449 266.098 324.391 264.788C324.376 264.623 324.297 264.47 324.171 264.362C324.045 264.254 323.882 264.2 323.717 264.211C323.636 264.216 323.557 264.237 323.484 264.272C323.411 264.308 323.346 264.357 323.292 264.418C323.238 264.479 323.197 264.55 323.171 264.627C323.145 264.703 323.134 264.784 323.139 264.865C323.139 266.078 323.274 267.33 323.313 268.601C323.304 268.692 323.315 268.783 323.345 268.869C323.376 268.955 323.426 269.033 323.49 269.097C323.554 269.162 323.633 269.211 323.718 269.242C323.804 269.272 323.896 269.284 323.986 269.275H323.948ZM323.505 261.785C323.586 261.777 323.665 261.754 323.737 261.716C323.809 261.678 323.873 261.627 323.925 261.564C323.977 261.501 324.016 261.429 324.039 261.351C324.063 261.273 324.071 261.192 324.064 261.111C323.948 259.827 323.813 258.543 323.659 257.26C323.652 257.178 323.629 257.098 323.589 257.025C323.55 256.953 323.496 256.889 323.431 256.838C323.366 256.788 323.291 256.751 323.211 256.731C323.131 256.711 323.047 256.707 322.966 256.721C322.804 256.745 322.658 256.83 322.557 256.959C322.457 257.088 322.41 257.251 322.427 257.414C322.581 258.588 322.716 259.84 322.831 261.13C322.824 261.225 322.838 261.32 322.873 261.408C322.908 261.497 322.964 261.576 323.035 261.639C323.105 261.702 323.19 261.749 323.282 261.774C323.373 261.799 323.47 261.803 323.563 261.785H323.505ZM322.581 254.333C322.742 254.305 322.885 254.214 322.979 254.081C323.072 253.947 323.109 253.782 323.082 253.621L322.966 252.87C322.793 251.888 322.6 250.944 322.408 249.905C322.392 249.825 322.36 249.749 322.314 249.681C322.269 249.614 322.21 249.556 322.142 249.511C322.074 249.467 321.998 249.436 321.918 249.421C321.838 249.405 321.756 249.406 321.676 249.423C321.595 249.437 321.517 249.467 321.448 249.512C321.38 249.557 321.321 249.615 321.275 249.684C321.23 249.753 321.2 249.83 321.186 249.911C321.172 249.992 321.175 250.075 321.195 250.155C321.387 251.137 321.56 252.08 321.734 253.082L321.868 253.813C321.877 253.9 321.904 253.984 321.948 254.059C321.992 254.134 322.051 254.198 322.123 254.248C322.195 254.297 322.276 254.331 322.362 254.345C322.448 254.36 322.535 254.356 322.619 254.333H322.581ZM321.098 246.978H321.233C321.312 246.962 321.388 246.93 321.455 246.884C321.521 246.839 321.578 246.78 321.621 246.711C321.664 246.643 321.693 246.566 321.706 246.486C321.719 246.406 321.715 246.325 321.695 246.246C321.406 245.014 321.118 243.801 320.79 242.569C320.768 242.49 320.73 242.416 320.68 242.352C320.629 242.288 320.566 242.235 320.494 242.195C320.422 242.156 320.343 242.131 320.262 242.122C320.181 242.114 320.098 242.121 320.02 242.145C319.942 242.165 319.868 242.201 319.803 242.249C319.739 242.298 319.684 242.359 319.643 242.429C319.602 242.498 319.575 242.576 319.564 242.656C319.552 242.736 319.557 242.818 319.577 242.896C319.904 244.109 320.213 245.303 320.482 246.516C320.522 246.656 320.608 246.779 320.727 246.863C320.847 246.947 320.991 246.988 321.137 246.978H321.098ZM319.173 239.738H319.346C319.425 239.716 319.498 239.678 319.563 239.628C319.627 239.577 319.68 239.514 319.719 239.442C319.759 239.37 319.784 239.291 319.792 239.21C319.801 239.129 319.793 239.046 319.77 238.968C319.404 237.755 319.019 236.561 318.614 235.367C318.588 235.29 318.547 235.218 318.493 235.157C318.439 235.095 318.374 235.045 318.3 235.009C318.227 234.974 318.147 234.953 318.065 234.948C317.984 234.943 317.902 234.955 317.825 234.982C317.748 235.008 317.676 235.049 317.614 235.103C317.553 235.157 317.503 235.223 317.467 235.296C317.431 235.37 317.41 235.45 317.406 235.531C317.401 235.613 317.413 235.695 317.44 235.772C317.844 236.946 318.21 238.14 318.576 239.334C318.621 239.459 318.706 239.565 318.817 239.638C318.928 239.711 319.059 239.746 319.192 239.738H319.173ZM316.766 232.614C316.835 232.632 316.908 232.632 316.978 232.614C317.131 232.558 317.255 232.443 317.324 232.295C317.393 232.147 317.4 231.978 317.344 231.825C316.901 230.65 316.439 229.475 315.938 228.32C315.908 228.244 315.864 228.174 315.807 228.115C315.75 228.056 315.682 228.009 315.606 227.977C315.531 227.945 315.45 227.928 315.368 227.927C315.286 227.927 315.205 227.942 315.129 227.974C315.055 228.005 314.987 228.051 314.93 228.109C314.873 228.167 314.828 228.235 314.798 228.31C314.768 228.385 314.752 228.466 314.753 228.547C314.754 228.628 314.77 228.708 314.802 228.782C315.283 229.938 315.745 231.093 316.169 232.267C316.226 232.38 316.315 232.473 316.425 232.534C316.534 232.596 316.66 232.624 316.785 232.614H316.766ZM313.936 225.798C314.025 225.816 314.116 225.816 314.205 225.798C314.354 225.727 314.469 225.601 314.527 225.446C314.584 225.292 314.579 225.121 314.513 224.97C313.974 223.834 313.435 222.698 312.857 221.562C312.78 221.42 312.651 221.313 312.497 221.263C312.343 221.213 312.176 221.223 312.029 221.292C311.879 221.367 311.765 221.498 311.71 221.656C311.656 221.815 311.667 221.989 311.741 222.139C312.318 223.237 312.857 224.354 313.377 225.49C313.432 225.589 313.513 225.67 313.612 225.725C313.711 225.779 313.823 225.805 313.936 225.798ZM310.547 219.097C310.641 219.123 310.741 219.123 310.836 219.097C310.908 219.059 310.973 219.006 311.025 218.943C311.077 218.879 311.116 218.805 311.14 218.726C311.163 218.647 311.17 218.565 311.161 218.483C311.152 218.401 311.126 218.322 311.086 218.25C310.47 217.152 309.834 216.055 309.16 214.996C309.121 214.924 309.067 214.862 309.002 214.812C308.937 214.762 308.862 214.726 308.783 214.706C308.703 214.686 308.621 214.683 308.54 214.696C308.459 214.71 308.382 214.74 308.313 214.784C308.244 214.826 308.183 214.881 308.134 214.946C308.086 215.011 308.051 215.085 308.031 215.164C308.012 215.242 308.008 215.324 308.02 215.405C308.032 215.485 308.059 215.562 308.101 215.631C308.756 216.69 309.372 217.769 310.027 218.866C310.09 218.919 310.164 218.959 310.244 218.982C310.323 219.005 310.407 219.012 310.489 219.001L310.547 219.097ZM306.696 212.685C306.809 212.72 306.929 212.72 307.042 212.685C307.112 212.641 307.171 212.583 307.217 212.514C307.264 212.446 307.296 212.37 307.312 212.289C307.328 212.208 307.328 212.125 307.312 212.044C307.295 211.963 307.262 211.887 307.216 211.819C306.503 210.779 305.791 209.739 305.04 208.719C304.94 208.589 304.795 208.503 304.634 208.478C304.472 208.453 304.308 208.491 304.173 208.584C304.044 208.684 303.958 208.829 303.933 208.99C303.908 209.152 303.946 209.317 304.039 209.451C304.77 210.452 305.483 211.472 306.176 212.512C306.298 212.583 306.441 212.611 306.58 212.589L306.696 212.685ZM221.975 208.43H222.765C222.846 208.425 222.925 208.404 222.998 208.369C223.071 208.333 223.136 208.284 223.19 208.223C223.243 208.162 223.285 208.091 223.311 208.014C223.337 207.938 223.348 207.856 223.343 207.775C223.34 207.694 223.321 207.613 223.287 207.539C223.252 207.465 223.202 207.399 223.141 207.344C223.079 207.29 223.008 207.249 222.93 207.224C222.852 207.199 222.769 207.19 222.688 207.198C221.951 207.265 221.21 207.265 220.474 207.198C220.032 207.142 219.595 207.059 219.164 206.948C219.004 206.906 218.833 206.929 218.689 207.012C218.545 207.095 218.439 207.231 218.394 207.39C218.374 207.47 218.37 207.553 218.383 207.634C218.395 207.715 218.424 207.793 218.467 207.863C218.51 207.933 218.567 207.994 218.634 208.042C218.7 208.089 218.776 208.123 218.856 208.141C219.342 208.276 219.838 208.373 220.339 208.43C220.815 208.421 221.291 208.389 221.764 208.334L221.975 208.43ZM226.404 207.679H226.597C227.847 207.24 229.013 206.589 230.043 205.754C230.158 205.635 230.223 205.476 230.223 205.311C230.223 205.146 230.158 204.987 230.043 204.868C229.986 204.809 229.917 204.761 229.841 204.729C229.765 204.697 229.683 204.68 229.6 204.68C229.518 204.68 229.436 204.697 229.36 204.729C229.284 204.761 229.215 204.809 229.157 204.868C228.238 205.603 227.203 206.182 226.096 206.582C226.018 206.608 225.947 206.649 225.886 206.703C225.824 206.757 225.774 206.822 225.738 206.896C225.702 206.969 225.681 207.049 225.677 207.131C225.672 207.212 225.684 207.294 225.711 207.371C225.771 207.439 225.846 207.493 225.929 207.529C226.012 207.566 226.102 207.584 226.192 207.583L226.404 207.679ZM302.364 206.639C302.504 206.641 302.64 206.593 302.749 206.505C302.864 206.386 302.928 206.227 302.928 206.062C302.928 205.896 302.864 205.738 302.749 205.619C301.959 204.637 301.131 203.694 300.323 202.731C300.204 202.616 300.045 202.551 299.88 202.551C299.714 202.551 299.555 202.616 299.437 202.731C299.322 202.849 299.257 203.008 299.257 203.174C299.257 203.339 299.322 203.498 299.437 203.616C300.245 204.541 301.054 205.542 301.824 206.466C301.925 206.52 302.038 206.546 302.152 206.543L302.364 206.639ZM215.602 206.543C215.704 206.54 215.803 206.514 215.893 206.468C215.983 206.421 216.061 206.355 216.122 206.274C216.209 206.133 216.238 205.963 216.202 205.801C216.166 205.639 216.068 205.498 215.93 205.407C214.936 204.747 214.036 203.957 213.253 203.058C213.138 202.944 212.982 202.88 212.82 202.88C212.658 202.88 212.502 202.944 212.387 203.058C212.271 203.177 212.207 203.336 212.207 203.501C212.207 203.666 212.271 203.825 212.387 203.944C213.241 204.94 214.233 205.809 215.333 206.524C215.351 206.531 215.371 206.538 215.39 206.543H215.602ZM232.026 202.981C232.137 202.978 232.245 202.946 232.339 202.889C232.434 202.832 232.512 202.751 232.566 202.654C233.201 201.455 233.612 200.15 233.779 198.803C233.789 198.722 233.784 198.639 233.763 198.561C233.741 198.482 233.704 198.408 233.654 198.343C233.604 198.279 233.542 198.225 233.47 198.185C233.399 198.145 233.321 198.119 233.24 198.11C233.079 198.088 232.916 198.13 232.786 198.227C232.656 198.325 232.57 198.469 232.546 198.63C232.387 199.798 232.028 200.932 231.487 201.98C231.447 202.052 231.421 202.131 231.412 202.213C231.403 202.294 231.41 202.377 231.434 202.456C231.457 202.535 231.496 202.609 231.548 202.672C231.6 202.736 231.665 202.789 231.738 202.827C231.762 202.848 231.788 202.867 231.815 202.885L232.026 202.981ZM297.396 201.056C297.56 201.057 297.719 200.995 297.839 200.882C297.954 200.764 298.018 200.605 298.018 200.439C298.018 200.274 297.954 200.115 297.839 199.997C296.953 199.092 296.048 198.206 295.143 197.339C295.024 197.224 294.866 197.16 294.7 197.16C294.535 197.16 294.376 197.224 294.257 197.339C294.143 197.455 294.079 197.611 294.079 197.773C294.079 197.935 294.143 198.091 294.257 198.206C295.143 199.053 296.029 199.939 296.895 200.825C296.983 200.875 297.083 200.902 297.184 200.902L297.396 201.056ZM210.75 201.056C210.845 201.074 210.943 201.074 211.039 201.056C211.182 200.974 211.29 200.842 211.339 200.685C211.389 200.528 211.378 200.358 211.308 200.208C210.766 199.137 210.371 197.997 210.134 196.82C210.116 196.739 210.082 196.664 210.034 196.597C209.986 196.53 209.926 196.473 209.856 196.43C209.786 196.387 209.708 196.359 209.627 196.346C209.546 196.334 209.463 196.337 209.383 196.357C209.303 196.374 209.227 196.405 209.16 196.451C209.092 196.496 209.034 196.555 208.99 196.623C208.945 196.691 208.914 196.767 208.899 196.847C208.884 196.927 208.885 197.009 208.902 197.089C209.181 198.363 209.614 199.598 210.192 200.767C210.284 200.825 210.391 200.858 210.5 200.863L210.75 201.056ZM291.985 195.953C292.073 195.953 292.16 195.934 292.239 195.897C292.319 195.861 292.39 195.808 292.447 195.741C292.563 195.623 292.627 195.464 292.627 195.298C292.627 195.133 292.563 194.974 292.447 194.856L291.292 193.893L289.501 192.487C289.368 192.386 289.201 192.342 289.035 192.363C288.869 192.385 288.718 192.471 288.616 192.603C288.52 192.735 288.479 192.898 288.501 193.059C288.522 193.22 288.605 193.367 288.731 193.469L290.503 194.856L291.639 195.818C291.673 195.802 291.705 195.783 291.735 195.761L291.985 195.953ZM233.22 195.78C233.386 195.76 233.537 195.677 233.641 195.547C233.745 195.418 233.795 195.252 233.779 195.087C233.632 193.78 233.361 192.491 232.97 191.236C232.948 191.157 232.91 191.083 232.859 191.019C232.808 190.955 232.745 190.902 232.674 190.862C232.602 190.823 232.523 190.798 232.442 190.79C232.36 190.781 232.278 190.789 232.2 190.812C232.121 190.834 232.048 190.872 231.985 190.923C231.921 190.974 231.869 191.038 231.831 191.11C231.793 191.182 231.77 191.261 231.764 191.342C231.758 191.424 231.769 191.505 231.795 191.582C232.144 192.747 232.395 193.938 232.546 195.144C232.572 195.249 232.625 195.345 232.699 195.422C232.773 195.5 232.867 195.557 232.97 195.587L233.22 195.78ZM209.248 193.854C209.405 193.855 209.556 193.795 209.671 193.688C209.785 193.58 209.855 193.433 209.864 193.277C209.953 192.093 210.226 190.93 210.673 189.83C210.705 189.756 210.721 189.675 210.722 189.594C210.723 189.513 210.708 189.433 210.677 189.358C210.647 189.283 210.602 189.214 210.545 189.157C210.488 189.099 210.42 189.053 210.346 189.021C210.271 188.99 210.191 188.973 210.11 188.972C210.029 188.972 209.949 188.987 209.873 189.017C209.798 189.048 209.73 189.093 209.672 189.15C209.614 189.206 209.569 189.274 209.537 189.349C209.027 190.574 208.721 191.875 208.632 193.2C208.624 193.282 208.633 193.365 208.658 193.444C208.683 193.523 208.724 193.597 208.778 193.659C208.831 193.722 208.898 193.774 208.972 193.811C209.046 193.847 209.127 193.869 209.21 193.874L209.248 193.854ZM285.766 191.139C285.868 191.141 285.969 191.118 286.06 191.07C286.151 191.023 286.228 190.954 286.286 190.87C286.377 190.734 286.412 190.567 286.383 190.406C286.354 190.244 286.264 190.1 286.132 190.003C285.092 189.291 284.014 188.598 282.955 187.943C282.812 187.858 282.64 187.832 282.478 187.872C282.316 187.911 282.176 188.013 282.088 188.155C282.047 188.225 282.019 188.302 282.007 188.382C281.995 188.462 281.999 188.544 282.018 188.623C282.038 188.701 282.073 188.775 282.121 188.841C282.17 188.906 282.231 188.961 282.3 189.002C283.353 189.657 284.393 190.331 285.419 191.024C285.521 191.097 285.641 191.137 285.766 191.139ZM230.89 188.348C230.973 188.367 231.058 188.367 231.141 188.348C231.293 188.28 231.412 188.155 231.474 188.001C231.535 187.846 231.533 187.673 231.468 187.52C230.987 186.422 230.428 185.267 229.793 184.112C229.755 184.039 229.702 183.974 229.638 183.922C229.575 183.87 229.501 183.831 229.422 183.807C229.343 183.784 229.26 183.777 229.178 183.786C229.097 183.795 229.017 183.821 228.946 183.861C228.802 183.942 228.696 184.076 228.649 184.234C228.603 184.392 228.619 184.562 228.695 184.708C229.311 185.825 229.87 186.942 230.332 188.02C230.377 188.132 230.454 188.228 230.553 188.297C230.653 188.365 230.77 188.403 230.89 188.405V188.348ZM279.277 187.289C279.392 187.291 279.504 187.262 279.603 187.204C279.702 187.146 279.782 187.062 279.836 186.961C279.912 186.815 279.928 186.645 279.882 186.487C279.835 186.329 279.729 186.195 279.585 186.114C278.488 185.517 277.352 184.939 276.216 184.381C276.142 184.345 276.063 184.324 275.981 184.319C275.9 184.314 275.818 184.326 275.741 184.353C275.664 184.379 275.594 184.421 275.533 184.476C275.472 184.53 275.423 184.596 275.388 184.67C275.352 184.743 275.331 184.823 275.326 184.904C275.321 184.986 275.332 185.067 275.359 185.144C275.386 185.221 275.428 185.292 275.483 185.353C275.537 185.414 275.603 185.463 275.677 185.498C276.793 186.037 277.91 186.615 278.988 187.212C279.075 187.264 279.176 187.291 279.277 187.289ZM211.732 186.807C211.824 186.806 211.915 186.785 211.998 186.745C212.081 186.705 212.155 186.647 212.213 186.576C212.992 185.665 213.87 184.845 214.832 184.131C214.9 184.085 214.959 184.025 215.003 183.956C215.047 183.886 215.076 183.808 215.089 183.727C215.102 183.646 215.097 183.563 215.076 183.483C215.055 183.403 215.018 183.329 214.967 183.264C214.921 183.196 214.861 183.138 214.792 183.094C214.722 183.049 214.644 183.02 214.563 183.007C214.482 182.995 214.399 182.999 214.319 183.02C214.239 183.041 214.165 183.078 214.1 183.13C213.052 183.904 212.096 184.795 211.251 185.787C211.141 185.904 211.08 186.059 211.08 186.22C211.08 186.381 211.141 186.536 211.251 186.653C211.336 186.729 211.439 186.781 211.55 186.805C211.662 186.829 211.778 186.823 211.886 186.788L211.732 186.807ZM272.538 184.015C272.66 184.01 272.779 183.971 272.88 183.903C272.982 183.835 273.063 183.741 273.116 183.63C273.147 183.556 273.164 183.475 273.165 183.394C273.166 183.313 273.15 183.233 273.12 183.158C273.089 183.083 273.045 183.014 272.988 182.957C272.931 182.899 272.863 182.853 272.788 182.821C271.614 182.321 270.439 181.859 269.265 181.416C269.109 181.359 268.937 181.366 268.786 181.434C268.635 181.503 268.517 181.627 268.456 181.782C268.401 181.94 268.41 182.114 268.482 182.265C268.554 182.417 268.683 182.534 268.841 182.59C269.997 183.014 271.152 183.476 272.288 183.957C272.397 184.005 272.518 184.018 272.634 183.996L272.538 184.015ZM217.682 182.321C217.769 182.349 217.864 182.349 217.951 182.321C219.054 181.789 220.185 181.32 221.34 180.915C221.418 180.889 221.489 180.848 221.551 180.794C221.612 180.74 221.662 180.675 221.698 180.601C221.734 180.528 221.755 180.448 221.759 180.366C221.764 180.285 221.752 180.203 221.725 180.126C221.699 180.048 221.658 179.977 221.604 179.915C221.55 179.854 221.485 179.804 221.411 179.768C221.338 179.732 221.258 179.711 221.176 179.707C221.095 179.702 221.013 179.713 220.936 179.741C219.728 180.161 218.545 180.65 217.393 181.204C217.246 181.282 217.136 181.414 217.085 181.573C217.035 181.731 217.048 181.903 217.123 182.051C217.194 182.155 217.295 182.234 217.412 182.279C217.529 182.323 217.656 182.331 217.778 182.302L217.682 182.321ZM227.309 181.801C227.426 181.808 227.542 181.774 227.636 181.705C227.706 181.663 227.767 181.608 227.815 181.543C227.863 181.477 227.897 181.402 227.915 181.323C227.933 181.243 227.935 181.161 227.92 181.081C227.905 181.001 227.874 180.925 227.829 180.858C227.521 180.357 227.194 179.876 226.866 179.356L228.58 179.009C228.741 178.981 228.884 178.89 228.977 178.756C229.071 178.623 229.108 178.457 229.08 178.297C229.067 178.215 229.037 178.137 228.992 178.067C228.947 177.998 228.889 177.938 228.821 177.891C228.753 177.844 228.676 177.812 228.594 177.796C228.513 177.779 228.43 177.779 228.349 177.796C227.598 177.931 226.847 178.085 226.115 178.258L225.73 177.719C225.684 177.651 225.625 177.594 225.556 177.549C225.487 177.505 225.41 177.474 225.329 177.46C225.249 177.446 225.166 177.448 225.086 177.466C225.006 177.484 224.93 177.517 224.864 177.565C224.796 177.611 224.738 177.671 224.694 177.739C224.649 177.808 224.619 177.885 224.605 177.966C224.59 178.047 224.592 178.129 224.61 178.209C224.628 178.289 224.662 178.365 224.71 178.431L224.806 178.566H224.652C224.491 178.611 224.354 178.716 224.268 178.86C224.182 179.003 224.154 179.173 224.19 179.336C224.239 179.494 224.345 179.626 224.488 179.708C224.631 179.791 224.799 179.816 224.96 179.779L225.557 179.644C226 180.261 226.404 180.896 226.789 181.57C226.85 181.642 226.927 181.699 227.014 181.736C227.101 181.773 227.196 181.789 227.29 181.782L227.309 181.801ZM265.549 181.397C265.681 181.402 265.812 181.364 265.92 181.287C266.028 181.21 266.107 181.1 266.146 180.973C266.194 180.815 266.18 180.644 266.104 180.496C266.028 180.349 265.898 180.236 265.741 180.184C264.547 179.818 263.315 179.452 262.102 179.144C262.024 179.121 261.941 179.114 261.86 179.124C261.779 179.134 261.701 179.161 261.631 179.202C261.56 179.244 261.499 179.299 261.451 179.366C261.403 179.432 261.369 179.507 261.351 179.587C261.331 179.665 261.326 179.747 261.338 179.827C261.349 179.907 261.376 179.984 261.417 180.054C261.458 180.124 261.513 180.185 261.577 180.233C261.642 180.282 261.716 180.317 261.794 180.338C262.988 180.646 264.182 181.012 265.375 181.377L265.549 181.397ZM258.309 179.471C258.452 179.473 258.591 179.424 258.7 179.332C258.81 179.24 258.883 179.112 258.906 178.971C258.923 178.891 258.924 178.809 258.909 178.729C258.893 178.649 258.863 178.572 258.818 178.504C258.773 178.436 258.715 178.378 258.648 178.332C258.58 178.287 258.504 178.255 258.424 178.239C257.192 177.969 255.941 177.738 254.708 177.546C254.547 177.518 254.382 177.555 254.249 177.649C254.115 177.742 254.024 177.886 253.996 178.046C253.979 178.128 253.98 178.212 253.998 178.293C254.015 178.374 254.05 178.45 254.099 178.517C254.148 178.584 254.21 178.64 254.282 178.682C254.354 178.724 254.433 178.75 254.516 178.759C255.729 178.971 256.961 179.202 258.174 179.452L258.309 179.471ZM232.18 178.412C233.393 178.239 234.645 178.104 235.877 178.008C236.043 177.993 236.195 177.914 236.303 177.788C236.411 177.663 236.466 177.499 236.455 177.334C236.448 177.253 236.424 177.174 236.387 177.102C236.349 177.03 236.297 176.966 236.234 176.914C236.172 176.862 236.099 176.823 236.022 176.8C235.944 176.776 235.862 176.768 235.781 176.776C234.529 176.776 233.259 177.007 231.93 177.18C231.85 177.189 231.772 177.215 231.702 177.255C231.631 177.296 231.57 177.35 231.521 177.415C231.472 177.48 231.438 177.554 231.419 177.632C231.399 177.711 231.397 177.793 231.41 177.873C231.417 177.966 231.445 178.057 231.493 178.138C231.54 178.219 231.605 178.288 231.683 178.34C231.761 178.392 231.85 178.426 231.943 178.438C232.036 178.451 232.13 178.442 232.219 178.412H232.18ZM250.896 178.258C251.05 178.259 251.198 178.202 251.312 178.099C251.426 177.995 251.498 177.853 251.512 177.7C251.528 177.539 251.481 177.379 251.38 177.253C251.279 177.127 251.133 177.045 250.973 177.026C249.721 176.872 248.451 176.756 247.122 176.679C247.041 176.674 246.96 176.685 246.883 176.711C246.806 176.737 246.736 176.778 246.675 176.832C246.614 176.886 246.564 176.951 246.529 177.024C246.493 177.097 246.472 177.176 246.467 177.257C246.459 177.338 246.468 177.421 246.494 177.499C246.519 177.577 246.56 177.648 246.614 177.71C246.668 177.771 246.734 177.821 246.808 177.856C246.883 177.89 246.963 177.909 247.045 177.912C248.277 178.008 249.529 178.104 250.742 178.258H250.896ZM239.651 177.796C240.903 177.796 242.135 177.796 243.387 177.796C243.467 177.799 243.546 177.785 243.621 177.756C243.696 177.727 243.764 177.684 243.821 177.628C243.879 177.572 243.924 177.506 243.956 177.432C243.987 177.358 244.003 177.279 244.003 177.199C244.005 177.118 243.992 177.038 243.963 176.962C243.935 176.886 243.891 176.817 243.836 176.758C243.781 176.699 243.714 176.651 243.64 176.618C243.566 176.585 243.487 176.566 243.406 176.564C242.135 176.564 240.884 176.564 239.555 176.564C239.472 176.566 239.391 176.585 239.316 176.62C239.241 176.654 239.173 176.703 239.118 176.765C239.062 176.826 239.019 176.897 238.992 176.975C238.964 177.053 238.953 177.136 238.958 177.218C238.962 177.307 238.985 177.393 239.025 177.472C239.066 177.551 239.122 177.62 239.192 177.675C239.261 177.729 239.342 177.769 239.428 177.79C239.513 177.81 239.603 177.813 239.69 177.796H239.651ZM222.996 175.659C223.136 175.66 223.272 175.613 223.381 175.524C223.495 175.409 223.559 175.253 223.559 175.091C223.559 174.929 223.495 174.773 223.381 174.658C222.611 173.656 221.802 172.732 220.993 171.712C220.878 171.598 220.723 171.534 220.56 171.534C220.398 171.534 220.242 171.598 220.127 171.712C220.012 171.83 219.947 171.989 219.947 172.154C219.947 172.32 220.012 172.479 220.127 172.597C220.917 173.522 221.725 174.523 222.476 175.466C222.537 175.556 222.621 175.629 222.719 175.676C222.817 175.724 222.926 175.744 223.034 175.736L222.996 175.659ZM218.105 169.882C218.184 169.883 218.262 169.868 218.334 169.838C218.407 169.808 218.473 169.764 218.529 169.709C218.588 169.653 218.635 169.586 218.667 169.512C218.699 169.437 218.715 169.357 218.715 169.276C218.715 169.195 218.699 169.115 218.667 169.04C218.635 168.966 218.588 168.898 218.529 168.843C217.662 167.918 216.757 167.033 215.833 166.186C215.777 166.127 215.71 166.08 215.636 166.048C215.561 166.016 215.481 165.999 215.4 165.999C215.319 165.999 215.239 166.016 215.164 166.048C215.09 166.08 215.023 166.127 214.967 166.186C214.907 166.243 214.86 166.312 214.828 166.388C214.796 166.464 214.779 166.546 214.779 166.628C214.779 166.711 214.796 166.793 214.828 166.869C214.86 166.945 214.907 167.014 214.967 167.071C215.872 167.899 216.757 168.785 217.624 169.671C217.675 169.763 217.75 169.839 217.842 169.89C217.934 169.941 218.039 169.965 218.144 169.959L218.105 169.882ZM212.618 164.78C212.8 164.775 212.973 164.699 213.099 164.568C213.214 164.45 213.279 164.291 213.279 164.125C213.279 163.96 213.214 163.801 213.099 163.682C212.117 162.874 211.174 162.104 210.095 161.372C210.029 161.324 209.953 161.29 209.873 161.272C209.793 161.254 209.71 161.253 209.63 161.267C209.549 161.281 209.472 161.312 209.403 161.356C209.335 161.4 209.275 161.458 209.229 161.526C209.18 161.591 209.145 161.666 209.126 161.745C209.106 161.824 209.103 161.907 209.115 161.987C209.128 162.068 209.156 162.145 209.199 162.215C209.242 162.284 209.298 162.345 209.364 162.392C210.365 163.111 211.347 163.862 212.31 164.645C212.397 164.754 212.52 164.829 212.656 164.857L212.618 164.78ZM206.514 160.428C206.618 160.428 206.72 160.401 206.811 160.351C206.902 160.3 206.979 160.228 207.034 160.14C207.121 159.999 207.15 159.829 207.114 159.667C207.078 159.505 206.98 159.364 206.841 159.273C205.763 158.618 204.646 157.983 203.53 157.348C203.381 157.273 203.209 157.259 203.051 157.31C202.893 157.36 202.76 157.47 202.682 157.617C202.608 157.763 202.595 157.932 202.646 158.087C202.696 158.242 202.806 158.371 202.952 158.445C204.049 159.023 205.128 159.639 206.187 160.371C206.236 160.416 206.293 160.452 206.356 160.475C206.419 160.498 206.486 160.509 206.553 160.505L206.514 160.428ZM199.852 156.963C199.974 156.965 200.093 156.932 200.196 156.867C200.299 156.802 200.38 156.708 200.43 156.597C200.461 156.522 200.478 156.442 200.479 156.361C200.479 156.28 200.464 156.2 200.434 156.124C200.403 156.049 200.358 155.981 200.301 155.923C200.245 155.865 200.177 155.82 200.102 155.788C198.947 155.287 197.753 154.825 196.559 154.402C196.482 154.374 196.401 154.363 196.319 154.368C196.237 154.372 196.157 154.393 196.084 154.429C196.011 154.465 195.945 154.515 195.891 154.576C195.837 154.638 195.796 154.709 195.77 154.787C195.743 154.864 195.731 154.946 195.736 155.027C195.74 155.109 195.761 155.189 195.797 155.262C195.833 155.336 195.883 155.401 195.945 155.455C196.006 155.509 196.078 155.55 196.155 155.576C197.31 155.981 198.485 156.443 199.602 156.924C199.686 156.987 199.786 157.026 199.891 157.04L199.852 156.963ZM151.908 155.422H152.043L155.701 154.652C155.783 154.638 155.861 154.608 155.93 154.563C156 154.519 156.06 154.461 156.107 154.392C156.153 154.324 156.186 154.247 156.202 154.166C156.219 154.085 156.218 154.001 156.202 153.92C156.165 153.762 156.068 153.623 155.932 153.533C155.796 153.444 155.631 153.41 155.47 153.439C154.238 153.67 153.006 153.94 151.773 154.209C151.614 154.246 151.476 154.343 151.386 154.479C151.297 154.615 151.263 154.78 151.292 154.941C151.315 155.097 151.394 155.24 151.515 155.343C151.635 155.445 151.788 155.501 151.946 155.499L151.908 155.422ZM192.766 154.498C192.906 154.502 193.043 154.459 193.155 154.375C193.267 154.291 193.348 154.171 193.382 154.036C193.403 153.957 193.407 153.876 193.396 153.796C193.385 153.715 193.358 153.638 193.317 153.569C193.275 153.499 193.221 153.438 193.156 153.389C193.092 153.341 193.018 153.305 192.939 153.285C191.726 152.958 190.494 152.65 189.243 152.399C189.079 152.371 188.912 152.407 188.775 152.501C188.638 152.594 188.544 152.738 188.511 152.9C188.482 153.06 188.516 153.226 188.605 153.362C188.695 153.498 188.834 153.595 188.992 153.631C190.225 153.863 191.438 154.151 192.612 154.479L192.766 154.498ZM159.263 153.959H159.379C160.662 153.741 161.895 153.548 163.076 153.381C163.238 153.353 163.382 153.263 163.479 153.13C163.576 152.997 163.618 152.832 163.595 152.669C163.586 152.588 163.561 152.51 163.52 152.44C163.48 152.37 163.426 152.308 163.361 152.26C163.296 152.211 163.222 152.176 163.143 152.157C163.064 152.138 162.982 152.135 162.902 152.149C161.651 152.322 160.418 152.515 159.167 152.727C159.006 152.755 158.863 152.846 158.769 152.979C158.675 153.113 158.638 153.278 158.666 153.439C158.666 153.521 158.683 153.602 158.715 153.677C158.748 153.752 158.795 153.819 158.855 153.875C158.914 153.931 158.985 153.974 159.062 154.002C159.138 154.03 159.22 154.041 159.302 154.036L159.263 153.959ZM185.43 153.015C185.58 153.013 185.724 152.957 185.837 152.858C185.95 152.76 186.024 152.624 186.046 152.476C186.057 152.395 186.052 152.313 186.03 152.234C186.009 152.155 185.972 152.081 185.922 152.017C185.872 151.952 185.809 151.898 185.738 151.858C185.667 151.818 185.588 151.793 185.507 151.783C184.275 151.61 183.004 151.475 181.656 151.379C181.576 151.371 181.496 151.379 181.419 151.403C181.342 151.427 181.271 151.466 181.21 151.519C181.149 151.571 181.099 151.635 181.063 151.707C181.027 151.778 181.007 151.857 181.002 151.937C180.994 152.018 181.002 152.1 181.026 152.178C181.05 152.255 181.088 152.328 181.14 152.39C181.192 152.453 181.256 152.505 181.328 152.543C181.4 152.581 181.479 152.604 181.56 152.611C182.812 152.707 184.063 152.842 185.257 153.015H185.43ZM166.696 152.919C167.928 152.784 169.179 152.688 170.412 152.592C170.493 152.587 170.572 152.566 170.645 152.53C170.718 152.495 170.783 152.445 170.836 152.384C170.89 152.324 170.931 152.253 170.957 152.176C170.984 152.099 170.995 152.018 170.989 151.937C170.984 151.854 170.963 151.773 170.926 151.699C170.89 151.625 170.838 151.559 170.775 151.505C170.712 151.451 170.639 151.41 170.56 151.385C170.481 151.36 170.398 151.352 170.315 151.359C169.064 151.359 167.812 151.552 166.464 151.687C166.383 151.694 166.305 151.717 166.233 151.755C166.161 151.793 166.097 151.845 166.045 151.907C165.993 151.97 165.954 152.042 165.93 152.12C165.906 152.198 165.898 152.28 165.906 152.361C165.896 152.464 165.913 152.569 165.955 152.665C165.996 152.76 166.062 152.844 166.144 152.907C166.227 152.971 166.325 153.012 166.428 153.028C166.531 153.043 166.636 153.032 166.734 152.996L166.696 152.919ZM177.94 152.418C178.102 152.419 178.258 152.357 178.376 152.246C178.495 152.135 178.566 151.983 178.576 151.822C178.578 151.739 178.564 151.657 178.534 151.58C178.505 151.503 178.46 151.433 178.402 151.373C178.345 151.314 178.276 151.267 178.2 151.235C178.124 151.203 178.042 151.186 177.959 151.186C176.708 151.186 175.437 151.186 174.109 151.186C174.026 151.186 173.944 151.203 173.868 151.235C173.792 151.267 173.723 151.314 173.666 151.373C173.608 151.433 173.563 151.503 173.534 151.58C173.504 151.657 173.49 151.739 173.492 151.822C173.497 151.982 173.564 152.133 173.679 152.245C173.794 152.356 173.948 152.419 174.109 152.418H177.863H177.94Z" fill="#999999"/>
<path d="M81.7437 52.2378L76.314 54.5868L54.614 39.4527L48.8376 42.649C44.1972 45.4216 39.6917 45.6142 37.5351 44.3819L37.0922 44.5937C33.7419 46.0571 31.7587 44.7477 31.0848 43.1688C30.4109 41.5899 30.796 39.3179 34.1463 37.816L34.5891 37.6235C34.9935 35.698 36.7457 32.4633 43.5811 30.5571L49.8773 28.5353L53.7282 2.36828L59.158 0L63.3748 24.2416L78.894 18.9273L81.2431 12.708L85.5562 11.1099L85.8642 16.8863L87.4045 16.7515L88.8102 19.967L87.6548 21.103L91.7368 25.3391L87.6164 27.3993L81.4935 24.8577L66.9947 32.5596L81.7437 52.2378ZM81.3394 23.4521L87.5009 26.013L89.4264 25.0117L85.691 21.1608L87.0965 19.736L86.4418 18.2149L84.5163 18.3881L84.2276 12.9969L82.1288 13.767L79.7798 20.0055L62.2196 25.9937L58.0412 1.90619L54.7872 3.3118L51.0326 29.5751L43.9277 31.8471C37.3041 33.6763 35.9947 36.6415 35.8022 38.2396V38.644L35.4171 38.7788C35.1724 38.8484 34.9341 38.9386 34.7046 39.0484C32.6444 39.9341 31.7202 41.3396 32.3171 42.6875C32.914 44.0353 34.5506 44.3434 36.6108 43.4384C36.8427 43.3448 37.0679 43.2354 37.2848 43.1111L37.6507 42.8993L37.9972 43.1496C39.4028 44.1894 43.5041 44.3819 48.2407 41.5707L54.7102 37.9508L76.4679 53.1427L79.722 51.7372L64.973 32.2129L81.3394 23.4521Z" fill="#999999"/>
<path d="M268.09 213.841C268.194 213.842 268.297 213.816 268.389 213.766C268.48 213.715 268.556 213.641 268.61 213.552C269.303 212.499 269.945 211.44 270.535 210.375C270.623 210.234 270.651 210.065 270.616 209.903C270.58 209.741 270.482 209.599 270.343 209.509C270.2 209.423 270.028 209.397 269.866 209.437C269.704 209.477 269.564 209.578 269.476 209.72C268.822 210.779 268.167 211.819 267.551 212.878C267.504 212.946 267.472 213.023 267.455 213.103C267.439 213.184 267.438 213.267 267.455 213.348C267.471 213.429 267.503 213.505 267.549 213.574C267.596 213.642 267.655 213.7 267.724 213.745C267.837 213.806 267.962 213.839 268.09 213.841ZM271.941 207.448C272.05 207.447 272.156 207.419 272.251 207.365C272.345 207.311 272.424 207.233 272.48 207.14C273.096 206.043 273.712 204.945 274.406 203.848C274.483 203.704 274.503 203.536 274.46 203.378C274.417 203.22 274.315 203.085 274.175 203.001C274.028 202.924 273.858 202.908 273.7 202.954C273.542 203.001 273.408 203.107 273.327 203.251C272.73 204.348 272.114 205.427 271.498 206.505C271.413 206.648 271.387 206.819 271.427 206.981C271.466 207.144 271.568 207.284 271.71 207.371C271.81 207.426 271.923 207.453 272.037 207.448H271.941ZM275.522 200.863C275.638 200.862 275.751 200.829 275.85 200.768C275.948 200.707 276.028 200.62 276.081 200.517C276.658 199.4 277.217 198.264 277.756 197.147C277.792 197.074 277.813 196.994 277.818 196.913C277.823 196.831 277.811 196.75 277.785 196.673C277.758 196.596 277.716 196.525 277.661 196.464C277.607 196.403 277.541 196.354 277.467 196.319C277.394 196.283 277.314 196.262 277.233 196.257C277.151 196.252 277.07 196.264 276.993 196.291C276.916 196.317 276.845 196.359 276.784 196.414C276.723 196.468 276.674 196.534 276.639 196.608C276.1 197.725 275.542 198.842 274.964 199.958C274.928 200.032 274.907 200.111 274.902 200.193C274.897 200.274 274.908 200.356 274.935 200.433C274.962 200.51 275.004 200.581 275.059 200.641C275.113 200.702 275.179 200.751 275.253 200.786C275.304 200.825 275.364 200.852 275.427 200.865C275.49 200.879 275.556 200.878 275.619 200.863H275.522ZM278.776 194.086C278.897 194.084 279.015 194.049 279.117 193.984C279.219 193.92 279.301 193.828 279.354 193.72L280.856 190.273C280.92 190.117 280.919 189.943 280.854 189.788C280.789 189.632 280.665 189.509 280.509 189.445C280.356 189.388 280.186 189.391 280.035 189.456C279.885 189.521 279.765 189.641 279.701 189.792C279.219 190.928 278.719 192.064 278.218 193.219C278.183 193.292 278.163 193.372 278.16 193.452C278.157 193.533 278.17 193.614 278.199 193.69C278.227 193.765 278.271 193.834 278.328 193.892C278.384 193.951 278.451 193.997 278.526 194.028C278.633 194.081 278.754 194.102 278.873 194.086H278.776ZM281.684 187.173C281.807 187.172 281.927 187.135 282.03 187.067C282.133 186.998 282.213 186.901 282.261 186.788C282.724 185.594 283.166 184.42 283.609 183.245C283.637 183.168 283.648 183.086 283.644 183.005C283.639 182.923 283.618 182.843 283.582 182.77C283.546 182.696 283.496 182.631 283.435 182.577C283.373 182.523 283.302 182.482 283.224 182.456C283.071 182.405 282.904 182.414 282.757 182.482C282.61 182.55 282.495 182.672 282.435 182.822C282.011 183.996 281.568 185.151 281.106 186.326C281.048 186.479 281.052 186.649 281.117 186.8C281.182 186.951 281.302 187.071 281.453 187.135L281.684 187.173ZM284.264 180.126C284.392 180.124 284.517 180.083 284.621 180.007C284.724 179.931 284.802 179.824 284.842 179.702C285.265 178.509 285.65 177.315 286.016 176.121C286.065 175.963 286.05 175.792 285.975 175.644C285.899 175.497 285.769 175.385 285.612 175.332C285.453 175.283 285.282 175.298 285.135 175.373C284.987 175.449 284.875 175.579 284.822 175.736C284.457 176.93 284.071 178.104 283.667 179.298C283.618 179.456 283.633 179.628 283.709 179.775C283.784 179.923 283.914 180.035 284.071 180.088L284.264 180.126ZM286.498 172.963C286.633 172.96 286.765 172.914 286.872 172.831C286.979 172.747 287.057 172.632 287.094 172.501C287.441 171.288 287.788 170.075 288.096 168.881C288.137 168.721 288.114 168.55 288.031 168.406C287.948 168.262 287.813 168.156 287.653 168.111C287.574 168.091 287.493 168.086 287.413 168.098C287.332 168.109 287.255 168.136 287.186 168.177C287.116 168.218 287.055 168.273 287.006 168.337C286.957 168.402 286.922 168.476 286.902 168.554C286.575 169.748 286.247 170.961 285.901 172.155C285.877 172.233 285.869 172.315 285.878 172.397C285.887 172.478 285.911 172.557 285.951 172.629C285.99 172.7 286.044 172.763 286.108 172.814C286.172 172.865 286.245 172.903 286.324 172.925L286.498 172.963ZM288.423 165.704C288.561 165.7 288.694 165.651 288.802 165.564C288.91 165.477 288.986 165.357 289.02 165.223C289.309 163.991 289.597 162.758 289.848 161.545C289.868 161.467 289.871 161.385 289.859 161.305C289.846 161.225 289.817 161.149 289.774 161.08C289.731 161.012 289.674 160.953 289.607 160.907C289.54 160.861 289.465 160.829 289.386 160.814C289.306 160.794 289.223 160.79 289.142 160.802C289.061 160.815 288.983 160.843 288.913 160.887C288.843 160.93 288.782 160.986 288.735 161.053C288.687 161.12 288.653 161.196 288.635 161.276C288.384 162.489 288.096 163.702 287.807 164.934C287.772 165.095 287.8 165.263 287.886 165.403C287.973 165.543 288.11 165.644 288.269 165.685L288.423 165.704ZM290.002 158.349C290.147 158.352 290.289 158.303 290.401 158.211C290.514 158.12 290.591 157.991 290.618 157.848C290.849 156.616 291.08 155.384 291.292 154.152C291.32 153.991 291.283 153.825 291.189 153.692C291.095 153.558 290.952 153.467 290.791 153.439C290.71 153.422 290.627 153.422 290.546 153.439C290.464 153.455 290.387 153.487 290.319 153.534C290.251 153.581 290.193 153.641 290.148 153.711C290.104 153.78 290.073 153.858 290.06 153.94C289.848 155.153 289.636 156.385 289.386 157.617C289.369 157.698 289.369 157.782 289.385 157.863C289.401 157.944 289.434 158.021 289.481 158.089C289.527 158.158 289.587 158.216 289.657 158.261C289.727 158.305 289.805 158.335 289.886 158.349H290.002ZM291.273 150.955C291.422 150.961 291.568 150.911 291.682 150.815C291.796 150.719 291.87 150.583 291.889 150.435C292.081 149.184 292.255 147.932 292.409 146.7C292.419 146.619 292.414 146.537 292.393 146.458C292.371 146.379 292.334 146.305 292.284 146.241C292.234 146.176 292.172 146.122 292.1 146.082C292.029 146.042 291.951 146.016 291.87 146.007C291.788 145.993 291.705 145.997 291.625 146.017C291.545 146.037 291.47 146.074 291.405 146.124C291.34 146.175 291.286 146.239 291.246 146.311C291.207 146.384 291.183 146.464 291.176 146.546C291.022 147.753 290.849 148.985 290.656 150.243C290.634 150.406 290.676 150.571 290.773 150.704C290.87 150.837 291.014 150.927 291.176 150.955H291.273ZM292.216 143.504C292.371 143.509 292.522 143.454 292.637 143.35C292.752 143.245 292.822 143.1 292.832 142.945C292.967 141.694 293.102 140.442 293.198 139.21C293.209 139.044 293.154 138.881 293.046 138.755C292.939 138.63 292.786 138.551 292.62 138.536C292.54 138.525 292.458 138.531 292.38 138.554C292.302 138.577 292.23 138.616 292.168 138.669C292.107 138.722 292.057 138.787 292.022 138.86C291.987 138.933 291.968 139.013 291.966 139.094C291.85 140.327 291.735 141.578 291.6 142.83C291.592 142.911 291.6 142.993 291.624 143.07C291.648 143.148 291.687 143.221 291.739 143.283C291.791 143.346 291.854 143.398 291.926 143.435C291.999 143.473 292.077 143.497 292.158 143.504H292.216ZM292.852 136.033C293.008 136.033 293.16 135.974 293.274 135.866C293.389 135.759 293.458 135.612 293.468 135.455C293.468 134.165 293.622 132.914 293.66 131.604C293.665 131.522 293.654 131.439 293.627 131.361C293.599 131.283 293.556 131.212 293.501 131.151C293.445 131.089 293.377 131.04 293.302 131.006C293.227 130.971 293.146 130.952 293.063 130.95C292.902 130.957 292.748 131.021 292.628 131.13C292.509 131.239 292.431 131.386 292.409 131.547C292.409 132.779 292.409 134.03 292.235 135.282C292.225 135.448 292.279 135.611 292.387 135.737C292.495 135.862 292.648 135.941 292.813 135.956L292.852 136.033ZM293.14 128.524C293.304 128.524 293.46 128.459 293.576 128.343C293.692 128.228 293.757 128.071 293.757 127.908C293.757 127.022 293.757 126.155 293.757 125.289V124.153C293.757 123.989 293.692 123.833 293.576 123.717C293.46 123.602 293.304 123.537 293.14 123.537C292.977 123.537 292.82 123.602 292.705 123.717C292.589 123.833 292.524 123.989 292.524 124.153V125.289C292.524 126.155 292.524 127.022 292.524 127.888C292.522 127.971 292.536 128.053 292.565 128.13C292.595 128.207 292.64 128.277 292.698 128.336C292.755 128.396 292.824 128.443 292.9 128.475C292.976 128.507 293.058 128.524 293.14 128.524ZM293.14 121.014C293.223 121.014 293.305 120.998 293.381 120.966C293.457 120.934 293.525 120.886 293.583 120.827C293.64 120.768 293.685 120.698 293.715 120.621C293.745 120.544 293.759 120.461 293.757 120.379C293.757 119.089 293.641 117.837 293.583 116.528C293.568 116.363 293.49 116.21 293.364 116.102C293.238 115.994 293.075 115.94 292.909 115.95C292.828 115.955 292.749 115.976 292.676 116.012C292.603 116.047 292.538 116.097 292.484 116.158C292.431 116.219 292.39 116.289 292.363 116.366C292.337 116.443 292.326 116.524 292.332 116.605C292.332 117.818 292.466 119.07 292.505 120.34C292.496 120.431 292.507 120.523 292.538 120.609C292.569 120.694 292.618 120.772 292.682 120.837C292.747 120.901 292.825 120.951 292.911 120.981C292.997 121.012 293.088 121.023 293.179 121.014H293.14ZM292.697 113.524C292.778 113.517 292.857 113.494 292.929 113.456C293.001 113.418 293.065 113.366 293.117 113.304C293.169 113.241 293.208 113.169 293.232 113.091C293.256 113.013 293.264 112.931 293.256 112.85C293.14 111.567 293.006 110.283 292.852 108.999C292.845 108.917 292.821 108.837 292.782 108.765C292.742 108.692 292.688 108.629 292.623 108.578C292.558 108.527 292.483 108.491 292.403 108.47C292.323 108.45 292.24 108.447 292.158 108.46C291.997 108.484 291.85 108.57 291.75 108.699C291.649 108.828 291.603 108.991 291.619 109.154C291.773 110.328 291.908 111.58 292.024 112.87C292.016 112.964 292.03 113.06 292.066 113.148C292.101 113.236 292.156 113.315 292.227 113.379C292.298 113.442 292.382 113.488 292.474 113.513C292.566 113.539 292.662 113.542 292.755 113.524H292.697ZM291.773 106.073C291.934 106.045 292.077 105.954 292.171 105.82C292.265 105.687 292.302 105.521 292.274 105.36L292.158 104.609C291.985 103.627 291.793 102.684 291.6 101.644C291.584 101.564 291.552 101.489 291.507 101.421C291.461 101.353 291.403 101.296 291.335 101.251C291.267 101.206 291.19 101.175 291.11 101.16C291.03 101.145 290.948 101.146 290.868 101.163C290.787 101.176 290.71 101.207 290.641 101.251C290.572 101.296 290.513 101.355 290.468 101.424C290.423 101.492 290.392 101.57 290.378 101.651C290.364 101.732 290.367 101.815 290.387 101.895C290.58 102.876 290.753 103.82 290.926 104.821L291.061 105.553C291.069 105.64 291.096 105.723 291.14 105.798C291.184 105.873 291.244 105.938 291.315 105.988C291.387 106.037 291.468 106.07 291.554 106.085C291.64 106.1 291.728 106.096 291.812 106.073H291.773ZM290.291 98.7175H290.425C290.505 98.7017 290.58 98.6699 290.647 98.6241C290.714 98.5782 290.77 98.5193 290.814 98.4509C290.857 98.3824 290.886 98.3059 290.898 98.226C290.911 98.146 290.907 98.0643 290.888 97.9858C290.599 96.7535 290.31 95.5405 289.983 94.3082C289.96 94.2294 289.923 94.1558 289.872 94.0917C289.821 94.0276 289.758 93.9743 289.686 93.9349C289.615 93.8955 289.536 93.8707 289.454 93.8621C289.373 93.8534 289.291 93.8611 289.212 93.8846C289.134 93.9048 289.06 93.9402 288.996 93.9889C288.931 94.0376 288.876 94.0985 288.835 94.1683C288.794 94.238 288.767 94.3152 288.756 94.3954C288.745 94.4755 288.749 94.5572 288.77 94.6355C289.097 95.8486 289.405 97.0424 289.675 98.2554C289.714 98.3959 289.801 98.5185 289.92 98.6027C290.039 98.6868 290.184 98.7274 290.329 98.7175H290.291ZM288.365 91.4778H288.538C288.617 91.4557 288.691 91.4181 288.755 91.3672C288.819 91.3163 288.872 91.2532 288.912 91.1815C288.951 91.1098 288.976 91.031 288.985 90.9496C288.993 90.8682 288.986 90.786 288.962 90.7076C288.596 89.4945 288.211 88.3008 287.807 87.107C287.781 87.0295 287.74 86.9579 287.686 86.8965C287.632 86.835 287.566 86.7849 287.493 86.7491C287.419 86.7132 287.339 86.6924 287.258 86.6877C287.176 86.683 287.094 86.6947 287.017 86.7219C286.94 86.7479 286.868 86.789 286.807 86.8429C286.745 86.8969 286.695 86.9625 286.659 87.0359C286.624 87.1094 286.603 87.1893 286.598 87.2709C286.593 87.3525 286.605 87.4342 286.632 87.5113C287.037 88.6858 287.402 89.8796 287.768 91.0734C287.814 91.1982 287.898 91.305 288.009 91.3779C288.12 91.4507 288.252 91.4858 288.384 91.4778H288.365ZM285.958 84.3536C286.028 84.3715 286.101 84.3715 286.17 84.3536C286.323 84.2972 286.448 84.1824 286.516 84.0345C286.585 83.8865 286.592 83.7173 286.536 83.5641C286.093 82.3896 285.631 81.2151 285.13 80.0598C285.101 79.9834 285.056 79.9138 284.999 79.8549C284.942 79.7959 284.874 79.7489 284.799 79.7167C284.724 79.6844 284.643 79.6675 284.561 79.6669C284.479 79.6663 284.397 79.682 284.322 79.7132C284.247 79.7447 284.179 79.7907 284.123 79.8484C284.066 79.9062 284.021 79.9745 283.99 80.0496C283.96 80.1248 283.945 80.2051 283.945 80.2862C283.946 80.3672 283.963 80.4473 283.994 80.5219C284.476 81.6772 284.938 82.8325 285.361 84.007C285.418 84.1193 285.507 84.2122 285.617 84.2739C285.727 84.3356 285.852 84.3633 285.978 84.3536H285.958ZM283.128 77.5374C283.217 77.5556 283.309 77.5556 283.398 77.5374C283.546 77.4663 283.661 77.3402 283.719 77.1857C283.776 77.0313 283.772 76.8605 283.706 76.7095C283.166 75.5735 282.627 74.4374 282.05 73.3014C281.972 73.1595 281.843 73.0526 281.689 73.0025C281.535 72.9524 281.368 72.9629 281.222 73.0319C281.072 73.1064 280.957 73.2373 280.903 73.396C280.849 73.5547 280.86 73.7283 280.933 73.8791C281.511 74.9766 282.05 76.0933 282.57 77.2293C282.624 77.3282 282.705 77.4097 282.804 77.4642C282.903 77.5187 283.015 77.5441 283.128 77.5374ZM279.739 70.8368C279.834 70.8631 279.934 70.8631 280.028 70.8368C280.101 70.7985 280.165 70.7459 280.218 70.6823C280.27 70.6186 280.309 70.5451 280.332 70.4661C280.355 70.3871 280.363 70.3042 280.353 70.2224C280.344 70.1406 280.319 70.0614 280.278 69.9896C279.662 68.8921 279.027 67.7946 278.353 66.7356C278.313 66.6639 278.259 66.6011 278.194 66.5512C278.129 66.5013 278.055 66.4653 277.975 66.4454C277.896 66.4256 277.813 66.4223 277.732 66.4358C277.652 66.4492 277.574 66.4792 277.506 66.5238C277.436 66.5654 277.375 66.6203 277.327 66.6855C277.278 66.7506 277.243 66.8247 277.224 66.9034C277.204 66.9821 277.2 67.0639 277.212 67.1442C277.224 67.2244 277.252 67.3015 277.294 67.371C277.948 68.43 278.565 69.5082 279.219 70.6058C279.283 70.6591 279.357 70.6986 279.436 70.7218C279.516 70.745 279.599 70.7514 279.681 70.7406L279.739 70.8368ZM275.888 64.425C276.001 64.4593 276.122 64.4593 276.235 64.425C276.304 64.3803 276.364 64.3222 276.41 64.254C276.456 64.1859 276.488 64.1092 276.504 64.0284C276.521 63.9476 276.52 63.8644 276.504 63.7837C276.487 63.703 276.455 63.6265 276.408 63.5586C275.696 62.5188 274.983 61.4791 274.232 60.4586C274.133 60.3291 273.987 60.2429 273.826 60.2178C273.665 60.1927 273.5 60.2306 273.366 60.3238C273.236 60.4232 273.15 60.5687 273.125 60.7301C273.1 60.8914 273.138 61.0562 273.231 61.1902C273.963 62.1915 274.675 63.212 275.368 64.2518C275.49 64.323 275.633 64.3502 275.773 64.3288L275.888 64.425ZM191.168 60.1698H191.957C192.038 60.1649 192.118 60.144 192.19 60.1084C192.263 60.0729 192.328 60.0232 192.382 59.9624C192.436 59.9016 192.477 59.8308 192.503 59.754C192.529 59.6772 192.54 59.5961 192.535 59.5151C192.533 59.4332 192.514 59.3527 192.479 59.2786C192.444 59.2044 192.395 59.1381 192.333 59.084C192.272 59.0298 192.2 58.9888 192.122 58.9636C192.044 58.9384 191.962 58.9295 191.88 58.9375C191.144 59.0051 190.403 59.0051 189.666 58.9375C189.225 58.882 188.787 58.7984 188.357 58.6872C188.196 58.6457 188.025 58.6688 187.881 58.7516C187.737 58.8344 187.632 58.9702 187.587 59.13C187.567 59.2097 187.563 59.2926 187.575 59.3738C187.588 59.455 187.616 59.5328 187.659 59.6028C187.702 59.6728 187.759 59.7334 187.826 59.7812C187.893 59.829 187.968 59.8629 188.049 59.8809C188.535 60.0159 189.03 60.1125 189.531 60.1698C190.007 60.1604 190.483 60.1282 190.956 60.0735L191.168 60.1698ZM195.596 59.4188H195.789C197.04 58.9795 198.206 58.3282 199.236 57.4934C199.351 57.3748 199.415 57.2159 199.415 57.0505C199.415 56.8851 199.351 56.7263 199.236 56.6077C199.178 56.5483 199.109 56.501 199.033 56.4688C198.957 56.4365 198.875 56.4199 198.793 56.4199C198.71 56.4199 198.628 56.4365 198.552 56.4688C198.476 56.501 198.407 56.5483 198.35 56.6077C197.43 57.3425 196.396 57.9214 195.288 58.3213C195.211 58.3473 195.139 58.3885 195.078 58.4424C195.016 58.4963 194.966 58.5619 194.93 58.6354C194.895 58.7088 194.874 58.7887 194.869 58.8703C194.864 58.9519 194.876 59.0337 194.903 59.1107C194.964 59.1784 195.038 59.2323 195.121 59.2688C195.204 59.3053 195.294 59.3237 195.385 59.3225L195.596 59.4188ZM271.556 58.3791C271.696 58.3808 271.832 58.3331 271.941 58.2443C272.056 58.1257 272.121 57.9668 272.121 57.8014C272.121 57.6361 272.056 57.4772 271.941 57.3586C271.152 56.3766 270.324 55.4331 269.515 54.4704C269.396 54.3551 269.237 54.2906 269.072 54.2906C268.907 54.2906 268.748 54.3551 268.629 54.4704C268.514 54.589 268.449 54.7479 268.449 54.9133C268.449 55.0786 268.514 55.2375 268.629 55.3561C269.438 56.2803 270.247 57.2816 271.017 58.2058C271.117 58.2595 271.23 58.2861 271.344 58.2828L271.556 58.3791ZM184.795 58.2828C184.896 58.2799 184.995 58.2541 185.085 58.2075C185.175 58.1608 185.254 58.0944 185.315 58.0132C185.402 57.8723 185.431 57.7027 185.395 57.5408C185.359 57.3789 185.261 57.2375 185.122 57.1468C184.129 56.4871 183.229 55.697 182.446 54.7977C182.33 54.6837 182.174 54.6197 182.012 54.6197C181.85 54.6197 181.694 54.6837 181.579 54.7977C181.464 54.9163 181.399 55.0752 181.399 55.2406C181.399 55.406 181.464 55.5648 181.579 55.6834C182.433 56.6794 183.425 57.5483 184.525 58.2636C184.544 58.2711 184.563 58.2775 184.583 58.2828H184.795ZM201.219 54.7207C201.329 54.7178 201.437 54.6861 201.532 54.6286C201.626 54.5712 201.704 54.4901 201.758 54.3934C202.394 53.1944 202.805 51.8893 202.971 50.5425C202.982 50.4615 202.976 50.3791 202.955 50.3002C202.934 50.2213 202.897 50.1475 202.847 50.083C202.796 50.0185 202.734 49.9646 202.663 49.9245C202.592 49.8844 202.513 49.8588 202.432 49.8493C202.271 49.8272 202.108 49.8695 201.978 49.9668C201.849 50.0641 201.762 50.2087 201.739 50.3692C201.579 51.5381 201.221 52.6712 200.68 53.7195C200.639 53.7913 200.614 53.8704 200.605 53.9523C200.595 54.0341 200.603 54.117 200.626 54.1959C200.649 54.2749 200.688 54.3484 200.74 54.4121C200.793 54.4758 200.857 54.5283 200.93 54.5667C200.954 54.5875 200.98 54.6067 201.007 54.6244L201.219 54.7207ZM266.588 52.7952C266.753 52.797 266.911 52.7349 267.031 52.6219C267.146 52.5033 267.211 52.3445 267.211 52.1791C267.211 52.0137 267.146 51.8549 267.031 51.7363C266.145 50.8313 265.24 49.9456 264.335 49.0791C264.217 48.9638 264.058 48.8994 263.893 48.8994C263.727 48.8994 263.568 48.9638 263.45 49.0791C263.336 49.1945 263.272 49.3501 263.272 49.5123C263.272 49.6746 263.336 49.8302 263.45 49.9456C264.335 50.7928 265.221 51.6785 266.088 52.5642C266.176 52.6148 266.275 52.6413 266.376 52.6412L266.588 52.7952ZM179.942 52.7952C180.038 52.8134 180.136 52.8134 180.231 52.7952C180.375 52.7139 180.482 52.5815 180.532 52.4244C180.582 52.2674 180.571 52.0973 180.501 51.9481C179.959 50.8765 179.564 49.7366 179.326 48.5592C179.308 48.4791 179.274 48.4034 179.227 48.3365C179.179 48.2697 179.118 48.2131 179.048 48.17C178.978 48.127 178.9 48.0983 178.819 48.0858C178.738 48.0733 178.655 48.0771 178.575 48.0971C178.496 48.1132 178.42 48.1449 178.352 48.1905C178.285 48.236 178.227 48.2945 178.182 48.3625C178.137 48.4306 178.106 48.5068 178.091 48.5869C178.076 48.6669 178.077 48.7491 178.094 48.8288C178.373 50.1024 178.806 51.3374 179.384 52.5064C179.477 52.5645 179.583 52.5977 179.692 52.6027L179.942 52.7952ZM261.178 47.6928C261.265 47.6924 261.352 47.6733 261.432 47.6368C261.511 47.6002 261.582 47.5471 261.64 47.481C261.755 47.3624 261.82 47.2035 261.82 47.0381C261.82 46.8727 261.755 46.7138 261.64 46.5952L260.484 45.6325L258.694 44.227C258.561 44.1258 258.393 44.0812 258.227 44.1028C258.061 44.1244 257.911 44.2106 257.808 44.3425C257.713 44.4743 257.672 44.6375 257.693 44.7987C257.715 44.9599 257.797 45.1067 257.924 45.2089L259.695 46.5952L260.831 47.558C260.865 47.5418 260.897 47.5224 260.927 47.5002L261.178 47.6928ZM202.413 47.5195C202.578 47.5001 202.729 47.4167 202.833 47.287C202.938 47.1574 202.987 46.9919 202.971 46.8263C202.824 45.5199 202.553 44.2305 202.162 42.9754C202.14 42.8966 202.103 42.823 202.052 42.7589C202.001 42.6949 201.938 42.6416 201.866 42.6021C201.794 42.5627 201.716 42.5379 201.634 42.5293C201.553 42.5206 201.47 42.5283 201.392 42.5518C201.314 42.5736 201.24 42.6113 201.177 42.6625C201.113 42.7137 201.061 42.7773 201.023 42.8494C200.986 42.9216 200.963 43.0007 200.957 43.082C200.951 43.1633 200.961 43.245 200.988 43.322C201.337 44.4864 201.588 45.6779 201.739 46.884C201.764 46.9884 201.817 47.0842 201.892 47.1619C201.966 47.2396 202.059 47.2965 202.162 47.3269L202.413 47.5195ZM178.441 45.594C178.598 45.5943 178.749 45.5347 178.863 45.4274C178.978 45.32 179.047 45.173 179.057 45.0163C179.145 43.8324 179.418 42.6696 179.865 41.5698C179.897 41.4952 179.914 41.4151 179.915 41.3341C179.915 41.253 179.9 41.1727 179.87 41.0976C179.839 41.0224 179.794 40.954 179.737 40.8963C179.68 40.8386 179.613 40.7926 179.538 40.7611C179.464 40.7294 179.383 40.7127 179.302 40.712C179.221 40.7113 179.141 40.7266 179.066 40.757C178.991 40.7874 178.922 40.8323 178.865 40.8892C178.807 40.9461 178.761 41.0138 178.729 41.0885C178.219 42.3139 177.913 43.6149 177.824 44.9394C177.817 45.0219 177.825 45.105 177.85 45.1841C177.875 45.2631 177.916 45.3362 177.97 45.3991C178.024 45.462 178.09 45.5135 178.164 45.5502C178.238 45.587 178.319 45.6085 178.402 45.6133L178.441 45.594ZM254.958 42.8791C255.061 42.8808 255.162 42.8571 255.252 42.8101C255.343 42.763 255.421 42.6941 255.478 42.6095C255.569 42.4731 255.604 42.3068 255.576 42.1453C255.547 41.9838 255.457 41.8397 255.324 41.7431C254.285 41.0307 253.206 40.3375 252.147 39.6828C252.004 39.5973 251.833 39.5715 251.671 39.6112C251.509 39.6508 251.369 39.7526 251.281 39.8947C251.239 39.9642 251.211 40.0412 251.199 40.1214C251.187 40.2017 251.191 40.2835 251.211 40.3622C251.23 40.4409 251.265 40.515 251.314 40.5802C251.362 40.6453 251.423 40.7003 251.493 40.7419C252.545 41.3965 253.585 42.0704 254.612 42.7636C254.713 42.8363 254.834 42.8765 254.958 42.8791ZM200.083 40.0872C200.165 40.1068 200.251 40.1068 200.333 40.0872C200.485 40.0196 200.605 39.895 200.666 39.7401C200.727 39.5853 200.725 39.4126 200.66 39.2592C200.179 38.1617 199.621 37.0065 198.985 35.8512C198.947 35.7783 198.894 35.7138 198.831 35.6616C198.767 35.6093 198.694 35.5704 198.615 35.5471C198.536 35.5238 198.453 35.5165 198.371 35.5257C198.289 35.535 198.21 35.5605 198.138 35.6009C197.995 35.682 197.888 35.8158 197.842 35.9739C197.795 36.132 197.811 36.302 197.888 36.4481C198.504 37.5648 199.062 38.6816 199.524 39.7599C199.57 39.8717 199.647 39.9677 199.746 40.0362C199.845 40.1046 199.962 40.1424 200.083 40.1449V40.0872ZM248.47 39.0282C248.584 39.0308 248.697 39.0016 248.795 38.9438C248.894 38.8859 248.974 38.8018 249.028 38.7008C249.104 38.5547 249.121 38.3847 249.074 38.2266C249.027 38.0686 248.921 37.9349 248.778 37.8537C247.68 37.2568 246.544 36.6791 245.408 36.1207C245.335 36.0848 245.255 36.0638 245.174 36.0588C245.092 36.0539 245.011 36.0653 244.934 36.0922C244.857 36.119 244.786 36.1609 244.725 36.2154C244.664 36.2699 244.615 36.3359 244.58 36.4096C244.544 36.4828 244.523 36.5624 244.518 36.6439C244.513 36.7253 244.525 36.8069 244.552 36.8839C244.578 36.9609 244.62 37.0318 244.675 37.0925C244.729 37.1532 244.795 37.2025 244.869 37.2375C245.986 37.7767 247.103 38.3543 248.181 38.9512C248.268 39.0035 248.368 39.0303 248.47 39.0282ZM180.924 38.5468C181.017 38.5455 181.107 38.5242 181.191 38.4843C181.274 38.4444 181.347 38.3869 181.406 38.3158C182.184 37.4051 183.063 36.5848 184.024 35.8704C184.093 35.8245 184.151 35.7649 184.195 35.6954C184.239 35.6259 184.269 35.5481 184.281 35.4667C184.294 35.3853 184.29 35.3022 184.269 35.2226C184.248 35.1429 184.21 35.0685 184.159 35.004C184.113 34.9356 184.054 34.8775 183.984 34.8333C183.915 34.7891 183.837 34.7597 183.755 34.747C183.674 34.7344 183.591 34.7387 183.511 34.7597C183.432 34.7807 183.357 34.818 183.293 34.8692C182.245 35.6436 181.289 36.535 180.443 37.5263C180.333 37.644 180.273 37.7988 180.273 37.9596C180.273 38.1204 180.333 38.2752 180.443 38.3928C180.528 38.4686 180.631 38.5209 180.743 38.5445C180.854 38.5682 180.97 38.5623 181.078 38.5276L180.924 38.5468ZM241.731 35.7549C241.853 35.7491 241.971 35.7103 242.073 35.6425C242.174 35.5746 242.256 35.4804 242.308 35.3698C242.34 35.2952 242.357 35.2151 242.357 35.1341C242.358 35.053 242.343 34.9727 242.312 34.8976C242.282 34.8224 242.237 34.754 242.18 34.6963C242.123 34.6386 242.055 34.5926 241.981 34.5611C240.806 34.0605 239.632 33.5984 238.457 33.1556C238.301 33.0989 238.13 33.1055 237.978 33.1738C237.827 33.2422 237.709 33.3669 237.649 33.5214C237.593 33.6797 237.602 33.8536 237.674 34.0051C237.747 34.1566 237.876 34.2734 238.034 34.3301C239.189 34.7537 240.344 35.2158 241.48 35.6971C241.589 35.7442 241.71 35.7576 241.827 35.7357L241.731 35.7549ZM186.874 34.0605C186.962 34.0885 187.056 34.0885 187.144 34.0605C188.246 33.5288 189.377 33.0595 190.532 32.6549C190.61 32.6289 190.682 32.5878 190.743 32.5339C190.804 32.48 190.855 32.4143 190.89 32.3408C190.926 32.2674 190.947 32.1875 190.952 32.1059C190.956 32.0243 190.945 31.9426 190.918 31.8655C190.892 31.788 190.85 31.7164 190.797 31.6549C190.743 31.5935 190.677 31.5434 190.604 31.5076C190.53 31.4717 190.45 31.4509 190.369 31.4462C190.287 31.4415 190.205 31.4531 190.128 31.4804C188.921 31.9008 187.738 32.3894 186.585 32.9437C186.438 33.0216 186.328 33.154 186.278 33.3123C186.227 33.4707 186.241 33.6425 186.316 33.7909C186.386 33.8942 186.487 33.9735 186.604 34.0182C186.721 34.0629 186.849 34.071 186.97 34.0413L186.874 34.0605ZM196.501 33.5406C196.618 33.5478 196.734 33.5138 196.829 33.4444C196.899 33.4031 196.96 33.3479 197.008 33.2822C197.056 33.2165 197.09 33.1416 197.108 33.0623C197.126 32.983 197.128 32.9008 197.113 32.8208C197.098 32.7408 197.067 32.6647 197.021 32.5972C196.713 32.0965 196.386 31.6152 196.059 31.0953L197.772 30.7487C197.933 30.7205 198.076 30.6296 198.17 30.4961C198.264 30.3625 198.301 30.1971 198.273 30.0363C198.259 29.9547 198.229 29.8767 198.184 29.807C198.14 29.7373 198.082 29.6774 198.013 29.6306C197.945 29.5839 197.868 29.5515 197.787 29.5352C197.706 29.5188 197.622 29.519 197.541 29.5357C196.79 29.6705 196.039 29.8245 195.308 29.9978L194.923 29.4586C194.876 29.391 194.817 29.3332 194.748 29.2888C194.679 29.2443 194.602 29.214 194.522 29.1996C194.441 29.1853 194.358 29.1872 194.278 29.2052C194.198 29.2232 194.123 29.2571 194.056 29.3046C193.988 29.3509 193.931 29.4101 193.886 29.479C193.842 29.5478 193.811 29.6248 193.797 29.7055C193.783 29.7862 193.785 29.8689 193.803 29.9488C193.821 30.0288 193.854 30.1043 193.902 30.1711L193.998 30.3059H193.844C193.684 30.3511 193.546 30.456 193.46 30.5992C193.374 30.7423 193.346 30.9129 193.382 31.076C193.431 31.2332 193.538 31.366 193.681 31.4481C193.823 31.5302 193.992 31.5555 194.152 31.5189L194.749 31.3841C195.192 32.0003 195.596 32.6357 195.982 33.3096C196.042 33.382 196.119 33.4389 196.206 33.4757C196.293 33.5126 196.388 33.5282 196.482 33.5214L196.501 33.5406ZM234.741 33.1363C234.873 33.142 235.004 33.1034 235.112 33.0267C235.22 32.95 235.3 32.8395 235.338 32.7127C235.387 32.5543 235.372 32.3832 235.296 32.2357C235.221 32.0882 235.091 31.9761 234.934 31.9232C233.74 31.5574 232.508 31.1915 231.295 30.8835C231.216 30.8604 231.134 30.8537 231.053 30.8638C230.972 30.8738 230.893 30.9005 230.823 30.942C230.753 30.9835 230.691 31.0391 230.643 31.1052C230.595 31.1713 230.561 31.2466 230.544 31.3263C230.523 31.4047 230.519 31.4863 230.53 31.5665C230.541 31.6467 230.568 31.7239 230.609 31.7936C230.651 31.8633 230.705 31.9243 230.77 31.9729C230.834 32.0216 230.908 32.0571 230.986 32.0773C232.18 32.3854 233.374 32.7512 234.568 33.117L234.741 33.1363ZM227.501 31.2108C227.644 31.2127 227.783 31.1632 227.893 31.0713C228.002 30.9795 228.075 30.8513 228.098 30.7102C228.115 30.6305 228.116 30.5483 228.101 30.4683C228.086 30.3882 228.055 30.312 228.01 30.2439C227.965 30.1759 227.908 30.1174 227.84 30.0719C227.773 30.0263 227.697 29.9945 227.617 29.9785C226.385 29.7089 225.133 29.4779 223.901 29.2854C223.74 29.2574 223.575 29.2944 223.441 29.3882C223.307 29.4821 223.217 29.6252 223.188 29.786C223.172 29.8673 223.172 29.9512 223.19 30.0323C223.208 30.1133 223.242 30.1899 223.291 30.2569C223.34 30.3239 223.402 30.38 223.474 30.4216C223.546 30.4632 223.626 30.4894 223.708 30.4984C224.921 30.7102 226.153 30.9412 227.367 31.1915L227.501 31.2108ZM201.373 30.1518C202.586 29.9785 203.837 29.8437 205.07 29.7475C205.235 29.7327 205.388 29.654 205.496 29.5281C205.604 29.4022 205.658 29.239 205.647 29.0735C205.64 28.9925 205.617 28.9137 205.579 28.8417C205.541 28.7696 205.489 28.7058 205.427 28.6539C205.364 28.602 205.292 28.563 205.214 28.5392C205.136 28.5154 205.054 28.5072 204.973 28.5152C203.722 28.5152 202.451 28.7462 201.122 28.9195C201.042 28.9288 200.964 28.9545 200.894 28.9948C200.824 29.0352 200.762 29.0895 200.714 29.1543C200.665 29.2192 200.63 29.2933 200.611 29.3721C200.592 29.4509 200.589 29.5327 200.603 29.6127C200.61 29.7061 200.638 29.7968 200.685 29.8777C200.732 29.9587 200.797 30.0278 200.875 30.0797C200.953 30.1317 201.042 30.1653 201.135 30.1778C201.228 30.1902 201.322 30.1814 201.411 30.1518H201.373ZM220.088 29.9978C220.242 29.9984 220.391 29.9415 220.505 29.8382C220.619 29.7348 220.69 29.5926 220.705 29.4394C220.721 29.2788 220.673 29.1183 220.573 28.9923C220.472 28.8662 220.326 28.7849 220.165 28.7655C218.914 28.6115 217.643 28.4959 216.314 28.4189C216.233 28.4137 216.152 28.4245 216.075 28.4507C215.999 28.477 215.928 28.5181 215.867 28.5718C215.806 28.6254 215.757 28.6906 215.721 28.7634C215.685 28.8363 215.665 28.9156 215.66 28.9966C215.652 29.0781 215.661 29.1603 215.686 29.2382C215.711 29.3162 215.752 29.388 215.806 29.4494C215.86 29.5108 215.927 29.5604 216.001 29.5951C216.075 29.6299 216.156 29.6489 216.237 29.6512C217.47 29.7475 218.721 29.8437 219.934 29.9978H220.088ZM208.844 29.5357C210.095 29.5357 211.327 29.5357 212.579 29.5357C212.659 29.5383 212.739 29.5247 212.813 29.4959C212.888 29.4671 212.956 29.4235 213.014 29.3678C213.071 29.3121 213.117 29.2454 213.148 29.1717C213.179 29.098 213.195 29.0188 213.195 28.9388C213.198 28.8579 213.184 28.7772 213.156 28.7015C213.127 28.6257 213.084 28.5564 213.028 28.4974C212.973 28.4384 212.906 28.3908 212.833 28.3575C212.759 28.3242 212.679 28.3058 212.598 28.3034C211.327 28.3034 210.076 28.3034 208.747 28.3034C208.665 28.3058 208.583 28.3248 208.508 28.3593C208.433 28.3938 208.366 28.4431 208.31 28.5041C208.254 28.5652 208.212 28.6369 208.184 28.7149C208.157 28.7928 208.145 28.8755 208.15 28.958C208.154 29.0464 208.177 29.1328 208.218 29.2116C208.258 29.2903 208.315 29.3594 208.384 29.4142C208.454 29.469 208.534 29.5082 208.62 29.5292C208.706 29.5501 208.795 29.5523 208.882 29.5357H208.844ZM192.188 27.3984C192.329 27.4001 192.465 27.3524 192.573 27.2636C192.687 27.1483 192.751 26.9926 192.751 26.8304C192.751 26.6682 192.687 26.5125 192.573 26.3972C191.803 25.3959 190.995 24.4717 190.186 23.4512C190.071 23.3372 189.915 23.2732 189.753 23.2732C189.59 23.2732 189.435 23.3372 189.32 23.4512C189.204 23.5698 189.14 23.7287 189.14 23.8941C189.14 24.0595 189.204 24.2183 189.32 24.3369C190.109 25.2611 190.918 26.2624 191.669 27.2058C191.729 27.2961 191.813 27.3687 191.911 27.416C192.009 27.4634 192.118 27.4839 192.227 27.4754L192.188 27.3984ZM187.298 21.622C187.376 21.6224 187.454 21.6073 187.527 21.5776C187.6 21.5478 187.666 21.504 187.721 21.4487C187.78 21.3929 187.827 21.3258 187.859 21.2513C187.891 21.1768 187.908 21.0966 187.908 21.0155C187.908 20.9344 187.891 20.8542 187.859 20.7797C187.827 20.7052 187.78 20.6381 187.721 20.5823C186.855 19.6581 185.95 18.7723 185.026 17.9251C184.97 17.8663 184.903 17.8194 184.828 17.7874C184.754 17.7554 184.674 17.7388 184.592 17.7388C184.511 17.7388 184.431 17.7554 184.357 17.7874C184.282 17.8194 184.215 17.8663 184.159 17.9251C184.1 17.9826 184.053 18.0514 184.02 18.1275C183.988 18.2035 183.971 18.2853 183.971 18.368C183.971 18.4506 183.988 18.5324 184.02 18.6085C184.053 18.6846 184.1 18.7534 184.159 18.8108C185.064 19.6388 185.95 20.5245 186.816 21.4102C186.867 21.5025 186.943 21.5785 187.035 21.6296C187.127 21.6807 187.231 21.7048 187.336 21.699L187.298 21.622ZM181.81 16.5195C181.992 16.5149 182.165 16.4389 182.292 16.3078C182.407 16.1892 182.471 16.0303 182.471 15.8649C182.471 15.6995 182.407 15.5406 182.292 15.422C181.31 14.6133 180.366 13.8432 179.288 13.1115C179.221 13.0639 179.146 13.0301 179.066 13.0121C178.986 12.994 178.903 12.9921 178.822 13.0065C178.742 13.0208 178.665 13.0512 178.596 13.0956C178.527 13.1401 178.468 13.1978 178.421 13.2655C178.373 13.3311 178.338 13.4056 178.318 13.4848C178.299 13.564 178.295 13.6463 178.308 13.7269C178.32 13.8075 178.349 13.8848 178.391 13.9544C178.434 14.0239 178.49 14.0843 178.556 14.132C179.557 14.8508 180.539 15.6017 181.502 16.3847C181.589 16.4937 181.712 16.5687 181.849 16.5966L181.81 16.5195ZM175.706 12.168C175.81 12.1676 175.913 12.141 176.004 12.0905C176.094 12.04 176.171 11.9673 176.226 11.8792C176.314 11.7382 176.342 11.5686 176.306 11.4067C176.27 11.2448 176.173 11.1035 176.034 11.0127C174.956 10.3581 173.839 9.72269 172.722 9.08728C172.573 9.01249 172.402 8.99882 172.243 9.04921C172.085 9.0996 171.953 9.21001 171.875 9.35682C171.801 9.50238 171.788 9.67131 171.838 9.82655C171.889 9.98178 171.999 10.1106 172.144 10.1848C173.242 10.7624 174.32 11.3785 175.379 12.1102C175.428 12.156 175.486 12.1915 175.548 12.2147C175.611 12.2378 175.678 12.2482 175.745 12.245L175.706 12.168ZM169.044 8.70217C169.166 8.70504 169.286 8.67185 169.389 8.60674C169.491 8.54163 169.573 8.44753 169.622 8.33632C169.654 8.26174 169.67 8.18167 169.671 8.10064C169.672 8.0196 169.656 7.93919 169.626 7.86407C169.596 7.78895 169.551 7.72054 169.494 7.66281C169.437 7.60508 169.369 7.55919 169.295 7.52766C168.139 7.02704 166.946 6.56493 165.752 6.14133C165.675 6.1141 165.593 6.10246 165.511 6.10713C165.43 6.1118 165.35 6.13264 165.276 6.16848C165.203 6.20432 165.137 6.2544 165.083 6.31585C165.029 6.37729 164.988 6.44888 164.962 6.52639C164.935 6.60347 164.924 6.68522 164.928 6.76683C164.933 6.84845 164.954 6.92828 164.99 7.00176C165.025 7.07523 165.075 7.14087 165.137 7.19479C165.198 7.2487 165.27 7.28985 165.347 7.31583C166.503 7.72018 167.677 8.18231 168.794 8.66368C168.879 8.72626 168.978 8.76603 169.083 8.7792L169.044 8.70217ZM121.1 7.16182H121.235L124.894 6.39159C124.975 6.37777 125.053 6.34769 125.123 6.3031C125.192 6.2585 125.252 6.20033 125.299 6.13204C125.346 6.06376 125.378 5.98675 125.395 5.90564C125.411 5.82453 125.411 5.741 125.394 5.65996C125.357 5.50119 125.261 5.36268 125.124 5.27308C124.988 5.18349 124.823 5.14966 124.662 5.1786C123.43 5.40965 122.198 5.67921 120.966 5.94877C120.807 5.9857 120.668 6.08224 120.579 6.21842C120.489 6.35461 120.455 6.52003 120.484 6.68046C120.507 6.83691 120.587 6.97961 120.707 7.08226C120.827 7.18491 120.981 7.24052 121.139 7.2388L121.1 7.16182ZM161.959 6.23758C162.099 6.24201 162.236 6.19865 162.348 6.11465C162.46 6.03066 162.54 5.91105 162.575 5.77549C162.595 5.6971 162.6 5.61545 162.588 5.53527C162.577 5.4551 162.55 5.37796 162.509 5.30822C162.468 5.23848 162.413 5.1775 162.349 5.12883C162.284 5.08015 162.21 5.04472 162.132 5.02453C160.919 4.6972 159.687 4.38914 158.435 4.13883C158.272 4.11049 158.104 4.14692 157.968 4.24043C157.831 4.33393 157.736 4.47714 157.703 4.63947C157.674 4.7999 157.708 4.96526 157.798 5.10144C157.887 5.23763 158.026 5.33417 158.185 5.3711C159.417 5.60215 160.63 5.89098 161.805 6.2183L161.959 6.23758ZM128.456 5.69845H128.571C129.855 5.48023 131.087 5.28771 132.268 5.12084C132.43 5.09246 132.575 5.00232 132.672 4.86946C132.769 4.73659 132.81 4.57131 132.788 4.40837C132.779 4.32782 132.753 4.25004 132.713 4.17973C132.672 4.10942 132.618 4.04804 132.553 3.99939C132.488 3.95075 132.414 3.91587 132.335 3.8968C132.256 3.87773 132.175 3.8749 132.095 3.88851C130.843 4.0618 129.611 4.25433 128.359 4.46613C128.199 4.49433 128.055 4.58522 127.962 4.7188C127.868 4.85237 127.831 5.01775 127.859 5.1786C127.859 5.26033 127.875 5.34118 127.908 5.41622C127.94 5.49127 127.987 5.55887 128.047 5.61484C128.107 5.6708 128.177 5.71395 128.254 5.74158C128.331 5.76921 128.413 5.78076 128.494 5.77549L128.456 5.69845ZM154.623 4.75499C154.772 4.75218 154.916 4.69651 155.029 4.59787C155.142 4.49922 155.216 4.36394 155.239 4.21587C155.25 4.13486 155.244 4.05248 155.223 3.9736C155.201 3.89471 155.165 3.82087 155.114 3.75636C155.064 3.69185 155.002 3.63794 154.93 3.59782C154.859 3.5577 154.781 3.53217 154.7 3.52267C153.467 3.34938 152.197 3.21461 150.849 3.11834C150.769 3.11042 150.688 3.11869 150.611 3.14272C150.535 3.16676 150.464 3.20605 150.403 3.25819C150.341 3.31033 150.291 3.37425 150.256 3.44616C150.22 3.51808 150.199 3.59654 150.194 3.67674C150.186 3.75772 150.194 3.83944 150.218 3.91725C150.242 3.99505 150.281 4.06736 150.333 4.13002C150.385 4.19267 150.449 4.24446 150.521 4.28232C150.593 4.32019 150.671 4.34337 150.752 4.3506C152.004 4.44688 153.256 4.5817 154.449 4.75499H154.623ZM135.888 4.65869C137.12 4.5239 138.372 4.42766 139.604 4.33139C139.685 4.32649 139.764 4.30563 139.837 4.27004C139.91 4.23446 139.975 4.18485 140.029 4.12402C140.082 4.0632 140.124 3.99236 140.15 3.9156C140.176 3.83884 140.187 3.75769 140.182 3.67674C140.177 3.59402 140.155 3.51307 140.119 3.43882C140.082 3.36457 140.03 3.29854 139.968 3.24462C139.905 3.19069 139.831 3.14998 139.753 3.12498C139.673 3.09998 139.59 3.09116 139.508 3.09907C138.256 3.09907 137.005 3.29164 135.657 3.42642C135.576 3.43366 135.497 3.45684 135.425 3.4947C135.353 3.53256 135.289 3.58435 135.237 3.64701C135.185 3.70966 135.146 3.78197 135.123 3.85978C135.099 3.93758 135.09 4.0193 135.098 4.10028C135.089 4.20412 135.105 4.30877 135.147 4.40437C135.189 4.49997 135.254 4.58344 135.337 4.64693C135.42 4.71043 135.517 4.75186 135.62 4.76739C135.723 4.78292 135.829 4.77203 135.926 4.73572L135.888 4.65869ZM147.133 4.15811C147.295 4.1584 147.451 4.09672 147.569 3.98576C147.687 3.87481 147.758 3.72291 147.768 3.56116C147.771 3.47864 147.757 3.39647 147.727 3.31948C147.697 3.24249 147.652 3.17226 147.594 3.11299C147.537 3.05372 147.468 3.0066 147.392 2.97443C147.316 2.94227 147.234 2.92574 147.152 2.92578C145.9 2.92578 144.629 2.92578 143.301 2.92578C143.218 2.92574 143.137 2.94227 143.061 2.97443C142.985 3.0066 142.916 3.05372 142.858 3.11299C142.801 3.17226 142.756 3.24249 142.726 3.31948C142.696 3.39647 142.682 3.47864 142.685 3.56116C142.69 3.72121 142.757 3.87305 142.872 3.98447C142.987 4.09589 143.141 4.15818 143.301 4.15811H147.056H147.133Z" fill="#999999"/>
<path d="M50.936 146.585L45.5063 148.934L23.8064 133.8L18.03 136.997C13.3896 139.769 8.88403 139.962 6.72752 138.73L6.28458 138.941C2.93428 140.405 0.951061 139.095 0.277149 137.516C-0.396763 135.938 -0.0116196 133.666 3.33868 132.164L3.78151 131.971C4.18585 130.046 5.93811 126.811 12.7735 124.905L19.0697 122.883L22.9206 96.7159L28.3504 94.3477L32.5672 118.589L48.0864 113.275L50.4355 107.056L54.7485 105.458L55.0566 111.234L56.5969 111.099L58.0026 114.315L56.8472 115.451L60.9292 119.687L56.8088 121.747L50.6858 119.205L36.1871 126.907L50.936 146.585ZM50.5318 117.8L56.6933 120.361L58.6187 119.359L54.8833 115.508L56.2889 114.084L55.6342 112.563L53.7087 112.736L53.42 107.345L51.3212 108.115L48.9722 114.353L31.412 120.341L27.2336 96.2538L23.9796 97.6595L20.225 123.923L13.1201 126.195C6.49648 128.024 5.1871 130.989 4.99456 132.587V132.992L4.60944 133.126C4.36481 133.196 4.1265 133.286 3.89703 133.396C1.83678 134.282 0.912579 135.687 1.50947 137.035C2.10637 138.383 3.74297 138.691 5.80322 137.786C6.03505 137.692 6.26028 137.583 6.4772 137.459L6.84304 137.247L7.18961 137.497C8.5952 138.537 12.6964 138.73 17.4331 135.918L23.9026 132.298L45.6603 147.49L48.9143 146.085L34.1653 126.561L50.5318 117.8Z" fill="#999999"/>
</svg>
