<svg width="40" height="41" viewBox="0 0 40 41" fill="none" xmlns="http://www.w3.org/2000/svg">
<rect y="0.976807" width="40" height="40" rx="10" fill="#F47500"/>
<g clip-path="url(#clip0_2906_2747)">
<path d="M9.62213 18.132C9.30838 18.2871 9.06221 18.6112 9.01394 18.9307C8.97532 19.175 8.96084 19.0951 9.76694 22.9332C10.2834 25.4043 10.351 25.6157 10.6937 25.9962C10.7806 26.0901 11.5046 26.7009 12.3011 27.3539C13.6043 28.4156 13.754 28.5565 13.7926 28.7162C13.8167 28.8149 13.8215 28.9229 13.8071 28.9605C13.7926 28.9934 13.6381 29.0639 13.4547 29.1108C13.1023 29.2048 12.9527 29.3128 12.9527 29.4773C12.9527 29.6182 13.6526 31.845 13.725 31.9342C13.7588 31.9718 13.8602 32 13.947 32C14.1594 32 19.8069 30.3229 19.9179 30.2289C19.9614 30.1866 20 30.088 20 30.0081C20 29.8061 19.3291 27.6733 19.2325 27.5653C19.1698 27.4948 19.1167 27.4854 18.9381 27.5089C18.8174 27.5277 18.6823 27.5465 18.634 27.5512C18.5664 27.5606 18.4457 27.321 18.021 26.3297C17.7362 25.6485 17.4514 25.0237 17.3935 24.9345C17.1714 24.5774 16.7804 24.3191 14.7145 23.1728C12.8803 22.1534 12.6245 22.0265 12.388 21.9983L12.1176 21.9702L11.6929 20.3353C11.4612 19.438 11.2247 18.6347 11.1716 18.5501C10.8433 18.0334 10.1676 17.8502 9.62213 18.132ZM10.433 18.7334C10.491 18.7709 10.5634 18.8508 10.5923 18.9072C10.6261 18.9636 10.8433 19.7387 11.075 20.6266L11.4998 22.2473L11.384 22.3695C11.2054 22.548 11.1185 22.8064 11.1185 23.1305C11.1185 23.4688 11.2295 23.7412 11.437 23.9385C11.6591 24.1452 14.4828 25.7049 14.6373 25.7049C14.7724 25.7049 14.8931 25.611 14.9462 25.4559C15.0186 25.2586 14.8835 25.16 13.4499 24.3613C12.6679 23.9244 11.9777 23.5157 11.9101 23.4547C11.6398 23.1916 11.857 22.6326 12.2335 22.6326C12.4893 22.6372 16.264 24.756 16.6212 25.0989C16.877 25.3432 16.9059 25.4043 17.3838 26.527C17.6541 27.1706 17.8762 27.725 17.8762 27.7485C17.8762 27.8283 14.5263 28.8055 14.4925 28.7397C14.4732 28.7115 14.4442 28.5894 14.4297 28.4672C14.4104 28.3451 14.3573 28.2042 14.3139 28.1525C14.2704 28.1055 13.5802 27.5324 12.7838 26.8794C11.9873 26.2311 11.2633 25.6204 11.1812 25.5264C11.0943 25.4324 10.9881 25.268 10.9495 25.1647C10.8578 24.9298 9.6704 19.2877 9.6704 19.0951C9.6704 18.8743 9.90209 18.6582 10.1386 18.6582C10.24 18.6582 10.3751 18.6911 10.433 18.7334ZM19.0394 29.0404C19.1698 29.4397 19.2663 29.7732 19.2567 29.7826C19.2325 29.8014 14.4008 31.2343 14.2801 31.2577C14.2029 31.2718 14.1546 31.1685 13.9422 30.4967L13.696 29.7216L16.235 28.9652C17.7362 28.5236 18.7788 28.237 18.7884 28.2652C18.8029 28.2887 18.9139 28.6411 19.0394 29.0404Z" fill="white" stroke="white" stroke-width="0.4"/>
<path d="M29.3375 18.1131C29.0773 18.2306 28.8556 18.4467 28.7544 18.6863C28.7206 18.7708 28.5279 19.4755 28.3255 20.26C27.8388 22.1674 27.9159 21.9795 27.6027 22.0029C27.4099 22.017 27.2509 22.0781 26.9666 22.2378C26.7593 22.3553 25.8197 22.8814 24.88 23.4076C23.1355 24.3801 22.8126 24.6009 22.591 24.9767C22.5283 25.08 22.2488 25.7002 21.9693 26.3532C21.6947 27.0109 21.4537 27.5558 21.4393 27.5699C21.4248 27.584 21.3477 27.5699 21.261 27.5417C21.0393 27.4666 20.8562 27.476 20.7742 27.5699C20.7309 27.6169 20.5333 28.1853 20.3309 28.8336C20.0032 29.8719 19.9695 30.0316 20.0177 30.1396C20.0851 30.2806 19.8972 30.2195 23.5933 31.3141C24.8559 31.6899 25.9642 32 26.0558 32C26.1425 32 26.2437 31.9718 26.2726 31.9342C26.3449 31.8497 27.0485 29.6182 27.0485 29.4725C27.0485 29.3128 26.8991 29.2048 26.5473 29.1108C26.3642 29.0638 26.21 28.9934 26.1955 28.9605C26.1811 28.9229 26.1859 28.8148 26.21 28.7162C26.2485 28.5518 26.3979 28.4155 27.7231 27.3303C29.2074 26.1136 29.5206 25.8082 29.67 25.4136C29.7664 25.1599 31 19.3111 31 19.1044C31 19.0198 30.9663 18.8648 30.9277 18.7567C30.6964 18.1131 29.9736 17.8219 29.3375 18.1131ZM30.1471 18.7708C30.2145 18.8319 30.2868 18.9446 30.3061 19.0151C30.3494 19.1748 29.1495 24.9297 29.0146 25.2163C28.8749 25.5123 28.764 25.6156 27.2171 26.8793C26.422 27.5276 25.7329 28.1008 25.6895 28.1525C25.6462 28.2041 25.5932 28.3451 25.5739 28.4672C25.5594 28.5894 25.5305 28.7115 25.5112 28.7397C25.492 28.7773 24.9523 28.6363 23.8053 28.2934C22.8801 28.0209 22.1235 27.786 22.1187 27.7719C22.1139 27.7578 22.3356 27.2082 22.6151 26.5505C23.0777 25.4653 23.1403 25.3337 23.362 25.1129C23.5596 24.9156 23.9788 24.6572 25.6028 23.7506C27.0629 22.9331 27.646 22.6325 27.7569 22.6325C28.1472 22.6325 28.3737 23.1868 28.0894 23.4546C28.0315 23.5063 27.3473 23.9103 26.5666 24.3425C25.5691 24.9015 25.1257 25.174 25.0824 25.2586C24.9715 25.47 25.1209 25.7049 25.3619 25.7049C25.5643 25.7049 28.3881 24.1123 28.6098 23.8727C28.9761 23.4781 28.9761 22.7358 28.6146 22.3694L28.499 22.2519L28.9038 20.6782C29.1303 19.8137 29.3375 19.0433 29.3664 18.9728C29.5013 18.6581 29.9061 18.5547 30.1471 18.7708ZM23.9403 29.0169C25.2125 29.3974 26.263 29.7168 26.2726 29.7262C26.2871 29.7356 26.1859 30.088 26.0558 30.5108C25.8582 31.1215 25.7956 31.2671 25.7329 31.2577C25.6317 31.2389 20.7742 29.7967 20.755 29.7779C20.7453 29.7732 20.8513 29.4162 20.9863 28.984L21.2272 28.2041L21.4296 28.2699C21.5356 28.3028 22.6681 28.641 23.9403 29.0169Z" fill="white" stroke="white" stroke-width="0.4"/>
<path d="M18.1759 22C17.9664 22 17.7569 21.9229 17.5915 21.7576L14.2398 18.4077C13.9201 18.0882 13.9201 17.5592 14.2398 17.2397C14.5595 16.9201 15.0888 16.9201 15.4085 17.2397L18.7602 20.5895C19.0799 20.9091 19.0799 21.438 18.7602 21.7576C18.6058 21.9229 18.3964 22 18.1759 22Z" fill="white"/>
<path d="M18 22C17.4533 22 17 21.6542 17 21.2373V10.7627C17 10.3458 17.4533 10 18 10C18.5467 10 19 10.3458 19 10.7627V21.2475C19 21.6644 18.56 22 18 22Z" fill="white"/>
<path d="M25.1759 15C24.9664 15 24.7569 14.9229 24.5915 14.7576L21.2398 11.4077C20.9201 11.0882 20.9201 10.5592 21.2398 10.2397C21.5595 9.92011 22.0888 9.92011 22.4085 10.2397L25.7602 13.5895C26.0799 13.9091 26.0799 14.438 25.7602 14.7576C25.5948 14.9118 25.3853 15 25.1759 15Z" fill="white"/>
<path d="M22 22C21.4533 22 21 21.6542 21 21.2373V10.7627C21 10.3458 21.4533 10 22 10C22.5467 10 23 10.3458 23 10.7627V21.2475C23 21.6644 22.5467 22 22 22Z" fill="white"/>
</g>
<defs>
<clipPath id="clip0_2906_2747">
<rect width="24" height="24" fill="white" transform="translate(8 8.97681)"/>
</clipPath>
</defs>
</svg>
