<svg width="41" height="41" viewBox="0 0 41 41" fill="none" xmlns="http://www.w3.org/2000/svg">
<path d="M40.9634 20.5427C40.9634 30.6439 33.4779 38.9949 23.7537 40.35C22.8445 40.4761 21.9142 40.542 20.97 40.542C19.88 40.542 18.8097 40.4551 17.7673 40.2869C8.24765 38.7538 0.976562 30.4968 0.976562 20.5427C0.976562 9.4969 9.92883 0.541992 20.9714 0.541992C32.0139 0.541992 40.9662 9.4969 40.9662 20.5427H40.9634Z" fill="#1C1C1B"/>
<path d="M9.08577 9.36243L18.307 21.6947L9.02832 31.7217H11.1172L19.2415 22.9433L25.8051 31.7217H32.9123L23.1726 18.6957L31.8097 9.36243H29.7208L22.2396 17.4471L16.1943 9.36243H9.08715H9.08577ZM12.1567 10.9012H15.421L29.8385 30.1829H26.5742L12.1567 10.9012Z" fill="white"/>
</svg>
