<svg width="35" height="22" viewBox="0 0 35 22" fill="none" xmlns="http://www.w3.org/2000/svg">
<path d="M7.41626 0.680176H15.6847C16.839 0.680176 17.5575 1.62125 17.2882 2.78018L13.438 19.3074C13.166 20.4628 12.0109 21.4039 10.8563 21.4039H2.58747C1.43281 21.4039 0.715008 20.4628 0.984327 19.3074L4.83645 2.78018C5.10499 1.62125 6.25927 0.680176 7.41626 0.680176Z" fill="#ED171F"/>
<path d="M14.997 0.680176H24.5064C25.6603 0.680176 25.1399 1.62125 24.8686 2.78018L21.0188 19.3074C20.7499 20.4628 20.8342 21.4039 19.6772 21.4039H10.1686C9.01281 21.4039 8.29695 20.4628 8.56859 19.3074L12.4168 2.78018C12.6889 1.62125 13.8428 0.680176 14.997 0.680176Z" fill="#082F67"/>
<path d="M24.1302 0.680176H32.3974C33.5525 0.680176 34.2703 1.62125 33.9998 2.78018L30.1504 19.3074C29.8799 20.4628 28.7253 21.4039 27.5667 21.4039H19.3018C18.1448 21.4039 17.4282 20.4628 17.6994 19.3074L21.5477 2.78018C21.8185 1.62125 22.9728 0.680176 24.1302 0.680176Z" fill="#006A65"/>
<path fill-rule="evenodd" clip-rule="evenodd" d="M23.2659 5.96418H23.6118L23.6775 5.96562C24.3562 5.9803 24.9261 5.99263 25.2155 6.38871C25.3256 6.54594 25.3728 6.75034 25.3728 6.95474C25.3728 7.12769 25.3413 7.28493 25.3099 7.41071C25.1841 7.9453 24.9168 8.40126 24.508 8.7C23.9105 9.14025 23.1401 9.14025 22.464 9.14025H22.4011C22.3539 9.1717 22.3068 9.23459 22.3068 9.23459C22.3068 9.26604 22.1495 9.91068 22.1495 9.91068C22.1495 9.91068 21.9609 10.8069 21.9294 10.9484C21.8036 10.9327 21.4734 10.9327 20.703 10.9484C20.7344 10.7912 21.5049 7.63083 21.5049 7.63083L21.8193 6.13714L21.8665 5.94846C22.008 5.96418 22.3697 5.97991 23.2659 5.96418ZM23.5017 8.25976C23.7847 8.13397 23.9891 7.85096 24.0678 7.52077C24.1464 7.15914 24.0363 6.87612 23.769 6.76606C23.7533 6.76606 23.0457 6.70317 23.0457 6.70317L22.9042 6.68745V6.75034L22.8885 6.82895L22.5426 8.30693L22.5269 8.38554H22.7156C22.9986 8.38554 23.2816 8.36982 23.5017 8.25976Z" fill="white"/>
<path d="M8.36034 5.97983C8.3289 6.12134 7.76287 8.76282 7.76287 8.76282C7.63708 9.29741 7.54274 9.67476 7.244 9.92633C7.07105 10.0678 6.86665 10.1307 6.6308 10.1307C6.25344 10.1307 6.03332 9.94206 6.00187 9.59615L5.98615 9.47036L6.09621 8.7471C6.09621 8.7471 6.69369 6.34146 6.80375 6.027C6.80375 6.01128 6.81948 5.99556 6.81948 5.99556C5.65597 6.01128 5.43584 5.99556 5.43584 5.97983C5.43584 6.01128 5.4044 6.15279 5.4044 6.15279L4.79119 8.85716L4.74402 9.09301L4.64969 9.84772C4.64969 10.0678 4.69685 10.2565 4.77547 10.4137C5.05849 10.9012 5.84464 10.9798 6.30061 10.9798C6.88237 10.9798 7.41696 10.854 7.79431 10.6339C8.41252 10.272 8.58248 9.70767 8.73405 9.20439L8.75342 9.14018L8.81631 8.87288C8.81631 8.87288 9.42952 6.37291 9.53958 6.04272V6.01128C9.34476 6.00767 9.1814 6.00489 9.04437 6.00256C8.58419 5.99473 8.42092 5.99195 8.36034 5.97983Z" fill="white"/>
<path fill-rule="evenodd" clip-rule="evenodd" d="M25.4042 12.8823L24.398 16.1999H24.6652L24.5656 16.5372L24.5866 16.4672H24.8696C24.9482 16.4672 25.0111 16.4357 25.074 16.4043C25.1212 16.3885 25.1684 16.3571 25.2313 16.2785L25.9702 15.2408H24.9797L25.1526 14.6747H26.2847L26.4419 14.1559H25.3256L25.5143 13.5112H28.6274L28.4388 14.1559H27.401L27.2281 14.6747H28.2815L28.1086 15.2408H26.9765L26.7721 15.4766H27.2281L27.3382 16.1999C27.3434 16.2261 27.3469 16.247 27.3498 16.2645C27.3556 16.2994 27.3591 16.3204 27.3696 16.3414C27.3853 16.3728 27.5268 16.3885 27.6054 16.3885H27.747L27.5426 17.0804H26.9451C26.8738 17.0702 26.8223 17.0402 26.7735 17.0118C26.747 16.9964 26.7212 16.9814 26.6935 16.9703C26.6306 16.9388 26.5363 16.8602 26.5048 16.7187L26.3948 15.9955L25.8759 16.703C25.7187 16.9231 25.4985 17.0961 25.1212 17.0961H24.3979L24.4592 16.8917H24.1936L24.1307 17.1118H23.1716L23.2344 16.8917H21.2848L21.4892 16.2628H21.6779L22.9043 12.2062H23.8791L23.769 12.5521C23.769 12.5521 24.0363 12.3635 24.2722 12.3006C24.481 12.2484 25.4914 12.2178 25.8288 12.209L25.8287 12.2062H26.8664L26.8822 12.5993C26.8822 12.6622 26.9293 12.6936 27.0551 12.6936H27.2752L27.0866 13.3383H26.5205C26.0331 13.3697 25.8444 13.1653 25.8602 12.9295L25.8426 12.5247L25.7344 12.8823H25.4042ZM22.6684 16.2156H23.4388L23.6747 15.4766H22.8885L22.6684 16.2156ZM23.2973 14.1402L23.03 15.0207C23.03 15.0207 23.3288 14.8634 23.486 14.8163C23.6432 14.7848 23.8948 14.7534 23.8948 14.7534L24.0835 14.1402H23.2973ZM23.6747 12.8823L23.4231 13.7314C23.4231 13.7314 23.7061 13.6056 23.8634 13.5584C24.0206 13.5112 24.2564 13.4955 24.2564 13.4955L24.4451 12.8823H23.6747Z" fill="white"/>
<path d="M15.1056 13.6842H17.7314L17.5427 14.3131H16.4892L16.332 14.8477H17.4012L17.2125 15.4924H16.1433L15.876 16.3571C15.8446 16.4515 16.1276 16.4672 16.2377 16.4672L16.7722 16.3886L16.5521 17.1119H15.3414C15.2668 17.1119 15.202 17.102 15.1236 17.0901C15.103 17.087 15.0814 17.0837 15.0584 17.0804C14.9641 17.0647 14.9169 17.0018 14.8698 16.9389C14.8619 16.9258 14.8535 16.9135 14.8454 16.9015C14.8046 16.8415 14.7676 16.7868 14.8069 16.6559L15.1528 15.5081H14.5553L14.744 14.8477H15.3414L15.4987 14.3131H14.9012L15.1056 13.6842Z" fill="white"/>
<path d="M17.9357 12.5521H16.8665L17.0238 12.2062H15.9546L15.6873 12.6936C15.6244 12.8037 15.5772 12.8666 15.5301 12.898C15.4986 12.9138 15.42 12.9295 15.2942 12.9295H15.1527L14.964 13.5584H15.4357C15.6716 13.5584 15.8445 13.4798 15.9232 13.4326C15.953 13.4227 15.9766 13.4174 15.9969 13.4129C16.0406 13.4033 16.0689 13.397 16.1118 13.354L16.2691 13.2125H17.747L17.9357 12.5521Z" fill="white"/>
<path fill-rule="evenodd" clip-rule="evenodd" d="M18.4074 12.2062H19.3194L19.1936 12.6622C19.1936 12.6622 19.4766 12.4264 19.681 12.3477C19.8854 12.2691 20.3414 12.2062 20.3414 12.2062H21.8194L21.3162 13.8886C21.2219 14.1716 21.1275 14.3603 21.0647 14.4546C21.0018 14.549 20.9389 14.6119 20.8131 14.6905C20.6873 14.7534 20.5772 14.8005 20.4672 14.8005C20.3729 14.8163 20.2157 14.8163 20.0114 14.8163H18.5804L18.1716 16.1527C18.1643 16.1821 18.1569 16.208 18.1504 16.2311C18.1289 16.307 18.116 16.3524 18.1402 16.3886C18.1559 16.42 18.203 16.4515 18.2817 16.4515L18.9106 16.3886L18.6905 17.1276H17.9829C17.7628 17.1276 17.5898 17.1276 17.4798 17.1118C17.4489 17.1074 17.418 17.1055 17.3878 17.1036C17.3104 17.0987 17.2376 17.0942 17.181 17.0489C17.1723 17.0402 17.163 17.0312 17.1535 17.022C17.0939 16.9643 17.0238 16.8965 17.0238 16.8288C17.0238 16.7549 17.0516 16.6533 17.0941 16.4977L17.1024 16.4672L18.4074 12.2062ZM18.942 13.637C18.942 13.637 19.2408 13.3697 19.7439 13.2754C19.854 13.2597 20.5772 13.2597 20.5772 13.2597L20.6873 12.898H19.1622L18.942 13.637ZM20.3571 13.9043H18.8477L18.7534 14.2031H20.0584C20.1842 14.1905 20.2294 14.198 20.2506 14.2016C20.2559 14.2024 20.2596 14.2031 20.2628 14.2031L20.3571 13.9043Z" fill="white"/>
<path d="M21.0017 15.3351L21.0803 14.9263H20.3885L20.2941 15.2093C20.2784 15.2564 20.2627 15.2879 20.2312 15.3036C20.1998 15.3193 20.1369 15.3351 20.074 15.3351H19.8539L19.8696 14.9734H18.9734L18.9419 16.7501C18.9419 16.8759 18.9577 16.9545 19.052 17.0174C19.1463 17.096 19.4294 17.1118 19.8224 17.1118H20.3885L20.5929 16.4357L20.1055 16.4671L19.9482 16.4828C19.9417 16.4763 19.9352 16.4725 19.9276 16.468C19.9168 16.4617 19.9037 16.4541 19.8853 16.4357C19.8811 16.4273 19.8759 16.4223 19.8703 16.417C19.8551 16.4026 19.8382 16.3865 19.8382 16.2942V15.8382L20.3413 15.8067C20.6086 15.8067 20.7344 15.7124 20.8287 15.6338C20.9388 15.5552 20.9702 15.4608 21.0017 15.3351Z" fill="white"/>
<path d="M10.7345 10.9484C11.222 10.9327 11.3792 10.9327 11.788 10.9327L11.8352 10.8855C11.8851 10.5484 11.9152 10.3997 11.9885 10.0378C12.0075 9.94396 12.0294 9.83578 12.0553 9.70627L12.1182 9.42326L12.1225 9.40331C12.2454 8.835 12.3058 8.55577 12.2125 8.32264C12.1025 8.05535 11.8509 7.99245 11.6308 7.99245C11.4735 7.99245 11.2062 8.0239 10.9547 8.14968C10.9154 8.17327 10.8721 8.19685 10.8289 8.22044C10.7856 8.24402 10.7424 8.26761 10.7031 8.29119L10.7817 8.00818L10.7345 7.96101C10.2286 8.06833 10.0964 8.08595 9.65278 8.14507L9.6182 8.14968L9.58676 8.18113L9.58547 8.19044C9.52321 8.64184 9.4753 8.98923 9.27229 9.89495C9.23299 10.06 9.19368 10.2291 9.15437 10.3981C9.11508 10.567 9.07574 10.7362 9.03645 10.9012L9.05217 10.9484C9.53959 10.9327 9.69682 10.9327 10.1213 10.9327L10.1528 10.9012C10.1788 10.784 10.1941 10.7045 10.212 10.6115C10.2373 10.4798 10.2678 10.3208 10.3415 9.98929C10.3616 9.89879 10.3865 9.77773 10.4132 9.64823C10.4699 9.37278 10.5345 9.05915 10.5773 8.92012C10.6874 8.87295 10.7974 8.82578 10.8918 8.82578C11.1276 8.82578 11.1119 9.0459 11.0962 9.12452C11.0805 9.26603 11.0018 9.722 10.9075 10.1151L10.8446 10.3666C10.8185 10.5236 10.7814 10.6696 10.7426 10.8229C10.7347 10.8539 10.7268 10.8852 10.7188 10.917L10.7345 10.9484Z" fill="white"/>
<path d="M13.4703 10.9327H12.9043C12.8323 10.9327 12.7602 10.936 12.6822 10.9395C12.5898 10.9438 12.489 10.9484 12.3697 10.9484L12.3382 10.9169C12.4011 10.6811 12.4326 10.5867 12.464 10.5081C12.4955 10.4295 12.5269 10.3352 12.5741 10.0993C12.6527 9.78486 12.6999 9.56474 12.7313 9.36034C12.747 9.266 12.7588 9.17953 12.7706 9.09305C12.7824 9.00657 12.7942 8.9201 12.8099 8.82576L12.8414 8.79431C12.9615 8.7793 13.0601 8.76428 13.1475 8.75098C13.2431 8.73642 13.3253 8.72391 13.4074 8.7157C13.5646 8.69997 13.7376 8.66852 13.9892 8.60563L14.0049 8.62136V8.63708C13.9813 8.73929 13.9577 8.83757 13.9341 8.93585C13.9106 9.03411 13.887 9.13237 13.8634 9.23456C13.8398 9.33677 13.8162 9.43505 13.7926 9.53333C13.769 9.63159 13.7455 9.72985 13.7219 9.83204C13.6275 10.2566 13.5961 10.3981 13.5646 10.5239C13.5573 10.5754 13.5499 10.6166 13.5409 10.6668C13.5307 10.7239 13.5185 10.7925 13.5018 10.9012L13.4703 10.9327Z" fill="white"/>
<path fill-rule="evenodd" clip-rule="evenodd" d="M17.0867 8.38549C17.2282 8.57416 17.3383 8.87291 17.1968 9.50183C17.1496 9.69051 17.0238 10.1622 16.7565 10.4609C16.3949 10.854 15.9075 10.9798 15.4358 10.9798C15.2471 10.9798 14.9641 10.9484 14.7597 10.8697C14.115 10.6024 14.2094 9.91063 14.3037 9.51755C14.3823 9.1402 14.5396 8.74712 14.854 8.44838C15.2943 8.03958 15.8603 8.02386 16.0961 8.02386C16.4892 8.02386 16.8666 8.10247 17.0867 8.38549ZM16.0921 9.54667C16.1001 9.51493 16.1066 9.48873 16.1119 9.47038C16.2219 8.98296 16.2062 8.6685 15.9389 8.69995C15.6087 8.69995 15.4829 9.09303 15.3729 9.58044C15.3683 9.60565 15.3637 9.63019 15.3592 9.6542C15.3329 9.79494 15.31 9.91785 15.31 10.0521C15.31 10.3509 15.5144 10.3509 15.5458 10.3509C15.6716 10.3509 15.766 10.2723 15.8603 10.1465C15.9782 10.0023 16.0525 9.70536 16.0921 9.54667Z" fill="white"/>
<path fill-rule="evenodd" clip-rule="evenodd" d="M27.3224 10.9798C26.8193 10.9798 26.6778 10.9798 26.2061 10.9956L26.1746 10.9641L26.2248 10.7758C26.0537 10.919 25.8693 11.0174 25.6715 11.027C25.4986 11.027 25.3099 10.9955 25.1055 10.9169C24.4609 10.6654 24.5552 9.95782 24.6495 9.58047C24.7282 9.20312 24.8854 8.81004 25.1999 8.5113C25.6558 8.11822 26.1747 8.00816 26.3948 8.08677C26.558 8.15022 26.6676 8.25024 26.7443 8.36838L26.7564 8.27546L26.7878 8.24401C26.8913 8.22785 26.9787 8.21435 27.057 8.20227C27.3592 8.15562 27.5235 8.13027 27.9356 8.05533L27.9513 8.1025L27.6683 9.28174C27.5209 9.92052 27.4503 10.3194 27.3889 10.6657L27.3888 10.6668C27.3717 10.7634 27.3553 10.8559 27.3381 10.9484L27.3224 10.9798ZM26.6167 9.15741C26.6127 8.88724 26.4935 8.73142 26.3005 8.73142C25.9703 8.73142 25.8445 9.14022 25.7344 9.61192L25.7258 9.65911C25.6975 9.81358 25.6715 9.95508 25.6715 10.0836C25.6715 10.3823 25.876 10.3823 25.9074 10.3823C26.0332 10.3823 26.2376 10.3195 26.3162 10.1937C26.3638 10.1282 26.4069 10.0291 26.4437 9.92593C26.4755 9.796 26.5065 9.66523 26.5363 9.53331C26.5682 9.39133 26.5945 9.26778 26.6167 9.15741Z" fill="white"/>
<path d="M20.0269 10.9327C19.6024 10.9327 19.4608 10.9327 18.9892 10.9484L18.9734 10.917C18.9814 10.8852 18.9893 10.8539 18.9972 10.8229C19.036 10.6697 19.0731 10.5236 19.0992 10.3666L19.1621 10.1151C19.2564 9.722 19.3351 9.26603 19.3508 9.12452C19.3665 9.0459 19.3822 8.82578 19.1464 8.82578C19.052 8.82578 18.942 8.87295 18.8319 8.92012C18.7891 9.05915 18.7245 9.37276 18.6678 9.64819C18.6411 9.77769 18.6162 9.89879 18.5961 9.98929C18.497 10.4353 18.4759 10.5689 18.4484 10.744C18.441 10.7911 18.4331 10.8412 18.4231 10.9012L18.3917 10.9327C17.9672 10.9327 17.8099 10.9327 17.3225 10.9484L17.3068 10.9012C17.3461 10.7361 17.3854 10.5671 17.4247 10.3981C17.464 10.2291 17.5033 10.06 17.5426 9.89495C17.7456 8.98923 17.7935 8.64185 17.8558 8.19044L17.8571 8.18113L17.8885 8.14968L17.9231 8.14507C18.3667 8.08595 18.4989 8.06833 19.0049 7.96101L19.052 8.00818L18.9734 8.29119C19.0127 8.26761 19.056 8.24402 19.0992 8.22044C19.1425 8.19685 19.1857 8.17327 19.225 8.14968C19.4766 8.0239 19.7439 7.99245 19.8854 7.99245C20.1055 7.99245 20.3571 8.05535 20.4671 8.32264C20.5604 8.55577 20.5 8.835 20.3771 9.40329L20.3728 9.42326L20.3099 9.70627C20.1971 10.2077 20.1642 10.3893 20.1157 10.6575C20.1033 10.7257 20.09 10.7995 20.0741 10.8855L20.0269 10.9327Z" fill="white"/>
<path d="M31.4261 8.05529L31.379 8.00812C30.8601 8.11818 30.7815 8.13391 30.3098 8.1968L30.2783 8.22824V8.24397C30.0936 8.6723 30.0075 8.82249 29.9243 8.96771C29.8517 9.09436 29.7813 9.21724 29.6494 9.51754V9.43892L29.5865 8.05529L29.5394 8.00812C29.4151 8.0337 29.3189 8.05418 29.2383 8.07135C28.972 8.12803 28.8758 8.14853 28.5016 8.1968L28.4702 8.22824C28.4702 8.24397 28.4702 8.25969 28.4545 8.27542C28.5017 8.5117 28.5046 8.53493 28.5298 8.73865C28.5381 8.80605 28.5489 8.89322 28.5645 9.0144C28.5802 9.14018 28.596 9.26204 28.6117 9.38389C28.6274 9.50575 28.6431 9.6276 28.6589 9.75339C28.6755 9.89761 28.6902 10.0144 28.705 10.1322C28.7321 10.3482 28.7597 10.5672 28.8004 10.9641C28.6746 11.1736 28.5854 11.3353 28.5049 11.4812C28.3738 11.7185 28.2658 11.9141 28.0614 12.2062L28.0771 12.2534C28.5645 12.2376 28.6746 12.2376 29.0362 12.2376L29.1148 12.1433C29.3664 11.593 31.4261 8.05529 31.4261 8.05529Z" fill="white"/>
<path d="M14.005 7.8037C14.2408 7.92949 14.2094 8.19678 13.9263 8.38545C13.6433 8.57413 13.2345 8.6213 12.9987 8.49552C12.7628 8.35401 12.7943 8.08671 13.0773 7.89804C13.3603 7.70936 13.7691 7.66219 14.005 7.8037Z" fill="white"/>
</svg>
