<svg width="40" height="41" viewBox="0 0 40 41" fill="none" xmlns="http://www.w3.org/2000/svg">
<rect y="0.976807" width="40" height="40" rx="10" fill="white"/>
<g clip-path="url(#clip0_2906_2733)">
<g clip-path="url(#clip1_2906_2733)">
<path fill-rule="evenodd" clip-rule="evenodd" d="M22.256 8.99778C22.0573 9.00094 21.8681 9.08279 21.7297 9.22538C21.5913 9.36796 21.5152 9.55962 21.518 9.75828V11.9933H19.271C19.1727 11.9931 19.0754 12.0123 18.9846 12.0499C18.8937 12.0874 18.8112 12.1426 18.7418 12.2122C18.6724 12.2817 18.6174 12.3643 18.58 12.4552C18.5426 12.5461 18.5236 12.6435 18.524 12.7418V15.4403C19.151 15.4238 20.021 16.0133 20.021 16.0133V13.4918H22.091C22.2059 13.5193 22.3256 13.5193 22.4405 13.4918H28.0805C28.1949 13.5191 28.3141 13.5191 28.4285 13.4918H30.503V20.9768H24.9665C25.3865 21.4073 25.403 21.9638 25.526 22.4768H31.25C31.4489 22.4768 31.6397 22.3978 31.7803 22.2571C31.921 22.1165 32 21.9257 32 21.7268V12.7418C31.9998 12.6435 31.9802 12.5462 31.9425 12.4555C31.9047 12.3647 31.8494 12.2823 31.7797 12.2129C31.7101 12.1436 31.6274 12.0886 31.5366 12.0512C31.4457 12.0137 31.3483 11.9946 31.25 11.9948H29.006V9.75978C29.0076 9.65926 28.989 9.55945 28.9513 9.46627C28.9136 9.37308 28.8575 9.28843 28.7864 9.21735C28.7153 9.14627 28.6307 9.0902 28.5375 9.05248C28.4443 9.01476 28.3445 8.99616 28.244 8.99778C28.0453 9.00094 27.8561 9.08279 27.7177 9.22538C27.5793 9.36796 27.5032 9.55962 27.506 9.75828V11.9933H23.018V9.75978C23.0194 9.65939 23.0007 9.55974 22.9629 9.46673C22.925 9.37372 22.8689 9.28925 22.7979 9.21833C22.7268 9.14741 22.6422 9.09147 22.5492 9.05384C22.4561 9.01622 22.3564 8.99616 22.256 8.99778ZM21.518 14.9888V16.4858H23.015V14.9888H21.518ZM24.512 14.9888V16.4858H26.012V14.9888H24.512ZM27.509 14.9888V16.4858H29.006V14.9888H27.509ZM16.238 16.4768C14.0536 16.48 11.9596 17.3493 10.4153 18.8942C8.87098 20.4391 8.00238 22.5334 8 24.7178C8.00238 26.9019 8.87108 28.9959 10.4155 30.5403C11.9599 32.0847 14.0539 32.9534 16.238 32.9558C18.4224 32.9534 20.5167 32.0848 22.0616 30.5405C23.6065 28.9962 24.4758 26.9022 24.479 24.7178C24.4758 22.5331 23.6066 20.4388 22.0618 18.894C20.517 17.3492 18.4227 16.48 16.238 16.4768ZM16.238 17.9738C17.124 17.9724 18.0016 18.1459 18.8205 18.4843C19.6393 18.8227 20.3833 19.3195 21.0098 19.946C21.6363 20.5725 22.133 21.3165 22.4715 22.1353C22.8099 22.9542 22.9834 23.8318 22.982 24.7178C22.9834 25.6037 22.8099 26.4811 22.4714 27.2998C22.1329 28.1185 21.6362 28.8623 21.0096 29.4885C20.3831 30.1148 19.6391 30.6112 18.8202 30.9493C18.0014 31.2874 17.1239 31.4606 16.238 31.4588C15.3523 31.4606 14.4749 31.2874 13.6562 30.9493C12.8376 30.6111 12.0937 30.1147 11.4674 29.4884C10.8411 28.862 10.3446 28.1182 10.0065 27.2995C9.66837 26.4809 9.49522 25.6035 9.497 24.7178C9.49522 23.8319 9.66835 22.9544 10.0064 22.1356C10.3445 21.3167 10.841 20.5727 11.4672 19.9461C12.0935 19.3196 12.8373 18.8228 13.656 18.4844C14.4747 18.1459 15.3521 17.9724 16.238 17.9738ZM24.512 17.9828V19.4798H26.012V17.9828H24.512ZM27.509 17.9828V19.4798H29.006V17.9828H27.509ZM16.229 18.9698C16.1305 18.9713 16.0333 18.9923 15.9429 19.0314C15.8525 19.0706 15.7707 19.1271 15.7022 19.1979C15.6336 19.2687 15.5797 19.3522 15.5435 19.4438C15.5072 19.5354 15.4894 19.6333 15.491 19.7318V24.7178C15.491 24.9167 15.57 25.1075 15.7107 25.2481C15.8513 25.3888 16.0421 25.4678 16.241 25.4678H20.759C20.9579 25.4678 21.1487 25.3888 21.2893 25.2481C21.43 25.1075 21.509 24.9167 21.509 24.7178C21.509 24.5189 21.43 24.3281 21.2893 24.1874C21.1487 24.0468 20.9579 23.9678 20.759 23.9678H16.991V19.7318C16.9926 19.6313 16.974 19.5314 16.9363 19.4383C16.8986 19.3451 16.8425 19.2604 16.7714 19.1894C16.7003 19.1183 16.6157 19.0622 16.5225 19.0245C16.4293 18.9868 16.3295 18.9682 16.229 18.9698Z" fill="black"/>
</g>
</g>
<defs>
<clipPath id="clip0_2906_2733">
<rect width="24" height="24" fill="white" transform="translate(8 8.97681)"/>
</clipPath>
<clipPath id="clip1_2906_2733">
<rect width="24" height="24" fill="white" transform="translate(8 8.97681)"/>
</clipPath>
</defs>
</svg>
