<svg width="198" height="23" viewBox="0 0 198 23" fill="none" xmlns="http://www.w3.org/2000/svg">
<path d="M190.84 10.104C188.975 10.5029 187.177 10.8353 185.312 11.2341C183.248 11.6994 181.183 12.1647 179.119 12.763C176.721 13.4277 174.324 14.159 171.859 14.9566C170.128 15.4884 168.396 16.1532 166.665 16.685C165.799 16.9509 164.866 17.1503 163.934 17.3497C163.201 17.4827 162.536 17.6821 161.803 17.815C161.603 17.815 161.337 17.815 161.137 17.815C161.204 17.5491 161.337 17.2168 161.403 16.9509C161.47 16.6185 161.603 16.3526 161.67 16.0202C161.936 15.0896 162.203 14.0925 162.469 13.1618C162.602 12.4971 162.735 11.8324 162.869 11.2341C162.935 10.9017 162.935 10.5694 162.935 10.1705C162.935 9.83815 162.868 9.50578 162.802 9.17341C162.735 8.64162 162.469 8.04335 162.203 7.57804C162.003 7.31214 161.803 7.04624 161.47 6.84682C161.137 6.6474 160.804 6.51445 160.471 6.44798C160.205 6.3815 159.872 6.3815 159.539 6.31503C159.272 6.31503 158.939 6.31503 158.673 6.31503C157.94 6.3815 157.208 6.58092 156.475 6.84682C155.942 7.04624 155.409 7.17919 154.81 7.31214C153.878 7.57803 152.945 7.84393 152.013 8.1763C150.015 8.84104 148.017 9.43931 146.019 10.1705C143.555 11.0347 141.157 11.8988 138.693 12.763C136.429 13.5607 134.164 14.3584 131.9 15.0231C130.501 15.4884 129.103 15.8208 127.638 16.2197C126.239 16.6185 124.774 16.9509 123.309 17.1503C121.843 17.3497 120.312 17.4162 118.78 17.2832C118.314 17.2168 117.848 17.0838 117.448 16.9509C117.182 16.8179 116.915 16.685 116.649 16.4855C116.449 16.2861 116.249 16.1532 116.049 15.9538C115.983 15.8873 115.916 15.7543 115.916 15.6879C115.783 15.289 115.716 14.8237 115.65 14.4249C115.583 13.6272 115.583 12.8295 115.583 12.0983C115.583 11.3671 115.583 10.6358 115.517 9.90462C115.517 8.77457 115.45 7.71098 115.317 6.58093C115.117 5.18497 114.851 3.72254 114.051 2.45954C113.852 2.19364 113.652 1.92775 113.385 1.66185C113.119 1.39595 112.853 1.19653 112.586 0.99711C112.053 0.598266 111.454 0.33237 110.855 0.132948C110.522 0.066474 110.189 0.066474 109.856 0C109.789 0 109.722 0 109.656 0C109.389 0 109.19 4.9527e-09 108.923 0.066474C108.124 0.132948 107.325 0.265896 106.526 0.465318C105.793 0.66474 105.127 0.930636 104.395 1.19653C103.729 1.46243 102.996 1.66185 102.33 1.92775C100.865 2.45954 99.3996 3.12428 97.9344 3.78902C96.6024 4.38728 95.2705 5.05202 93.9385 5.71676C93.2059 6.11561 92.4733 6.44798 91.7407 6.84682C90.6085 7.44509 89.5429 8.04335 88.4108 8.64162C86.7458 9.57225 85.0142 10.5029 83.3492 11.4335C81.4845 12.4971 79.5531 13.5607 77.6883 14.5578C75.3573 15.8873 72.8932 17.1503 70.429 18.2139C69.43 18.6127 68.431 19.0116 67.4321 19.3439C66.4331 19.6763 65.4341 20.0087 64.3685 20.1416C63.5693 20.2081 62.7701 20.2746 61.9043 20.2081C61.6379 20.1416 61.3715 20.0751 61.1051 20.0087C60.9719 19.9422 60.7722 19.8092 60.639 19.7428C60.4392 19.5434 60.306 19.4104 60.1062 19.211C60.0396 19.1445 60.0396 19.078 59.973 19.0116C59.8398 18.5462 59.7066 18.0145 59.64 17.5491C59.5734 16.8179 59.5068 16.0867 59.5068 15.3555C59.4402 14.6243 59.3736 13.8931 59.3736 13.2283C59.307 12.0983 59.1738 10.9017 58.974 9.77168C58.8408 9.10694 58.641 8.50867 58.4412 7.84393C58.1748 7.11272 57.9084 6.44798 57.5088 5.78324C57.1758 5.25145 56.7096 4.78613 56.31 4.32081C55.8438 3.85549 55.2444 3.45665 54.7116 3.12428C54.3786 2.72543 53.7792 2.52601 53.1133 2.32659C52.3141 2.06069 51.5149 1.99422 50.7157 1.92775C47.5855 1.66185 44.4554 2.32659 41.4584 2.99133C38.3283 3.65607 35.2647 4.52023 32.2678 5.45087C30.8692 5.84971 29.5372 6.24856 28.1386 6.71387C26.0074 7.51156 23.8097 8.30925 21.6785 9.10694C18.1488 10.4364 14.619 11.8988 11.1558 13.3613C10.2235 13.7601 9.29108 14.159 8.35869 14.5578C7.4929 14.8902 6.69371 15.289 5.82792 15.6879C4.02975 16.552 2.29817 17.4162 0.5 18.2803C3.76335 17.3497 6.96011 16.3526 10.1569 15.422C12.7542 14.6908 15.3516 13.9595 17.949 13.1618C20.8127 12.2977 23.6765 11.3671 26.5402 10.4364C27.3394 10.1705 28.2052 9.90462 29.0044 9.57226C30.4696 9.04046 31.9348 8.64162 33.3999 8.1763C35.5977 7.51156 37.7955 6.84682 39.9932 6.24856C41.1254 5.98266 42.191 5.71676 43.3232 5.45087C44.522 5.18497 45.7208 4.91908 46.9861 4.71965C48.5179 4.52023 50.0497 4.45376 51.5815 4.65318C52.1143 4.8526 52.5805 4.98555 53.1133 5.18497C53.5129 5.38439 53.979 5.65029 54.312 5.91619C54.645 6.18208 54.978 6.51445 55.2444 6.78035C55.5108 7.17919 55.7106 7.57803 55.9104 7.97688C56.31 8.97399 56.5764 9.9711 56.7762 10.9682C56.976 12.4971 57.0426 14.0925 57.1758 15.6214C57.1758 15.9538 57.2424 16.2197 57.2424 16.552C57.2424 17.2168 57.3756 17.948 57.4422 18.6127C57.5088 18.9451 57.5754 19.211 57.642 19.5434C57.7086 19.8757 57.8418 20.1416 58.0416 20.4075C58.1748 20.6734 58.4412 20.9393 58.641 21.2052C58.7742 21.4046 58.974 21.5376 59.1072 21.6705C59.307 21.8035 59.4402 21.9364 59.64 22.0694C60.1728 22.4017 60.7721 22.6676 61.3715 22.8006C62.0375 22.9335 62.7035 23 63.3029 23C64.8347 23 66.3665 22.6676 67.7651 22.2688C68.4976 22.0694 69.1636 21.8035 69.8296 21.5376C70.4956 21.2717 71.2282 21.0058 71.8942 20.7399C73.3594 20.0751 74.8246 19.4104 76.2897 18.6792C76.8891 18.3468 77.5551 18.0145 78.1545 17.6821C78.6207 17.4162 79.0203 17.1503 79.4865 16.9509C80.8185 16.2197 82.1504 15.422 83.549 14.6908C85.0808 13.8266 86.6792 12.9624 88.211 12.0983C89.8759 11.1676 91.4743 10.3035 93.1393 9.37283C93.9385 8.90751 94.7377 8.50867 95.6035 8.10983C97.4016 7.17919 99.1998 6.31503 101.065 5.58382C102.263 5.05202 103.462 4.58671 104.728 4.18786C105.926 3.78902 107.192 3.3237 108.457 3.12428C109.056 3.0578 109.589 2.99133 110.122 3.0578C110.189 3.0578 110.255 3.12428 110.388 3.12428C110.588 3.19075 110.721 3.3237 110.855 3.39017C111.054 3.5896 111.254 3.78902 111.454 3.98844C111.587 4.12139 111.654 4.32081 111.787 4.52023C112.053 5.25145 112.187 6.04913 112.32 6.84682C112.453 7.84393 112.453 8.90752 112.453 9.90462C112.453 10.6358 112.453 11.3671 112.453 12.0983C112.453 12.896 112.453 13.6936 112.453 14.5578C112.453 14.8902 112.52 15.289 112.586 15.6214C112.653 15.9538 112.719 16.2197 112.786 16.552C112.853 16.8844 113.052 17.2168 113.186 17.4827C113.252 17.6821 113.385 17.815 113.519 17.948C113.652 18.1474 113.785 18.3468 113.985 18.5462C114.185 18.8121 114.451 18.9451 114.651 19.1445C114.917 19.3439 115.184 19.5434 115.517 19.7428C115.783 19.8757 116.049 20.0087 116.316 20.1416C116.649 20.2746 116.982 20.4075 117.315 20.5405C117.981 20.7399 118.713 20.8064 119.446 20.8728C120.245 20.9393 121.044 20.8728 121.843 20.8728C123.309 20.8064 124.774 20.5405 126.172 20.2746C127.704 19.9422 129.236 19.4769 130.768 19.0116C133.765 18.1474 136.628 17.0838 139.559 16.0202C140.425 15.6879 141.357 15.3555 142.223 15.0231C144.221 14.2919 146.219 13.4942 148.217 12.8295C149.882 12.2312 151.547 11.6329 153.212 11.1012C154.011 10.8353 154.81 10.6358 155.609 10.3699C156.009 10.237 156.475 10.104 156.875 9.9711C157.541 9.77168 158.207 9.57225 158.939 9.43931C159.206 9.43931 159.472 9.43931 159.738 9.43931C159.805 9.43931 159.805 9.43931 159.872 9.43931C159.938 9.63873 159.938 9.77168 160.005 9.9711C160.005 10.237 160.005 10.4364 160.005 10.7023C159.738 12.0318 159.339 13.2948 158.939 14.6243C158.739 15.289 158.54 15.9538 158.273 16.6185C158.207 16.8179 158.14 17.0173 158.007 17.2168C157.874 17.5491 157.874 17.8815 157.874 18.2139C157.874 18.3468 157.94 18.4798 157.94 18.6792C157.94 18.8786 158.007 19.0116 158.073 19.211C158.14 19.5434 158.34 19.8092 158.473 20.1416C158.54 20.2081 158.606 20.2746 158.606 20.341C158.739 20.5405 158.873 20.6734 159.072 20.8064C159.405 21.0723 159.672 21.2052 160.071 21.3382C160.737 21.5376 161.47 21.604 162.136 21.5376C162.802 21.4711 163.468 21.3382 164.134 21.2052C164.733 21.0723 165.399 20.9393 165.999 20.8064C167.53 20.474 168.996 19.9422 170.461 19.4104C173.325 18.3468 176.122 17.2832 178.919 16.1532C182.782 14.5578 186.778 13.0954 190.64 11.6329C191.639 11.2341 192.638 10.8353 193.704 10.5029C194.969 10.0376 196.235 9.50578 197.5 9.10694C195.302 9.17341 193.104 9.63873 190.84 10.104ZM159.738 9.23989C159.805 9.23989 159.805 9.30636 159.872 9.30636C159.805 9.23988 159.738 9.23989 159.738 9.23989ZM161.27 17.8815C161.337 17.8815 161.337 17.8815 161.403 17.948C161.337 17.8815 161.337 17.8815 161.27 17.8815Z" fill="#1E293B"/>
</svg>
