<svg width="39" height="14" viewBox="0 0 39 14" fill="none" xmlns="http://www.w3.org/2000/svg">
<path d="M18.9799 1.13504L16.4459 12.9805H13.3817L15.9161 1.13504H18.9799ZM31.8722 8.78371L33.4854 4.33532L34.4137 8.78371H31.8722ZM35.291 12.9805H38.1254L35.6521 1.13504H33.0359C32.448 1.13504 31.952 1.47696 31.7312 2.00409L27.134 12.9805H30.3519L30.9907 11.2117H34.9221L35.291 12.9805ZM27.2937 9.11289C27.3068 5.98646 22.9702 5.81437 23.0002 4.41781C23.0092 3.99228 23.4144 3.54088 24.2996 3.42503C24.7394 3.36767 25.9485 3.3238 27.3214 3.95553L27.8591 1.44359C27.1216 1.1759 26.1727 0.918335 24.9925 0.918335C21.9639 0.918335 19.8321 2.5286 19.8141 4.83434C19.795 6.53946 21.3359 7.491 22.497 8.05787C23.6908 8.63862 24.0919 9.01053 24.0867 9.52979C24.0788 10.325 23.1344 10.6752 22.2533 10.689C20.7124 10.7134 19.8182 10.2733 19.1055 9.94108L18.5503 12.5366C19.266 12.8654 20.5876 13.1511 21.9586 13.1657C25.1773 13.1657 27.2832 11.5753 27.2937 9.11289ZM14.6013 1.13504L9.63665 12.9805H6.397L3.95405 3.527C3.80558 2.94476 3.67661 2.73181 3.22558 2.48624C2.48962 2.08695 1.27302 1.71166 0.202637 1.47921L0.275745 1.13504H5.4897C6.15405 1.13504 6.75204 1.57744 6.90276 2.34264L8.19322 9.19762L11.3819 1.13504H14.6013Z" fill="white"/>
</svg>
